M48
; DRILL file {KiCad (6.0.2)} date Wed Jan 28 07:44:39 2026
; FORMAT={-:-/ absolute / inch / decimal}
; #@! TF.CreationDate,2026-01-28T07:44:39-08:00
; #@! TF.GenerationSoftware,Kicad,Pcbnew,(6.0.2)
; #@! TF.FileFunction,Plated,1,2,PTH
FMAT,2
INCH
; #@! TA.AperFunction,Plated,PTH,ViaDrill
T1C0.0157
; #@! TA.AperFunction,Plated,PTH,ComponentDrill
T2C0.0315
%
G90
G05
T1
X5.225Y-3.1375
X5.425Y-3.1
X5.425Y-3.175
X5.425Y-3.45
X5.525Y-2.925
X5.525Y-3.525
X5.6Y-3.575
X5.675Y-2.925
X5.75Y-3.525
X5.775Y-3.575
X5.8465Y-3.775
X5.85Y-2.925
X5.85Y-3.575
X5.875Y-3.225
X5.92Y-3.225
X5.9296Y-3.7704
X5.965Y-3.225
X6.0Y-3.575
X6.025Y-3.9
X6.075Y-3.05
X6.075Y-3.1
X6.075Y-3.4
X6.2625Y-3.1375
T2
X5.0606Y-2.7776
X5.0606Y-2.8563
X5.0606Y-2.935
X5.0606Y-3.0138
X5.0606Y-3.0925
X5.0606Y-3.1713
X5.0606Y-3.25
X5.0606Y-3.3287
X5.0606Y-3.4075
X5.0606Y-3.4862
X5.0606Y-3.565
X5.0606Y-3.6437
X5.0606Y-3.7224
X5.1394Y-2.7776
X5.1394Y-2.8563
X5.1394Y-2.935
X5.1394Y-3.0138
X5.1394Y-3.0925
X5.1394Y-3.1713
X5.1394Y-3.25
X5.1394Y-3.3287
X5.1394Y-3.4075
X5.1394Y-3.4862
X5.1394Y-3.565
X5.1394Y-3.6437
X5.1394Y-3.7224
X5.2776Y-2.5606
X5.2776Y-2.6394
X5.2776Y-3.8606
X5.2776Y-3.9394
X5.3563Y-2.5606
X5.3563Y-2.6394
X5.3563Y-3.8606
X5.3563Y-3.9394
X5.435Y-2.5606
X5.435Y-2.6394
X5.435Y-3.8606
X5.435Y-3.9394
X5.5138Y-2.5606
X5.5138Y-2.6394
X5.5138Y-3.8606
X5.5138Y-3.9394
X5.5925Y-2.5606
X5.5925Y-2.6394
X5.5925Y-3.8606
X5.5925Y-3.9394
X5.6713Y-2.5606
X5.6713Y-2.6394
X5.6713Y-3.8606
X5.6713Y-3.9394
X5.75Y-2.5606
X5.75Y-2.6394
X5.75Y-3.8606
X5.75Y-3.9394
X5.8287Y-2.5606
X5.8287Y-2.6394
X5.8287Y-3.8606
X5.8287Y-3.9394
X5.9075Y-2.5606
X5.9075Y-2.6394
X5.9075Y-3.8606
X5.9075Y-3.9394
X5.9862Y-2.5606
X5.9862Y-2.6394
X5.9862Y-3.8606
X5.9862Y-3.9394
X6.065Y-2.5606
X6.065Y-2.6394
X6.065Y-3.8606
X6.065Y-3.9394
X6.1437Y-2.5606
X6.1437Y-2.6394
X6.1437Y-3.8606
X6.1437Y-3.9394
X6.2224Y-2.5606
X6.2224Y-2.6394
X6.2224Y-3.8606
X6.2224Y-3.9394
X6.3606Y-2.7776
X6.3606Y-2.8563
X6.3606Y-2.935
X6.3606Y-3.0138
X6.3606Y-3.0925
X6.3606Y-3.1713
X6.3606Y-3.25
X6.3606Y-3.3287
X6.3606Y-3.4075
X6.3606Y-3.4862
X6.3606Y-3.565
X6.3606Y-3.6437
X6.3606Y-3.7224
X6.4394Y-2.7776
X6.4394Y-2.8563
X6.4394Y-2.935
X6.4394Y-3.0138
X6.4394Y-3.0925
X6.4394Y-3.1713
X6.4394Y-3.25
X6.4394Y-3.3287
X6.4394Y-3.4075
X6.4394Y-3.4862
X6.4394Y-3.565
X6.4394Y-3.6437
X6.4394Y-3.7224
T0
M30
