%TF.GenerationSoftware,KiCad,Pcbnew,(6.0.2)*%
%TF.CreationDate,2026-01-28T08:29:43-08:00*%
%TF.ProjectId,i386sx-socket,69333836-7378-42d7-936f-636b65742e6b,1.0*%
%TF.SameCoordinates,Original*%
%TF.FileFunction,Legend,Top*%
%TF.FilePolarity,Positive*%
%FSLAX46Y46*%
G04 Gerber Fmt 4.6, Leading zero omitted, Abs format (unit mm)*
G04 Created by KiCad (PCBNEW (6.0.2)) date 2026-01-28 08:29:43*
%MOMM*%
%LPD*%
G01*
G04 APERTURE LIST*
%ADD10C,0.150000*%
%ADD11C,0.120000*%
G04 APERTURE END LIST*
D10*
X163195000Y-99060000D02*
X162877500Y-99377500D01*
X163195000Y-98425000D02*
X163195000Y-99060000D01*
X163195000Y-98425000D02*
X164147500Y-99377500D01*
X162877500Y-99377500D02*
X162242500Y-98742500D01*
X162242500Y-98107500D02*
X162242500Y-98742500D01*
X163195000Y-99060000D02*
X163195000Y-98742500D01*
X164147500Y-99377500D02*
X163512500Y-99377500D01*
X127635000Y-67310000D02*
X127635000Y-66040000D01*
X127635000Y-66040000D02*
X127952500Y-65087500D01*
X127952500Y-65087500D02*
X128587500Y-64452500D01*
X128587500Y-64452500D02*
X129540000Y-64135000D01*
X129540000Y-64135000D02*
X130810000Y-64135000D01*
X130810000Y-64135000D02*
X127635000Y-67310000D01*
G36*
X127635000Y-67310000D02*
G01*
X127635000Y-66040000D01*
X127952500Y-65087500D01*
X128587500Y-64452500D01*
X129540000Y-64135000D01*
X130810000Y-64135000D01*
X127635000Y-67310000D01*
G37*
X127635000Y-67310000D02*
X127635000Y-66040000D01*
X127952500Y-65087500D01*
X128587500Y-64452500D01*
X129540000Y-64135000D01*
X130810000Y-64135000D01*
X127635000Y-67310000D01*
X162877500Y-99060000D02*
X162877500Y-99377500D01*
X129540000Y-64135000D02*
G75*
G03*
X127635000Y-66040000I1J-1905001D01*
G01*
X163512500Y-99377500D02*
X163195000Y-99060000D01*
X162242500Y-98425000D02*
X162877500Y-99060000D01*
X162242500Y-98742500D02*
X162242500Y-98425000D01*
X162242500Y-98107500D02*
X162877500Y-98742500D01*
X161607500Y-99377500D02*
X160972500Y-99377500D01*
X162877500Y-99060000D02*
X162877500Y-98742500D01*
X162242500Y-98742500D02*
X161607500Y-99377500D01*
X160972500Y-99377500D02*
X162242500Y-98107500D01*
X162877500Y-98742500D02*
X163195000Y-98425000D01*
X162877500Y-98742500D02*
X162877500Y-99060000D01*
X163195000Y-98742500D02*
X163830000Y-99377500D01*
X159307857Y-99464880D02*
X159974523Y-100464880D01*
X159974523Y-99464880D02*
X159307857Y-100464880D01*
X159879285Y-97559880D02*
X159403095Y-97559880D01*
X159355476Y-98036071D01*
X159403095Y-97988452D01*
X159498333Y-97940833D01*
X159736428Y-97940833D01*
X159831666Y-97988452D01*
X159879285Y-98036071D01*
X159926904Y-98131309D01*
X159926904Y-98369404D01*
X159879285Y-98464642D01*
X159831666Y-98512261D01*
X159736428Y-98559880D01*
X159498333Y-98559880D01*
X159403095Y-98512261D01*
X159355476Y-98464642D01*
X160545952Y-97559880D02*
X160641190Y-97559880D01*
X160736428Y-97607500D01*
X160784047Y-97655119D01*
X160831666Y-97750357D01*
X160879285Y-97940833D01*
X160879285Y-98178928D01*
X160831666Y-98369404D01*
X160784047Y-98464642D01*
X160736428Y-98512261D01*
X160641190Y-98559880D01*
X160545952Y-98559880D01*
X160450714Y-98512261D01*
X160403095Y-98464642D01*
X160355476Y-98369404D01*
X160307857Y-98178928D01*
X160307857Y-97940833D01*
X160355476Y-97750357D01*
X160403095Y-97655119D01*
X160450714Y-97607500D01*
X160545952Y-97559880D01*
X130778214Y-69349880D02*
X130206785Y-69349880D01*
X130492500Y-69349880D02*
X130492500Y-68349880D01*
X130397261Y-68492738D01*
X130302023Y-68587976D01*
X130206785Y-68635595D01*
X159307857Y-64539880D02*
X159974523Y-64539880D01*
X159545952Y-65539880D01*
X160260238Y-64539880D02*
X160926904Y-64539880D01*
X160498333Y-65539880D01*
X161369404Y-95654880D02*
X160893214Y-95654880D01*
X160845595Y-96131071D01*
X160893214Y-96083452D01*
X160988452Y-96035833D01*
X161226547Y-96035833D01*
X161321785Y-96083452D01*
X161369404Y-96131071D01*
X161417023Y-96226309D01*
X161417023Y-96464404D01*
X161369404Y-96559642D01*
X161321785Y-96607261D01*
X161226547Y-96654880D01*
X160988452Y-96654880D01*
X160893214Y-96607261D01*
X160845595Y-96559642D01*
X162369404Y-96654880D02*
X161797976Y-96654880D01*
X162083690Y-96654880D02*
X162083690Y-95654880D01*
X161988452Y-95797738D01*
X161893214Y-95892976D01*
X161797976Y-95940595D01*
X128254166Y-95654880D02*
X128920833Y-96654880D01*
X128920833Y-95654880D02*
X128254166Y-96654880D01*
X131220714Y-99560119D02*
X131268333Y-99512500D01*
X131363571Y-99464880D01*
X131601666Y-99464880D01*
X131696904Y-99512500D01*
X131744523Y-99560119D01*
X131792142Y-99655357D01*
X131792142Y-99750595D01*
X131744523Y-99893452D01*
X131173095Y-100464880D01*
X131792142Y-100464880D01*
X132125476Y-99464880D02*
X132792142Y-99464880D01*
X132363571Y-100464880D01*
X163179166Y-68349880D02*
X163845833Y-69349880D01*
X163845833Y-68349880D02*
X163179166Y-69349880D01*
X160797976Y-68349880D02*
X161464642Y-68349880D01*
X161036071Y-69349880D01*
X162321785Y-68349880D02*
X161845595Y-68349880D01*
X161797976Y-68826071D01*
X161845595Y-68778452D01*
X161940833Y-68730833D01*
X162178928Y-68730833D01*
X162274166Y-68778452D01*
X162321785Y-68826071D01*
X162369404Y-68921309D01*
X162369404Y-69159404D01*
X162321785Y-69254642D01*
X162274166Y-69302261D01*
X162178928Y-69349880D01*
X161940833Y-69349880D01*
X161845595Y-69302261D01*
X161797976Y-69254642D01*
X133930952Y-68349880D02*
X134550000Y-68349880D01*
X134216666Y-68730833D01*
X134359523Y-68730833D01*
X134454761Y-68778452D01*
X134502380Y-68826071D01*
X134550000Y-68921309D01*
X134550000Y-69159404D01*
X134502380Y-69254642D01*
X134454761Y-69302261D01*
X134359523Y-69349880D01*
X134073809Y-69349880D01*
X133978571Y-69302261D01*
X133930952Y-69254642D01*
X135121428Y-68778452D02*
X135026190Y-68730833D01*
X134978571Y-68683214D01*
X134930952Y-68587976D01*
X134930952Y-68540357D01*
X134978571Y-68445119D01*
X135026190Y-68397500D01*
X135121428Y-68349880D01*
X135311904Y-68349880D01*
X135407142Y-68397500D01*
X135454761Y-68445119D01*
X135502380Y-68540357D01*
X135502380Y-68587976D01*
X135454761Y-68683214D01*
X135407142Y-68730833D01*
X135311904Y-68778452D01*
X135121428Y-68778452D01*
X135026190Y-68826071D01*
X134978571Y-68873690D01*
X134930952Y-68968928D01*
X134930952Y-69159404D01*
X134978571Y-69254642D01*
X135026190Y-69302261D01*
X135121428Y-69349880D01*
X135311904Y-69349880D01*
X135407142Y-69302261D01*
X135454761Y-69254642D01*
X135502380Y-69159404D01*
X135502380Y-68968928D01*
X135454761Y-68873690D01*
X135407142Y-68826071D01*
X135311904Y-68778452D01*
X136359523Y-68349880D02*
X136169047Y-68349880D01*
X136073809Y-68397500D01*
X136026190Y-68445119D01*
X135930952Y-68587976D01*
X135883333Y-68778452D01*
X135883333Y-69159404D01*
X135930952Y-69254642D01*
X135978571Y-69302261D01*
X136073809Y-69349880D01*
X136264285Y-69349880D01*
X136359523Y-69302261D01*
X136407142Y-69254642D01*
X136454761Y-69159404D01*
X136454761Y-68921309D01*
X136407142Y-68826071D01*
X136359523Y-68778452D01*
X136264285Y-68730833D01*
X136073809Y-68730833D01*
X135978571Y-68778452D01*
X135930952Y-68826071D01*
X135883333Y-68921309D01*
X136835714Y-69302261D02*
X136978571Y-69349880D01*
X137216666Y-69349880D01*
X137311904Y-69302261D01*
X137359523Y-69254642D01*
X137407142Y-69159404D01*
X137407142Y-69064166D01*
X137359523Y-68968928D01*
X137311904Y-68921309D01*
X137216666Y-68873690D01*
X137026190Y-68826071D01*
X136930952Y-68778452D01*
X136883333Y-68730833D01*
X136835714Y-68635595D01*
X136835714Y-68540357D01*
X136883333Y-68445119D01*
X136930952Y-68397500D01*
X137026190Y-68349880D01*
X137264285Y-68349880D01*
X137407142Y-68397500D01*
X137740476Y-68349880D02*
X138407142Y-69349880D01*
X138407142Y-68349880D02*
X137740476Y-69349880D01*
X139550000Y-68349880D02*
X139550000Y-69159404D01*
X139597619Y-69254642D01*
X139645238Y-69302261D01*
X139740476Y-69349880D01*
X139930952Y-69349880D01*
X140026190Y-69302261D01*
X140073809Y-69254642D01*
X140121428Y-69159404D01*
X140121428Y-68349880D01*
X140597619Y-68683214D02*
X140597619Y-69349880D01*
X140597619Y-68778452D02*
X140645238Y-68730833D01*
X140740476Y-68683214D01*
X140883333Y-68683214D01*
X140978571Y-68730833D01*
X141026190Y-68826071D01*
X141026190Y-69349880D01*
X141502380Y-69349880D02*
X141502380Y-68683214D01*
X141502380Y-68349880D02*
X141454761Y-68397500D01*
X141502380Y-68445119D01*
X141550000Y-68397500D01*
X141502380Y-68349880D01*
X141502380Y-68445119D01*
X141883333Y-68683214D02*
X142121428Y-69349880D01*
X142359523Y-68683214D01*
X143121428Y-69302261D02*
X143026190Y-69349880D01*
X142835714Y-69349880D01*
X142740476Y-69302261D01*
X142692857Y-69207023D01*
X142692857Y-68826071D01*
X142740476Y-68730833D01*
X142835714Y-68683214D01*
X143026190Y-68683214D01*
X143121428Y-68730833D01*
X143169047Y-68826071D01*
X143169047Y-68921309D01*
X142692857Y-69016547D01*
X143597619Y-69349880D02*
X143597619Y-68683214D01*
X143597619Y-68873690D02*
X143645238Y-68778452D01*
X143692857Y-68730833D01*
X143788095Y-68683214D01*
X143883333Y-68683214D01*
X144169047Y-69302261D02*
X144264285Y-69349880D01*
X144454761Y-69349880D01*
X144549999Y-69302261D01*
X144597619Y-69207023D01*
X144597619Y-69159404D01*
X144549999Y-69064166D01*
X144454761Y-69016547D01*
X144311904Y-69016547D01*
X144216666Y-68968928D01*
X144169047Y-68873690D01*
X144169047Y-68826071D01*
X144216666Y-68730833D01*
X144311904Y-68683214D01*
X144454761Y-68683214D01*
X144549999Y-68730833D01*
X145454761Y-69349880D02*
X145454761Y-68826071D01*
X145407142Y-68730833D01*
X145311904Y-68683214D01*
X145121428Y-68683214D01*
X145026190Y-68730833D01*
X145454761Y-69302261D02*
X145359523Y-69349880D01*
X145121428Y-69349880D01*
X145026190Y-69302261D01*
X144978571Y-69207023D01*
X144978571Y-69111785D01*
X145026190Y-69016547D01*
X145121428Y-68968928D01*
X145359523Y-68968928D01*
X145454761Y-68921309D01*
X146073809Y-69349880D02*
X145978571Y-69302261D01*
X145930952Y-69207023D01*
X145930952Y-68349880D01*
X147169047Y-69302261D02*
X147311904Y-69349880D01*
X147549999Y-69349880D01*
X147645238Y-69302261D01*
X147692857Y-69254642D01*
X147740476Y-69159404D01*
X147740476Y-69064166D01*
X147692857Y-68968928D01*
X147645238Y-68921309D01*
X147549999Y-68873690D01*
X147359523Y-68826071D01*
X147264285Y-68778452D01*
X147216666Y-68730833D01*
X147169047Y-68635595D01*
X147169047Y-68540357D01*
X147216666Y-68445119D01*
X147264285Y-68397500D01*
X147359523Y-68349880D01*
X147597619Y-68349880D01*
X147740476Y-68397500D01*
X148311904Y-69349880D02*
X148216666Y-69302261D01*
X148169047Y-69254642D01*
X148121428Y-69159404D01*
X148121428Y-68873690D01*
X148169047Y-68778452D01*
X148216666Y-68730833D01*
X148311904Y-68683214D01*
X148454761Y-68683214D01*
X148549999Y-68730833D01*
X148597619Y-68778452D01*
X148645238Y-68873690D01*
X148645238Y-69159404D01*
X148597619Y-69254642D01*
X148549999Y-69302261D01*
X148454761Y-69349880D01*
X148311904Y-69349880D01*
X149502380Y-69302261D02*
X149407142Y-69349880D01*
X149216666Y-69349880D01*
X149121428Y-69302261D01*
X149073809Y-69254642D01*
X149026190Y-69159404D01*
X149026190Y-68873690D01*
X149073809Y-68778452D01*
X149121428Y-68730833D01*
X149216666Y-68683214D01*
X149407142Y-68683214D01*
X149502380Y-68730833D01*
X149930952Y-69349880D02*
X149930952Y-68349880D01*
X150026190Y-68968928D02*
X150311904Y-69349880D01*
X150311904Y-68683214D02*
X149930952Y-69064166D01*
X151121428Y-69302261D02*
X151026190Y-69349880D01*
X150835714Y-69349880D01*
X150740476Y-69302261D01*
X150692857Y-69207023D01*
X150692857Y-68826071D01*
X150740476Y-68730833D01*
X150835714Y-68683214D01*
X151026190Y-68683214D01*
X151121428Y-68730833D01*
X151169047Y-68826071D01*
X151169047Y-68921309D01*
X150692857Y-69016547D01*
X151454761Y-68683214D02*
X151835714Y-68683214D01*
X151597619Y-68349880D02*
X151597619Y-69207023D01*
X151645238Y-69302261D01*
X151740476Y-69349880D01*
X151835714Y-69349880D01*
X152883333Y-69064166D02*
X153359523Y-69064166D01*
X152788095Y-69349880D02*
X153121428Y-68349880D01*
X153454761Y-69349880D01*
X154216666Y-69349880D02*
X154216666Y-68349880D01*
X154216666Y-69302261D02*
X154121428Y-69349880D01*
X153930952Y-69349880D01*
X153835714Y-69302261D01*
X153788095Y-69254642D01*
X153740476Y-69159404D01*
X153740476Y-68873690D01*
X153788095Y-68778452D01*
X153835714Y-68730833D01*
X153930952Y-68683214D01*
X154121428Y-68683214D01*
X154216666Y-68730833D01*
X155121428Y-69349880D02*
X155121428Y-68826071D01*
X155073809Y-68730833D01*
X154978571Y-68683214D01*
X154788095Y-68683214D01*
X154692857Y-68730833D01*
X155121428Y-69302261D02*
X155026190Y-69349880D01*
X154788095Y-69349880D01*
X154692857Y-69302261D01*
X154645238Y-69207023D01*
X154645238Y-69111785D01*
X154692857Y-69016547D01*
X154788095Y-68968928D01*
X155026190Y-68968928D01*
X155121428Y-68921309D01*
X155597619Y-68683214D02*
X155597619Y-69683214D01*
X155597619Y-68730833D02*
X155692857Y-68683214D01*
X155883333Y-68683214D01*
X155978571Y-68730833D01*
X156026190Y-68778452D01*
X156073809Y-68873690D01*
X156073809Y-69159404D01*
X156026190Y-69254642D01*
X155978571Y-69302261D01*
X155883333Y-69349880D01*
X155692857Y-69349880D01*
X155597619Y-69302261D01*
X156359523Y-68683214D02*
X156740476Y-68683214D01*
X156502380Y-68349880D02*
X156502380Y-69207023D01*
X156549999Y-69302261D01*
X156645238Y-69349880D01*
X156740476Y-69349880D01*
X157454761Y-69302261D02*
X157359523Y-69349880D01*
X157169047Y-69349880D01*
X157073809Y-69302261D01*
X157026190Y-69207023D01*
X157026190Y-68826071D01*
X157073809Y-68730833D01*
X157169047Y-68683214D01*
X157359523Y-68683214D01*
X157454761Y-68730833D01*
X157502380Y-68826071D01*
X157502380Y-68921309D01*
X157026190Y-69016547D01*
X157930952Y-69349880D02*
X157930952Y-68683214D01*
X157930952Y-68873690D02*
X157978571Y-68778452D01*
X158026190Y-68730833D01*
X158121428Y-68683214D01*
X158216666Y-68683214D01*
X131220714Y-97655119D02*
X131268333Y-97607500D01*
X131363571Y-97559880D01*
X131601666Y-97559880D01*
X131696904Y-97607500D01*
X131744523Y-97655119D01*
X131792142Y-97750357D01*
X131792142Y-97845595D01*
X131744523Y-97988452D01*
X131173095Y-98559880D01*
X131792142Y-98559880D01*
X132649285Y-97559880D02*
X132458809Y-97559880D01*
X132363571Y-97607500D01*
X132315952Y-97655119D01*
X132220714Y-97797976D01*
X132173095Y-97988452D01*
X132173095Y-98369404D01*
X132220714Y-98464642D01*
X132268333Y-98512261D01*
X132363571Y-98559880D01*
X132554047Y-98559880D01*
X132649285Y-98512261D01*
X132696904Y-98464642D01*
X132744523Y-98369404D01*
X132744523Y-98131309D01*
X132696904Y-98036071D01*
X132649285Y-97988452D01*
X132554047Y-97940833D01*
X132363571Y-97940833D01*
X132268333Y-97988452D01*
X132220714Y-98036071D01*
X132173095Y-98131309D01*
X130839761Y-67444880D02*
X130268333Y-67444880D01*
X130554047Y-67444880D02*
X130554047Y-66444880D01*
X130458809Y-66587738D01*
X130363571Y-66682976D01*
X130268333Y-66730595D01*
X131458809Y-66444880D02*
X131554047Y-66444880D01*
X131649285Y-66492500D01*
X131696904Y-66540119D01*
X131744523Y-66635357D01*
X131792142Y-66825833D01*
X131792142Y-67063928D01*
X131744523Y-67254404D01*
X131696904Y-67349642D01*
X131649285Y-67397261D01*
X131554047Y-67444880D01*
X131458809Y-67444880D01*
X131363571Y-67397261D01*
X131315952Y-67349642D01*
X131268333Y-67254404D01*
X131220714Y-67063928D01*
X131220714Y-66825833D01*
X131268333Y-66635357D01*
X131315952Y-66540119D01*
X131363571Y-66492500D01*
X131458809Y-66444880D01*
X132411190Y-66444880D02*
X132506428Y-66444880D01*
X132601666Y-66492500D01*
X132649285Y-66540119D01*
X132696904Y-66635357D01*
X132744523Y-66825833D01*
X132744523Y-67063928D01*
X132696904Y-67254404D01*
X132649285Y-67349642D01*
X132601666Y-67397261D01*
X132506428Y-67444880D01*
X132411190Y-67444880D01*
X132315952Y-67397261D01*
X132268333Y-67349642D01*
X132220714Y-67254404D01*
X132173095Y-67063928D01*
X132173095Y-66825833D01*
X132220714Y-66635357D01*
X132268333Y-66540119D01*
X132315952Y-66492500D01*
X132411190Y-66444880D01*
X129730595Y-95750119D02*
X129778214Y-95702500D01*
X129873452Y-95654880D01*
X130111547Y-95654880D01*
X130206785Y-95702500D01*
X130254404Y-95750119D01*
X130302023Y-95845357D01*
X130302023Y-95940595D01*
X130254404Y-96083452D01*
X129682976Y-96654880D01*
X130302023Y-96654880D01*
X131206785Y-95654880D02*
X130730595Y-95654880D01*
X130682976Y-96131071D01*
X130730595Y-96083452D01*
X130825833Y-96035833D01*
X131063928Y-96035833D01*
X131159166Y-96083452D01*
X131206785Y-96131071D01*
X131254404Y-96226309D01*
X131254404Y-96464404D01*
X131206785Y-96559642D01*
X131159166Y-96607261D01*
X131063928Y-96654880D01*
X130825833Y-96654880D01*
X130730595Y-96607261D01*
X130682976Y-96559642D01*
X128301785Y-68445119D02*
X128349404Y-68397500D01*
X128444642Y-68349880D01*
X128682738Y-68349880D01*
X128777976Y-68397500D01*
X128825595Y-68445119D01*
X128873214Y-68540357D01*
X128873214Y-68635595D01*
X128825595Y-68778452D01*
X128254166Y-69349880D01*
X128873214Y-69349880D01*
X127698690Y-98512380D02*
X128032023Y-99512380D01*
X128365357Y-98512380D01*
X129222500Y-99512380D02*
X128651071Y-99512380D01*
X128936785Y-99512380D02*
X128936785Y-98512380D01*
X128841547Y-98655238D01*
X128746309Y-98750476D01*
X128651071Y-98798095D01*
X129651071Y-99417142D02*
X129698690Y-99464761D01*
X129651071Y-99512380D01*
X129603452Y-99464761D01*
X129651071Y-99417142D01*
X129651071Y-99512380D01*
X130317738Y-98512380D02*
X130412976Y-98512380D01*
X130508214Y-98560000D01*
X130555833Y-98607619D01*
X130603452Y-98702857D01*
X130651071Y-98893333D01*
X130651071Y-99131428D01*
X130603452Y-99321904D01*
X130555833Y-99417142D01*
X130508214Y-99464761D01*
X130412976Y-99512380D01*
X130317738Y-99512380D01*
X130222500Y-99464761D01*
X130174880Y-99417142D01*
X130127261Y-99321904D01*
X130079642Y-99131428D01*
X130079642Y-98893333D01*
X130127261Y-98702857D01*
X130174880Y-98607619D01*
X130222500Y-98560000D01*
X130317738Y-98512380D01*
X163274404Y-95654880D02*
X162798214Y-95654880D01*
X162750595Y-96131071D01*
X162798214Y-96083452D01*
X162893452Y-96035833D01*
X163131547Y-96035833D01*
X163226785Y-96083452D01*
X163274404Y-96131071D01*
X163322023Y-96226309D01*
X163322023Y-96464404D01*
X163274404Y-96559642D01*
X163226785Y-96607261D01*
X163131547Y-96654880D01*
X162893452Y-96654880D01*
X162798214Y-96607261D01*
X162750595Y-96559642D01*
X163702976Y-95750119D02*
X163750595Y-95702500D01*
X163845833Y-95654880D01*
X164083928Y-95654880D01*
X164179166Y-95702500D01*
X164226785Y-95750119D01*
X164274404Y-95845357D01*
X164274404Y-95940595D01*
X164226785Y-96083452D01*
X163655357Y-96654880D01*
X164274404Y-96654880D01*
X159307857Y-66444880D02*
X159974523Y-66444880D01*
X159545952Y-67444880D01*
X160784047Y-66444880D02*
X160593571Y-66444880D01*
X160498333Y-66492500D01*
X160450714Y-66540119D01*
X160355476Y-66682976D01*
X160307857Y-66873452D01*
X160307857Y-67254404D01*
X160355476Y-67349642D01*
X160403095Y-67397261D01*
X160498333Y-67444880D01*
X160688809Y-67444880D01*
X160784047Y-67397261D01*
X160831666Y-67349642D01*
X160879285Y-67254404D01*
X160879285Y-67016309D01*
X160831666Y-66921071D01*
X160784047Y-66873452D01*
X160688809Y-66825833D01*
X160498333Y-66825833D01*
X160403095Y-66873452D01*
X160355476Y-66921071D01*
X160307857Y-67016309D01*
X132125476Y-64539880D02*
X132792142Y-65539880D01*
X132792142Y-64539880D02*
X132125476Y-65539880D01*
%TO.C,U1*%
X133223095Y-95654880D02*
X133223095Y-96464404D01*
X133270714Y-96559642D01*
X133318333Y-96607261D01*
X133413571Y-96654880D01*
X133604047Y-96654880D01*
X133699285Y-96607261D01*
X133746904Y-96559642D01*
X133794523Y-96464404D01*
X133794523Y-95654880D01*
X134794523Y-96654880D02*
X134223095Y-96654880D01*
X134508809Y-96654880D02*
X134508809Y-95654880D01*
X134413571Y-95797738D01*
X134318333Y-95892976D01*
X134223095Y-95940595D01*
X137792113Y-96083452D02*
X137712351Y-96035833D01*
X137675446Y-95988214D01*
X137644494Y-95892976D01*
X137650446Y-95845357D01*
X137705208Y-95750119D01*
X137754017Y-95702500D01*
X137845684Y-95654880D01*
X138017113Y-95654880D01*
X138096875Y-95702500D01*
X138133779Y-95750119D01*
X138164732Y-95845357D01*
X138158779Y-95892976D01*
X138104017Y-95988214D01*
X138055208Y-96035833D01*
X137963541Y-96083452D01*
X137792113Y-96083452D01*
X137700446Y-96131071D01*
X137651636Y-96178690D01*
X137596875Y-96273928D01*
X137573065Y-96464404D01*
X137604017Y-96559642D01*
X137640922Y-96607261D01*
X137720684Y-96654880D01*
X137892113Y-96654880D01*
X137983779Y-96607261D01*
X138032589Y-96559642D01*
X138087351Y-96464404D01*
X138111160Y-96273928D01*
X138080208Y-96178690D01*
X138043303Y-96131071D01*
X137963541Y-96083452D01*
X138745684Y-95654880D02*
X138831398Y-95654880D01*
X138911160Y-95702500D01*
X138948065Y-95750119D01*
X138979017Y-95845357D01*
X138998065Y-96035833D01*
X138968303Y-96273928D01*
X138901636Y-96464404D01*
X138846875Y-96559642D01*
X138798065Y-96607261D01*
X138706398Y-96654880D01*
X138620684Y-96654880D01*
X138540922Y-96607261D01*
X138504017Y-96559642D01*
X138473065Y-96464404D01*
X138454017Y-96273928D01*
X138483779Y-96035833D01*
X138550446Y-95845357D01*
X138605208Y-95750119D01*
X138654017Y-95702500D01*
X138745684Y-95654880D01*
X139345684Y-95654880D02*
X139902827Y-95654880D01*
X139555208Y-96035833D01*
X139683779Y-96035833D01*
X139763541Y-96083452D01*
X139800446Y-96131071D01*
X139831398Y-96226309D01*
X139801636Y-96464404D01*
X139746875Y-96559642D01*
X139698065Y-96607261D01*
X139606398Y-96654880D01*
X139349255Y-96654880D01*
X139269494Y-96607261D01*
X139232589Y-96559642D01*
X140363541Y-96083452D02*
X140283779Y-96035833D01*
X140246875Y-95988214D01*
X140215922Y-95892976D01*
X140221875Y-95845357D01*
X140276636Y-95750119D01*
X140325446Y-95702500D01*
X140417113Y-95654880D01*
X140588541Y-95654880D01*
X140668303Y-95702500D01*
X140705208Y-95750119D01*
X140736160Y-95845357D01*
X140730208Y-95892976D01*
X140675446Y-95988214D01*
X140626636Y-96035833D01*
X140534970Y-96083452D01*
X140363541Y-96083452D01*
X140271875Y-96131071D01*
X140223065Y-96178690D01*
X140168303Y-96273928D01*
X140144494Y-96464404D01*
X140175446Y-96559642D01*
X140212351Y-96607261D01*
X140292113Y-96654880D01*
X140463541Y-96654880D01*
X140555208Y-96607261D01*
X140604017Y-96559642D01*
X140658779Y-96464404D01*
X140682589Y-96273928D01*
X140651636Y-96178690D01*
X140614732Y-96131071D01*
X140534970Y-96083452D01*
X141531398Y-95654880D02*
X141359970Y-95654880D01*
X141268303Y-95702500D01*
X141219494Y-95750119D01*
X141115922Y-95892976D01*
X141049255Y-96083452D01*
X141001636Y-96464404D01*
X141032589Y-96559642D01*
X141069494Y-96607261D01*
X141149255Y-96654880D01*
X141320684Y-96654880D01*
X141412351Y-96607261D01*
X141461160Y-96559642D01*
X141515922Y-96464404D01*
X141545684Y-96226309D01*
X141514732Y-96131071D01*
X141477827Y-96083452D01*
X141398065Y-96035833D01*
X141226636Y-96035833D01*
X141134970Y-96083452D01*
X141086160Y-96131071D01*
X141031398Y-96226309D01*
X141840922Y-96607261D02*
X141963541Y-96654880D01*
X142177827Y-96654880D01*
X142269494Y-96607261D01*
X142318303Y-96559642D01*
X142373065Y-96464404D01*
X142384970Y-96369166D01*
X142354017Y-96273928D01*
X142317113Y-96226309D01*
X142237351Y-96178690D01*
X142071875Y-96131071D01*
X141992113Y-96083452D01*
X141955208Y-96035833D01*
X141924255Y-95940595D01*
X141936160Y-95845357D01*
X141990922Y-95750119D01*
X142039732Y-95702500D01*
X142131398Y-95654880D01*
X142345684Y-95654880D01*
X142468303Y-95702500D01*
X142774255Y-95654880D02*
X143249255Y-96654880D01*
X143374255Y-95654880D02*
X142649255Y-96654880D01*
X144365922Y-95607261D02*
X143433779Y-96892976D01*
X144531398Y-95654880D02*
X145045684Y-95654880D01*
X144663541Y-96654880D02*
X144788541Y-95654880D01*
X145220684Y-96654880D02*
X145345684Y-95654880D01*
X146118303Y-95988214D02*
X146034970Y-96654880D01*
X145951636Y-95607261D02*
X145648065Y-96321547D01*
X146205208Y-96321547D01*
X146706398Y-96083452D02*
X146626636Y-96035833D01*
X146589732Y-95988214D01*
X146558779Y-95892976D01*
X146564732Y-95845357D01*
X146619494Y-95750119D01*
X146668303Y-95702500D01*
X146759970Y-95654880D01*
X146931398Y-95654880D01*
X147011160Y-95702500D01*
X147048065Y-95750119D01*
X147079017Y-95845357D01*
X147073065Y-95892976D01*
X147018303Y-95988214D01*
X146969494Y-96035833D01*
X146877827Y-96083452D01*
X146706398Y-96083452D01*
X146614732Y-96131071D01*
X146565922Y-96178690D01*
X146511160Y-96273928D01*
X146487351Y-96464404D01*
X146518303Y-96559642D01*
X146555208Y-96607261D01*
X146634970Y-96654880D01*
X146806398Y-96654880D01*
X146898065Y-96607261D01*
X146946875Y-96559642D01*
X147001636Y-96464404D01*
X147025446Y-96273928D01*
X146994494Y-96178690D01*
X146957589Y-96131071D01*
X146877827Y-96083452D01*
X147874255Y-95654880D02*
X147702827Y-95654880D01*
X147611160Y-95702500D01*
X147562351Y-95750119D01*
X147458779Y-95892976D01*
X147392113Y-96083452D01*
X147344494Y-96464404D01*
X147375446Y-96559642D01*
X147412351Y-96607261D01*
X147492113Y-96654880D01*
X147663541Y-96654880D01*
X147755208Y-96607261D01*
X147804017Y-96559642D01*
X147858779Y-96464404D01*
X147888541Y-96226309D01*
X147857589Y-96131071D01*
X147820684Y-96083452D01*
X147740922Y-96035833D01*
X147569494Y-96035833D01*
X147477827Y-96083452D01*
X147429017Y-96131071D01*
X147374255Y-96226309D01*
X148183779Y-96607261D02*
X148306398Y-96654880D01*
X148520684Y-96654880D01*
X148612351Y-96607261D01*
X148661160Y-96559642D01*
X148715922Y-96464404D01*
X148727827Y-96369166D01*
X148696875Y-96273928D01*
X148659970Y-96226309D01*
X148580208Y-96178690D01*
X148414732Y-96131071D01*
X148334970Y-96083452D01*
X148298065Y-96035833D01*
X148267113Y-95940595D01*
X148279017Y-95845357D01*
X148333779Y-95750119D01*
X148382589Y-95702500D01*
X148474255Y-95654880D01*
X148688541Y-95654880D01*
X148811160Y-95702500D01*
X149117113Y-95654880D02*
X149592113Y-96654880D01*
X149717113Y-95654880D02*
X148992113Y-96654880D01*
X150363541Y-96654880D02*
X149934970Y-96654880D01*
X150059970Y-95654880D01*
X151189732Y-96559642D02*
X151140922Y-96607261D01*
X151006398Y-96654880D01*
X150920684Y-96654880D01*
X150798065Y-96607261D01*
X150724255Y-96512023D01*
X150693303Y-96416785D01*
X150674255Y-96226309D01*
X150692113Y-96083452D01*
X150758779Y-95892976D01*
X150813541Y-95797738D01*
X150911160Y-95702500D01*
X151045684Y-95654880D01*
X151131398Y-95654880D01*
X151254017Y-95702500D01*
X151290922Y-95750119D01*
X152337351Y-95607261D02*
X151405208Y-96892976D01*
X153032589Y-96559642D02*
X152983779Y-96607261D01*
X152849255Y-96654880D01*
X152763541Y-96654880D01*
X152640922Y-96607261D01*
X152567113Y-96512023D01*
X152536160Y-96416785D01*
X152517113Y-96226309D01*
X152534970Y-96083452D01*
X152601636Y-95892976D01*
X152656398Y-95797738D01*
X152754017Y-95702500D01*
X152888541Y-95654880D01*
X152974255Y-95654880D01*
X153096875Y-95702500D01*
X153133779Y-95750119D01*
X153320684Y-96654880D02*
X153875446Y-95988214D01*
X153404017Y-95988214D02*
X153792113Y-96654880D01*
X154604017Y-95988214D02*
X154520684Y-96654880D01*
X154437351Y-95607261D02*
X154133779Y-96321547D01*
X154690922Y-96321547D01*
X155192113Y-96083452D02*
X155112351Y-96035833D01*
X155075446Y-95988214D01*
X155044494Y-95892976D01*
X155050446Y-95845357D01*
X155105208Y-95750119D01*
X155154017Y-95702500D01*
X155245684Y-95654880D01*
X155417113Y-95654880D01*
X155496875Y-95702500D01*
X155533779Y-95750119D01*
X155564732Y-95845357D01*
X155558779Y-95892976D01*
X155504017Y-95988214D01*
X155455208Y-96035833D01*
X155363541Y-96083452D01*
X155192113Y-96083452D01*
X155100446Y-96131071D01*
X155051636Y-96178690D01*
X154996875Y-96273928D01*
X154973065Y-96464404D01*
X155004017Y-96559642D01*
X155040922Y-96607261D01*
X155120684Y-96654880D01*
X155292113Y-96654880D01*
X155383779Y-96607261D01*
X155432589Y-96559642D01*
X155487351Y-96464404D01*
X155511160Y-96273928D01*
X155480208Y-96178690D01*
X155443303Y-96131071D01*
X155363541Y-96083452D01*
X156359970Y-95654880D02*
X156188541Y-95654880D01*
X156096875Y-95702500D01*
X156048065Y-95750119D01*
X155944494Y-95892976D01*
X155877827Y-96083452D01*
X155830208Y-96464404D01*
X155861160Y-96559642D01*
X155898065Y-96607261D01*
X155977827Y-96654880D01*
X156149255Y-96654880D01*
X156240922Y-96607261D01*
X156289732Y-96559642D01*
X156344494Y-96464404D01*
X156374255Y-96226309D01*
X156343303Y-96131071D01*
X156306398Y-96083452D01*
X156226636Y-96035833D01*
X156055208Y-96035833D01*
X155963541Y-96083452D01*
X155914732Y-96131071D01*
X155859970Y-96226309D01*
X156669494Y-96607261D02*
X156792113Y-96654880D01*
X157006398Y-96654880D01*
X157098065Y-96607261D01*
X157146875Y-96559642D01*
X157201636Y-96464404D01*
X157213541Y-96369166D01*
X157182589Y-96273928D01*
X157145684Y-96226309D01*
X157065922Y-96178690D01*
X156900446Y-96131071D01*
X156820684Y-96083452D01*
X156783779Y-96035833D01*
X156752827Y-95940595D01*
X156764732Y-95845357D01*
X156819494Y-95750119D01*
X156868303Y-95702500D01*
X156959970Y-95654880D01*
X157174255Y-95654880D01*
X157296875Y-95702500D01*
X157992113Y-96654880D02*
X157563541Y-96654880D01*
X157688541Y-95654880D01*
X158818303Y-96559642D02*
X158769494Y-96607261D01*
X158634970Y-96654880D01*
X158549255Y-96654880D01*
X158426636Y-96607261D01*
X158352827Y-96512023D01*
X158321875Y-96416785D01*
X158302827Y-96226309D01*
X158320684Y-96083452D01*
X158387351Y-95892976D01*
X158442113Y-95797738D01*
X158539732Y-95702500D01*
X158674255Y-95654880D01*
X158759970Y-95654880D01*
X158882589Y-95702500D01*
X158919494Y-95750119D01*
D11*
X137990001Y-72969999D02*
X137920001Y-72969999D01*
X154109999Y-72969999D02*
X154179999Y-72969999D01*
X136469999Y-74420001D02*
X136469999Y-74490001D01*
X134470000Y-91949999D02*
X134470000Y-92969999D01*
X155630001Y-90679999D02*
X155630001Y-90609999D01*
X134470000Y-73150001D02*
X134470000Y-72130001D01*
X137920001Y-92130001D02*
X136650001Y-94130000D01*
X155449999Y-70970000D02*
X156469999Y-70970000D01*
X157630000Y-73150001D02*
X155630001Y-74420001D01*
X134470000Y-73150001D02*
X136469999Y-74420001D01*
X134470000Y-91949999D02*
X136469999Y-90679999D01*
X134470000Y-72130001D02*
X135630001Y-70970000D01*
X154179999Y-72969999D02*
X155449999Y-70970000D01*
X154179999Y-92130001D02*
X155449999Y-94130000D01*
X157630000Y-73150001D02*
X157630000Y-72130001D01*
X134470000Y-92969999D02*
X135630001Y-94130000D01*
X137920001Y-72969999D02*
X136650001Y-70970000D01*
X137990001Y-92130001D02*
X137920001Y-92130001D01*
X155449999Y-94130000D02*
X156469999Y-94130000D01*
X157630000Y-92969999D02*
X156469999Y-94130000D01*
X155630001Y-74420001D02*
X155630001Y-74490001D01*
X154109999Y-92130001D02*
X154179999Y-92130001D01*
X136469999Y-90679999D02*
X136469999Y-90609999D01*
X157630000Y-91949999D02*
X155630001Y-90679999D01*
X136650001Y-70970000D02*
X135630001Y-70970000D01*
X157630000Y-91949999D02*
X157630000Y-92969999D01*
X136650001Y-94130000D02*
X135630001Y-94130000D01*
X134490000Y-74490001D02*
X136469999Y-74490001D01*
X157630000Y-72130001D02*
X156469999Y-70970000D01*
%TD*%
M02*
