%TF.GenerationSoftware,KiCad,Pcbnew,(6.0.2)*%
%TF.CreationDate,2026-01-28T07:44:18-08:00*%
%TF.ProjectId,i386sx-socket,69333836-7378-42d7-936f-636b65742e6b,1.0*%
%TF.SameCoordinates,Original*%
%TF.FileFunction,Soldermask,Bot*%
%TF.FilePolarity,Negative*%
%FSLAX46Y46*%
G04 Gerber Fmt 4.6, Leading zero omitted, Abs format (unit mm)*
G04 Created by KiCad (PCBNEW (6.0.2)) date 2026-01-28 07:44:18*
%MOMM*%
%LPD*%
G01*
G04 APERTURE LIST*
G04 Aperture macros list*
%AMRoundRect*
0 Rectangle with rounded corners*
0 $1 Rounding radius*
0 $2 $3 $4 $5 $6 $7 $8 $9 X,Y pos of 4 corners*
0 Add a 4 corners polygon primitive as box body*
4,1,4,$2,$3,$4,$5,$6,$7,$8,$9,$2,$3,0*
0 Add four circle primitives for the rounded corners*
1,1,$1+$1,$2,$3*
1,1,$1+$1,$4,$5*
1,1,$1+$1,$6,$7*
1,1,$1+$1,$8,$9*
0 Add four rect primitives between the rounded corners*
20,1,$1+$1,$2,$3,$4,$5,0*
20,1,$1+$1,$4,$5,$6,$7,0*
20,1,$1+$1,$6,$7,$8,$9,0*
20,1,$1+$1,$8,$9,$2,$3,0*%
%AMFreePoly0*
4,1,20,0.000000,0.744959,0.073905,0.744508,0.209726,0.703889,0.328688,0.626782,0.421226,0.519385,0.479903,0.390333,0.500000,0.250000,0.500000,-0.250000,0.499851,-0.262216,0.476331,-0.402017,0.414519,-0.529596,0.319384,-0.634700,0.198574,-0.708877,0.061801,-0.746166,0.000000,-0.745033,0.000000,-0.750000,-0.500000,-0.750000,-0.500000,0.750000,0.000000,0.750000,0.000000,0.744959,
0.000000,0.744959,$1*%
%AMFreePoly1*
4,1,22,0.500000,-0.750000,0.000000,-0.750000,0.000000,-0.745033,-0.079941,-0.743568,-0.215256,-0.701293,-0.333266,-0.622738,-0.424486,-0.514219,-0.481581,-0.384460,-0.499164,-0.250000,-0.500000,-0.250000,-0.500000,0.250000,-0.499164,0.250000,-0.499963,0.256109,-0.478152,0.396186,-0.417904,0.524511,-0.324060,0.630769,-0.204165,0.706417,-0.067858,0.745374,0.000000,0.744959,0.000000,0.750000,
0.500000,0.750000,0.500000,-0.750000,0.500000,-0.750000,$1*%
%AMFreePoly2*
4,1,22,0.550000,-0.750000,0.000000,-0.750000,0.000000,-0.745033,-0.079941,-0.743568,-0.215256,-0.701293,-0.333266,-0.622738,-0.424486,-0.514219,-0.481581,-0.384460,-0.499164,-0.250000,-0.500000,-0.250000,-0.500000,0.250000,-0.499164,0.250000,-0.499963,0.256109,-0.478152,0.396186,-0.417904,0.524511,-0.324060,0.630769,-0.204165,0.706417,-0.067858,0.745374,0.000000,0.744959,0.000000,0.750000,
0.550000,0.750000,0.550000,-0.750000,0.550000,-0.750000,$1*%
%AMFreePoly3*
4,1,20,0.000000,0.744959,0.073905,0.744508,0.209726,0.703889,0.328688,0.626782,0.421226,0.519385,0.479903,0.390333,0.500000,0.250000,0.500000,-0.250000,0.499851,-0.262216,0.476331,-0.402017,0.414519,-0.529596,0.319384,-0.634700,0.198574,-0.708877,0.061801,-0.746166,0.000000,-0.745033,0.000000,-0.750000,-0.550000,-0.750000,-0.550000,0.750000,0.000000,0.750000,0.000000,0.744959,
0.000000,0.744959,$1*%
G04 Aperture macros list end*
%ADD10FreePoly0,0.000000*%
%ADD11FreePoly1,0.000000*%
%ADD12R,2.200000X1.200000*%
%ADD13R,6.400000X5.800000*%
%ADD14FreePoly2,180.000000*%
%ADD15R,1.000000X1.500000*%
%ADD16FreePoly3,180.000000*%
%ADD17FreePoly1,180.000000*%
%ADD18FreePoly0,180.000000*%
%ADD19R,1.350000X1.350000*%
%ADD20O,1.350000X1.350000*%
%ADD21RoundRect,0.250000X0.412500X0.650000X-0.412500X0.650000X-0.412500X-0.650000X0.412500X-0.650000X0*%
%ADD22RoundRect,0.237500X0.300000X0.237500X-0.300000X0.237500X-0.300000X-0.237500X0.300000X-0.237500X0*%
%ADD23RoundRect,0.237500X-0.300000X-0.237500X0.300000X-0.237500X0.300000X0.237500X-0.300000X0.237500X0*%
G04 APERTURE END LIST*
D10*
%TO.C,JP2*%
X137175000Y-84772500D03*
D11*
X135875000Y-84772500D03*
%TD*%
D12*
%TO.C,U2*%
X150250000Y-80270000D03*
D13*
X143950000Y-82550000D03*
D12*
X150250000Y-84830000D03*
%TD*%
D14*
%TO.C,JP3*%
X154335000Y-93980000D03*
D15*
X153035000Y-93980000D03*
D16*
X151735000Y-93980000D03*
%TD*%
D17*
%TO.C,JP1*%
X156225000Y-84772500D03*
D18*
X154925000Y-84772500D03*
%TD*%
D19*
%TO.C,J4*%
X158050000Y-67040000D03*
D20*
X158050000Y-65040000D03*
X156050000Y-67040000D03*
X156050000Y-65040000D03*
X154050000Y-67040000D03*
X154050000Y-65040000D03*
X152050000Y-67040000D03*
X152050000Y-65040000D03*
X150050000Y-67040000D03*
X150050000Y-65040000D03*
X148050000Y-67040000D03*
X148050000Y-65040000D03*
X146050000Y-67040000D03*
X146050000Y-65040000D03*
X144050000Y-67040000D03*
X144050000Y-65040000D03*
X142050000Y-67040000D03*
X142050000Y-65040000D03*
X140050000Y-67040000D03*
X140050000Y-65040000D03*
X138050000Y-67040000D03*
X138050000Y-65040000D03*
X136050000Y-67040000D03*
X136050000Y-65040000D03*
X134050000Y-67040000D03*
X134050000Y-65040000D03*
%TD*%
D19*
%TO.C,J3*%
X161560000Y-94550000D03*
D20*
X163560000Y-94550000D03*
X161560000Y-92550000D03*
X163560000Y-92550000D03*
X161560000Y-90550000D03*
X163560000Y-90550000D03*
X161560000Y-88550000D03*
X163560000Y-88550000D03*
X161560000Y-86550000D03*
X163560000Y-86550000D03*
X161560000Y-84550000D03*
X163560000Y-84550000D03*
X161560000Y-82550000D03*
X163560000Y-82550000D03*
X161560000Y-80550000D03*
X163560000Y-80550000D03*
X161560000Y-78550000D03*
X163560000Y-78550000D03*
X161560000Y-76550000D03*
X163560000Y-76550000D03*
X161560000Y-74550000D03*
X163560000Y-74550000D03*
X161560000Y-72550000D03*
X163560000Y-72550000D03*
X161560000Y-70550000D03*
X163560000Y-70550000D03*
%TD*%
%TO.C,J2*%
X158050000Y-100060000D03*
X158050000Y-98060000D03*
X156050000Y-100060000D03*
X156050000Y-98060000D03*
X154050000Y-100060000D03*
X154050000Y-98060000D03*
X152050000Y-100060000D03*
X152050000Y-98060000D03*
X150050000Y-100060000D03*
X150050000Y-98060000D03*
X148050000Y-100060000D03*
X148050000Y-98060000D03*
X146050000Y-100060000D03*
X146050000Y-98060000D03*
X144050000Y-100060000D03*
X144050000Y-98060000D03*
X142050000Y-100060000D03*
X142050000Y-98060000D03*
X140050000Y-100060000D03*
X140050000Y-98060000D03*
X138050000Y-100060000D03*
X138050000Y-98060000D03*
X136050000Y-100060000D03*
X136050000Y-98060000D03*
X134050000Y-100060000D03*
D19*
X134050000Y-98060000D03*
%TD*%
%TO.C,J1*%
X130540000Y-70550000D03*
D20*
X128540000Y-70550000D03*
X130540000Y-72550000D03*
X128540000Y-72550000D03*
X130540000Y-74550000D03*
X128540000Y-74550000D03*
X130540000Y-76550000D03*
X128540000Y-76550000D03*
X130540000Y-78550000D03*
X128540000Y-78550000D03*
X130540000Y-80550000D03*
X128540000Y-80550000D03*
X130540000Y-82550000D03*
X128540000Y-82550000D03*
X130540000Y-84550000D03*
X128540000Y-84550000D03*
X130540000Y-86550000D03*
X128540000Y-86550000D03*
X130540000Y-88550000D03*
X128540000Y-88550000D03*
X130540000Y-90550000D03*
X128540000Y-90550000D03*
X130540000Y-92550000D03*
X128540000Y-92550000D03*
X130540000Y-94550000D03*
X128540000Y-94550000D03*
%TD*%
D21*
%TO.C,C5*%
X143485000Y-87947500D03*
X140360000Y-87947500D03*
%TD*%
%TO.C,C4*%
X146075000Y-87947500D03*
X149200000Y-87947500D03*
%TD*%
D22*
%TO.C,C3*%
X147727500Y-93980000D03*
X149452500Y-93980000D03*
%TD*%
%TO.C,C2*%
X137387500Y-79692500D03*
X135662500Y-79692500D03*
%TD*%
D23*
%TO.C,C1*%
X156437500Y-79692500D03*
X154712500Y-79692500D03*
%TD*%
M02*
