%TF.GenerationSoftware,KiCad,Pcbnew,(6.0.2)*%
%TF.CreationDate,2026-01-28T08:29:43-08:00*%
%TF.ProjectId,i386sx-socket,69333836-7378-42d7-936f-636b65742e6b,1.0*%
%TF.SameCoordinates,Original*%
%TF.FileFunction,Copper,L2,Bot*%
%TF.FilePolarity,Positive*%
%FSLAX46Y46*%
G04 Gerber Fmt 4.6, Leading zero omitted, Abs format (unit mm)*
G04 Created by KiCad (PCBNEW (6.0.2)) date 2026-01-28 08:29:43*
%MOMM*%
%LPD*%
G01*
G04 APERTURE LIST*
G04 Aperture macros list*
%AMRoundRect*
0 Rectangle with rounded corners*
0 $1 Rounding radius*
0 $2 $3 $4 $5 $6 $7 $8 $9 X,Y pos of 4 corners*
0 Add a 4 corners polygon primitive as box body*
4,1,4,$2,$3,$4,$5,$6,$7,$8,$9,$2,$3,0*
0 Add four circle primitives for the rounded corners*
1,1,$1+$1,$2,$3*
1,1,$1+$1,$4,$5*
1,1,$1+$1,$6,$7*
1,1,$1+$1,$8,$9*
0 Add four rect primitives between the rounded corners*
20,1,$1+$1,$2,$3,$4,$5,0*
20,1,$1+$1,$4,$5,$6,$7,0*
20,1,$1+$1,$6,$7,$8,$9,0*
20,1,$1+$1,$8,$9,$2,$3,0*%
%AMFreePoly0*
4,1,22,0.500000,-0.750000,0.000000,-0.750000,0.000000,-0.745033,-0.079941,-0.743568,-0.215256,-0.701293,-0.333266,-0.622738,-0.424486,-0.514219,-0.481581,-0.384460,-0.499164,-0.250000,-0.500000,-0.250000,-0.500000,0.250000,-0.499164,0.250000,-0.499963,0.256109,-0.478152,0.396186,-0.417904,0.524511,-0.324060,0.630769,-0.204165,0.706417,-0.067858,0.745374,0.000000,0.744959,0.000000,0.750000,
0.500000,0.750000,0.500000,-0.750000,0.500000,-0.750000,$1*%
%AMFreePoly1*
4,1,20,0.000000,0.744959,0.073905,0.744508,0.209726,0.703889,0.328688,0.626782,0.421226,0.519385,0.479903,0.390333,0.500000,0.250000,0.500000,-0.250000,0.499851,-0.262216,0.476331,-0.402017,0.414519,-0.529596,0.319384,-0.634700,0.198574,-0.708877,0.061801,-0.746166,0.000000,-0.745033,0.000000,-0.750000,-0.500000,-0.750000,-0.500000,0.750000,0.000000,0.750000,0.000000,0.744959,
0.000000,0.744959,$1*%
%AMFreePoly2*
4,1,22,0.550000,-0.750000,0.000000,-0.750000,0.000000,-0.745033,-0.079941,-0.743568,-0.215256,-0.701293,-0.333266,-0.622738,-0.424486,-0.514219,-0.481581,-0.384460,-0.499164,-0.250000,-0.500000,-0.250000,-0.500000,0.250000,-0.499164,0.250000,-0.499963,0.256109,-0.478152,0.396186,-0.417904,0.524511,-0.324060,0.630769,-0.204165,0.706417,-0.067858,0.745374,0.000000,0.744959,0.000000,0.750000,
0.550000,0.750000,0.550000,-0.750000,0.550000,-0.750000,$1*%
%AMFreePoly3*
4,1,20,0.000000,0.744959,0.073905,0.744508,0.209726,0.703889,0.328688,0.626782,0.421226,0.519385,0.479903,0.390333,0.500000,0.250000,0.500000,-0.250000,0.499851,-0.262216,0.476331,-0.402017,0.414519,-0.529596,0.319384,-0.634700,0.198574,-0.708877,0.061801,-0.746166,0.000000,-0.745033,0.000000,-0.750000,-0.550000,-0.750000,-0.550000,0.750000,0.000000,0.750000,0.000000,0.744959,
0.000000,0.744959,$1*%
G04 Aperture macros list end*
%TA.AperFunction,SMDPad,CuDef*%
%ADD10FreePoly0,0.000000*%
%TD*%
%TA.AperFunction,SMDPad,CuDef*%
%ADD11FreePoly1,0.000000*%
%TD*%
%TA.AperFunction,SMDPad,CuDef*%
%ADD12RoundRect,0.237500X0.300000X0.237500X-0.300000X0.237500X-0.300000X-0.237500X0.300000X-0.237500X0*%
%TD*%
%TA.AperFunction,ComponentPad*%
%ADD13R,1.350000X1.350000*%
%TD*%
%TA.AperFunction,ComponentPad*%
%ADD14O,1.350000X1.350000*%
%TD*%
%TA.AperFunction,SMDPad,CuDef*%
%ADD15FreePoly2,180.000000*%
%TD*%
%TA.AperFunction,SMDPad,CuDef*%
%ADD16R,1.000000X1.500000*%
%TD*%
%TA.AperFunction,SMDPad,CuDef*%
%ADD17FreePoly3,180.000000*%
%TD*%
%TA.AperFunction,SMDPad,CuDef*%
%ADD18RoundRect,0.237500X-0.300000X-0.237500X0.300000X-0.237500X0.300000X0.237500X-0.300000X0.237500X0*%
%TD*%
%TA.AperFunction,SMDPad,CuDef*%
%ADD19FreePoly0,180.000000*%
%TD*%
%TA.AperFunction,SMDPad,CuDef*%
%ADD20FreePoly1,180.000000*%
%TD*%
%TA.AperFunction,SMDPad,CuDef*%
%ADD21RoundRect,0.250000X0.412500X0.650000X-0.412500X0.650000X-0.412500X-0.650000X0.412500X-0.650000X0*%
%TD*%
%TA.AperFunction,SMDPad,CuDef*%
%ADD22R,2.200000X1.200000*%
%TD*%
%TA.AperFunction,SMDPad,CuDef*%
%ADD23R,6.400000X5.800000*%
%TD*%
%TA.AperFunction,ViaPad*%
%ADD24C,0.800000*%
%TD*%
%TA.AperFunction,Conductor*%
%ADD25C,0.250000*%
%TD*%
%TA.AperFunction,Conductor*%
%ADD26C,1.000000*%
%TD*%
%TA.AperFunction,Conductor*%
%ADD27C,1.200000*%
%TD*%
G04 APERTURE END LIST*
%TO.C,JP2*%
G36*
X136775000Y-84572500D02*
G01*
X136275000Y-84572500D01*
X136275000Y-84172500D01*
X136775000Y-84172500D01*
X136775000Y-84572500D01*
G37*
G36*
X136775000Y-85372500D02*
G01*
X136275000Y-85372500D01*
X136275000Y-84972500D01*
X136775000Y-84972500D01*
X136775000Y-85372500D01*
G37*
%TO.C,JP3*%
G36*
X153935000Y-94580000D02*
G01*
X153435000Y-94580000D01*
X153435000Y-94180000D01*
X153935000Y-94180000D01*
X153935000Y-94580000D01*
G37*
G36*
X153935000Y-93780000D02*
G01*
X153435000Y-93780000D01*
X153435000Y-93380000D01*
X153935000Y-93380000D01*
X153935000Y-93780000D01*
G37*
%TO.C,JP1*%
G36*
X155825000Y-84572500D02*
G01*
X155325000Y-84572500D01*
X155325000Y-84172500D01*
X155825000Y-84172500D01*
X155825000Y-84572500D01*
G37*
G36*
X155825000Y-85372500D02*
G01*
X155325000Y-85372500D01*
X155325000Y-84972500D01*
X155825000Y-84972500D01*
X155825000Y-85372500D01*
G37*
%TD*%
D10*
%TO.P,JP2,1,A*%
%TO.N,VCC*%
X135875000Y-84772500D03*
D11*
%TO.P,JP2,2,B*%
%TO.N,/VCC_CORE*%
X137175000Y-84772500D03*
%TD*%
D12*
%TO.P,C3,1*%
%TO.N,/~{RPLSET}{slash}VCC5*%
X149452500Y-93980000D03*
%TO.P,C3,2*%
%TO.N,GND*%
X147727500Y-93980000D03*
%TD*%
D13*
%TO.P,J4,1,Pin_1*%
%TO.N,/A21*%
X158050000Y-67040000D03*
D14*
%TO.P,J4,2,Pin_2*%
%TO.N,GND*%
X158050000Y-65040000D03*
%TO.P,J4,3,Pin_3*%
X156050000Y-67040000D03*
%TO.P,J4,4,Pin_4*%
%TO.N,/A22*%
X156050000Y-65040000D03*
%TO.P,J4,5,Pin_5*%
%TO.N,/A23*%
X154050000Y-67040000D03*
%TO.P,J4,6,Pin_6*%
%TO.N,/D15*%
X154050000Y-65040000D03*
%TO.P,J4,7,Pin_7*%
%TO.N,/D14*%
X152050000Y-67040000D03*
%TO.P,J4,8,Pin_8*%
%TO.N,/D13*%
X152050000Y-65040000D03*
%TO.P,J4,9,Pin_9*%
%TO.N,VCC*%
X150050000Y-67040000D03*
%TO.P,J4,10,Pin_10*%
%TO.N,GND*%
X150050000Y-65040000D03*
%TO.P,J4,11,Pin_11*%
%TO.N,/D12*%
X148050000Y-67040000D03*
%TO.P,J4,12,Pin_12*%
%TO.N,/D11*%
X148050000Y-65040000D03*
%TO.P,J4,13,Pin_13*%
%TO.N,/D10*%
X146050000Y-67040000D03*
%TO.P,J4,14,Pin_14*%
%TO.N,/D9*%
X146050000Y-65040000D03*
%TO.P,J4,15,Pin_15*%
%TO.N,/D8*%
X144050000Y-67040000D03*
%TO.P,J4,16,Pin_16*%
%TO.N,VCC*%
X144050000Y-65040000D03*
%TO.P,J4,17,Pin_17*%
%TO.N,/D7*%
X142050000Y-67040000D03*
%TO.P,J4,18,Pin_18*%
%TO.N,/D6*%
X142050000Y-65040000D03*
%TO.P,J4,19,Pin_19*%
%TO.N,/D5*%
X140050000Y-67040000D03*
%TO.P,J4,20,Pin_20*%
%TO.N,/D4*%
X140050000Y-65040000D03*
%TO.P,J4,21,Pin_21*%
%TO.N,/D3*%
X138050000Y-67040000D03*
%TO.P,J4,22,Pin_22*%
%TO.N,VCC*%
X138050000Y-65040000D03*
%TO.P,J4,23,Pin_23*%
%TO.N,GND*%
X136050000Y-67040000D03*
%TO.P,J4,24,Pin_24*%
%TO.N,/D2*%
X136050000Y-65040000D03*
%TO.P,J4,25,Pin_25*%
%TO.N,/D1*%
X134050000Y-67040000D03*
%TO.P,J4,26,Pin_26*%
%TO.N,unconnected-(J4-Pad26)*%
X134050000Y-65040000D03*
%TD*%
D12*
%TO.P,C2,1*%
%TO.N,/VCC_CORE*%
X137387500Y-79692500D03*
%TO.P,C2,2*%
%TO.N,GND*%
X135662500Y-79692500D03*
%TD*%
D15*
%TO.P,JP3,1,A*%
%TO.N,/~{RPLSET}*%
X154335000Y-93980000D03*
D16*
%TO.P,JP3,2,C*%
%TO.N,/~{RPLSET}{slash}VCC5*%
X153035000Y-93980000D03*
D17*
%TO.P,JP3,3,B*%
%TO.N,VCC*%
X151735000Y-93980000D03*
%TD*%
D18*
%TO.P,C1,1*%
%TO.N,/VCC_CORE*%
X154712500Y-79692500D03*
%TO.P,C1,2*%
%TO.N,GND*%
X156437500Y-79692500D03*
%TD*%
D19*
%TO.P,JP1,1,A*%
%TO.N,VCC*%
X156225000Y-84772500D03*
D20*
%TO.P,JP1,2,B*%
%TO.N,/VCC_CORE*%
X154925000Y-84772500D03*
%TD*%
D13*
%TO.P,J2,1,Pin_1*%
%TO.N,/~{LOCK}*%
X134050000Y-98060000D03*
D14*
%TO.P,J2,2,Pin_2*%
%TO.N,/NC*%
X134050000Y-100060000D03*
%TO.P,J2,3,Pin_3*%
%TO.N,/~{FLT}*%
X136050000Y-98060000D03*
%TO.P,J2,4,Pin_4*%
%TO.N,/~{KEN}*%
X136050000Y-100060000D03*
%TO.P,J2,5,Pin_5*%
%TO.N,/~{FLUSH}*%
X138050000Y-98060000D03*
%TO.P,J2,6,Pin_6*%
%TO.N,/~{A20M}*%
X138050000Y-100060000D03*
%TO.P,J2,7,Pin_7*%
%TO.N,VCC*%
X140050000Y-98060000D03*
%TO.P,J2,8,Pin_8*%
%TO.N,/RESET*%
X140050000Y-100060000D03*
%TO.P,J2,9,Pin_9*%
%TO.N,/~{BUSY}*%
X142050000Y-98060000D03*
%TO.P,J2,10,Pin_10*%
%TO.N,GND*%
X142050000Y-100060000D03*
%TO.P,J2,11,Pin_11*%
%TO.N,/~{ERROR}*%
X144050000Y-98060000D03*
%TO.P,J2,12,Pin_12*%
%TO.N,/PEREQ*%
X144050000Y-100060000D03*
%TO.P,J2,13,Pin_13*%
%TO.N,/NMI*%
X146050000Y-98060000D03*
%TO.P,J2,14,Pin_14*%
%TO.N,VCC*%
X146050000Y-100060000D03*
%TO.P,J2,15,Pin_15*%
%TO.N,/INTR*%
X148050000Y-98060000D03*
%TO.P,J2,16,Pin_16*%
%TO.N,GND*%
X148050000Y-100060000D03*
%TO.P,J2,17,Pin_17*%
%TO.N,VCC*%
X150050000Y-98060000D03*
%TO.P,J2,18,Pin_18*%
%TO.N,/~{SUSP}*%
X150050000Y-100060000D03*
%TO.P,J2,19,Pin_19*%
%TO.N,/~{SUSPA}*%
X152050000Y-98060000D03*
%TO.P,J2,20,Pin_20*%
%TO.N,/~{RPLSET}*%
X152050000Y-100060000D03*
%TO.P,J2,21,Pin_21*%
%TO.N,/~{RPLVAL}*%
X154050000Y-98060000D03*
%TO.P,J2,22,Pin_22*%
%TO.N,/~{SMI}*%
X154050000Y-100060000D03*
%TO.P,J2,23,Pin_23*%
%TO.N,VCC*%
X156050000Y-98060000D03*
%TO.P,J2,24,Pin_24*%
%TO.N,GND*%
X156050000Y-100060000D03*
%TO.P,J2,25,Pin_25*%
X158050000Y-98060000D03*
%TO.P,J2,26,Pin_26*%
%TO.N,unconnected-(J2-Pad26)*%
X158050000Y-100060000D03*
%TD*%
D13*
%TO.P,J3,1,Pin_1*%
%TO.N,/A2*%
X161560000Y-94550000D03*
D14*
%TO.P,J3,2,Pin_2*%
%TO.N,/A3*%
X163560000Y-94550000D03*
%TO.P,J3,3,Pin_3*%
%TO.N,/A4*%
X161560000Y-92550000D03*
%TO.P,J3,4,Pin_4*%
%TO.N,/A5*%
X163560000Y-92550000D03*
%TO.P,J3,5,Pin_5*%
%TO.N,/A6*%
X161560000Y-90550000D03*
%TO.P,J3,6,Pin_6*%
%TO.N,/A7*%
X163560000Y-90550000D03*
%TO.P,J3,7,Pin_7*%
%TO.N,VCC*%
X161560000Y-88550000D03*
%TO.P,J3,8,Pin_8*%
%TO.N,/A8*%
X163560000Y-88550000D03*
%TO.P,J3,9,Pin_9*%
%TO.N,/A9*%
X161560000Y-86550000D03*
%TO.P,J3,10,Pin_10*%
%TO.N,/A10*%
X163560000Y-86550000D03*
%TO.P,J3,11,Pin_11*%
%TO.N,/A11*%
X161560000Y-84550000D03*
%TO.P,J3,12,Pin_12*%
%TO.N,/A12*%
X163560000Y-84550000D03*
%TO.P,J3,13,Pin_13*%
%TO.N,GND*%
X161560000Y-82550000D03*
%TO.P,J3,14,Pin_14*%
%TO.N,/A13*%
X163560000Y-82550000D03*
%TO.P,J3,15,Pin_15*%
%TO.N,/A14*%
X161560000Y-80550000D03*
%TO.P,J3,16,Pin_16*%
%TO.N,/A15*%
X163560000Y-80550000D03*
%TO.P,J3,17,Pin_17*%
%TO.N,GND*%
X161560000Y-78550000D03*
%TO.P,J3,18,Pin_18*%
X163560000Y-78550000D03*
%TO.P,J3,19,Pin_19*%
%TO.N,VCC*%
X161560000Y-76550000D03*
%TO.P,J3,20,Pin_20*%
%TO.N,/A16*%
X163560000Y-76550000D03*
%TO.P,J3,21,Pin_21*%
%TO.N,VCC*%
X161560000Y-74550000D03*
%TO.P,J3,22,Pin_22*%
%TO.N,/A17*%
X163560000Y-74550000D03*
%TO.P,J3,23,Pin_23*%
%TO.N,/A18*%
X161560000Y-72550000D03*
%TO.P,J3,24,Pin_24*%
%TO.N,/A19*%
X163560000Y-72550000D03*
%TO.P,J3,25,Pin_25*%
%TO.N,/A20*%
X161560000Y-70550000D03*
%TO.P,J3,26,Pin_26*%
%TO.N,unconnected-(J3-Pad26)*%
X163560000Y-70550000D03*
%TD*%
D21*
%TO.P,C5,1*%
%TO.N,/VCC_CORE*%
X143485000Y-87947500D03*
%TO.P,C5,2*%
%TO.N,GND*%
X140360000Y-87947500D03*
%TD*%
D22*
%TO.P,U2,1,GND*%
%TO.N,GND*%
X150250000Y-80270000D03*
D23*
%TO.P,U2,2,VO*%
%TO.N,/VCC_CORE*%
X143950000Y-82550000D03*
D22*
%TO.P,U2,3,VI*%
%TO.N,VCC*%
X150250000Y-84830000D03*
%TD*%
D21*
%TO.P,C4,1*%
%TO.N,VCC*%
X149200000Y-87947500D03*
%TO.P,C4,2*%
%TO.N,GND*%
X146075000Y-87947500D03*
%TD*%
D13*
%TO.P,J1,1,Pin_1*%
%TO.N,/D0*%
X130540000Y-70550000D03*
D14*
%TO.P,J1,2,Pin_2*%
%TO.N,GND*%
X128540000Y-70550000D03*
%TO.P,J1,3,Pin_3*%
%TO.N,/HLDA*%
X130540000Y-72550000D03*
%TO.P,J1,4,Pin_4*%
%TO.N,/HOLD*%
X128540000Y-72550000D03*
%TO.P,J1,5,Pin_5*%
%TO.N,GND*%
X130540000Y-74550000D03*
%TO.P,J1,6,Pin_6*%
%TO.N,/~{NA}*%
X128540000Y-74550000D03*
%TO.P,J1,7,Pin_7*%
%TO.N,/~{READY}*%
X130540000Y-76550000D03*
%TO.P,J1,8,Pin_8*%
%TO.N,VCC*%
X128540000Y-76550000D03*
%TO.P,J1,9,Pin_9*%
X130540000Y-78550000D03*
%TO.P,J1,10,Pin_10*%
X128540000Y-78550000D03*
%TO.P,J1,11,Pin_11*%
%TO.N,GND*%
X130540000Y-80550000D03*
%TO.P,J1,12,Pin_12*%
X128540000Y-80550000D03*
%TO.P,J1,13,Pin_13*%
X130540000Y-82550000D03*
%TO.P,J1,14,Pin_14*%
X128540000Y-82550000D03*
%TO.P,J1,15,Pin_15*%
%TO.N,/CLK2*%
X130540000Y-84550000D03*
%TO.P,J1,16,Pin_16*%
%TO.N,/~{ADS}*%
X128540000Y-84550000D03*
%TO.P,J1,17,Pin_17*%
%TO.N,/~{BLE}*%
X130540000Y-86550000D03*
%TO.P,J1,18,Pin_18*%
%TO.N,/A1*%
X128540000Y-86550000D03*
%TO.P,J1,19,Pin_19*%
%TO.N,/~{BHE}*%
X130540000Y-88550000D03*
%TO.P,J1,20,Pin_20*%
%TO.N,/~{SMADS}*%
X128540000Y-88550000D03*
%TO.P,J1,21,Pin_21*%
%TO.N,VCC*%
X130540000Y-90550000D03*
%TO.P,J1,22,Pin_22*%
%TO.N,GND*%
X128540000Y-90550000D03*
%TO.P,J1,23,Pin_23*%
%TO.N,/M{slash}~{IO}*%
X130540000Y-92550000D03*
%TO.P,J1,24,Pin_24*%
%TO.N,/D{slash}~{C}*%
X128540000Y-92550000D03*
%TO.P,J1,25,Pin_25*%
%TO.N,/W{slash}~{R}*%
X130540000Y-94550000D03*
%TO.P,J1,26,Pin_26*%
%TO.N,unconnected-(J1-Pad26)*%
X128540000Y-94550000D03*
%TD*%
D24*
%TO.N,/VCC_CORE*%
X154305000Y-86360000D03*
X140335000Y-74295000D03*
X154305000Y-77470000D03*
X152400000Y-90805000D03*
X137795000Y-80645000D03*
X137795000Y-87630000D03*
X137795000Y-78740000D03*
X142240000Y-90805000D03*
X148590000Y-74295000D03*
X146685000Y-90805000D03*
X144145000Y-74295000D03*
X154305000Y-78740000D03*
X148590000Y-90805000D03*
%TO.N,GND*%
X140335000Y-89535000D03*
X149225000Y-81915000D03*
X132715000Y-79692500D03*
X148500500Y-95885000D03*
X159067500Y-79692500D03*
X146050000Y-89535000D03*
X151511000Y-81915000D03*
X150368000Y-81915000D03*
%TO.N,/~{RPLSET}{slash}VCC5*%
X150610604Y-95769397D03*
%TO.N,/~{RPLSET}*%
X153035000Y-99060000D03*
%TD*%
D25*
%TO.N,/VCC_CORE*%
X144145000Y-74295000D02*
X148590000Y-74295000D01*
X137795000Y-90805000D02*
X137795000Y-87630000D01*
X137795000Y-78740000D02*
X137795000Y-74295000D01*
X152400000Y-90805000D02*
X148590000Y-90805000D01*
X148590000Y-90805000D02*
X146685000Y-90805000D01*
X148590000Y-74295000D02*
X154305000Y-74295000D01*
X137795000Y-74295000D02*
X140335000Y-74295000D01*
X137795000Y-80645000D02*
X137795000Y-78740000D01*
X137175000Y-84772500D02*
X137795000Y-84772500D01*
X146685000Y-90805000D02*
X142240000Y-90805000D01*
X154305000Y-74295000D02*
X154305000Y-77470000D01*
X142240000Y-90805000D02*
X137795000Y-90805000D01*
X137795000Y-84772500D02*
X137795000Y-82550000D01*
X140335000Y-74295000D02*
X144145000Y-74295000D01*
X137795000Y-87630000D02*
X137795000Y-84772500D01*
X154305000Y-78740000D02*
X154305000Y-77470000D01*
X154305000Y-86360000D02*
X154305000Y-78740000D01*
X137795000Y-82550000D02*
X137795000Y-80645000D01*
D26*
%TO.N,GND*%
X147727500Y-95112000D02*
X148500500Y-95885000D01*
D25*
X149225000Y-81915000D02*
X150368000Y-81915000D01*
X150250000Y-81797000D02*
X150250000Y-80270000D01*
X150368000Y-81915000D02*
X151511000Y-81915000D01*
D26*
X135662500Y-79692500D02*
X132715000Y-79692500D01*
D27*
X146075000Y-89510000D02*
X146075000Y-87947500D01*
D26*
X156437500Y-79692500D02*
X159067500Y-79692500D01*
D27*
X146050000Y-89535000D02*
X146075000Y-89510000D01*
D26*
X147727500Y-93980000D02*
X147727500Y-95112000D01*
D27*
X140335000Y-89535000D02*
X140360000Y-89510000D01*
D25*
X150368000Y-81915000D02*
X150250000Y-81797000D01*
D27*
X140360000Y-89510000D02*
X140360000Y-87947500D01*
D26*
%TO.N,/~{RPLSET}{slash}VCC5*%
X153035000Y-95250000D02*
X152400000Y-95885000D01*
X150726207Y-95885000D02*
X150610604Y-95769397D01*
X150610604Y-95769397D02*
X149452500Y-94611293D01*
X153035000Y-93980000D02*
X153035000Y-95250000D01*
X149452500Y-94611293D02*
X149452500Y-93980000D01*
X152400000Y-95885000D02*
X150726207Y-95885000D01*
D25*
%TO.N,VCC*%
X127317500Y-96520000D02*
X127317500Y-92075000D01*
X141605000Y-101282500D02*
X141050489Y-100727989D01*
X141050489Y-100727989D02*
X141050489Y-99060489D01*
X132080000Y-77470000D02*
X132080000Y-78740000D01*
X144050000Y-65040000D02*
X145049511Y-66039511D01*
X162574511Y-75550489D02*
X162560000Y-75565000D01*
X162545000Y-75565000D02*
X161560000Y-76550000D01*
X151050489Y-63897011D02*
X151130000Y-63817500D01*
X147050489Y-96567989D02*
X147002500Y-96520000D01*
X144827500Y-101282500D02*
X141605000Y-101282500D01*
X151050489Y-66039511D02*
X151050489Y-63897011D01*
X145049511Y-68532011D02*
X145097500Y-68580000D01*
X150050000Y-96710000D02*
X150050000Y-98060000D01*
X132080000Y-90487500D02*
X132017500Y-90550000D01*
X127317500Y-89217500D02*
X127317500Y-79772500D01*
X161560000Y-88550000D02*
X162559511Y-89549511D01*
X161560000Y-88550000D02*
X159987500Y-88550000D01*
X135875000Y-84772500D02*
X132080000Y-84772500D01*
X145050489Y-96567011D02*
X145050489Y-99060489D01*
X129539511Y-91550489D02*
X130540000Y-90550000D01*
X139065000Y-100965000D02*
X138747500Y-101282500D01*
X149050489Y-66040489D02*
X149050489Y-63992011D01*
X149542500Y-96837500D02*
X149860000Y-96520000D01*
X162559511Y-87550489D02*
X164544511Y-87550489D01*
X146685000Y-92710000D02*
X148590000Y-92710000D01*
X162559511Y-77549511D02*
X161560000Y-76550000D01*
X159987500Y-88550000D02*
X160020000Y-88517500D01*
X155049511Y-99060489D02*
X155049511Y-100855489D01*
X140017500Y-96520000D02*
X140050000Y-96552500D01*
X157049511Y-99059511D02*
X156050000Y-98060000D01*
X138050000Y-65040000D02*
X137049511Y-66040489D01*
X151050489Y-100885489D02*
X151050489Y-99060489D01*
X157480000Y-101282500D02*
X157049511Y-100852011D01*
X129539511Y-77549511D02*
X132000489Y-77549511D01*
X139050489Y-66040489D02*
X138050000Y-65040000D01*
X149225000Y-63817500D02*
X159702500Y-63817500D01*
X147272500Y-101282500D02*
X146050000Y-100060000D01*
X143050489Y-68404511D02*
X142875000Y-68580000D01*
X128540000Y-76550000D02*
X128540000Y-78550000D01*
X146367500Y-93027500D02*
X146685000Y-92710000D01*
X164782500Y-98107500D02*
X161607500Y-101282500D01*
X129539511Y-75550489D02*
X128540000Y-76550000D01*
X159702500Y-63817500D02*
X159702500Y-74612500D01*
X140050000Y-96552500D02*
X140050000Y-98060000D01*
X159702500Y-76517500D02*
X159702500Y-74612500D01*
X132080000Y-82550000D02*
X131762500Y-82232500D01*
X162559511Y-73550489D02*
X164355489Y-73550489D01*
X162560000Y-75565000D02*
X162545000Y-75565000D01*
X155892500Y-92710000D02*
X156050000Y-92867500D01*
X164782500Y-75565000D02*
X164767989Y-75550489D01*
X159765000Y-74550000D02*
X161560000Y-74550000D01*
X157049511Y-100852011D02*
X157049511Y-99059511D01*
X146367500Y-96520000D02*
X146367500Y-93027500D01*
X161560000Y-74550000D02*
X162559511Y-73550489D01*
X156050000Y-92867500D02*
X156050000Y-98060000D01*
X147002500Y-96520000D02*
X146367500Y-96520000D01*
X137049511Y-66040489D02*
X137049511Y-68469511D01*
X131890000Y-78550000D02*
X130540000Y-78550000D01*
X159702500Y-76517500D02*
X159735000Y-76550000D01*
X162559511Y-89549511D02*
X164479511Y-89549511D01*
X150050000Y-67040000D02*
X151050489Y-66039511D01*
X151050489Y-99060489D02*
X150050000Y-98060000D01*
X160020000Y-88517500D02*
X160020000Y-76835000D01*
X132080000Y-90487500D02*
X132080000Y-84772500D01*
X127842011Y-91550489D02*
X129539511Y-91550489D01*
X132000489Y-77549511D02*
X132080000Y-77470000D01*
X164782500Y-87312500D02*
X164782500Y-77787500D01*
X161560000Y-88550000D02*
X162559511Y-87550489D01*
X164782500Y-73977500D02*
X164782500Y-75565000D01*
X159735000Y-76550000D02*
X161560000Y-76550000D01*
X139050489Y-99059511D02*
X139050489Y-100950489D01*
X164544511Y-87550489D02*
X164782500Y-87312500D01*
X129539511Y-89549511D02*
X127649511Y-89549511D01*
X131762500Y-79057500D02*
X132080000Y-78740000D01*
X146050000Y-100060000D02*
X147050489Y-99059511D01*
X137049511Y-68469511D02*
X137160000Y-68580000D01*
X161607500Y-101282500D02*
X157480000Y-101282500D01*
X151447500Y-101282500D02*
X151050489Y-100885489D01*
X150050000Y-67040000D02*
X149050489Y-66040489D01*
X164782500Y-77787500D02*
X164544511Y-77549511D01*
X154622500Y-101282500D02*
X151447500Y-101282500D01*
X127317500Y-92075000D02*
X127842011Y-91550489D01*
X143050489Y-66039511D02*
X143050489Y-68404511D01*
X132080000Y-77470000D02*
X132080000Y-75565000D01*
X148590000Y-92710000D02*
X155892500Y-92710000D01*
X145050489Y-99060489D02*
X146050000Y-100060000D01*
X141050489Y-99060489D02*
X140050000Y-98060000D01*
X138747500Y-68580000D02*
X142875000Y-68580000D01*
X144050000Y-65040000D02*
X143050489Y-66039511D01*
X164767989Y-75550489D02*
X162574511Y-75550489D01*
X128540000Y-76550000D02*
X129539511Y-77549511D01*
X149050489Y-99059511D02*
X149050489Y-100822011D01*
X146367500Y-96520000D02*
X145097500Y-96520000D01*
X132017500Y-90550000D02*
X130540000Y-90550000D01*
X149050489Y-63992011D02*
X149225000Y-63817500D01*
X149050489Y-100822011D02*
X148590000Y-101282500D01*
X147050489Y-99059511D02*
X147050489Y-96567989D01*
X145097500Y-68580000D02*
X150050000Y-68580000D01*
X150050000Y-68580000D02*
X150050000Y-67040000D01*
X147002500Y-96520000D02*
X147320000Y-96837500D01*
X132080000Y-75565000D02*
X132065489Y-75550489D01*
X132080000Y-96520000D02*
X132080000Y-90487500D01*
X148590000Y-101282500D02*
X147272500Y-101282500D01*
X140017500Y-96520000D02*
X132080000Y-96520000D01*
X127317500Y-79772500D02*
X128540000Y-78550000D01*
X130540000Y-78550000D02*
X128540000Y-78550000D01*
X142875000Y-68580000D02*
X145097500Y-68580000D01*
X160020000Y-76835000D02*
X159702500Y-76517500D01*
X149860000Y-96520000D02*
X150050000Y-96710000D01*
X145049511Y-66039511D02*
X145049511Y-68532011D01*
X132065489Y-75550489D02*
X129539511Y-75550489D01*
X156050000Y-98060000D02*
X155049511Y-99060489D01*
X138747500Y-68580000D02*
X139050489Y-68277011D01*
X139050489Y-68277011D02*
X139050489Y-66040489D01*
X145097500Y-96520000D02*
X145050489Y-96567011D01*
X159702500Y-74612500D02*
X159765000Y-74550000D01*
X130540000Y-90550000D02*
X129539511Y-89549511D01*
X132080000Y-84772500D02*
X132080000Y-82550000D01*
X137160000Y-68580000D02*
X138747500Y-68580000D01*
X147320000Y-96837500D02*
X149542500Y-96837500D01*
X139050489Y-100950489D02*
X139065000Y-100965000D01*
X127649511Y-89549511D02*
X127317500Y-89217500D01*
X164355489Y-73550489D02*
X164782500Y-73977500D01*
X164782500Y-89852500D02*
X164782500Y-98107500D01*
X150050000Y-98060000D02*
X149050489Y-99059511D01*
X132080000Y-78740000D02*
X131890000Y-78550000D01*
X164479511Y-89549511D02*
X164782500Y-89852500D01*
X155049511Y-100855489D02*
X154622500Y-101282500D01*
X140050000Y-98060000D02*
X139050489Y-99059511D01*
X164544511Y-77549511D02*
X162559511Y-77549511D01*
X138747500Y-101282500D02*
X132080000Y-101282500D01*
X132080000Y-101282500D02*
X127317500Y-96520000D01*
X146050000Y-100060000D02*
X144827500Y-101282500D01*
X145097500Y-96520000D02*
X140017500Y-96520000D01*
X131762500Y-82232500D02*
X131762500Y-79057500D01*
%TO.N,/~{RPLSET}*%
X153049511Y-97140489D02*
X154335000Y-95855000D01*
X154335000Y-95855000D02*
X154335000Y-93980000D01*
X153049511Y-99045489D02*
X153049511Y-97140489D01*
X153035000Y-99060000D02*
X153049511Y-99045489D01*
%TD*%
%TA.AperFunction,Conductor*%
%TO.N,GND*%
G36*
X152342121Y-78760002D02*
G01*
X152388614Y-78813658D01*
X152400000Y-78866000D01*
X152400000Y-82424000D01*
X152379998Y-82492121D01*
X152326342Y-82538614D01*
X152274000Y-82550000D01*
X148398500Y-82550000D01*
X148330379Y-82529998D01*
X148283886Y-82476342D01*
X148272500Y-82424000D01*
X148272500Y-80914669D01*
X148642001Y-80914669D01*
X148642371Y-80921490D01*
X148647895Y-80972352D01*
X148651521Y-80987604D01*
X148696676Y-81108054D01*
X148705214Y-81123649D01*
X148781715Y-81225724D01*
X148794276Y-81238285D01*
X148896351Y-81314786D01*
X148911946Y-81323324D01*
X149032394Y-81368478D01*
X149047649Y-81372105D01*
X149098514Y-81377631D01*
X149105328Y-81378000D01*
X149977885Y-81378000D01*
X149993124Y-81373525D01*
X149994329Y-81372135D01*
X149996000Y-81364452D01*
X149996000Y-81359884D01*
X150504000Y-81359884D01*
X150508475Y-81375123D01*
X150509865Y-81376328D01*
X150517548Y-81377999D01*
X151394669Y-81377999D01*
X151401490Y-81377629D01*
X151452352Y-81372105D01*
X151467604Y-81368479D01*
X151588054Y-81323324D01*
X151603649Y-81314786D01*
X151705724Y-81238285D01*
X151718285Y-81225724D01*
X151794786Y-81123649D01*
X151803324Y-81108054D01*
X151848478Y-80987606D01*
X151852105Y-80972351D01*
X151857631Y-80921486D01*
X151858000Y-80914672D01*
X151858000Y-80542115D01*
X151853525Y-80526876D01*
X151852135Y-80525671D01*
X151844452Y-80524000D01*
X150522115Y-80524000D01*
X150506876Y-80528475D01*
X150505671Y-80529865D01*
X150504000Y-80537548D01*
X150504000Y-81359884D01*
X149996000Y-81359884D01*
X149996000Y-80542115D01*
X149991525Y-80526876D01*
X149990135Y-80525671D01*
X149982452Y-80524000D01*
X148660116Y-80524000D01*
X148644877Y-80528475D01*
X148643672Y-80529865D01*
X148642001Y-80537548D01*
X148642001Y-80914669D01*
X148272500Y-80914669D01*
X148272500Y-79997885D01*
X148642000Y-79997885D01*
X148646475Y-80013124D01*
X148647865Y-80014329D01*
X148655548Y-80016000D01*
X149977885Y-80016000D01*
X149993124Y-80011525D01*
X149994329Y-80010135D01*
X149996000Y-80002452D01*
X149996000Y-79997885D01*
X150504000Y-79997885D01*
X150508475Y-80013124D01*
X150509865Y-80014329D01*
X150517548Y-80016000D01*
X151839884Y-80016000D01*
X151855123Y-80011525D01*
X151856328Y-80010135D01*
X151857999Y-80002452D01*
X151857999Y-79625331D01*
X151857629Y-79618510D01*
X151852105Y-79567648D01*
X151848479Y-79552396D01*
X151803324Y-79431946D01*
X151794786Y-79416351D01*
X151718285Y-79314276D01*
X151705724Y-79301715D01*
X151603649Y-79225214D01*
X151588054Y-79216676D01*
X151467606Y-79171522D01*
X151452351Y-79167895D01*
X151401486Y-79162369D01*
X151394672Y-79162000D01*
X150522115Y-79162000D01*
X150506876Y-79166475D01*
X150505671Y-79167865D01*
X150504000Y-79175548D01*
X150504000Y-79997885D01*
X149996000Y-79997885D01*
X149996000Y-79180116D01*
X149991525Y-79164877D01*
X149990135Y-79163672D01*
X149982452Y-79162001D01*
X149105331Y-79162001D01*
X149098510Y-79162371D01*
X149047648Y-79167895D01*
X149032396Y-79171521D01*
X148911946Y-79216676D01*
X148896351Y-79225214D01*
X148794276Y-79301715D01*
X148781715Y-79314276D01*
X148705214Y-79416351D01*
X148696676Y-79431946D01*
X148651522Y-79552394D01*
X148647895Y-79567649D01*
X148642369Y-79618514D01*
X148642000Y-79625328D01*
X148642000Y-79997885D01*
X148272500Y-79997885D01*
X148272500Y-78866000D01*
X148292502Y-78797879D01*
X148346158Y-78751386D01*
X148398500Y-78740000D01*
X152274000Y-78740000D01*
X152342121Y-78760002D01*
G37*
%TD.AperFunction*%
%TD*%
%TA.AperFunction,Conductor*%
%TO.N,/VCC_CORE*%
G36*
X155199621Y-73362502D02*
G01*
X155246114Y-73416158D01*
X155257500Y-73468500D01*
X155257500Y-86869000D01*
X155237498Y-86937121D01*
X155183842Y-86983614D01*
X155131500Y-86995000D01*
X153161000Y-86995000D01*
X153092879Y-86974998D01*
X153046386Y-86921342D01*
X153035000Y-86869000D01*
X153035000Y-78105000D01*
X147637500Y-78105000D01*
X147637500Y-89852500D01*
X153226500Y-89852500D01*
X153294621Y-89872502D01*
X153341114Y-89926158D01*
X153352500Y-89978500D01*
X153352500Y-91631500D01*
X153332498Y-91699621D01*
X153278842Y-91746114D01*
X153226500Y-91757500D01*
X136968500Y-91757500D01*
X136900379Y-91737498D01*
X136853886Y-91683842D01*
X136842500Y-91631500D01*
X136842500Y-87258139D01*
X139347000Y-87258139D01*
X139347001Y-88636860D01*
X139362456Y-88754262D01*
X139365616Y-88761890D01*
X139399909Y-88844681D01*
X139409500Y-88892899D01*
X139409500Y-89296481D01*
X139404619Y-89331211D01*
X139394697Y-89365813D01*
X139394208Y-89372171D01*
X139380410Y-89551498D01*
X139379883Y-89558342D01*
X139404085Y-89749919D01*
X139466314Y-89932716D01*
X139469543Y-89938219D01*
X139557141Y-90087525D01*
X139564029Y-90099266D01*
X139693237Y-90242766D01*
X139848661Y-90357355D01*
X139854451Y-90360030D01*
X139854452Y-90360031D01*
X139904640Y-90383221D01*
X140023952Y-90438351D01*
X140211949Y-90482445D01*
X140321628Y-90485508D01*
X140398590Y-90487658D01*
X140398592Y-90487658D01*
X140404972Y-90487836D01*
X140595137Y-90454305D01*
X140774675Y-90383221D01*
X140936254Y-90277487D01*
X140940968Y-90273242D01*
X141021189Y-90193021D01*
X141023711Y-90190568D01*
X141083235Y-90134279D01*
X141086896Y-90129050D01*
X141086899Y-90129047D01*
X141115973Y-90087525D01*
X141121543Y-90080161D01*
X141153579Y-90040880D01*
X141153580Y-90040878D01*
X141157615Y-90035931D01*
X141170100Y-90012050D01*
X141178540Y-89998168D01*
X141193991Y-89976102D01*
X141216664Y-89923707D01*
X141220622Y-89915409D01*
X141247077Y-89864806D01*
X141254502Y-89838913D01*
X141259985Y-89823600D01*
X141268145Y-89804745D01*
X141268147Y-89804738D01*
X141270680Y-89798885D01*
X141282350Y-89743026D01*
X141284568Y-89734063D01*
X141298544Y-89685321D01*
X141300303Y-89679188D01*
X141302370Y-89652327D01*
X141304661Y-89636229D01*
X141309179Y-89614599D01*
X141310168Y-89609867D01*
X141310500Y-89603532D01*
X141310500Y-89551498D01*
X141310871Y-89541832D01*
X141314627Y-89493015D01*
X141314627Y-89493014D01*
X141315116Y-89486658D01*
X141311493Y-89457977D01*
X141310500Y-89442187D01*
X141310500Y-88892899D01*
X141320091Y-88844681D01*
X141354384Y-88761891D01*
X141354384Y-88761890D01*
X141357544Y-88754262D01*
X141373000Y-88636861D01*
X141372999Y-87258140D01*
X141372999Y-87258139D01*
X145062000Y-87258139D01*
X145062001Y-88636860D01*
X145077456Y-88754262D01*
X145080616Y-88761890D01*
X145114909Y-88844681D01*
X145124500Y-88892899D01*
X145124500Y-89296481D01*
X145119619Y-89331211D01*
X145109697Y-89365813D01*
X145109208Y-89372171D01*
X145095410Y-89551498D01*
X145094883Y-89558342D01*
X145119085Y-89749919D01*
X145181314Y-89932716D01*
X145184543Y-89938219D01*
X145272141Y-90087525D01*
X145279029Y-90099266D01*
X145408237Y-90242766D01*
X145563661Y-90357355D01*
X145569451Y-90360030D01*
X145569452Y-90360031D01*
X145619640Y-90383221D01*
X145738952Y-90438351D01*
X145926949Y-90482445D01*
X146036628Y-90485508D01*
X146113590Y-90487658D01*
X146113592Y-90487658D01*
X146119972Y-90487836D01*
X146310137Y-90454305D01*
X146489675Y-90383221D01*
X146651254Y-90277487D01*
X146655968Y-90273242D01*
X146736189Y-90193021D01*
X146738711Y-90190568D01*
X146798235Y-90134279D01*
X146801896Y-90129050D01*
X146801899Y-90129047D01*
X146830973Y-90087525D01*
X146836543Y-90080161D01*
X146868579Y-90040880D01*
X146868580Y-90040878D01*
X146872615Y-90035931D01*
X146885100Y-90012050D01*
X146893540Y-89998168D01*
X146908991Y-89976102D01*
X146931664Y-89923707D01*
X146935622Y-89915409D01*
X146962077Y-89864806D01*
X146969502Y-89838913D01*
X146974985Y-89823600D01*
X146983145Y-89804745D01*
X146983147Y-89804738D01*
X146985680Y-89798885D01*
X146997350Y-89743026D01*
X146999568Y-89734063D01*
X147013544Y-89685321D01*
X147015303Y-89679188D01*
X147017370Y-89652327D01*
X147019661Y-89636229D01*
X147024179Y-89614599D01*
X147025168Y-89609867D01*
X147025500Y-89603532D01*
X147025500Y-89551498D01*
X147025871Y-89541832D01*
X147029627Y-89493015D01*
X147029627Y-89493014D01*
X147030116Y-89486658D01*
X147026493Y-89457977D01*
X147025500Y-89442187D01*
X147025500Y-88892899D01*
X147035091Y-88844681D01*
X147069384Y-88761891D01*
X147069384Y-88761890D01*
X147072544Y-88754262D01*
X147088000Y-88636861D01*
X147087999Y-87258140D01*
X147072544Y-87140738D01*
X147012036Y-86994659D01*
X146915782Y-86869218D01*
X146790341Y-86772964D01*
X146644262Y-86712456D01*
X146636074Y-86711378D01*
X146530948Y-86697538D01*
X146530947Y-86697538D01*
X146526861Y-86697000D01*
X146075055Y-86697000D01*
X145623140Y-86697001D01*
X145619056Y-86697539D01*
X145619050Y-86697539D01*
X145513925Y-86711378D01*
X145513923Y-86711378D01*
X145505738Y-86712456D01*
X145359659Y-86772964D01*
X145234218Y-86869218D01*
X145137964Y-86994659D01*
X145077456Y-87140738D01*
X145062000Y-87258139D01*
X141372999Y-87258139D01*
X141357544Y-87140738D01*
X141297036Y-86994659D01*
X141200782Y-86869218D01*
X141075341Y-86772964D01*
X140929262Y-86712456D01*
X140921074Y-86711378D01*
X140815948Y-86697538D01*
X140815947Y-86697538D01*
X140811861Y-86697000D01*
X140360055Y-86697000D01*
X139908140Y-86697001D01*
X139904056Y-86697539D01*
X139904050Y-86697539D01*
X139798925Y-86711378D01*
X139798923Y-86711378D01*
X139790738Y-86712456D01*
X139644659Y-86772964D01*
X139519218Y-86869218D01*
X139422964Y-86994659D01*
X139362456Y-87140738D01*
X139347000Y-87258139D01*
X136842500Y-87258139D01*
X136842500Y-73468500D01*
X136862502Y-73400379D01*
X136916158Y-73353886D01*
X136968500Y-73342500D01*
X155131500Y-73342500D01*
X155199621Y-73362502D01*
G37*
%TD.AperFunction*%
%TD*%
%TA.AperFunction,Conductor*%
%TO.N,VCC*%
G36*
X162859747Y-63534051D02*
G01*
X162877500Y-63536863D01*
X162887293Y-63535312D01*
X162895130Y-63535312D01*
X162911165Y-63534537D01*
X163133868Y-63548008D01*
X163148972Y-63549842D01*
X163394103Y-63594764D01*
X163408876Y-63598405D01*
X163646815Y-63672550D01*
X163661033Y-63677942D01*
X163888301Y-63780227D01*
X163901757Y-63787289D01*
X164115038Y-63916222D01*
X164127558Y-63924864D01*
X164258220Y-64027231D01*
X164323744Y-64078566D01*
X164335132Y-64088656D01*
X164511344Y-64264868D01*
X164521434Y-64276256D01*
X164670560Y-64466600D01*
X164675135Y-64472440D01*
X164683777Y-64484961D01*
X164812711Y-64698243D01*
X164819773Y-64711699D01*
X164922056Y-64938963D01*
X164927450Y-64953185D01*
X164963469Y-65068772D01*
X165001595Y-65191124D01*
X165005236Y-65205897D01*
X165050158Y-65451028D01*
X165051992Y-65466132D01*
X165065463Y-65688835D01*
X165064688Y-65704870D01*
X165064688Y-65712707D01*
X165063137Y-65722500D01*
X165064688Y-65732292D01*
X165065949Y-65740254D01*
X165067500Y-65759965D01*
X165067500Y-82550000D01*
X164590462Y-82550000D01*
X164570837Y-82349849D01*
X164512710Y-82157321D01*
X164418294Y-81979751D01*
X164356884Y-81904455D01*
X164295081Y-81828676D01*
X164295078Y-81828673D01*
X164291186Y-81823901D01*
X164284638Y-81818484D01*
X164140977Y-81699637D01*
X164140974Y-81699635D01*
X164136227Y-81695708D01*
X164130807Y-81692778D01*
X164130802Y-81692774D01*
X164073028Y-81661536D01*
X164022619Y-81611541D01*
X164007241Y-81542230D01*
X164031777Y-81475608D01*
X164076145Y-81438235D01*
X164112149Y-81420048D01*
X164270627Y-81296232D01*
X164402037Y-81143992D01*
X164405082Y-81138632D01*
X164498329Y-80974488D01*
X164498331Y-80974484D01*
X164501374Y-80969127D01*
X164556961Y-80802025D01*
X164562909Y-80784145D01*
X164562910Y-80784142D01*
X164564854Y-80778297D01*
X164590060Y-80578772D01*
X164590462Y-80550000D01*
X164570837Y-80349849D01*
X164512710Y-80157321D01*
X164484324Y-80103935D01*
X164421190Y-79985197D01*
X164421189Y-79985195D01*
X164418294Y-79979751D01*
X164366164Y-79915833D01*
X164295081Y-79828676D01*
X164295078Y-79828673D01*
X164291186Y-79823901D01*
X164284638Y-79818484D01*
X164140977Y-79699637D01*
X164140974Y-79699635D01*
X164136227Y-79695708D01*
X164130806Y-79692777D01*
X164130802Y-79692774D01*
X164073028Y-79661536D01*
X164022619Y-79611541D01*
X164007241Y-79542230D01*
X164031777Y-79475608D01*
X164076145Y-79438235D01*
X164112149Y-79420048D01*
X164270627Y-79296232D01*
X164402037Y-79143992D01*
X164422364Y-79108210D01*
X164498329Y-78974488D01*
X164498331Y-78974484D01*
X164501374Y-78969127D01*
X164551859Y-78817361D01*
X164562909Y-78784145D01*
X164562910Y-78784142D01*
X164564854Y-78778297D01*
X164590060Y-78578772D01*
X164590462Y-78550000D01*
X164570837Y-78349849D01*
X164512710Y-78157321D01*
X164458730Y-78055799D01*
X164421190Y-77985197D01*
X164421189Y-77985195D01*
X164418294Y-77979751D01*
X164371083Y-77921865D01*
X164295081Y-77828676D01*
X164295078Y-77828673D01*
X164291186Y-77823901D01*
X164280696Y-77815223D01*
X164140977Y-77699637D01*
X164140974Y-77699635D01*
X164136227Y-77695708D01*
X164130806Y-77692777D01*
X164130802Y-77692774D01*
X164073028Y-77661536D01*
X164022619Y-77611541D01*
X164007241Y-77542230D01*
X164031777Y-77475608D01*
X164076145Y-77438235D01*
X164112149Y-77420048D01*
X164270627Y-77296232D01*
X164402037Y-77143992D01*
X164422364Y-77108210D01*
X164498329Y-76974488D01*
X164498331Y-76974484D01*
X164501374Y-76969127D01*
X164564854Y-76778297D01*
X164590060Y-76578772D01*
X164590462Y-76550000D01*
X164570837Y-76349849D01*
X164512710Y-76157321D01*
X164418294Y-75979751D01*
X164371083Y-75921865D01*
X164295081Y-75828676D01*
X164295078Y-75828673D01*
X164291186Y-75823901D01*
X164284638Y-75818484D01*
X164140977Y-75699637D01*
X164140974Y-75699635D01*
X164136227Y-75695708D01*
X164130807Y-75692778D01*
X164130802Y-75692774D01*
X164073028Y-75661536D01*
X164022619Y-75611541D01*
X164007241Y-75542230D01*
X164031777Y-75475608D01*
X164076145Y-75438235D01*
X164112149Y-75420048D01*
X164270627Y-75296232D01*
X164402037Y-75143992D01*
X164422364Y-75108210D01*
X164498329Y-74974488D01*
X164498331Y-74974484D01*
X164501374Y-74969127D01*
X164533114Y-74873712D01*
X164562909Y-74784145D01*
X164562910Y-74784142D01*
X164564854Y-74778297D01*
X164590060Y-74578772D01*
X164590462Y-74550000D01*
X164570837Y-74349849D01*
X164512710Y-74157321D01*
X164445679Y-74031255D01*
X164421190Y-73985197D01*
X164421189Y-73985195D01*
X164418294Y-73979751D01*
X164345335Y-73890294D01*
X164295081Y-73828676D01*
X164295078Y-73828673D01*
X164291186Y-73823901D01*
X164285866Y-73819500D01*
X164140977Y-73699637D01*
X164140974Y-73699635D01*
X164136227Y-73695708D01*
X164130807Y-73692778D01*
X164130802Y-73692774D01*
X164073028Y-73661536D01*
X164022619Y-73611541D01*
X164007241Y-73542230D01*
X164031777Y-73475608D01*
X164076145Y-73438235D01*
X164112149Y-73420048D01*
X164270627Y-73296232D01*
X164402037Y-73143992D01*
X164422364Y-73108210D01*
X164498329Y-72974488D01*
X164498331Y-72974484D01*
X164501374Y-72969127D01*
X164533114Y-72873712D01*
X164562909Y-72784145D01*
X164562910Y-72784142D01*
X164564854Y-72778297D01*
X164590060Y-72578772D01*
X164590462Y-72550000D01*
X164570837Y-72349849D01*
X164512710Y-72157321D01*
X164418294Y-71979751D01*
X164371083Y-71921865D01*
X164295081Y-71828676D01*
X164295078Y-71828673D01*
X164291186Y-71823901D01*
X164286437Y-71819972D01*
X164140977Y-71699637D01*
X164140974Y-71699635D01*
X164136227Y-71695708D01*
X164130807Y-71692778D01*
X164130802Y-71692774D01*
X164073028Y-71661536D01*
X164022619Y-71611541D01*
X164007241Y-71542230D01*
X164031777Y-71475608D01*
X164076145Y-71438235D01*
X164112149Y-71420048D01*
X164191388Y-71358140D01*
X164265771Y-71300026D01*
X164265772Y-71300025D01*
X164270627Y-71296232D01*
X164402037Y-71143992D01*
X164422364Y-71108210D01*
X164498329Y-70974488D01*
X164498331Y-70974484D01*
X164501374Y-70969127D01*
X164534500Y-70869545D01*
X164562909Y-70784145D01*
X164562910Y-70784142D01*
X164564854Y-70778297D01*
X164590060Y-70578772D01*
X164590462Y-70550000D01*
X164570837Y-70349849D01*
X164512710Y-70157321D01*
X164418294Y-69979751D01*
X164352400Y-69898957D01*
X164295081Y-69828676D01*
X164295078Y-69828673D01*
X164291186Y-69823901D01*
X164284638Y-69818484D01*
X164140977Y-69699637D01*
X164140974Y-69699635D01*
X164136227Y-69695708D01*
X163959320Y-69600055D01*
X163863261Y-69570320D01*
X163773090Y-69542407D01*
X163773087Y-69542406D01*
X163767203Y-69540585D01*
X163761078Y-69539941D01*
X163761077Y-69539941D01*
X163573322Y-69520207D01*
X163573321Y-69520207D01*
X163567194Y-69519563D01*
X163483056Y-69527220D01*
X163373050Y-69537231D01*
X163373047Y-69537232D01*
X163366911Y-69537790D01*
X163361005Y-69539528D01*
X163361001Y-69539529D01*
X163219644Y-69581133D01*
X163173982Y-69594572D01*
X163084870Y-69641159D01*
X163046384Y-69661279D01*
X162995757Y-69687746D01*
X162839024Y-69813763D01*
X162709752Y-69967823D01*
X162706786Y-69973219D01*
X162706783Y-69973223D01*
X162670632Y-70038982D01*
X162620287Y-70089041D01*
X162550870Y-70103935D01*
X162484421Y-70078935D01*
X162448966Y-70037436D01*
X162421190Y-69985197D01*
X162421189Y-69985195D01*
X162418294Y-69979751D01*
X162352400Y-69898957D01*
X162295081Y-69828676D01*
X162295078Y-69828673D01*
X162291186Y-69823901D01*
X162284638Y-69818484D01*
X162140977Y-69699637D01*
X162140974Y-69699635D01*
X162136227Y-69695708D01*
X161959320Y-69600055D01*
X161863261Y-69570320D01*
X161773090Y-69542407D01*
X161773087Y-69542406D01*
X161767203Y-69540585D01*
X161761078Y-69539941D01*
X161761077Y-69539941D01*
X161573322Y-69520207D01*
X161573321Y-69520207D01*
X161567194Y-69519563D01*
X161483056Y-69527220D01*
X161373050Y-69537231D01*
X161373047Y-69537232D01*
X161366911Y-69537790D01*
X161361005Y-69539528D01*
X161361001Y-69539529D01*
X161219644Y-69581133D01*
X161173982Y-69594572D01*
X161084870Y-69641159D01*
X161046384Y-69661279D01*
X160995757Y-69687746D01*
X160839024Y-69813763D01*
X160709752Y-69967823D01*
X160706788Y-69973215D01*
X160706785Y-69973219D01*
X160671482Y-70037436D01*
X160612866Y-70144058D01*
X160611005Y-70149925D01*
X160611004Y-70149927D01*
X160606787Y-70163221D01*
X160552056Y-70335755D01*
X160529638Y-70535613D01*
X160546467Y-70736018D01*
X160601901Y-70929338D01*
X160693828Y-71108210D01*
X160697651Y-71113034D01*
X160697654Y-71113038D01*
X160725888Y-71148660D01*
X160818748Y-71265819D01*
X160823442Y-71269814D01*
X160900395Y-71335306D01*
X160971901Y-71396163D01*
X161048929Y-71439212D01*
X161049580Y-71439576D01*
X161099286Y-71490269D01*
X161113694Y-71559788D01*
X161088231Y-71626061D01*
X161046485Y-71661226D01*
X160995757Y-71687746D01*
X160839024Y-71813763D01*
X160709752Y-71967823D01*
X160706788Y-71973215D01*
X160706785Y-71973219D01*
X160671482Y-72037436D01*
X160612866Y-72144058D01*
X160611005Y-72149925D01*
X160611004Y-72149927D01*
X160606787Y-72163221D01*
X160552056Y-72335755D01*
X160529638Y-72535613D01*
X160546467Y-72736018D01*
X160601901Y-72929338D01*
X160693828Y-73108210D01*
X160697651Y-73113034D01*
X160697654Y-73113038D01*
X160725888Y-73148660D01*
X160818748Y-73265819D01*
X160971901Y-73396163D01*
X160977279Y-73399169D01*
X160977281Y-73399170D01*
X161047178Y-73438234D01*
X161147456Y-73494277D01*
X161338723Y-73556424D01*
X161538420Y-73580236D01*
X161544555Y-73579764D01*
X161544557Y-73579764D01*
X161732796Y-73565280D01*
X161732800Y-73565279D01*
X161738938Y-73564807D01*
X161788389Y-73551000D01*
X161926696Y-73512384D01*
X161926700Y-73512383D01*
X161932640Y-73510724D01*
X161938144Y-73507944D01*
X161938146Y-73507943D01*
X162106646Y-73422828D01*
X162106648Y-73422827D01*
X162112149Y-73420048D01*
X162270627Y-73296232D01*
X162402037Y-73143992D01*
X162449785Y-73059940D01*
X162500822Y-73010591D01*
X162570440Y-72996668D01*
X162636534Y-73022594D01*
X162671406Y-73064583D01*
X162691010Y-73102729D01*
X162691013Y-73102733D01*
X162693828Y-73108210D01*
X162697651Y-73113034D01*
X162697654Y-73113038D01*
X162725888Y-73148660D01*
X162818748Y-73265819D01*
X162971901Y-73396163D01*
X163047179Y-73438234D01*
X163049580Y-73439576D01*
X163099286Y-73490269D01*
X163113694Y-73559788D01*
X163088231Y-73626061D01*
X163046485Y-73661226D01*
X162995757Y-73687746D01*
X162839024Y-73813763D01*
X162709752Y-73967823D01*
X162706788Y-73973215D01*
X162706785Y-73973219D01*
X162648668Y-74078935D01*
X162612866Y-74144058D01*
X162611005Y-74149925D01*
X162611004Y-74149927D01*
X162587509Y-74223994D01*
X162552056Y-74335755D01*
X162529638Y-74535613D01*
X162546467Y-74736018D01*
X162601901Y-74929338D01*
X162604716Y-74934815D01*
X162656113Y-75034823D01*
X162693828Y-75108210D01*
X162697651Y-75113034D01*
X162697654Y-75113038D01*
X162725888Y-75148660D01*
X162818748Y-75265819D01*
X162971901Y-75396163D01*
X163047179Y-75438234D01*
X163049580Y-75439576D01*
X163099286Y-75490269D01*
X163113694Y-75559788D01*
X163088231Y-75626061D01*
X163046485Y-75661226D01*
X162995757Y-75687746D01*
X162839024Y-75813763D01*
X162709752Y-75967823D01*
X162706788Y-75973215D01*
X162706785Y-75973219D01*
X162627082Y-76118200D01*
X162612866Y-76144058D01*
X162611005Y-76149925D01*
X162611004Y-76149927D01*
X162606787Y-76163221D01*
X162552056Y-76335755D01*
X162529638Y-76535613D01*
X162546467Y-76736018D01*
X162601901Y-76929338D01*
X162693828Y-77108210D01*
X162697651Y-77113034D01*
X162697654Y-77113038D01*
X162725888Y-77148660D01*
X162818748Y-77265819D01*
X162971901Y-77396163D01*
X163047179Y-77438234D01*
X163049580Y-77439576D01*
X163099286Y-77490269D01*
X163113694Y-77559788D01*
X163088231Y-77626061D01*
X163046485Y-77661226D01*
X162995757Y-77687746D01*
X162839024Y-77813763D01*
X162709752Y-77967823D01*
X162706786Y-77973219D01*
X162706783Y-77973223D01*
X162670632Y-78038982D01*
X162620287Y-78089041D01*
X162550870Y-78103935D01*
X162484421Y-78078935D01*
X162448966Y-78037436D01*
X162421190Y-77985197D01*
X162421189Y-77985195D01*
X162418294Y-77979751D01*
X162371083Y-77921865D01*
X162295081Y-77828676D01*
X162295078Y-77828673D01*
X162291186Y-77823901D01*
X162280696Y-77815223D01*
X162140977Y-77699637D01*
X162140974Y-77699635D01*
X162136227Y-77695708D01*
X161959320Y-77600055D01*
X161800849Y-77551000D01*
X161773090Y-77542407D01*
X161773087Y-77542406D01*
X161767203Y-77540585D01*
X161761078Y-77539941D01*
X161761077Y-77539941D01*
X161573322Y-77520207D01*
X161573321Y-77520207D01*
X161567194Y-77519563D01*
X161483056Y-77527220D01*
X161373050Y-77537231D01*
X161373047Y-77537232D01*
X161366911Y-77537790D01*
X161361005Y-77539528D01*
X161361001Y-77539529D01*
X161225169Y-77579507D01*
X161173982Y-77594572D01*
X160995757Y-77687746D01*
X160839024Y-77813763D01*
X160709752Y-77967823D01*
X160706788Y-77973215D01*
X160706785Y-77973219D01*
X160661387Y-78055799D01*
X160612866Y-78144058D01*
X160611005Y-78149925D01*
X160611004Y-78149927D01*
X160606787Y-78163221D01*
X160552056Y-78335755D01*
X160529638Y-78535613D01*
X160530154Y-78541756D01*
X160545916Y-78729455D01*
X160546467Y-78736018D01*
X160601901Y-78929338D01*
X160693828Y-79108210D01*
X160697651Y-79113034D01*
X160697654Y-79113038D01*
X160725888Y-79148660D01*
X160818748Y-79265819D01*
X160823442Y-79269814D01*
X160954165Y-79381068D01*
X160971901Y-79396163D01*
X161047179Y-79438234D01*
X161049580Y-79439576D01*
X161099286Y-79490269D01*
X161113694Y-79559788D01*
X161088231Y-79626061D01*
X161046485Y-79661226D01*
X160995757Y-79687746D01*
X160839024Y-79813763D01*
X160709752Y-79967823D01*
X160706788Y-79973215D01*
X160706785Y-79973219D01*
X160671482Y-80037436D01*
X160612866Y-80144058D01*
X160611005Y-80149925D01*
X160611004Y-80149927D01*
X160606787Y-80163221D01*
X160552056Y-80335755D01*
X160529638Y-80535613D01*
X160530154Y-80541756D01*
X160540595Y-80666088D01*
X160546467Y-80736018D01*
X160601901Y-80929338D01*
X160693828Y-81108210D01*
X160697651Y-81113034D01*
X160697654Y-81113038D01*
X160750495Y-81179706D01*
X160818748Y-81265819D01*
X160971901Y-81396163D01*
X160977279Y-81399169D01*
X160977281Y-81399170D01*
X161007850Y-81416254D01*
X161047179Y-81438234D01*
X161049580Y-81439576D01*
X161099286Y-81490269D01*
X161113694Y-81559788D01*
X161088231Y-81626061D01*
X161046485Y-81661226D01*
X160995757Y-81687746D01*
X160839024Y-81813763D01*
X160709752Y-81967823D01*
X160706788Y-81973215D01*
X160706785Y-81973219D01*
X160671482Y-82037436D01*
X160612866Y-82144058D01*
X160611005Y-82149925D01*
X160611004Y-82149927D01*
X160606787Y-82163221D01*
X160552056Y-82335755D01*
X160529638Y-82535613D01*
X160530846Y-82550000D01*
X155892500Y-82550000D01*
X155892500Y-80634494D01*
X155912502Y-80566373D01*
X155966158Y-80519880D01*
X156034946Y-80509572D01*
X156098960Y-80518000D01*
X156217798Y-80518000D01*
X156245283Y-80521034D01*
X156342137Y-80542683D01*
X156347807Y-80543000D01*
X159113664Y-80543000D01*
X159125116Y-80541756D01*
X159238045Y-80529488D01*
X159251209Y-80528058D01*
X159426348Y-80469117D01*
X159584744Y-80373943D01*
X159610223Y-80349849D01*
X159714049Y-80251665D01*
X159714051Y-80251663D01*
X159719007Y-80246976D01*
X159822875Y-80094140D01*
X159855139Y-80013475D01*
X159888966Y-79928902D01*
X159888967Y-79928897D01*
X159891500Y-79922565D01*
X159908484Y-79819972D01*
X159920566Y-79746994D01*
X159920566Y-79746990D01*
X159921681Y-79740256D01*
X159919553Y-79699637D01*
X159912367Y-79562532D01*
X159912010Y-79555719D01*
X159908344Y-79542407D01*
X159864751Y-79384146D01*
X159862938Y-79377564D01*
X159776754Y-79214102D01*
X159657480Y-79072960D01*
X159652055Y-79068812D01*
X159516101Y-78964867D01*
X159516097Y-78964864D01*
X159510680Y-78960723D01*
X159504500Y-78957841D01*
X159504498Y-78957840D01*
X159349380Y-78885507D01*
X159349377Y-78885506D01*
X159343203Y-78882627D01*
X159336558Y-78881142D01*
X159336553Y-78881140D01*
X159196629Y-78849865D01*
X159162863Y-78842317D01*
X159157193Y-78842000D01*
X156391336Y-78842000D01*
X156253791Y-78856942D01*
X156247326Y-78859118D01*
X156247320Y-78859119D01*
X156243458Y-78860419D01*
X156203270Y-78867000D01*
X156098960Y-78867000D01*
X156034946Y-78875428D01*
X155964798Y-78864489D01*
X155911699Y-78817361D01*
X155892500Y-78750506D01*
X155892500Y-72707500D01*
X136207500Y-72707500D01*
X136207500Y-78750506D01*
X136187498Y-78818627D01*
X136133842Y-78865120D01*
X136065054Y-78875428D01*
X136001040Y-78867000D01*
X135882202Y-78867000D01*
X135854716Y-78863966D01*
X135757863Y-78842317D01*
X135752193Y-78842000D01*
X132668836Y-78842000D01*
X132531291Y-78856942D01*
X132356152Y-78915883D01*
X132197756Y-79011057D01*
X132192796Y-79015748D01*
X132192794Y-79015749D01*
X132089915Y-79113038D01*
X132063493Y-79138024D01*
X131959625Y-79290860D01*
X131957092Y-79297194D01*
X131957090Y-79297197D01*
X131893534Y-79456098D01*
X131893533Y-79456103D01*
X131891000Y-79462435D01*
X131886392Y-79490269D01*
X131866316Y-79611541D01*
X131860819Y-79644744D01*
X131861176Y-79651561D01*
X131861176Y-79651565D01*
X131869302Y-79806611D01*
X131870490Y-79829281D01*
X131872301Y-79835854D01*
X131872301Y-79835857D01*
X131897930Y-79928902D01*
X131919562Y-80007436D01*
X132005746Y-80170898D01*
X132125020Y-80312040D01*
X132130444Y-80316187D01*
X132130445Y-80316188D01*
X132266399Y-80420133D01*
X132266403Y-80420136D01*
X132271820Y-80424277D01*
X132278000Y-80427159D01*
X132278002Y-80427160D01*
X132433120Y-80499493D01*
X132433123Y-80499494D01*
X132439297Y-80502373D01*
X132445942Y-80503858D01*
X132445947Y-80503860D01*
X132585871Y-80535135D01*
X132619637Y-80542683D01*
X132625307Y-80543000D01*
X135708664Y-80543000D01*
X135720116Y-80541756D01*
X135833045Y-80529488D01*
X135846209Y-80528058D01*
X135852674Y-80525882D01*
X135852680Y-80525881D01*
X135856542Y-80524581D01*
X135896730Y-80518000D01*
X136001040Y-80518000D01*
X136065054Y-80509572D01*
X136135202Y-80520511D01*
X136188301Y-80567639D01*
X136207500Y-80634494D01*
X136207500Y-82550000D01*
X131570462Y-82550000D01*
X131550837Y-82349849D01*
X131492710Y-82157321D01*
X131398294Y-81979751D01*
X131336884Y-81904455D01*
X131275081Y-81828676D01*
X131275078Y-81828673D01*
X131271186Y-81823901D01*
X131264638Y-81818484D01*
X131120977Y-81699637D01*
X131120974Y-81699635D01*
X131116227Y-81695708D01*
X131110807Y-81692778D01*
X131110802Y-81692774D01*
X131053028Y-81661536D01*
X131002619Y-81611541D01*
X130987241Y-81542230D01*
X131011777Y-81475608D01*
X131056145Y-81438235D01*
X131092149Y-81420048D01*
X131250627Y-81296232D01*
X131382037Y-81143992D01*
X131385082Y-81138632D01*
X131478329Y-80974488D01*
X131478331Y-80974484D01*
X131481374Y-80969127D01*
X131536961Y-80802025D01*
X131542909Y-80784145D01*
X131542910Y-80784142D01*
X131544854Y-80778297D01*
X131570060Y-80578772D01*
X131570462Y-80550000D01*
X131550837Y-80349849D01*
X131492710Y-80157321D01*
X131464324Y-80103935D01*
X131401190Y-79985197D01*
X131401189Y-79985195D01*
X131398294Y-79979751D01*
X131346164Y-79915833D01*
X131275081Y-79828676D01*
X131275078Y-79828673D01*
X131271186Y-79823901D01*
X131264638Y-79818484D01*
X131120977Y-79699637D01*
X131120974Y-79699635D01*
X131116227Y-79695708D01*
X130939320Y-79600055D01*
X130835405Y-79567888D01*
X130753090Y-79542407D01*
X130753087Y-79542406D01*
X130747203Y-79540585D01*
X130741078Y-79539941D01*
X130741077Y-79539941D01*
X130553322Y-79520207D01*
X130553321Y-79520207D01*
X130547194Y-79519563D01*
X130463056Y-79527220D01*
X130353050Y-79537231D01*
X130353047Y-79537232D01*
X130346911Y-79537790D01*
X130341005Y-79539528D01*
X130341001Y-79539529D01*
X130242628Y-79568482D01*
X130153982Y-79594572D01*
X129975757Y-79687746D01*
X129819024Y-79813763D01*
X129689752Y-79967823D01*
X129686786Y-79973219D01*
X129686783Y-79973223D01*
X129650632Y-80038982D01*
X129600287Y-80089041D01*
X129530870Y-80103935D01*
X129464421Y-80078935D01*
X129428966Y-80037436D01*
X129401190Y-79985197D01*
X129401189Y-79985195D01*
X129398294Y-79979751D01*
X129346164Y-79915833D01*
X129275081Y-79828676D01*
X129275078Y-79828673D01*
X129271186Y-79823901D01*
X129264638Y-79818484D01*
X129120977Y-79699637D01*
X129120974Y-79699635D01*
X129116227Y-79695708D01*
X128939320Y-79600055D01*
X128835405Y-79567888D01*
X128753090Y-79542407D01*
X128753087Y-79542406D01*
X128747203Y-79540585D01*
X128741078Y-79539941D01*
X128741077Y-79539941D01*
X128553322Y-79520207D01*
X128553321Y-79520207D01*
X128547194Y-79519563D01*
X128463056Y-79527220D01*
X128353050Y-79537231D01*
X128353047Y-79537232D01*
X128346911Y-79537790D01*
X128341005Y-79539528D01*
X128341001Y-79539529D01*
X128242628Y-79568482D01*
X128153982Y-79594572D01*
X127975757Y-79687746D01*
X127819024Y-79813763D01*
X127689752Y-79967823D01*
X127686788Y-79973215D01*
X127686785Y-79973219D01*
X127651482Y-80037436D01*
X127592866Y-80144058D01*
X127591005Y-80149925D01*
X127591004Y-80149927D01*
X127586787Y-80163221D01*
X127532056Y-80335755D01*
X127509638Y-80535613D01*
X127510154Y-80541756D01*
X127520595Y-80666088D01*
X127526467Y-80736018D01*
X127581901Y-80929338D01*
X127673828Y-81108210D01*
X127677651Y-81113034D01*
X127677654Y-81113038D01*
X127730495Y-81179706D01*
X127798748Y-81265819D01*
X127951901Y-81396163D01*
X127957279Y-81399169D01*
X127957281Y-81399170D01*
X127987850Y-81416254D01*
X128027179Y-81438234D01*
X128029580Y-81439576D01*
X128079286Y-81490269D01*
X128093694Y-81559788D01*
X128068231Y-81626061D01*
X128026485Y-81661226D01*
X127975757Y-81687746D01*
X127819024Y-81813763D01*
X127689752Y-81967823D01*
X127686788Y-81973215D01*
X127686785Y-81973219D01*
X127651482Y-82037436D01*
X127592866Y-82144058D01*
X127591005Y-82149925D01*
X127591004Y-82149927D01*
X127586787Y-82163221D01*
X127532056Y-82335755D01*
X127509638Y-82535613D01*
X127510846Y-82550000D01*
X127032500Y-82550000D01*
X127032500Y-74535613D01*
X127509638Y-74535613D01*
X127526467Y-74736018D01*
X127581901Y-74929338D01*
X127584716Y-74934815D01*
X127636113Y-75034823D01*
X127673828Y-75108210D01*
X127677651Y-75113034D01*
X127677654Y-75113038D01*
X127705888Y-75148660D01*
X127798748Y-75265819D01*
X127951901Y-75396163D01*
X127957279Y-75399169D01*
X127957281Y-75399170D01*
X128027178Y-75438234D01*
X128127456Y-75494277D01*
X128318723Y-75556424D01*
X128518420Y-75580236D01*
X128524555Y-75579764D01*
X128524557Y-75579764D01*
X128712796Y-75565280D01*
X128712800Y-75565279D01*
X128718938Y-75564807D01*
X128768389Y-75551000D01*
X128906696Y-75512384D01*
X128906700Y-75512383D01*
X128912640Y-75510724D01*
X128918144Y-75507944D01*
X128918146Y-75507943D01*
X129086646Y-75422828D01*
X129086648Y-75422827D01*
X129092149Y-75420048D01*
X129250627Y-75296232D01*
X129382037Y-75143992D01*
X129429785Y-75059940D01*
X129480822Y-75010591D01*
X129550440Y-74996668D01*
X129616534Y-75022594D01*
X129651406Y-75064583D01*
X129671010Y-75102729D01*
X129671013Y-75102733D01*
X129673828Y-75108210D01*
X129677651Y-75113034D01*
X129677654Y-75113038D01*
X129705888Y-75148660D01*
X129798748Y-75265819D01*
X129951901Y-75396163D01*
X130027179Y-75438234D01*
X130029580Y-75439576D01*
X130079286Y-75490269D01*
X130093694Y-75559788D01*
X130068231Y-75626061D01*
X130026485Y-75661226D01*
X129975757Y-75687746D01*
X129819024Y-75813763D01*
X129689752Y-75967823D01*
X129686788Y-75973215D01*
X129686785Y-75973219D01*
X129607082Y-76118200D01*
X129592866Y-76144058D01*
X129591005Y-76149925D01*
X129591004Y-76149927D01*
X129586787Y-76163221D01*
X129532056Y-76335755D01*
X129509638Y-76535613D01*
X129526467Y-76736018D01*
X129581901Y-76929338D01*
X129673828Y-77108210D01*
X129677651Y-77113034D01*
X129677654Y-77113038D01*
X129705888Y-77148660D01*
X129798748Y-77265819D01*
X129951901Y-77396163D01*
X129957279Y-77399169D01*
X129957281Y-77399170D01*
X130027178Y-77438234D01*
X130127456Y-77494277D01*
X130318723Y-77556424D01*
X130518420Y-77580236D01*
X130524555Y-77579764D01*
X130524557Y-77579764D01*
X130712796Y-77565280D01*
X130712800Y-77565279D01*
X130718938Y-77564807D01*
X130768389Y-77551000D01*
X130906696Y-77512384D01*
X130906700Y-77512383D01*
X130912640Y-77510724D01*
X130918144Y-77507944D01*
X130918146Y-77507943D01*
X131086646Y-77422828D01*
X131086648Y-77422827D01*
X131092149Y-77420048D01*
X131250627Y-77296232D01*
X131382037Y-77143992D01*
X131402364Y-77108210D01*
X131478329Y-76974488D01*
X131478331Y-76974484D01*
X131481374Y-76969127D01*
X131544854Y-76778297D01*
X131570060Y-76578772D01*
X131570462Y-76550000D01*
X131550837Y-76349849D01*
X131492710Y-76157321D01*
X131398294Y-75979751D01*
X131351083Y-75921865D01*
X131275081Y-75828676D01*
X131275078Y-75828673D01*
X131271186Y-75823901D01*
X131264638Y-75818484D01*
X131120977Y-75699637D01*
X131120974Y-75699635D01*
X131116227Y-75695708D01*
X131110807Y-75692778D01*
X131110802Y-75692774D01*
X131053028Y-75661536D01*
X131002619Y-75611541D01*
X130987241Y-75542230D01*
X131011777Y-75475608D01*
X131056145Y-75438235D01*
X131092149Y-75420048D01*
X131250627Y-75296232D01*
X131382037Y-75143992D01*
X131402364Y-75108210D01*
X131478329Y-74974488D01*
X131478331Y-74974484D01*
X131481374Y-74969127D01*
X131513114Y-74873712D01*
X131542909Y-74784145D01*
X131542910Y-74784142D01*
X131544854Y-74778297D01*
X131570060Y-74578772D01*
X131570462Y-74550000D01*
X131550837Y-74349849D01*
X131492710Y-74157321D01*
X131425679Y-74031255D01*
X131401190Y-73985197D01*
X131401189Y-73985195D01*
X131398294Y-73979751D01*
X131325335Y-73890294D01*
X131275081Y-73828676D01*
X131275078Y-73828673D01*
X131271186Y-73823901D01*
X131265866Y-73819500D01*
X131120977Y-73699637D01*
X131120974Y-73699635D01*
X131116227Y-73695708D01*
X131110807Y-73692778D01*
X131110802Y-73692774D01*
X131053028Y-73661536D01*
X131002619Y-73611541D01*
X130987241Y-73542230D01*
X131011777Y-73475608D01*
X131056145Y-73438235D01*
X131092149Y-73420048D01*
X131250627Y-73296232D01*
X131382037Y-73143992D01*
X131402364Y-73108210D01*
X131478329Y-72974488D01*
X131478331Y-72974484D01*
X131481374Y-72969127D01*
X131513114Y-72873712D01*
X131542909Y-72784145D01*
X131542910Y-72784142D01*
X131544854Y-72778297D01*
X131570060Y-72578772D01*
X131570462Y-72550000D01*
X131550837Y-72349849D01*
X131492710Y-72157321D01*
X131398294Y-71979751D01*
X131351083Y-71921865D01*
X131275081Y-71828676D01*
X131275078Y-71828673D01*
X131271186Y-71823901D01*
X131266437Y-71819972D01*
X131266436Y-71819971D01*
X131230998Y-71790654D01*
X131191260Y-71731820D01*
X131189639Y-71660842D01*
X131226648Y-71600255D01*
X131292963Y-71568913D01*
X131307426Y-71566784D01*
X131307427Y-71566784D01*
X131317112Y-71565358D01*
X131411804Y-71518867D01*
X131412507Y-71518522D01*
X131412509Y-71518521D01*
X131421855Y-71513932D01*
X131504293Y-71431350D01*
X131555536Y-71326518D01*
X131560635Y-71291565D01*
X131564840Y-71262744D01*
X131564840Y-71262740D01*
X131565500Y-71258218D01*
X131565500Y-69841782D01*
X131562290Y-69819972D01*
X131556784Y-69782574D01*
X131556784Y-69782573D01*
X131555358Y-69772888D01*
X131513556Y-69687746D01*
X131508522Y-69677493D01*
X131508521Y-69677491D01*
X131503932Y-69668145D01*
X131433898Y-69598233D01*
X131428721Y-69593065D01*
X131428720Y-69593065D01*
X131421350Y-69585707D01*
X131316518Y-69534464D01*
X131286027Y-69530016D01*
X131252744Y-69525160D01*
X131252740Y-69525160D01*
X131248218Y-69524500D01*
X129831782Y-69524500D01*
X129827232Y-69525170D01*
X129827229Y-69525170D01*
X129772574Y-69533216D01*
X129772573Y-69533216D01*
X129762888Y-69534642D01*
X129712992Y-69559140D01*
X129667493Y-69581478D01*
X129667491Y-69581479D01*
X129658145Y-69586068D01*
X129575707Y-69668650D01*
X129524464Y-69773482D01*
X129523052Y-69783162D01*
X129521132Y-69796322D01*
X129491507Y-69860842D01*
X129431702Y-69899103D01*
X129360705Y-69898957D01*
X129298809Y-69857770D01*
X129275081Y-69828676D01*
X129275078Y-69828673D01*
X129271186Y-69823901D01*
X129264638Y-69818484D01*
X129120977Y-69699637D01*
X129120974Y-69699635D01*
X129116227Y-69695708D01*
X128939320Y-69600055D01*
X128843261Y-69570320D01*
X128753090Y-69542407D01*
X128753087Y-69542406D01*
X128747203Y-69540585D01*
X128741078Y-69539941D01*
X128741077Y-69539941D01*
X128553322Y-69520207D01*
X128553321Y-69520207D01*
X128547194Y-69519563D01*
X128463056Y-69527220D01*
X128353050Y-69537231D01*
X128353047Y-69537232D01*
X128346911Y-69537790D01*
X128341005Y-69539528D01*
X128341001Y-69539529D01*
X128199644Y-69581133D01*
X128153982Y-69594572D01*
X128064870Y-69641159D01*
X128026384Y-69661279D01*
X127975757Y-69687746D01*
X127819024Y-69813763D01*
X127689752Y-69967823D01*
X127686788Y-69973215D01*
X127686785Y-69973219D01*
X127651482Y-70037436D01*
X127592866Y-70144058D01*
X127591005Y-70149925D01*
X127591004Y-70149927D01*
X127586787Y-70163221D01*
X127532056Y-70335755D01*
X127509638Y-70535613D01*
X127526467Y-70736018D01*
X127581901Y-70929338D01*
X127673828Y-71108210D01*
X127677651Y-71113034D01*
X127677654Y-71113038D01*
X127705888Y-71148660D01*
X127798748Y-71265819D01*
X127803442Y-71269814D01*
X127880395Y-71335306D01*
X127951901Y-71396163D01*
X128028929Y-71439212D01*
X128029580Y-71439576D01*
X128079286Y-71490269D01*
X128093694Y-71559788D01*
X128068231Y-71626061D01*
X128026485Y-71661226D01*
X127975757Y-71687746D01*
X127819024Y-71813763D01*
X127689752Y-71967823D01*
X127686788Y-71973215D01*
X127686785Y-71973219D01*
X127651482Y-72037436D01*
X127592866Y-72144058D01*
X127591005Y-72149925D01*
X127591004Y-72149927D01*
X127586787Y-72163221D01*
X127532056Y-72335755D01*
X127509638Y-72535613D01*
X127526467Y-72736018D01*
X127581901Y-72929338D01*
X127673828Y-73108210D01*
X127677651Y-73113034D01*
X127677654Y-73113038D01*
X127705888Y-73148660D01*
X127798748Y-73265819D01*
X127951901Y-73396163D01*
X128027179Y-73438234D01*
X128029580Y-73439576D01*
X128079286Y-73490269D01*
X128093694Y-73559788D01*
X128068231Y-73626061D01*
X128026485Y-73661226D01*
X127975757Y-73687746D01*
X127819024Y-73813763D01*
X127689752Y-73967823D01*
X127686788Y-73973215D01*
X127686785Y-73973219D01*
X127628668Y-74078935D01*
X127592866Y-74144058D01*
X127591005Y-74149925D01*
X127591004Y-74149927D01*
X127567509Y-74223994D01*
X127532056Y-74335755D01*
X127509638Y-74535613D01*
X127032500Y-74535613D01*
X127032500Y-67025613D01*
X133019638Y-67025613D01*
X133036467Y-67226018D01*
X133091901Y-67419338D01*
X133183828Y-67598210D01*
X133187651Y-67603034D01*
X133187654Y-67603038D01*
X133215888Y-67638660D01*
X133308748Y-67755819D01*
X133313442Y-67759814D01*
X133390395Y-67825306D01*
X133461901Y-67886163D01*
X133467279Y-67889169D01*
X133467281Y-67889170D01*
X133538050Y-67928721D01*
X133637456Y-67984277D01*
X133828723Y-68046424D01*
X134028420Y-68070236D01*
X134034555Y-68069764D01*
X134034557Y-68069764D01*
X134222796Y-68055280D01*
X134222800Y-68055279D01*
X134228938Y-68054807D01*
X134265782Y-68044520D01*
X134416696Y-68002384D01*
X134416700Y-68002383D01*
X134422640Y-68000724D01*
X134428144Y-67997944D01*
X134428146Y-67997943D01*
X134596646Y-67912828D01*
X134596648Y-67912827D01*
X134602149Y-67910048D01*
X134681388Y-67848140D01*
X134755771Y-67790026D01*
X134755772Y-67790025D01*
X134760627Y-67786232D01*
X134892037Y-67633992D01*
X134939785Y-67549940D01*
X134990822Y-67500591D01*
X135060440Y-67486668D01*
X135126534Y-67512594D01*
X135161406Y-67554583D01*
X135181010Y-67592729D01*
X135181013Y-67592733D01*
X135183828Y-67598210D01*
X135187651Y-67603034D01*
X135187654Y-67603038D01*
X135215888Y-67638660D01*
X135308748Y-67755819D01*
X135313442Y-67759814D01*
X135390395Y-67825306D01*
X135461901Y-67886163D01*
X135467279Y-67889169D01*
X135467281Y-67889170D01*
X135538050Y-67928721D01*
X135637456Y-67984277D01*
X135828723Y-68046424D01*
X136028420Y-68070236D01*
X136034555Y-68069764D01*
X136034557Y-68069764D01*
X136222796Y-68055280D01*
X136222800Y-68055279D01*
X136228938Y-68054807D01*
X136265782Y-68044520D01*
X136416696Y-68002384D01*
X136416700Y-68002383D01*
X136422640Y-68000724D01*
X136428144Y-67997944D01*
X136428146Y-67997943D01*
X136596646Y-67912828D01*
X136596648Y-67912827D01*
X136602149Y-67910048D01*
X136681388Y-67848140D01*
X136755771Y-67790026D01*
X136755772Y-67790025D01*
X136760627Y-67786232D01*
X136892037Y-67633992D01*
X136939785Y-67549940D01*
X136990822Y-67500591D01*
X137060440Y-67486668D01*
X137126534Y-67512594D01*
X137161406Y-67554583D01*
X137181010Y-67592729D01*
X137181013Y-67592733D01*
X137183828Y-67598210D01*
X137187651Y-67603034D01*
X137187654Y-67603038D01*
X137215888Y-67638660D01*
X137308748Y-67755819D01*
X137313442Y-67759814D01*
X137390395Y-67825306D01*
X137461901Y-67886163D01*
X137467279Y-67889169D01*
X137467281Y-67889170D01*
X137538050Y-67928721D01*
X137637456Y-67984277D01*
X137828723Y-68046424D01*
X138028420Y-68070236D01*
X138034555Y-68069764D01*
X138034557Y-68069764D01*
X138222796Y-68055280D01*
X138222800Y-68055279D01*
X138228938Y-68054807D01*
X138265782Y-68044520D01*
X138416696Y-68002384D01*
X138416700Y-68002383D01*
X138422640Y-68000724D01*
X138428144Y-67997944D01*
X138428146Y-67997943D01*
X138596646Y-67912828D01*
X138596648Y-67912827D01*
X138602149Y-67910048D01*
X138681388Y-67848140D01*
X138755771Y-67790026D01*
X138755772Y-67790025D01*
X138760627Y-67786232D01*
X138892037Y-67633992D01*
X138939785Y-67549940D01*
X138990822Y-67500591D01*
X139060440Y-67486668D01*
X139126534Y-67512594D01*
X139161406Y-67554583D01*
X139181010Y-67592729D01*
X139181013Y-67592733D01*
X139183828Y-67598210D01*
X139187651Y-67603034D01*
X139187654Y-67603038D01*
X139215888Y-67638660D01*
X139308748Y-67755819D01*
X139313442Y-67759814D01*
X139390395Y-67825306D01*
X139461901Y-67886163D01*
X139467279Y-67889169D01*
X139467281Y-67889170D01*
X139538050Y-67928721D01*
X139637456Y-67984277D01*
X139828723Y-68046424D01*
X140028420Y-68070236D01*
X140034555Y-68069764D01*
X140034557Y-68069764D01*
X140222796Y-68055280D01*
X140222800Y-68055279D01*
X140228938Y-68054807D01*
X140265782Y-68044520D01*
X140416696Y-68002384D01*
X140416700Y-68002383D01*
X140422640Y-68000724D01*
X140428144Y-67997944D01*
X140428146Y-67997943D01*
X140596646Y-67912828D01*
X140596648Y-67912827D01*
X140602149Y-67910048D01*
X140681388Y-67848140D01*
X140755771Y-67790026D01*
X140755772Y-67790025D01*
X140760627Y-67786232D01*
X140892037Y-67633992D01*
X140939785Y-67549940D01*
X140990822Y-67500591D01*
X141060440Y-67486668D01*
X141126534Y-67512594D01*
X141161406Y-67554583D01*
X141181010Y-67592729D01*
X141181013Y-67592733D01*
X141183828Y-67598210D01*
X141187651Y-67603034D01*
X141187654Y-67603038D01*
X141215888Y-67638660D01*
X141308748Y-67755819D01*
X141313442Y-67759814D01*
X141390395Y-67825306D01*
X141461901Y-67886163D01*
X141467279Y-67889169D01*
X141467281Y-67889170D01*
X141538050Y-67928721D01*
X141637456Y-67984277D01*
X141828723Y-68046424D01*
X142028420Y-68070236D01*
X142034555Y-68069764D01*
X142034557Y-68069764D01*
X142222796Y-68055280D01*
X142222800Y-68055279D01*
X142228938Y-68054807D01*
X142265782Y-68044520D01*
X142416696Y-68002384D01*
X142416700Y-68002383D01*
X142422640Y-68000724D01*
X142428144Y-67997944D01*
X142428146Y-67997943D01*
X142596646Y-67912828D01*
X142596648Y-67912827D01*
X142602149Y-67910048D01*
X142681388Y-67848140D01*
X142755771Y-67790026D01*
X142755772Y-67790025D01*
X142760627Y-67786232D01*
X142892037Y-67633992D01*
X142939785Y-67549940D01*
X142990822Y-67500591D01*
X143060440Y-67486668D01*
X143126534Y-67512594D01*
X143161406Y-67554583D01*
X143181010Y-67592729D01*
X143181013Y-67592733D01*
X143183828Y-67598210D01*
X143187651Y-67603034D01*
X143187654Y-67603038D01*
X143215888Y-67638660D01*
X143308748Y-67755819D01*
X143313442Y-67759814D01*
X143390395Y-67825306D01*
X143461901Y-67886163D01*
X143467279Y-67889169D01*
X143467281Y-67889170D01*
X143538050Y-67928721D01*
X143637456Y-67984277D01*
X143828723Y-68046424D01*
X144028420Y-68070236D01*
X144034555Y-68069764D01*
X144034557Y-68069764D01*
X144222796Y-68055280D01*
X144222800Y-68055279D01*
X144228938Y-68054807D01*
X144265782Y-68044520D01*
X144416696Y-68002384D01*
X144416700Y-68002383D01*
X144422640Y-68000724D01*
X144428144Y-67997944D01*
X144428146Y-67997943D01*
X144596646Y-67912828D01*
X144596648Y-67912827D01*
X144602149Y-67910048D01*
X144681388Y-67848140D01*
X144755771Y-67790026D01*
X144755772Y-67790025D01*
X144760627Y-67786232D01*
X144892037Y-67633992D01*
X144939785Y-67549940D01*
X144990822Y-67500591D01*
X145060440Y-67486668D01*
X145126534Y-67512594D01*
X145161406Y-67554583D01*
X145181010Y-67592729D01*
X145181013Y-67592733D01*
X145183828Y-67598210D01*
X145187651Y-67603034D01*
X145187654Y-67603038D01*
X145215888Y-67638660D01*
X145308748Y-67755819D01*
X145313442Y-67759814D01*
X145390395Y-67825306D01*
X145461901Y-67886163D01*
X145467279Y-67889169D01*
X145467281Y-67889170D01*
X145538050Y-67928721D01*
X145637456Y-67984277D01*
X145828723Y-68046424D01*
X146028420Y-68070236D01*
X146034555Y-68069764D01*
X146034557Y-68069764D01*
X146222796Y-68055280D01*
X146222800Y-68055279D01*
X146228938Y-68054807D01*
X146265782Y-68044520D01*
X146416696Y-68002384D01*
X146416700Y-68002383D01*
X146422640Y-68000724D01*
X146428144Y-67997944D01*
X146428146Y-67997943D01*
X146596646Y-67912828D01*
X146596648Y-67912827D01*
X146602149Y-67910048D01*
X146681388Y-67848140D01*
X146755771Y-67790026D01*
X146755772Y-67790025D01*
X146760627Y-67786232D01*
X146892037Y-67633992D01*
X146939785Y-67549940D01*
X146990822Y-67500591D01*
X147060440Y-67486668D01*
X147126534Y-67512594D01*
X147161406Y-67554583D01*
X147181010Y-67592729D01*
X147181013Y-67592733D01*
X147183828Y-67598210D01*
X147187651Y-67603034D01*
X147187654Y-67603038D01*
X147215888Y-67638660D01*
X147308748Y-67755819D01*
X147313442Y-67759814D01*
X147390395Y-67825306D01*
X147461901Y-67886163D01*
X147467279Y-67889169D01*
X147467281Y-67889170D01*
X147538050Y-67928721D01*
X147637456Y-67984277D01*
X147828723Y-68046424D01*
X148028420Y-68070236D01*
X148034555Y-68069764D01*
X148034557Y-68069764D01*
X148222796Y-68055280D01*
X148222800Y-68055279D01*
X148228938Y-68054807D01*
X148265782Y-68044520D01*
X148416696Y-68002384D01*
X148416700Y-68002383D01*
X148422640Y-68000724D01*
X148428144Y-67997944D01*
X148428146Y-67997943D01*
X148596646Y-67912828D01*
X148596648Y-67912827D01*
X148602149Y-67910048D01*
X148681388Y-67848140D01*
X148755771Y-67790026D01*
X148755772Y-67790025D01*
X148760627Y-67786232D01*
X148892037Y-67633992D01*
X148912364Y-67598210D01*
X148988329Y-67464488D01*
X148988331Y-67464484D01*
X148991374Y-67459127D01*
X149024500Y-67359545D01*
X149052909Y-67274145D01*
X149052910Y-67274142D01*
X149054854Y-67268297D01*
X149080060Y-67068772D01*
X149080462Y-67040000D01*
X149060837Y-66839849D01*
X149002710Y-66647321D01*
X148908294Y-66469751D01*
X148842400Y-66388957D01*
X148785081Y-66318676D01*
X148785078Y-66318673D01*
X148781186Y-66313901D01*
X148774638Y-66308484D01*
X148630977Y-66189637D01*
X148630974Y-66189635D01*
X148626227Y-66185708D01*
X148620806Y-66182777D01*
X148620802Y-66182774D01*
X148563028Y-66151536D01*
X148512619Y-66101541D01*
X148497241Y-66032230D01*
X148521777Y-65965608D01*
X148566145Y-65928235D01*
X148602149Y-65910048D01*
X148760627Y-65786232D01*
X148892037Y-65633992D01*
X148939785Y-65549940D01*
X148990822Y-65500591D01*
X149060440Y-65486668D01*
X149126534Y-65512594D01*
X149161406Y-65554583D01*
X149181010Y-65592729D01*
X149181013Y-65592733D01*
X149183828Y-65598210D01*
X149187651Y-65603034D01*
X149187654Y-65603038D01*
X149290101Y-65732292D01*
X149308748Y-65755819D01*
X149313442Y-65759814D01*
X149313620Y-65759965D01*
X149461901Y-65886163D01*
X149467279Y-65889169D01*
X149467281Y-65889170D01*
X149537178Y-65928234D01*
X149637456Y-65984277D01*
X149828723Y-66046424D01*
X150028420Y-66070236D01*
X150034555Y-66069764D01*
X150034557Y-66069764D01*
X150222796Y-66055280D01*
X150222800Y-66055279D01*
X150228938Y-66054807D01*
X150278389Y-66041000D01*
X150416696Y-66002384D01*
X150416700Y-66002383D01*
X150422640Y-66000724D01*
X150428144Y-65997944D01*
X150428146Y-65997943D01*
X150596646Y-65912828D01*
X150596648Y-65912827D01*
X150602149Y-65910048D01*
X150760627Y-65786232D01*
X150892037Y-65633992D01*
X150939785Y-65549940D01*
X150990822Y-65500591D01*
X151060440Y-65486668D01*
X151126534Y-65512594D01*
X151161406Y-65554583D01*
X151181010Y-65592729D01*
X151181013Y-65592733D01*
X151183828Y-65598210D01*
X151187651Y-65603034D01*
X151187654Y-65603038D01*
X151290101Y-65732292D01*
X151308748Y-65755819D01*
X151313442Y-65759814D01*
X151313620Y-65759965D01*
X151461901Y-65886163D01*
X151537179Y-65928234D01*
X151539580Y-65929576D01*
X151589286Y-65980269D01*
X151603694Y-66049788D01*
X151578231Y-66116061D01*
X151536485Y-66151226D01*
X151485757Y-66177746D01*
X151329024Y-66303763D01*
X151199752Y-66457823D01*
X151196788Y-66463215D01*
X151196785Y-66463219D01*
X151161482Y-66527436D01*
X151102866Y-66634058D01*
X151101005Y-66639925D01*
X151101004Y-66639927D01*
X151096787Y-66653221D01*
X151042056Y-66825755D01*
X151019638Y-67025613D01*
X151036467Y-67226018D01*
X151091901Y-67419338D01*
X151183828Y-67598210D01*
X151187651Y-67603034D01*
X151187654Y-67603038D01*
X151215888Y-67638660D01*
X151308748Y-67755819D01*
X151313442Y-67759814D01*
X151390395Y-67825306D01*
X151461901Y-67886163D01*
X151467279Y-67889169D01*
X151467281Y-67889170D01*
X151538050Y-67928721D01*
X151637456Y-67984277D01*
X151828723Y-68046424D01*
X152028420Y-68070236D01*
X152034555Y-68069764D01*
X152034557Y-68069764D01*
X152222796Y-68055280D01*
X152222800Y-68055279D01*
X152228938Y-68054807D01*
X152265782Y-68044520D01*
X152416696Y-68002384D01*
X152416700Y-68002383D01*
X152422640Y-68000724D01*
X152428144Y-67997944D01*
X152428146Y-67997943D01*
X152596646Y-67912828D01*
X152596648Y-67912827D01*
X152602149Y-67910048D01*
X152681388Y-67848140D01*
X152755771Y-67790026D01*
X152755772Y-67790025D01*
X152760627Y-67786232D01*
X152892037Y-67633992D01*
X152939785Y-67549940D01*
X152990822Y-67500591D01*
X153060440Y-67486668D01*
X153126534Y-67512594D01*
X153161406Y-67554583D01*
X153181010Y-67592729D01*
X153181013Y-67592733D01*
X153183828Y-67598210D01*
X153187651Y-67603034D01*
X153187654Y-67603038D01*
X153215888Y-67638660D01*
X153308748Y-67755819D01*
X153313442Y-67759814D01*
X153390395Y-67825306D01*
X153461901Y-67886163D01*
X153467279Y-67889169D01*
X153467281Y-67889170D01*
X153538050Y-67928721D01*
X153637456Y-67984277D01*
X153828723Y-68046424D01*
X154028420Y-68070236D01*
X154034555Y-68069764D01*
X154034557Y-68069764D01*
X154222796Y-68055280D01*
X154222800Y-68055279D01*
X154228938Y-68054807D01*
X154265782Y-68044520D01*
X154416696Y-68002384D01*
X154416700Y-68002383D01*
X154422640Y-68000724D01*
X154428144Y-67997944D01*
X154428146Y-67997943D01*
X154596646Y-67912828D01*
X154596648Y-67912827D01*
X154602149Y-67910048D01*
X154681388Y-67848140D01*
X154755771Y-67790026D01*
X154755772Y-67790025D01*
X154760627Y-67786232D01*
X154892037Y-67633992D01*
X154939785Y-67549940D01*
X154990822Y-67500591D01*
X155060440Y-67486668D01*
X155126534Y-67512594D01*
X155161406Y-67554583D01*
X155181010Y-67592729D01*
X155181013Y-67592733D01*
X155183828Y-67598210D01*
X155187651Y-67603034D01*
X155187654Y-67603038D01*
X155215888Y-67638660D01*
X155308748Y-67755819D01*
X155313442Y-67759814D01*
X155390395Y-67825306D01*
X155461901Y-67886163D01*
X155467279Y-67889169D01*
X155467281Y-67889170D01*
X155538050Y-67928721D01*
X155637456Y-67984277D01*
X155828723Y-68046424D01*
X156028420Y-68070236D01*
X156034555Y-68069764D01*
X156034557Y-68069764D01*
X156222796Y-68055280D01*
X156222800Y-68055279D01*
X156228938Y-68054807D01*
X156265782Y-68044520D01*
X156416696Y-68002384D01*
X156416700Y-68002383D01*
X156422640Y-68000724D01*
X156428144Y-67997944D01*
X156428146Y-67997943D01*
X156596646Y-67912828D01*
X156596648Y-67912827D01*
X156602149Y-67910048D01*
X156681388Y-67848140D01*
X156755771Y-67790026D01*
X156755772Y-67790025D01*
X156760627Y-67786232D01*
X156810903Y-67727987D01*
X156870554Y-67689490D01*
X156941550Y-67689354D01*
X157001350Y-67727624D01*
X157030939Y-67791965D01*
X157033214Y-67807421D01*
X157033217Y-67807429D01*
X157034642Y-67817112D01*
X157038958Y-67825902D01*
X157070021Y-67889170D01*
X157086068Y-67921855D01*
X157168650Y-68004293D01*
X157273482Y-68055536D01*
X157303973Y-68059984D01*
X157337256Y-68064840D01*
X157337260Y-68064840D01*
X157341782Y-68065500D01*
X158758218Y-68065500D01*
X158762768Y-68064830D01*
X158762771Y-68064830D01*
X158817426Y-68056784D01*
X158817427Y-68056784D01*
X158827112Y-68055358D01*
X158921804Y-68008867D01*
X158922507Y-68008522D01*
X158922509Y-68008521D01*
X158931855Y-68003932D01*
X159014293Y-67921350D01*
X159065536Y-67816518D01*
X159070635Y-67781565D01*
X159074840Y-67752744D01*
X159074840Y-67752740D01*
X159075500Y-67748218D01*
X159075500Y-66331782D01*
X159072290Y-66309972D01*
X159066784Y-66272574D01*
X159066784Y-66272573D01*
X159065358Y-66262888D01*
X159023556Y-66177746D01*
X159018522Y-66167493D01*
X159018521Y-66167491D01*
X159013932Y-66158145D01*
X158943898Y-66088233D01*
X158938721Y-66083065D01*
X158938720Y-66083065D01*
X158931350Y-66075707D01*
X158918667Y-66069507D01*
X158856605Y-66039171D01*
X158826518Y-66024464D01*
X158805652Y-66021420D01*
X158741133Y-65991794D01*
X158702873Y-65931988D01*
X158703020Y-65860992D01*
X158746267Y-65797452D01*
X158755768Y-65790029D01*
X158755772Y-65790025D01*
X158760627Y-65786232D01*
X158892037Y-65633992D01*
X158912364Y-65598210D01*
X158988329Y-65464488D01*
X158988331Y-65464484D01*
X158991374Y-65459127D01*
X159023114Y-65363712D01*
X159052909Y-65274145D01*
X159052910Y-65274142D01*
X159054854Y-65268297D01*
X159080060Y-65068772D01*
X159080462Y-65040000D01*
X159060837Y-64839849D01*
X159002710Y-64647321D01*
X158908294Y-64469751D01*
X158861083Y-64411865D01*
X158785081Y-64318676D01*
X158785078Y-64318673D01*
X158781186Y-64313901D01*
X158774638Y-64308484D01*
X158630977Y-64189637D01*
X158630974Y-64189635D01*
X158626227Y-64185708D01*
X158449320Y-64090055D01*
X158353262Y-64060320D01*
X158263090Y-64032407D01*
X158263087Y-64032406D01*
X158257203Y-64030585D01*
X158251078Y-64029941D01*
X158251077Y-64029941D01*
X158063322Y-64010207D01*
X158063321Y-64010207D01*
X158057194Y-64009563D01*
X157973056Y-64017220D01*
X157863050Y-64027231D01*
X157863047Y-64027232D01*
X157856911Y-64027790D01*
X157851005Y-64029528D01*
X157851001Y-64029529D01*
X157708715Y-64071406D01*
X157663982Y-64084572D01*
X157485757Y-64177746D01*
X157329024Y-64303763D01*
X157199752Y-64457823D01*
X157196786Y-64463219D01*
X157196783Y-64463223D01*
X157160632Y-64528982D01*
X157110287Y-64579041D01*
X157040870Y-64593935D01*
X156974421Y-64568935D01*
X156938966Y-64527436D01*
X156911190Y-64475197D01*
X156911189Y-64475195D01*
X156908294Y-64469751D01*
X156861083Y-64411865D01*
X156785081Y-64318676D01*
X156785078Y-64318673D01*
X156781186Y-64313901D01*
X156774638Y-64308484D01*
X156630977Y-64189637D01*
X156630974Y-64189635D01*
X156626227Y-64185708D01*
X156449320Y-64090055D01*
X156353262Y-64060320D01*
X156263090Y-64032407D01*
X156263087Y-64032406D01*
X156257203Y-64030585D01*
X156251078Y-64029941D01*
X156251077Y-64029941D01*
X156063322Y-64010207D01*
X156063321Y-64010207D01*
X156057194Y-64009563D01*
X155973056Y-64017220D01*
X155863050Y-64027231D01*
X155863047Y-64027232D01*
X155856911Y-64027790D01*
X155851005Y-64029528D01*
X155851001Y-64029529D01*
X155708715Y-64071406D01*
X155663982Y-64084572D01*
X155485757Y-64177746D01*
X155329024Y-64303763D01*
X155199752Y-64457823D01*
X155196786Y-64463219D01*
X155196783Y-64463223D01*
X155160632Y-64528982D01*
X155110287Y-64579041D01*
X155040870Y-64593935D01*
X154974421Y-64568935D01*
X154938966Y-64527436D01*
X154911190Y-64475197D01*
X154911189Y-64475195D01*
X154908294Y-64469751D01*
X154861083Y-64411865D01*
X154785081Y-64318676D01*
X154785078Y-64318673D01*
X154781186Y-64313901D01*
X154774638Y-64308484D01*
X154630977Y-64189637D01*
X154630974Y-64189635D01*
X154626227Y-64185708D01*
X154449320Y-64090055D01*
X154353262Y-64060320D01*
X154263090Y-64032407D01*
X154263087Y-64032406D01*
X154257203Y-64030585D01*
X154251078Y-64029941D01*
X154251077Y-64029941D01*
X154063322Y-64010207D01*
X154063321Y-64010207D01*
X154057194Y-64009563D01*
X153973056Y-64017220D01*
X153863050Y-64027231D01*
X153863047Y-64027232D01*
X153856911Y-64027790D01*
X153851005Y-64029528D01*
X153851001Y-64029529D01*
X153708715Y-64071406D01*
X153663982Y-64084572D01*
X153485757Y-64177746D01*
X153329024Y-64303763D01*
X153199752Y-64457823D01*
X153196786Y-64463219D01*
X153196783Y-64463223D01*
X153160632Y-64528982D01*
X153110287Y-64579041D01*
X153040870Y-64593935D01*
X152974421Y-64568935D01*
X152938966Y-64527436D01*
X152911190Y-64475197D01*
X152911189Y-64475195D01*
X152908294Y-64469751D01*
X152861083Y-64411865D01*
X152785081Y-64318676D01*
X152785078Y-64318673D01*
X152781186Y-64313901D01*
X152774638Y-64308484D01*
X152630977Y-64189637D01*
X152630974Y-64189635D01*
X152626227Y-64185708D01*
X152449320Y-64090055D01*
X152353262Y-64060320D01*
X152263090Y-64032407D01*
X152263087Y-64032406D01*
X152257203Y-64030585D01*
X152251078Y-64029941D01*
X152251077Y-64029941D01*
X152063322Y-64010207D01*
X152063321Y-64010207D01*
X152057194Y-64009563D01*
X151973056Y-64017220D01*
X151863050Y-64027231D01*
X151863047Y-64027232D01*
X151856911Y-64027790D01*
X151851005Y-64029528D01*
X151851001Y-64029529D01*
X151708715Y-64071406D01*
X151663982Y-64084572D01*
X151485757Y-64177746D01*
X151329024Y-64303763D01*
X151199752Y-64457823D01*
X151196786Y-64463219D01*
X151196783Y-64463223D01*
X151160632Y-64528982D01*
X151110287Y-64579041D01*
X151040870Y-64593935D01*
X150974421Y-64568935D01*
X150938966Y-64527436D01*
X150911190Y-64475197D01*
X150911189Y-64475195D01*
X150908294Y-64469751D01*
X150861083Y-64411865D01*
X150785081Y-64318676D01*
X150785078Y-64318673D01*
X150781186Y-64313901D01*
X150774638Y-64308484D01*
X150630977Y-64189637D01*
X150630974Y-64189635D01*
X150626227Y-64185708D01*
X150449320Y-64090055D01*
X150353262Y-64060320D01*
X150263090Y-64032407D01*
X150263087Y-64032406D01*
X150257203Y-64030585D01*
X150251078Y-64029941D01*
X150251077Y-64029941D01*
X150063322Y-64010207D01*
X150063321Y-64010207D01*
X150057194Y-64009563D01*
X149973056Y-64017220D01*
X149863050Y-64027231D01*
X149863047Y-64027232D01*
X149856911Y-64027790D01*
X149851005Y-64029528D01*
X149851001Y-64029529D01*
X149708715Y-64071406D01*
X149663982Y-64084572D01*
X149485757Y-64177746D01*
X149329024Y-64303763D01*
X149199752Y-64457823D01*
X149196786Y-64463219D01*
X149196783Y-64463223D01*
X149160632Y-64528982D01*
X149110287Y-64579041D01*
X149040870Y-64593935D01*
X148974421Y-64568935D01*
X148938966Y-64527436D01*
X148911190Y-64475197D01*
X148911189Y-64475195D01*
X148908294Y-64469751D01*
X148861083Y-64411865D01*
X148785081Y-64318676D01*
X148785078Y-64318673D01*
X148781186Y-64313901D01*
X148774638Y-64308484D01*
X148630977Y-64189637D01*
X148630974Y-64189635D01*
X148626227Y-64185708D01*
X148449320Y-64090055D01*
X148353262Y-64060320D01*
X148263090Y-64032407D01*
X148263087Y-64032406D01*
X148257203Y-64030585D01*
X148251078Y-64029941D01*
X148251077Y-64029941D01*
X148063322Y-64010207D01*
X148063321Y-64010207D01*
X148057194Y-64009563D01*
X147973056Y-64017220D01*
X147863050Y-64027231D01*
X147863047Y-64027232D01*
X147856911Y-64027790D01*
X147851005Y-64029528D01*
X147851001Y-64029529D01*
X147708715Y-64071406D01*
X147663982Y-64084572D01*
X147485757Y-64177746D01*
X147329024Y-64303763D01*
X147199752Y-64457823D01*
X147196786Y-64463219D01*
X147196783Y-64463223D01*
X147160632Y-64528982D01*
X147110287Y-64579041D01*
X147040870Y-64593935D01*
X146974421Y-64568935D01*
X146938966Y-64527436D01*
X146911190Y-64475197D01*
X146911189Y-64475195D01*
X146908294Y-64469751D01*
X146861083Y-64411865D01*
X146785081Y-64318676D01*
X146785078Y-64318673D01*
X146781186Y-64313901D01*
X146774638Y-64308484D01*
X146630977Y-64189637D01*
X146630974Y-64189635D01*
X146626227Y-64185708D01*
X146449320Y-64090055D01*
X146353262Y-64060320D01*
X146263090Y-64032407D01*
X146263087Y-64032406D01*
X146257203Y-64030585D01*
X146251078Y-64029941D01*
X146251077Y-64029941D01*
X146063322Y-64010207D01*
X146063321Y-64010207D01*
X146057194Y-64009563D01*
X145973056Y-64017220D01*
X145863050Y-64027231D01*
X145863047Y-64027232D01*
X145856911Y-64027790D01*
X145851005Y-64029528D01*
X145851001Y-64029529D01*
X145708715Y-64071406D01*
X145663982Y-64084572D01*
X145485757Y-64177746D01*
X145329024Y-64303763D01*
X145199752Y-64457823D01*
X145196788Y-64463215D01*
X145196785Y-64463219D01*
X145184832Y-64484962D01*
X145102866Y-64634058D01*
X145101005Y-64639925D01*
X145101004Y-64639927D01*
X145096787Y-64653221D01*
X145042056Y-64825755D01*
X145019638Y-65025613D01*
X145020154Y-65031756D01*
X145034148Y-65198399D01*
X145036467Y-65226018D01*
X145091901Y-65419338D01*
X145183828Y-65598210D01*
X145187651Y-65603034D01*
X145187654Y-65603038D01*
X145290101Y-65732292D01*
X145308748Y-65755819D01*
X145313442Y-65759814D01*
X145313620Y-65759965D01*
X145461901Y-65886163D01*
X145537179Y-65928234D01*
X145539580Y-65929576D01*
X145589286Y-65980269D01*
X145603694Y-66049788D01*
X145578231Y-66116061D01*
X145536485Y-66151226D01*
X145485757Y-66177746D01*
X145329024Y-66303763D01*
X145199752Y-66457823D01*
X145196786Y-66463219D01*
X145196783Y-66463223D01*
X145160632Y-66528982D01*
X145110287Y-66579041D01*
X145040870Y-66593935D01*
X144974421Y-66568935D01*
X144938966Y-66527436D01*
X144911190Y-66475197D01*
X144911189Y-66475195D01*
X144908294Y-66469751D01*
X144842400Y-66388957D01*
X144785081Y-66318676D01*
X144785078Y-66318673D01*
X144781186Y-66313901D01*
X144774638Y-66308484D01*
X144630977Y-66189637D01*
X144630974Y-66189635D01*
X144626227Y-66185708D01*
X144449320Y-66090055D01*
X144290849Y-66041000D01*
X144263090Y-66032407D01*
X144263087Y-66032406D01*
X144257203Y-66030585D01*
X144251078Y-66029941D01*
X144251077Y-66029941D01*
X144063322Y-66010207D01*
X144063321Y-66010207D01*
X144057194Y-66009563D01*
X143973056Y-66017220D01*
X143863050Y-66027231D01*
X143863047Y-66027232D01*
X143856911Y-66027790D01*
X143851005Y-66029528D01*
X143851001Y-66029529D01*
X143715169Y-66069507D01*
X143663982Y-66084572D01*
X143631523Y-66101541D01*
X143536384Y-66151279D01*
X143485757Y-66177746D01*
X143329024Y-66303763D01*
X143199752Y-66457823D01*
X143196786Y-66463219D01*
X143196783Y-66463223D01*
X143160632Y-66528982D01*
X143110287Y-66579041D01*
X143040870Y-66593935D01*
X142974421Y-66568935D01*
X142938966Y-66527436D01*
X142911190Y-66475197D01*
X142911189Y-66475195D01*
X142908294Y-66469751D01*
X142842400Y-66388957D01*
X142785081Y-66318676D01*
X142785078Y-66318673D01*
X142781186Y-66313901D01*
X142774638Y-66308484D01*
X142630977Y-66189637D01*
X142630974Y-66189635D01*
X142626227Y-66185708D01*
X142620806Y-66182777D01*
X142620802Y-66182774D01*
X142563028Y-66151536D01*
X142512619Y-66101541D01*
X142497241Y-66032230D01*
X142521777Y-65965608D01*
X142566145Y-65928235D01*
X142602149Y-65910048D01*
X142760627Y-65786232D01*
X142892037Y-65633992D01*
X142912364Y-65598210D01*
X142988329Y-65464488D01*
X142988331Y-65464484D01*
X142991374Y-65459127D01*
X143023114Y-65363712D01*
X143052909Y-65274145D01*
X143052910Y-65274142D01*
X143054854Y-65268297D01*
X143080060Y-65068772D01*
X143080462Y-65040000D01*
X143060837Y-64839849D01*
X143002710Y-64647321D01*
X142908294Y-64469751D01*
X142861083Y-64411865D01*
X142785081Y-64318676D01*
X142785078Y-64318673D01*
X142781186Y-64313901D01*
X142774638Y-64308484D01*
X142630977Y-64189637D01*
X142630974Y-64189635D01*
X142626227Y-64185708D01*
X142449320Y-64090055D01*
X142353262Y-64060320D01*
X142263090Y-64032407D01*
X142263087Y-64032406D01*
X142257203Y-64030585D01*
X142251078Y-64029941D01*
X142251077Y-64029941D01*
X142063322Y-64010207D01*
X142063321Y-64010207D01*
X142057194Y-64009563D01*
X141973056Y-64017220D01*
X141863050Y-64027231D01*
X141863047Y-64027232D01*
X141856911Y-64027790D01*
X141851005Y-64029528D01*
X141851001Y-64029529D01*
X141708715Y-64071406D01*
X141663982Y-64084572D01*
X141485757Y-64177746D01*
X141329024Y-64303763D01*
X141199752Y-64457823D01*
X141196786Y-64463219D01*
X141196783Y-64463223D01*
X141160632Y-64528982D01*
X141110287Y-64579041D01*
X141040870Y-64593935D01*
X140974421Y-64568935D01*
X140938966Y-64527436D01*
X140911190Y-64475197D01*
X140911189Y-64475195D01*
X140908294Y-64469751D01*
X140861083Y-64411865D01*
X140785081Y-64318676D01*
X140785078Y-64318673D01*
X140781186Y-64313901D01*
X140774638Y-64308484D01*
X140630977Y-64189637D01*
X140630974Y-64189635D01*
X140626227Y-64185708D01*
X140449320Y-64090055D01*
X140353262Y-64060320D01*
X140263090Y-64032407D01*
X140263087Y-64032406D01*
X140257203Y-64030585D01*
X140251078Y-64029941D01*
X140251077Y-64029941D01*
X140063322Y-64010207D01*
X140063321Y-64010207D01*
X140057194Y-64009563D01*
X139973056Y-64017220D01*
X139863050Y-64027231D01*
X139863047Y-64027232D01*
X139856911Y-64027790D01*
X139851005Y-64029528D01*
X139851001Y-64029529D01*
X139708715Y-64071406D01*
X139663982Y-64084572D01*
X139485757Y-64177746D01*
X139329024Y-64303763D01*
X139199752Y-64457823D01*
X139196788Y-64463215D01*
X139196785Y-64463219D01*
X139184832Y-64484962D01*
X139102866Y-64634058D01*
X139101005Y-64639925D01*
X139101004Y-64639927D01*
X139096787Y-64653221D01*
X139042056Y-64825755D01*
X139019638Y-65025613D01*
X139020154Y-65031756D01*
X139034148Y-65198399D01*
X139036467Y-65226018D01*
X139091901Y-65419338D01*
X139183828Y-65598210D01*
X139187651Y-65603034D01*
X139187654Y-65603038D01*
X139290101Y-65732292D01*
X139308748Y-65755819D01*
X139313442Y-65759814D01*
X139313620Y-65759965D01*
X139461901Y-65886163D01*
X139537179Y-65928234D01*
X139539580Y-65929576D01*
X139589286Y-65980269D01*
X139603694Y-66049788D01*
X139578231Y-66116061D01*
X139536485Y-66151226D01*
X139485757Y-66177746D01*
X139329024Y-66303763D01*
X139199752Y-66457823D01*
X139196786Y-66463219D01*
X139196783Y-66463223D01*
X139160632Y-66528982D01*
X139110287Y-66579041D01*
X139040870Y-66593935D01*
X138974421Y-66568935D01*
X138938966Y-66527436D01*
X138911190Y-66475197D01*
X138911189Y-66475195D01*
X138908294Y-66469751D01*
X138842400Y-66388957D01*
X138785081Y-66318676D01*
X138785078Y-66318673D01*
X138781186Y-66313901D01*
X138774638Y-66308484D01*
X138630977Y-66189637D01*
X138630974Y-66189635D01*
X138626227Y-66185708D01*
X138449320Y-66090055D01*
X138290849Y-66041000D01*
X138263090Y-66032407D01*
X138263087Y-66032406D01*
X138257203Y-66030585D01*
X138251078Y-66029941D01*
X138251077Y-66029941D01*
X138063322Y-66010207D01*
X138063321Y-66010207D01*
X138057194Y-66009563D01*
X137973056Y-66017220D01*
X137863050Y-66027231D01*
X137863047Y-66027232D01*
X137856911Y-66027790D01*
X137851005Y-66029528D01*
X137851001Y-66029529D01*
X137715169Y-66069507D01*
X137663982Y-66084572D01*
X137631523Y-66101541D01*
X137536384Y-66151279D01*
X137485757Y-66177746D01*
X137329024Y-66303763D01*
X137199752Y-66457823D01*
X137196786Y-66463219D01*
X137196783Y-66463223D01*
X137160632Y-66528982D01*
X137110287Y-66579041D01*
X137040870Y-66593935D01*
X136974421Y-66568935D01*
X136938966Y-66527436D01*
X136911190Y-66475197D01*
X136911189Y-66475195D01*
X136908294Y-66469751D01*
X136842400Y-66388957D01*
X136785081Y-66318676D01*
X136785078Y-66318673D01*
X136781186Y-66313901D01*
X136774638Y-66308484D01*
X136630977Y-66189637D01*
X136630974Y-66189635D01*
X136626227Y-66185708D01*
X136620806Y-66182777D01*
X136620802Y-66182774D01*
X136563028Y-66151536D01*
X136512619Y-66101541D01*
X136497241Y-66032230D01*
X136521777Y-65965608D01*
X136566145Y-65928235D01*
X136602149Y-65910048D01*
X136760627Y-65786232D01*
X136892037Y-65633992D01*
X136912364Y-65598210D01*
X136988329Y-65464488D01*
X136988331Y-65464484D01*
X136991374Y-65459127D01*
X137023114Y-65363712D01*
X137052909Y-65274145D01*
X137052910Y-65274142D01*
X137054854Y-65268297D01*
X137080060Y-65068772D01*
X137080462Y-65040000D01*
X137060837Y-64839849D01*
X137002710Y-64647321D01*
X136908294Y-64469751D01*
X136861083Y-64411865D01*
X136785081Y-64318676D01*
X136785078Y-64318673D01*
X136781186Y-64313901D01*
X136774638Y-64308484D01*
X136630977Y-64189637D01*
X136630974Y-64189635D01*
X136626227Y-64185708D01*
X136449320Y-64090055D01*
X136353262Y-64060320D01*
X136263090Y-64032407D01*
X136263087Y-64032406D01*
X136257203Y-64030585D01*
X136251078Y-64029941D01*
X136251077Y-64029941D01*
X136063322Y-64010207D01*
X136063321Y-64010207D01*
X136057194Y-64009563D01*
X135973056Y-64017220D01*
X135863050Y-64027231D01*
X135863047Y-64027232D01*
X135856911Y-64027790D01*
X135851005Y-64029528D01*
X135851001Y-64029529D01*
X135708715Y-64071406D01*
X135663982Y-64084572D01*
X135485757Y-64177746D01*
X135329024Y-64303763D01*
X135199752Y-64457823D01*
X135196786Y-64463219D01*
X135196783Y-64463223D01*
X135160632Y-64528982D01*
X135110287Y-64579041D01*
X135040870Y-64593935D01*
X134974421Y-64568935D01*
X134938966Y-64527436D01*
X134911190Y-64475197D01*
X134911189Y-64475195D01*
X134908294Y-64469751D01*
X134861083Y-64411865D01*
X134785081Y-64318676D01*
X134785078Y-64318673D01*
X134781186Y-64313901D01*
X134774638Y-64308484D01*
X134630977Y-64189637D01*
X134630974Y-64189635D01*
X134626227Y-64185708D01*
X134449320Y-64090055D01*
X134353262Y-64060320D01*
X134263090Y-64032407D01*
X134263087Y-64032406D01*
X134257203Y-64030585D01*
X134251078Y-64029941D01*
X134251077Y-64029941D01*
X134063322Y-64010207D01*
X134063321Y-64010207D01*
X134057194Y-64009563D01*
X133973056Y-64017220D01*
X133863050Y-64027231D01*
X133863047Y-64027232D01*
X133856911Y-64027790D01*
X133851005Y-64029528D01*
X133851001Y-64029529D01*
X133708715Y-64071406D01*
X133663982Y-64084572D01*
X133485757Y-64177746D01*
X133329024Y-64303763D01*
X133199752Y-64457823D01*
X133196788Y-64463215D01*
X133196785Y-64463219D01*
X133184832Y-64484962D01*
X133102866Y-64634058D01*
X133101005Y-64639925D01*
X133101004Y-64639927D01*
X133096787Y-64653221D01*
X133042056Y-64825755D01*
X133019638Y-65025613D01*
X133020154Y-65031756D01*
X133034148Y-65198399D01*
X133036467Y-65226018D01*
X133091901Y-65419338D01*
X133183828Y-65598210D01*
X133187651Y-65603034D01*
X133187654Y-65603038D01*
X133290101Y-65732292D01*
X133308748Y-65755819D01*
X133313442Y-65759814D01*
X133313620Y-65759965D01*
X133461901Y-65886163D01*
X133537179Y-65928234D01*
X133539580Y-65929576D01*
X133589286Y-65980269D01*
X133603694Y-66049788D01*
X133578231Y-66116061D01*
X133536485Y-66151226D01*
X133485757Y-66177746D01*
X133329024Y-66303763D01*
X133199752Y-66457823D01*
X133196788Y-66463215D01*
X133196785Y-66463219D01*
X133161482Y-66527436D01*
X133102866Y-66634058D01*
X133101005Y-66639925D01*
X133101004Y-66639927D01*
X133096787Y-66653221D01*
X133042056Y-66825755D01*
X133019638Y-67025613D01*
X127032500Y-67025613D01*
X127032500Y-65759965D01*
X127034051Y-65740254D01*
X127035312Y-65732292D01*
X127036863Y-65722500D01*
X127035312Y-65712707D01*
X127035312Y-65704870D01*
X127034537Y-65688835D01*
X127048008Y-65466132D01*
X127049842Y-65451028D01*
X127094764Y-65205897D01*
X127098405Y-65191124D01*
X127136531Y-65068772D01*
X127172550Y-64953185D01*
X127177944Y-64938963D01*
X127280227Y-64711699D01*
X127287289Y-64698243D01*
X127416223Y-64484961D01*
X127424865Y-64472440D01*
X127429441Y-64466600D01*
X127578566Y-64276256D01*
X127588656Y-64264868D01*
X127764868Y-64088656D01*
X127776256Y-64078566D01*
X127841780Y-64027231D01*
X127972442Y-63924864D01*
X127984962Y-63916222D01*
X128198243Y-63787289D01*
X128211699Y-63780227D01*
X128438967Y-63677942D01*
X128453185Y-63672550D01*
X128691124Y-63598405D01*
X128705897Y-63594764D01*
X128951028Y-63549842D01*
X128966132Y-63548008D01*
X129188835Y-63534537D01*
X129204870Y-63535312D01*
X129212707Y-63535312D01*
X129222500Y-63536863D01*
X129232292Y-63535312D01*
X129240254Y-63534051D01*
X129259965Y-63532500D01*
X162840035Y-63532500D01*
X162859747Y-63534051D01*
G37*
%TD.AperFunction*%
%TD*%
%TA.AperFunction,Conductor*%
%TO.N,VCC*%
G36*
X127519649Y-82654823D02*
G01*
X127526467Y-82736018D01*
X127581901Y-82929338D01*
X127673828Y-83108210D01*
X127677651Y-83113034D01*
X127677654Y-83113038D01*
X127705888Y-83148660D01*
X127798748Y-83265819D01*
X127951901Y-83396163D01*
X128027179Y-83438234D01*
X128029580Y-83439576D01*
X128079286Y-83490269D01*
X128093694Y-83559788D01*
X128068231Y-83626061D01*
X128026485Y-83661226D01*
X127975757Y-83687746D01*
X127819024Y-83813763D01*
X127689752Y-83967823D01*
X127686788Y-83973215D01*
X127686785Y-83973219D01*
X127659693Y-84022500D01*
X127592866Y-84144058D01*
X127591005Y-84149925D01*
X127591004Y-84149927D01*
X127586787Y-84163221D01*
X127532056Y-84335755D01*
X127509638Y-84535613D01*
X127510154Y-84541756D01*
X127524056Y-84707304D01*
X127526467Y-84736018D01*
X127581901Y-84929338D01*
X127584716Y-84934815D01*
X127661046Y-85083338D01*
X127673828Y-85108210D01*
X127677651Y-85113034D01*
X127677654Y-85113038D01*
X127705888Y-85148660D01*
X127798748Y-85265819D01*
X127951901Y-85396163D01*
X128027179Y-85438234D01*
X128029580Y-85439576D01*
X128079286Y-85490269D01*
X128093694Y-85559788D01*
X128068231Y-85626061D01*
X128026485Y-85661226D01*
X127975757Y-85687746D01*
X127819024Y-85813763D01*
X127689752Y-85967823D01*
X127686788Y-85973215D01*
X127686785Y-85973219D01*
X127658764Y-86024190D01*
X127592866Y-86144058D01*
X127591005Y-86149925D01*
X127591004Y-86149927D01*
X127586787Y-86163221D01*
X127532056Y-86335755D01*
X127509638Y-86535613D01*
X127510154Y-86541756D01*
X127523191Y-86697001D01*
X127526467Y-86736018D01*
X127581901Y-86929338D01*
X127584716Y-86934815D01*
X127669518Y-87099823D01*
X127673828Y-87108210D01*
X127677651Y-87113034D01*
X127677654Y-87113038D01*
X127715573Y-87160879D01*
X127798748Y-87265819D01*
X127951901Y-87396163D01*
X128027179Y-87438234D01*
X128029580Y-87439576D01*
X128079286Y-87490269D01*
X128093694Y-87559788D01*
X128068231Y-87626061D01*
X128026485Y-87661226D01*
X127975757Y-87687746D01*
X127819024Y-87813763D01*
X127689752Y-87967823D01*
X127686788Y-87973215D01*
X127686785Y-87973219D01*
X127651482Y-88037436D01*
X127592866Y-88144058D01*
X127591005Y-88149925D01*
X127591004Y-88149927D01*
X127586787Y-88163221D01*
X127532056Y-88335755D01*
X127509638Y-88535613D01*
X127526467Y-88736018D01*
X127581901Y-88929338D01*
X127673828Y-89108210D01*
X127677651Y-89113034D01*
X127677654Y-89113038D01*
X127790848Y-89255851D01*
X127798748Y-89265819D01*
X127951901Y-89396163D01*
X128027179Y-89438234D01*
X128029580Y-89439576D01*
X128079286Y-89490269D01*
X128093694Y-89559788D01*
X128068231Y-89626061D01*
X128026485Y-89661226D01*
X127975757Y-89687746D01*
X127819024Y-89813763D01*
X127689752Y-89967823D01*
X127686788Y-89973215D01*
X127686785Y-89973219D01*
X127652309Y-90035931D01*
X127592866Y-90144058D01*
X127591005Y-90149925D01*
X127591004Y-90149927D01*
X127534040Y-90329500D01*
X127532056Y-90335755D01*
X127509638Y-90535613D01*
X127526467Y-90736018D01*
X127581901Y-90929338D01*
X127673828Y-91108210D01*
X127677651Y-91113034D01*
X127677654Y-91113038D01*
X127786586Y-91250475D01*
X127798748Y-91265819D01*
X127951901Y-91396163D01*
X127957279Y-91399169D01*
X127957281Y-91399170D01*
X127987850Y-91416254D01*
X128027179Y-91438234D01*
X128029580Y-91439576D01*
X128079286Y-91490269D01*
X128093694Y-91559788D01*
X128068231Y-91626061D01*
X128026485Y-91661226D01*
X127975757Y-91687746D01*
X127819024Y-91813763D01*
X127689752Y-91967823D01*
X127686788Y-91973215D01*
X127686785Y-91973219D01*
X127651482Y-92037436D01*
X127592866Y-92144058D01*
X127591005Y-92149925D01*
X127591004Y-92149927D01*
X127586787Y-92163221D01*
X127532056Y-92335755D01*
X127509638Y-92535613D01*
X127526467Y-92736018D01*
X127581901Y-92929338D01*
X127616504Y-92996668D01*
X127647832Y-93057626D01*
X127673828Y-93108210D01*
X127677651Y-93113034D01*
X127677654Y-93113038D01*
X127773457Y-93233910D01*
X127798748Y-93265819D01*
X127803442Y-93269814D01*
X127945506Y-93390720D01*
X127951901Y-93396163D01*
X128029287Y-93439412D01*
X128029580Y-93439576D01*
X128079286Y-93490269D01*
X128093694Y-93559788D01*
X128068231Y-93626061D01*
X128026485Y-93661226D01*
X127975757Y-93687746D01*
X127819024Y-93813763D01*
X127689752Y-93967823D01*
X127686788Y-93973215D01*
X127686785Y-93973219D01*
X127651482Y-94037436D01*
X127592866Y-94144058D01*
X127591005Y-94149925D01*
X127591004Y-94149927D01*
X127586787Y-94163221D01*
X127532056Y-94335755D01*
X127509638Y-94535613D01*
X127510154Y-94541756D01*
X127524575Y-94713484D01*
X127526467Y-94736018D01*
X127528165Y-94741939D01*
X127528165Y-94741940D01*
X127529305Y-94745916D01*
X127581901Y-94929338D01*
X127584716Y-94934815D01*
X127635947Y-95034500D01*
X127673828Y-95108210D01*
X127677651Y-95113034D01*
X127677654Y-95113038D01*
X127757828Y-95214191D01*
X127798748Y-95265819D01*
X127803442Y-95269814D01*
X127880395Y-95335306D01*
X127951901Y-95396163D01*
X127957279Y-95399169D01*
X127957281Y-95399170D01*
X128028050Y-95438721D01*
X128127456Y-95494277D01*
X128318723Y-95556424D01*
X128518420Y-95580236D01*
X128524555Y-95579764D01*
X128524557Y-95579764D01*
X128712796Y-95565280D01*
X128712800Y-95565279D01*
X128718938Y-95564807D01*
X128755782Y-95554520D01*
X128906696Y-95512384D01*
X128906700Y-95512383D01*
X128912640Y-95510724D01*
X128918144Y-95507944D01*
X128918146Y-95507943D01*
X129086646Y-95422828D01*
X129086648Y-95422827D01*
X129092149Y-95420048D01*
X129171388Y-95358140D01*
X129245771Y-95300026D01*
X129245772Y-95300025D01*
X129250627Y-95296232D01*
X129327535Y-95207133D01*
X129378008Y-95148660D01*
X129378009Y-95148658D01*
X129382037Y-95143992D01*
X129429785Y-95059940D01*
X129480822Y-95010591D01*
X129550440Y-94996668D01*
X129616534Y-95022594D01*
X129651406Y-95064583D01*
X129671010Y-95102729D01*
X129671013Y-95102733D01*
X129673828Y-95108210D01*
X129677651Y-95113034D01*
X129677654Y-95113038D01*
X129757828Y-95214191D01*
X129798748Y-95265819D01*
X129803442Y-95269814D01*
X129880395Y-95335306D01*
X129951901Y-95396163D01*
X129957279Y-95399169D01*
X129957281Y-95399170D01*
X130028050Y-95438721D01*
X130127456Y-95494277D01*
X130318723Y-95556424D01*
X130518420Y-95580236D01*
X130524555Y-95579764D01*
X130524557Y-95579764D01*
X130712796Y-95565280D01*
X130712800Y-95565279D01*
X130718938Y-95564807D01*
X130755782Y-95554520D01*
X130906696Y-95512384D01*
X130906700Y-95512383D01*
X130912640Y-95510724D01*
X130918144Y-95507944D01*
X130918146Y-95507943D01*
X131086646Y-95422828D01*
X131086648Y-95422827D01*
X131092149Y-95420048D01*
X131171388Y-95358140D01*
X131245771Y-95300026D01*
X131245772Y-95300025D01*
X131250627Y-95296232D01*
X131327535Y-95207133D01*
X131378008Y-95148660D01*
X131378009Y-95148658D01*
X131382037Y-95143992D01*
X131402364Y-95108210D01*
X131478329Y-94974488D01*
X131478331Y-94974484D01*
X131481374Y-94969127D01*
X131539297Y-94795002D01*
X131542909Y-94784145D01*
X131542910Y-94784142D01*
X131544854Y-94778297D01*
X131570060Y-94578772D01*
X131570462Y-94550000D01*
X131550837Y-94349849D01*
X131492710Y-94157321D01*
X131398294Y-93979751D01*
X131303164Y-93863110D01*
X131275081Y-93828676D01*
X131275078Y-93828673D01*
X131271186Y-93823901D01*
X131264637Y-93818483D01*
X131120977Y-93699637D01*
X131120974Y-93699635D01*
X131116227Y-93695708D01*
X131110807Y-93692778D01*
X131110802Y-93692774D01*
X131053028Y-93661536D01*
X131002619Y-93611541D01*
X130987241Y-93542230D01*
X131011777Y-93475608D01*
X131056145Y-93438235D01*
X131092149Y-93420048D01*
X131250627Y-93296232D01*
X131360833Y-93168557D01*
X131378008Y-93148660D01*
X131378009Y-93148658D01*
X131382037Y-93143992D01*
X131392950Y-93124781D01*
X131478329Y-92974488D01*
X131478331Y-92974484D01*
X131481374Y-92969127D01*
X131513203Y-92873445D01*
X131542909Y-92784145D01*
X131542910Y-92784142D01*
X131544854Y-92778297D01*
X131570060Y-92578772D01*
X131570462Y-92550000D01*
X131550837Y-92349849D01*
X131492710Y-92157321D01*
X131398294Y-91979751D01*
X131351083Y-91921865D01*
X131275081Y-91828676D01*
X131275078Y-91828673D01*
X131271186Y-91823901D01*
X131264638Y-91818484D01*
X131120977Y-91699637D01*
X131120974Y-91699635D01*
X131116227Y-91695708D01*
X130939320Y-91600055D01*
X130780849Y-91551000D01*
X130753090Y-91542407D01*
X130753087Y-91542406D01*
X130747203Y-91540585D01*
X130741078Y-91539941D01*
X130741077Y-91539941D01*
X130553322Y-91520207D01*
X130553321Y-91520207D01*
X130547194Y-91519563D01*
X130463056Y-91527220D01*
X130353050Y-91537231D01*
X130353047Y-91537232D01*
X130346911Y-91537790D01*
X130341005Y-91539528D01*
X130341001Y-91539529D01*
X130198715Y-91581407D01*
X130153982Y-91594572D01*
X129975757Y-91687746D01*
X129819024Y-91813763D01*
X129689752Y-91967823D01*
X129686786Y-91973219D01*
X129686783Y-91973223D01*
X129650632Y-92038982D01*
X129600287Y-92089041D01*
X129530870Y-92103935D01*
X129464421Y-92078935D01*
X129428966Y-92037436D01*
X129401190Y-91985197D01*
X129401189Y-91985195D01*
X129398294Y-91979751D01*
X129351083Y-91921865D01*
X129275081Y-91828676D01*
X129275078Y-91828673D01*
X129271186Y-91823901D01*
X129264638Y-91818484D01*
X129120977Y-91699637D01*
X129120974Y-91699635D01*
X129116227Y-91695708D01*
X129110806Y-91692777D01*
X129110802Y-91692774D01*
X129053028Y-91661536D01*
X129002619Y-91611541D01*
X128987241Y-91542230D01*
X129011777Y-91475608D01*
X129056145Y-91438235D01*
X129092149Y-91420048D01*
X129250627Y-91296232D01*
X129382037Y-91143992D01*
X129402364Y-91108210D01*
X129478329Y-90974488D01*
X129478331Y-90974484D01*
X129481374Y-90969127D01*
X129538517Y-90797348D01*
X129542909Y-90784145D01*
X129542910Y-90784142D01*
X129544854Y-90778297D01*
X129570060Y-90578772D01*
X129570462Y-90550000D01*
X129550837Y-90349849D01*
X129492710Y-90157321D01*
X129464324Y-90103935D01*
X129401190Y-89985197D01*
X129401189Y-89985195D01*
X129398294Y-89979751D01*
X129349142Y-89919485D01*
X129275081Y-89828676D01*
X129275078Y-89828673D01*
X129271186Y-89823901D01*
X129264638Y-89818484D01*
X129120977Y-89699637D01*
X129120974Y-89699635D01*
X129116227Y-89695708D01*
X129110806Y-89692777D01*
X129110802Y-89692774D01*
X129053028Y-89661536D01*
X129002619Y-89611541D01*
X128987241Y-89542230D01*
X129011777Y-89475608D01*
X129056145Y-89438235D01*
X129092149Y-89420048D01*
X129250627Y-89296232D01*
X129382037Y-89143992D01*
X129429785Y-89059940D01*
X129480822Y-89010591D01*
X129550440Y-88996668D01*
X129616534Y-89022594D01*
X129651406Y-89064583D01*
X129671010Y-89102729D01*
X129671013Y-89102733D01*
X129673828Y-89108210D01*
X129677651Y-89113034D01*
X129677654Y-89113038D01*
X129790848Y-89255851D01*
X129798748Y-89265819D01*
X129951901Y-89396163D01*
X129957279Y-89399169D01*
X129957281Y-89399170D01*
X130027178Y-89438234D01*
X130127456Y-89494277D01*
X130318723Y-89556424D01*
X130518420Y-89580236D01*
X130524555Y-89579764D01*
X130524557Y-89579764D01*
X130712796Y-89565280D01*
X130712800Y-89565279D01*
X130718938Y-89564807D01*
X130768389Y-89551000D01*
X130906696Y-89512384D01*
X130906700Y-89512383D01*
X130912640Y-89510724D01*
X130918144Y-89507944D01*
X130918146Y-89507943D01*
X131086646Y-89422828D01*
X131086648Y-89422827D01*
X131092149Y-89420048D01*
X131250627Y-89296232D01*
X131382037Y-89143992D01*
X131402364Y-89108210D01*
X131478329Y-88974488D01*
X131478331Y-88974484D01*
X131481374Y-88969127D01*
X131515069Y-88867836D01*
X131542909Y-88784145D01*
X131542910Y-88784142D01*
X131544854Y-88778297D01*
X131570060Y-88578772D01*
X131570462Y-88550000D01*
X131550837Y-88349849D01*
X131492710Y-88157321D01*
X131464324Y-88103935D01*
X131401190Y-87985197D01*
X131401189Y-87985195D01*
X131398294Y-87979751D01*
X131351083Y-87921865D01*
X131275081Y-87828676D01*
X131275078Y-87828673D01*
X131271186Y-87823901D01*
X131263839Y-87817823D01*
X131120977Y-87699637D01*
X131120974Y-87699635D01*
X131116227Y-87695708D01*
X131110807Y-87692778D01*
X131110802Y-87692774D01*
X131053028Y-87661536D01*
X131002619Y-87611541D01*
X130987241Y-87542230D01*
X131011777Y-87475608D01*
X131056145Y-87438235D01*
X131092149Y-87420048D01*
X131250627Y-87296232D01*
X131382037Y-87143992D01*
X131402364Y-87108210D01*
X131478329Y-86974488D01*
X131478331Y-86974484D01*
X131481374Y-86969127D01*
X131514609Y-86869218D01*
X131542909Y-86784145D01*
X131542910Y-86784142D01*
X131544854Y-86778297D01*
X131570060Y-86578772D01*
X131570462Y-86550000D01*
X131550837Y-86349849D01*
X131492710Y-86157321D01*
X131428966Y-86037436D01*
X131401190Y-85985197D01*
X131401189Y-85985195D01*
X131398294Y-85979751D01*
X131325812Y-85890879D01*
X131275081Y-85828676D01*
X131275078Y-85828673D01*
X131271186Y-85823901D01*
X131264638Y-85818484D01*
X131120977Y-85699637D01*
X131120974Y-85699635D01*
X131116227Y-85695708D01*
X131110807Y-85692778D01*
X131110802Y-85692774D01*
X131053028Y-85661536D01*
X131002619Y-85611541D01*
X130987241Y-85542230D01*
X131011777Y-85475608D01*
X131056145Y-85438235D01*
X131092149Y-85420048D01*
X131250627Y-85296232D01*
X131382037Y-85143992D01*
X131402364Y-85108210D01*
X131478329Y-84974488D01*
X131478331Y-84974484D01*
X131481374Y-84969127D01*
X131513114Y-84873712D01*
X131542909Y-84784145D01*
X131542910Y-84784142D01*
X131544854Y-84778297D01*
X131570060Y-84578772D01*
X131570462Y-84550000D01*
X131550837Y-84349849D01*
X131492710Y-84157321D01*
X131398294Y-83979751D01*
X131339057Y-83907119D01*
X131275081Y-83828676D01*
X131275078Y-83828673D01*
X131271186Y-83823901D01*
X131264638Y-83818484D01*
X131120977Y-83699637D01*
X131120974Y-83699635D01*
X131116227Y-83695708D01*
X131110807Y-83692778D01*
X131110802Y-83692774D01*
X131053028Y-83661536D01*
X131002619Y-83611541D01*
X130987241Y-83542230D01*
X131011777Y-83475608D01*
X131056145Y-83438235D01*
X131092149Y-83420048D01*
X131250627Y-83296232D01*
X131382037Y-83143992D01*
X131402364Y-83108210D01*
X131478329Y-82974488D01*
X131478331Y-82974484D01*
X131481374Y-82969127D01*
X131513114Y-82873712D01*
X131542909Y-82784145D01*
X131542910Y-82784142D01*
X131544854Y-82778297D01*
X131570060Y-82578772D01*
X131570462Y-82550000D01*
X136207500Y-82550000D01*
X136207500Y-92392500D01*
X153987500Y-92392500D01*
X153987500Y-89217500D01*
X148398500Y-89217500D01*
X148330379Y-89197498D01*
X148283886Y-89143842D01*
X148272500Y-89091500D01*
X148272500Y-83311000D01*
X148292502Y-83242879D01*
X148346158Y-83196386D01*
X148398500Y-83185000D01*
X152274000Y-83185000D01*
X152342121Y-83205002D01*
X152388614Y-83258658D01*
X152400000Y-83311000D01*
X152400000Y-87630000D01*
X155892500Y-87630000D01*
X155892500Y-82550000D01*
X160530846Y-82550000D01*
X160539649Y-82654823D01*
X160546467Y-82736018D01*
X160601901Y-82929338D01*
X160693828Y-83108210D01*
X160697651Y-83113034D01*
X160697654Y-83113038D01*
X160725888Y-83148660D01*
X160818748Y-83265819D01*
X160971901Y-83396163D01*
X161047179Y-83438234D01*
X161049580Y-83439576D01*
X161099286Y-83490269D01*
X161113694Y-83559788D01*
X161088231Y-83626061D01*
X161046485Y-83661226D01*
X160995757Y-83687746D01*
X160839024Y-83813763D01*
X160709752Y-83967823D01*
X160706788Y-83973215D01*
X160706785Y-83973219D01*
X160679693Y-84022500D01*
X160612866Y-84144058D01*
X160611005Y-84149925D01*
X160611004Y-84149927D01*
X160606787Y-84163221D01*
X160552056Y-84335755D01*
X160529638Y-84535613D01*
X160530154Y-84541756D01*
X160544056Y-84707304D01*
X160546467Y-84736018D01*
X160601901Y-84929338D01*
X160604716Y-84934815D01*
X160681046Y-85083338D01*
X160693828Y-85108210D01*
X160697651Y-85113034D01*
X160697654Y-85113038D01*
X160725888Y-85148660D01*
X160818748Y-85265819D01*
X160971901Y-85396163D01*
X161047179Y-85438234D01*
X161049580Y-85439576D01*
X161099286Y-85490269D01*
X161113694Y-85559788D01*
X161088231Y-85626061D01*
X161046485Y-85661226D01*
X160995757Y-85687746D01*
X160839024Y-85813763D01*
X160709752Y-85967823D01*
X160706788Y-85973215D01*
X160706785Y-85973219D01*
X160678764Y-86024190D01*
X160612866Y-86144058D01*
X160611005Y-86149925D01*
X160611004Y-86149927D01*
X160606787Y-86163221D01*
X160552056Y-86335755D01*
X160529638Y-86535613D01*
X160530154Y-86541756D01*
X160543191Y-86697001D01*
X160546467Y-86736018D01*
X160601901Y-86929338D01*
X160604716Y-86934815D01*
X160689518Y-87099823D01*
X160693828Y-87108210D01*
X160697651Y-87113034D01*
X160697654Y-87113038D01*
X160735573Y-87160879D01*
X160818748Y-87265819D01*
X160971901Y-87396163D01*
X160977279Y-87399169D01*
X160977281Y-87399170D01*
X161047178Y-87438234D01*
X161147456Y-87494277D01*
X161338723Y-87556424D01*
X161538420Y-87580236D01*
X161544555Y-87579764D01*
X161544557Y-87579764D01*
X161732796Y-87565280D01*
X161732800Y-87565279D01*
X161738938Y-87564807D01*
X161788389Y-87551000D01*
X161926696Y-87512384D01*
X161926700Y-87512383D01*
X161932640Y-87510724D01*
X161938144Y-87507944D01*
X161938146Y-87507943D01*
X162106646Y-87422828D01*
X162106648Y-87422827D01*
X162112149Y-87420048D01*
X162270627Y-87296232D01*
X162402037Y-87143992D01*
X162449785Y-87059940D01*
X162500822Y-87010591D01*
X162570440Y-86996668D01*
X162636534Y-87022594D01*
X162671406Y-87064583D01*
X162691010Y-87102729D01*
X162691013Y-87102733D01*
X162693828Y-87108210D01*
X162697651Y-87113034D01*
X162697654Y-87113038D01*
X162735573Y-87160879D01*
X162818748Y-87265819D01*
X162971901Y-87396163D01*
X163047179Y-87438234D01*
X163049580Y-87439576D01*
X163099286Y-87490269D01*
X163113694Y-87559788D01*
X163088231Y-87626061D01*
X163046485Y-87661226D01*
X162995757Y-87687746D01*
X162839024Y-87813763D01*
X162709752Y-87967823D01*
X162706788Y-87973215D01*
X162706785Y-87973219D01*
X162671482Y-88037436D01*
X162612866Y-88144058D01*
X162611005Y-88149925D01*
X162611004Y-88149927D01*
X162606787Y-88163221D01*
X162552056Y-88335755D01*
X162529638Y-88535613D01*
X162546467Y-88736018D01*
X162601901Y-88929338D01*
X162693828Y-89108210D01*
X162697651Y-89113034D01*
X162697654Y-89113038D01*
X162810848Y-89255851D01*
X162818748Y-89265819D01*
X162971901Y-89396163D01*
X163047179Y-89438234D01*
X163049580Y-89439576D01*
X163099286Y-89490269D01*
X163113694Y-89559788D01*
X163088231Y-89626061D01*
X163046485Y-89661226D01*
X162995757Y-89687746D01*
X162839024Y-89813763D01*
X162709752Y-89967823D01*
X162706786Y-89973219D01*
X162706783Y-89973223D01*
X162670632Y-90038982D01*
X162620287Y-90089041D01*
X162550870Y-90103935D01*
X162484421Y-90078935D01*
X162448966Y-90037436D01*
X162421190Y-89985197D01*
X162421189Y-89985195D01*
X162418294Y-89979751D01*
X162369142Y-89919485D01*
X162295081Y-89828676D01*
X162295078Y-89828673D01*
X162291186Y-89823901D01*
X162284638Y-89818484D01*
X162140977Y-89699637D01*
X162140974Y-89699635D01*
X162136227Y-89695708D01*
X161959320Y-89600055D01*
X161800849Y-89551000D01*
X161773090Y-89542407D01*
X161773087Y-89542406D01*
X161767203Y-89540585D01*
X161761078Y-89539941D01*
X161761077Y-89539941D01*
X161573322Y-89520207D01*
X161573321Y-89520207D01*
X161567194Y-89519563D01*
X161483056Y-89527220D01*
X161373050Y-89537231D01*
X161373047Y-89537232D01*
X161366911Y-89537790D01*
X161361005Y-89539528D01*
X161361001Y-89539529D01*
X161225169Y-89579507D01*
X161173982Y-89594572D01*
X160995757Y-89687746D01*
X160839024Y-89813763D01*
X160709752Y-89967823D01*
X160706788Y-89973215D01*
X160706785Y-89973219D01*
X160672309Y-90035931D01*
X160612866Y-90144058D01*
X160611005Y-90149925D01*
X160611004Y-90149927D01*
X160554040Y-90329500D01*
X160552056Y-90335755D01*
X160529638Y-90535613D01*
X160546467Y-90736018D01*
X160601901Y-90929338D01*
X160693828Y-91108210D01*
X160697651Y-91113034D01*
X160697654Y-91113038D01*
X160806586Y-91250475D01*
X160818748Y-91265819D01*
X160971901Y-91396163D01*
X160977279Y-91399169D01*
X160977281Y-91399170D01*
X161007850Y-91416254D01*
X161047179Y-91438234D01*
X161049580Y-91439576D01*
X161099286Y-91490269D01*
X161113694Y-91559788D01*
X161088231Y-91626061D01*
X161046485Y-91661226D01*
X160995757Y-91687746D01*
X160839024Y-91813763D01*
X160709752Y-91967823D01*
X160706788Y-91973215D01*
X160706785Y-91973219D01*
X160671482Y-92037436D01*
X160612866Y-92144058D01*
X160611005Y-92149925D01*
X160611004Y-92149927D01*
X160606787Y-92163221D01*
X160552056Y-92335755D01*
X160529638Y-92535613D01*
X160546467Y-92736018D01*
X160601901Y-92929338D01*
X160636504Y-92996668D01*
X160667832Y-93057626D01*
X160693828Y-93108210D01*
X160697651Y-93113034D01*
X160697654Y-93113038D01*
X160793457Y-93233910D01*
X160818748Y-93265819D01*
X160823442Y-93269814D01*
X160823443Y-93269815D01*
X160871092Y-93310368D01*
X160910004Y-93369751D01*
X160910635Y-93440745D01*
X160872783Y-93500809D01*
X160807778Y-93530978D01*
X160782888Y-93534642D01*
X160746440Y-93552537D01*
X160687493Y-93581478D01*
X160687491Y-93581479D01*
X160678145Y-93586068D01*
X160595707Y-93668650D01*
X160544464Y-93773482D01*
X160543052Y-93783162D01*
X160537109Y-93823901D01*
X160534500Y-93841782D01*
X160534500Y-95258218D01*
X160535170Y-95262768D01*
X160535170Y-95262771D01*
X160541373Y-95304906D01*
X160544642Y-95327112D01*
X160548958Y-95335902D01*
X160580021Y-95399170D01*
X160596068Y-95431855D01*
X160678650Y-95514293D01*
X160783482Y-95565536D01*
X160813973Y-95569984D01*
X160847256Y-95574840D01*
X160847260Y-95574840D01*
X160851782Y-95575500D01*
X162268218Y-95575500D01*
X162272768Y-95574830D01*
X162272771Y-95574830D01*
X162327426Y-95566784D01*
X162327427Y-95566784D01*
X162337112Y-95565358D01*
X162398494Y-95535221D01*
X162432507Y-95518522D01*
X162432509Y-95518521D01*
X162441855Y-95513932D01*
X162524293Y-95431350D01*
X162575536Y-95326518D01*
X162578689Y-95304906D01*
X162608317Y-95240386D01*
X162668123Y-95202127D01*
X162739119Y-95202275D01*
X162802115Y-95244833D01*
X162814920Y-95260990D01*
X162814923Y-95260993D01*
X162818748Y-95265819D01*
X162823442Y-95269814D01*
X162900395Y-95335306D01*
X162971901Y-95396163D01*
X162977279Y-95399169D01*
X162977281Y-95399170D01*
X163048050Y-95438721D01*
X163147456Y-95494277D01*
X163338723Y-95556424D01*
X163538420Y-95580236D01*
X163544555Y-95579764D01*
X163544557Y-95579764D01*
X163732796Y-95565280D01*
X163732800Y-95565279D01*
X163738938Y-95564807D01*
X163775782Y-95554520D01*
X163926696Y-95512384D01*
X163926700Y-95512383D01*
X163932640Y-95510724D01*
X163938144Y-95507944D01*
X163938146Y-95507943D01*
X164106646Y-95422828D01*
X164106648Y-95422827D01*
X164112149Y-95420048D01*
X164191388Y-95358140D01*
X164265771Y-95300026D01*
X164265772Y-95300025D01*
X164270627Y-95296232D01*
X164347535Y-95207133D01*
X164398008Y-95148660D01*
X164398009Y-95148658D01*
X164402037Y-95143992D01*
X164422364Y-95108210D01*
X164498329Y-94974488D01*
X164498331Y-94974484D01*
X164501374Y-94969127D01*
X164559297Y-94795002D01*
X164562909Y-94784145D01*
X164562910Y-94784142D01*
X164564854Y-94778297D01*
X164590060Y-94578772D01*
X164590462Y-94550000D01*
X164570837Y-94349849D01*
X164512710Y-94157321D01*
X164418294Y-93979751D01*
X164323164Y-93863110D01*
X164295081Y-93828676D01*
X164295078Y-93828673D01*
X164291186Y-93823901D01*
X164284637Y-93818483D01*
X164140977Y-93699637D01*
X164140974Y-93699635D01*
X164136227Y-93695708D01*
X164130807Y-93692778D01*
X164130802Y-93692774D01*
X164073028Y-93661536D01*
X164022619Y-93611541D01*
X164007241Y-93542230D01*
X164031777Y-93475608D01*
X164076145Y-93438235D01*
X164112149Y-93420048D01*
X164270627Y-93296232D01*
X164380833Y-93168557D01*
X164398008Y-93148660D01*
X164398009Y-93148658D01*
X164402037Y-93143992D01*
X164412950Y-93124781D01*
X164498329Y-92974488D01*
X164498331Y-92974484D01*
X164501374Y-92969127D01*
X164533203Y-92873445D01*
X164562909Y-92784145D01*
X164562910Y-92784142D01*
X164564854Y-92778297D01*
X164590060Y-92578772D01*
X164590462Y-92550000D01*
X164570837Y-92349849D01*
X164512710Y-92157321D01*
X164418294Y-91979751D01*
X164371083Y-91921865D01*
X164295081Y-91828676D01*
X164295078Y-91828673D01*
X164291186Y-91823901D01*
X164284638Y-91818484D01*
X164140977Y-91699637D01*
X164140974Y-91699635D01*
X164136227Y-91695708D01*
X164130806Y-91692777D01*
X164130802Y-91692774D01*
X164073028Y-91661536D01*
X164022619Y-91611541D01*
X164007241Y-91542230D01*
X164031777Y-91475608D01*
X164076145Y-91438235D01*
X164112149Y-91420048D01*
X164270627Y-91296232D01*
X164402037Y-91143992D01*
X164422364Y-91108210D01*
X164498329Y-90974488D01*
X164498331Y-90974484D01*
X164501374Y-90969127D01*
X164558517Y-90797348D01*
X164562909Y-90784145D01*
X164562910Y-90784142D01*
X164564854Y-90778297D01*
X164590060Y-90578772D01*
X164590462Y-90550000D01*
X164570837Y-90349849D01*
X164512710Y-90157321D01*
X164484324Y-90103935D01*
X164421190Y-89985197D01*
X164421189Y-89985195D01*
X164418294Y-89979751D01*
X164369142Y-89919485D01*
X164295081Y-89828676D01*
X164295078Y-89828673D01*
X164291186Y-89823901D01*
X164284638Y-89818484D01*
X164140977Y-89699637D01*
X164140974Y-89699635D01*
X164136227Y-89695708D01*
X164130806Y-89692777D01*
X164130802Y-89692774D01*
X164073028Y-89661536D01*
X164022619Y-89611541D01*
X164007241Y-89542230D01*
X164031777Y-89475608D01*
X164076145Y-89438235D01*
X164112149Y-89420048D01*
X164270627Y-89296232D01*
X164402037Y-89143992D01*
X164422364Y-89108210D01*
X164498329Y-88974488D01*
X164498331Y-88974484D01*
X164501374Y-88969127D01*
X164535069Y-88867836D01*
X164562909Y-88784145D01*
X164562910Y-88784142D01*
X164564854Y-88778297D01*
X164590060Y-88578772D01*
X164590462Y-88550000D01*
X164570837Y-88349849D01*
X164512710Y-88157321D01*
X164484324Y-88103935D01*
X164421190Y-87985197D01*
X164421189Y-87985195D01*
X164418294Y-87979751D01*
X164371083Y-87921865D01*
X164295081Y-87828676D01*
X164295078Y-87828673D01*
X164291186Y-87823901D01*
X164283839Y-87817823D01*
X164140977Y-87699637D01*
X164140974Y-87699635D01*
X164136227Y-87695708D01*
X164130807Y-87692778D01*
X164130802Y-87692774D01*
X164073028Y-87661536D01*
X164022619Y-87611541D01*
X164007241Y-87542230D01*
X164031777Y-87475608D01*
X164076145Y-87438235D01*
X164112149Y-87420048D01*
X164270627Y-87296232D01*
X164402037Y-87143992D01*
X164422364Y-87108210D01*
X164498329Y-86974488D01*
X164498331Y-86974484D01*
X164501374Y-86969127D01*
X164534609Y-86869218D01*
X164562909Y-86784145D01*
X164562910Y-86784142D01*
X164564854Y-86778297D01*
X164590060Y-86578772D01*
X164590462Y-86550000D01*
X164570837Y-86349849D01*
X164512710Y-86157321D01*
X164448966Y-86037436D01*
X164421190Y-85985197D01*
X164421189Y-85985195D01*
X164418294Y-85979751D01*
X164345812Y-85890879D01*
X164295081Y-85828676D01*
X164295078Y-85828673D01*
X164291186Y-85823901D01*
X164284638Y-85818484D01*
X164140977Y-85699637D01*
X164140974Y-85699635D01*
X164136227Y-85695708D01*
X164130807Y-85692778D01*
X164130802Y-85692774D01*
X164073028Y-85661536D01*
X164022619Y-85611541D01*
X164007241Y-85542230D01*
X164031777Y-85475608D01*
X164076145Y-85438235D01*
X164112149Y-85420048D01*
X164270627Y-85296232D01*
X164402037Y-85143992D01*
X164422364Y-85108210D01*
X164498329Y-84974488D01*
X164498331Y-84974484D01*
X164501374Y-84969127D01*
X164533114Y-84873712D01*
X164562909Y-84784145D01*
X164562910Y-84784142D01*
X164564854Y-84778297D01*
X164590060Y-84578772D01*
X164590462Y-84550000D01*
X164570837Y-84349849D01*
X164512710Y-84157321D01*
X164418294Y-83979751D01*
X164359057Y-83907119D01*
X164295081Y-83828676D01*
X164295078Y-83828673D01*
X164291186Y-83823901D01*
X164284638Y-83818484D01*
X164140977Y-83699637D01*
X164140974Y-83699635D01*
X164136227Y-83695708D01*
X164130807Y-83692778D01*
X164130802Y-83692774D01*
X164073028Y-83661536D01*
X164022619Y-83611541D01*
X164007241Y-83542230D01*
X164031777Y-83475608D01*
X164076145Y-83438235D01*
X164112149Y-83420048D01*
X164270627Y-83296232D01*
X164402037Y-83143992D01*
X164422364Y-83108210D01*
X164498329Y-82974488D01*
X164498331Y-82974484D01*
X164501374Y-82969127D01*
X164533114Y-82873712D01*
X164562909Y-82784145D01*
X164562910Y-82784142D01*
X164564854Y-82778297D01*
X164590060Y-82578772D01*
X164590462Y-82550000D01*
X165067500Y-82550000D01*
X165067500Y-99340035D01*
X165065949Y-99359746D01*
X165063137Y-99377500D01*
X165064688Y-99387293D01*
X165064688Y-99395130D01*
X165065463Y-99411165D01*
X165051992Y-99633868D01*
X165050158Y-99648972D01*
X165005236Y-99894103D01*
X165001595Y-99908876D01*
X164944446Y-100092275D01*
X164927452Y-100146810D01*
X164922058Y-100161033D01*
X164819773Y-100388301D01*
X164812711Y-100401757D01*
X164708234Y-100574583D01*
X164683778Y-100615038D01*
X164675136Y-100627558D01*
X164562766Y-100770988D01*
X164521434Y-100823744D01*
X164511344Y-100835132D01*
X164335132Y-101011344D01*
X164323744Y-101021434D01*
X164236528Y-101089764D01*
X164127560Y-101175135D01*
X164115039Y-101183777D01*
X163901757Y-101312711D01*
X163888301Y-101319773D01*
X163661033Y-101422058D01*
X163646815Y-101427450D01*
X163419320Y-101498340D01*
X163408876Y-101501595D01*
X163394103Y-101505236D01*
X163148972Y-101550158D01*
X163133868Y-101551992D01*
X162911165Y-101565463D01*
X162895130Y-101564688D01*
X162887293Y-101564688D01*
X162877500Y-101563137D01*
X162867708Y-101564688D01*
X162859746Y-101565949D01*
X162840035Y-101567500D01*
X129259965Y-101567500D01*
X129240254Y-101565949D01*
X129232292Y-101564688D01*
X129222500Y-101563137D01*
X129212707Y-101564688D01*
X129204870Y-101564688D01*
X129188835Y-101565463D01*
X128966132Y-101551992D01*
X128951028Y-101550158D01*
X128705897Y-101505236D01*
X128691124Y-101501595D01*
X128680680Y-101498340D01*
X128453185Y-101427450D01*
X128438967Y-101422058D01*
X128211699Y-101319773D01*
X128198243Y-101312711D01*
X127984961Y-101183777D01*
X127972440Y-101175135D01*
X127863473Y-101089764D01*
X127776256Y-101021434D01*
X127764868Y-101011344D01*
X127588656Y-100835132D01*
X127578566Y-100823744D01*
X127537234Y-100770988D01*
X127424864Y-100627558D01*
X127416222Y-100615038D01*
X127391766Y-100574583D01*
X127287289Y-100401757D01*
X127280227Y-100388301D01*
X127177942Y-100161033D01*
X127172548Y-100146810D01*
X127155555Y-100092275D01*
X127141014Y-100045613D01*
X133019638Y-100045613D01*
X133036467Y-100246018D01*
X133091901Y-100439338D01*
X133183828Y-100618210D01*
X133187651Y-100623034D01*
X133187654Y-100623038D01*
X133215888Y-100658660D01*
X133308748Y-100775819D01*
X133461901Y-100906163D01*
X133467279Y-100909169D01*
X133467281Y-100909170D01*
X133549679Y-100955220D01*
X133637456Y-101004277D01*
X133828723Y-101066424D01*
X134028420Y-101090236D01*
X134034555Y-101089764D01*
X134034557Y-101089764D01*
X134222796Y-101075280D01*
X134222800Y-101075279D01*
X134228938Y-101074807D01*
X134265782Y-101064520D01*
X134416696Y-101022384D01*
X134416700Y-101022383D01*
X134422640Y-101020724D01*
X134428144Y-101017944D01*
X134428146Y-101017943D01*
X134596646Y-100932828D01*
X134596648Y-100932827D01*
X134602149Y-100930048D01*
X134760627Y-100806232D01*
X134892037Y-100653992D01*
X134939785Y-100569940D01*
X134990822Y-100520591D01*
X135060440Y-100506668D01*
X135126534Y-100532594D01*
X135161406Y-100574583D01*
X135181010Y-100612729D01*
X135181013Y-100612733D01*
X135183828Y-100618210D01*
X135187651Y-100623034D01*
X135187654Y-100623038D01*
X135215888Y-100658660D01*
X135308748Y-100775819D01*
X135461901Y-100906163D01*
X135467279Y-100909169D01*
X135467281Y-100909170D01*
X135549679Y-100955220D01*
X135637456Y-101004277D01*
X135828723Y-101066424D01*
X136028420Y-101090236D01*
X136034555Y-101089764D01*
X136034557Y-101089764D01*
X136222796Y-101075280D01*
X136222800Y-101075279D01*
X136228938Y-101074807D01*
X136265782Y-101064520D01*
X136416696Y-101022384D01*
X136416700Y-101022383D01*
X136422640Y-101020724D01*
X136428144Y-101017944D01*
X136428146Y-101017943D01*
X136596646Y-100932828D01*
X136596648Y-100932827D01*
X136602149Y-100930048D01*
X136760627Y-100806232D01*
X136892037Y-100653992D01*
X136939785Y-100569940D01*
X136990822Y-100520591D01*
X137060440Y-100506668D01*
X137126534Y-100532594D01*
X137161406Y-100574583D01*
X137181010Y-100612729D01*
X137181013Y-100612733D01*
X137183828Y-100618210D01*
X137187651Y-100623034D01*
X137187654Y-100623038D01*
X137215888Y-100658660D01*
X137308748Y-100775819D01*
X137461901Y-100906163D01*
X137467279Y-100909169D01*
X137467281Y-100909170D01*
X137549679Y-100955220D01*
X137637456Y-101004277D01*
X137828723Y-101066424D01*
X138028420Y-101090236D01*
X138034555Y-101089764D01*
X138034557Y-101089764D01*
X138222796Y-101075280D01*
X138222800Y-101075279D01*
X138228938Y-101074807D01*
X138265782Y-101064520D01*
X138416696Y-101022384D01*
X138416700Y-101022383D01*
X138422640Y-101020724D01*
X138428144Y-101017944D01*
X138428146Y-101017943D01*
X138596646Y-100932828D01*
X138596648Y-100932827D01*
X138602149Y-100930048D01*
X138760627Y-100806232D01*
X138892037Y-100653992D01*
X138939785Y-100569940D01*
X138990822Y-100520591D01*
X139060440Y-100506668D01*
X139126534Y-100532594D01*
X139161406Y-100574583D01*
X139181010Y-100612729D01*
X139181013Y-100612733D01*
X139183828Y-100618210D01*
X139187651Y-100623034D01*
X139187654Y-100623038D01*
X139215888Y-100658660D01*
X139308748Y-100775819D01*
X139461901Y-100906163D01*
X139467279Y-100909169D01*
X139467281Y-100909170D01*
X139549679Y-100955220D01*
X139637456Y-101004277D01*
X139828723Y-101066424D01*
X140028420Y-101090236D01*
X140034555Y-101089764D01*
X140034557Y-101089764D01*
X140222796Y-101075280D01*
X140222800Y-101075279D01*
X140228938Y-101074807D01*
X140265782Y-101064520D01*
X140416696Y-101022384D01*
X140416700Y-101022383D01*
X140422640Y-101020724D01*
X140428144Y-101017944D01*
X140428146Y-101017943D01*
X140596646Y-100932828D01*
X140596648Y-100932827D01*
X140602149Y-100930048D01*
X140760627Y-100806232D01*
X140892037Y-100653992D01*
X140939785Y-100569940D01*
X140990822Y-100520591D01*
X141060440Y-100506668D01*
X141126534Y-100532594D01*
X141161406Y-100574583D01*
X141181010Y-100612729D01*
X141181013Y-100612733D01*
X141183828Y-100618210D01*
X141187651Y-100623034D01*
X141187654Y-100623038D01*
X141215888Y-100658660D01*
X141308748Y-100775819D01*
X141461901Y-100906163D01*
X141467279Y-100909169D01*
X141467281Y-100909170D01*
X141549679Y-100955220D01*
X141637456Y-101004277D01*
X141828723Y-101066424D01*
X142028420Y-101090236D01*
X142034555Y-101089764D01*
X142034557Y-101089764D01*
X142222796Y-101075280D01*
X142222800Y-101075279D01*
X142228938Y-101074807D01*
X142265782Y-101064520D01*
X142416696Y-101022384D01*
X142416700Y-101022383D01*
X142422640Y-101020724D01*
X142428144Y-101017944D01*
X142428146Y-101017943D01*
X142596646Y-100932828D01*
X142596648Y-100932827D01*
X142602149Y-100930048D01*
X142760627Y-100806232D01*
X142892037Y-100653992D01*
X142939785Y-100569940D01*
X142990822Y-100520591D01*
X143060440Y-100506668D01*
X143126534Y-100532594D01*
X143161406Y-100574583D01*
X143181010Y-100612729D01*
X143181013Y-100612733D01*
X143183828Y-100618210D01*
X143187651Y-100623034D01*
X143187654Y-100623038D01*
X143215888Y-100658660D01*
X143308748Y-100775819D01*
X143461901Y-100906163D01*
X143467279Y-100909169D01*
X143467281Y-100909170D01*
X143549679Y-100955220D01*
X143637456Y-101004277D01*
X143828723Y-101066424D01*
X144028420Y-101090236D01*
X144034555Y-101089764D01*
X144034557Y-101089764D01*
X144222796Y-101075280D01*
X144222800Y-101075279D01*
X144228938Y-101074807D01*
X144265782Y-101064520D01*
X144416696Y-101022384D01*
X144416700Y-101022383D01*
X144422640Y-101020724D01*
X144428144Y-101017944D01*
X144428146Y-101017943D01*
X144596646Y-100932828D01*
X144596648Y-100932827D01*
X144602149Y-100930048D01*
X144760627Y-100806232D01*
X144892037Y-100653992D01*
X144903735Y-100633400D01*
X144988329Y-100484488D01*
X144988331Y-100484484D01*
X144991374Y-100479127D01*
X145023114Y-100383712D01*
X145052909Y-100294145D01*
X145052910Y-100294142D01*
X145054854Y-100288297D01*
X145080060Y-100088772D01*
X145080462Y-100060000D01*
X145060837Y-99859849D01*
X145002710Y-99667321D01*
X144908294Y-99489751D01*
X144831123Y-99395130D01*
X144785081Y-99338676D01*
X144785078Y-99338673D01*
X144781186Y-99333901D01*
X144776437Y-99329972D01*
X144630977Y-99209637D01*
X144630974Y-99209635D01*
X144626227Y-99205708D01*
X144620806Y-99202777D01*
X144620802Y-99202774D01*
X144563028Y-99171536D01*
X144512619Y-99121541D01*
X144497241Y-99052230D01*
X144521777Y-98985608D01*
X144566145Y-98948235D01*
X144602149Y-98930048D01*
X144681388Y-98868140D01*
X144755771Y-98810026D01*
X144755772Y-98810025D01*
X144760627Y-98806232D01*
X144837535Y-98717133D01*
X144888008Y-98658660D01*
X144888009Y-98658658D01*
X144892037Y-98653992D01*
X144939785Y-98569940D01*
X144990822Y-98520591D01*
X145060440Y-98506668D01*
X145126534Y-98532594D01*
X145161406Y-98574583D01*
X145181010Y-98612729D01*
X145181013Y-98612733D01*
X145183828Y-98618210D01*
X145187651Y-98623034D01*
X145187654Y-98623038D01*
X145215888Y-98658660D01*
X145308748Y-98775819D01*
X145313442Y-98779814D01*
X145390395Y-98845306D01*
X145461901Y-98906163D01*
X145467279Y-98909169D01*
X145467281Y-98909170D01*
X145537178Y-98948234D01*
X145637456Y-99004277D01*
X145828723Y-99066424D01*
X146028420Y-99090236D01*
X146034555Y-99089764D01*
X146034557Y-99089764D01*
X146222796Y-99075280D01*
X146222800Y-99075279D01*
X146228938Y-99074807D01*
X146281970Y-99060000D01*
X146416696Y-99022384D01*
X146416700Y-99022383D01*
X146422640Y-99020724D01*
X146428144Y-99017944D01*
X146428146Y-99017943D01*
X146596646Y-98932828D01*
X146596648Y-98932827D01*
X146602149Y-98930048D01*
X146681388Y-98868140D01*
X146755771Y-98810026D01*
X146755772Y-98810025D01*
X146760627Y-98806232D01*
X146837535Y-98717133D01*
X146888008Y-98658660D01*
X146888009Y-98658658D01*
X146892037Y-98653992D01*
X146939785Y-98569940D01*
X146990822Y-98520591D01*
X147060440Y-98506668D01*
X147126534Y-98532594D01*
X147161406Y-98574583D01*
X147181010Y-98612729D01*
X147181013Y-98612733D01*
X147183828Y-98618210D01*
X147187651Y-98623034D01*
X147187654Y-98623038D01*
X147215888Y-98658660D01*
X147308748Y-98775819D01*
X147313442Y-98779814D01*
X147390395Y-98845306D01*
X147461901Y-98906163D01*
X147538929Y-98949212D01*
X147539580Y-98949576D01*
X147589286Y-99000269D01*
X147603694Y-99069788D01*
X147578231Y-99136061D01*
X147536485Y-99171226D01*
X147485757Y-99197746D01*
X147329024Y-99323763D01*
X147199752Y-99477823D01*
X147196788Y-99483215D01*
X147196785Y-99483219D01*
X147161482Y-99547436D01*
X147102866Y-99654058D01*
X147101005Y-99659925D01*
X147101004Y-99659927D01*
X147096787Y-99673221D01*
X147042056Y-99845755D01*
X147019638Y-100045613D01*
X147036467Y-100246018D01*
X147091901Y-100439338D01*
X147183828Y-100618210D01*
X147187651Y-100623034D01*
X147187654Y-100623038D01*
X147215888Y-100658660D01*
X147308748Y-100775819D01*
X147461901Y-100906163D01*
X147467279Y-100909169D01*
X147467281Y-100909170D01*
X147549679Y-100955220D01*
X147637456Y-101004277D01*
X147828723Y-101066424D01*
X148028420Y-101090236D01*
X148034555Y-101089764D01*
X148034557Y-101089764D01*
X148222796Y-101075280D01*
X148222800Y-101075279D01*
X148228938Y-101074807D01*
X148265782Y-101064520D01*
X148416696Y-101022384D01*
X148416700Y-101022383D01*
X148422640Y-101020724D01*
X148428144Y-101017944D01*
X148428146Y-101017943D01*
X148596646Y-100932828D01*
X148596648Y-100932827D01*
X148602149Y-100930048D01*
X148760627Y-100806232D01*
X148892037Y-100653992D01*
X148939785Y-100569940D01*
X148990822Y-100520591D01*
X149060440Y-100506668D01*
X149126534Y-100532594D01*
X149161406Y-100574583D01*
X149181010Y-100612729D01*
X149181013Y-100612733D01*
X149183828Y-100618210D01*
X149187651Y-100623034D01*
X149187654Y-100623038D01*
X149215888Y-100658660D01*
X149308748Y-100775819D01*
X149461901Y-100906163D01*
X149467279Y-100909169D01*
X149467281Y-100909170D01*
X149549679Y-100955220D01*
X149637456Y-101004277D01*
X149828723Y-101066424D01*
X150028420Y-101090236D01*
X150034555Y-101089764D01*
X150034557Y-101089764D01*
X150222796Y-101075280D01*
X150222800Y-101075279D01*
X150228938Y-101074807D01*
X150265782Y-101064520D01*
X150416696Y-101022384D01*
X150416700Y-101022383D01*
X150422640Y-101020724D01*
X150428144Y-101017944D01*
X150428146Y-101017943D01*
X150596646Y-100932828D01*
X150596648Y-100932827D01*
X150602149Y-100930048D01*
X150760627Y-100806232D01*
X150892037Y-100653992D01*
X150939785Y-100569940D01*
X150990822Y-100520591D01*
X151060440Y-100506668D01*
X151126534Y-100532594D01*
X151161406Y-100574583D01*
X151181010Y-100612729D01*
X151181013Y-100612733D01*
X151183828Y-100618210D01*
X151187651Y-100623034D01*
X151187654Y-100623038D01*
X151215888Y-100658660D01*
X151308748Y-100775819D01*
X151461901Y-100906163D01*
X151467279Y-100909169D01*
X151467281Y-100909170D01*
X151549679Y-100955220D01*
X151637456Y-101004277D01*
X151828723Y-101066424D01*
X152028420Y-101090236D01*
X152034555Y-101089764D01*
X152034557Y-101089764D01*
X152222796Y-101075280D01*
X152222800Y-101075279D01*
X152228938Y-101074807D01*
X152265782Y-101064520D01*
X152416696Y-101022384D01*
X152416700Y-101022383D01*
X152422640Y-101020724D01*
X152428144Y-101017944D01*
X152428146Y-101017943D01*
X152596646Y-100932828D01*
X152596648Y-100932827D01*
X152602149Y-100930048D01*
X152760627Y-100806232D01*
X152892037Y-100653992D01*
X152939785Y-100569940D01*
X152990822Y-100520591D01*
X153060440Y-100506668D01*
X153126534Y-100532594D01*
X153161406Y-100574583D01*
X153181010Y-100612729D01*
X153181013Y-100612733D01*
X153183828Y-100618210D01*
X153187651Y-100623034D01*
X153187654Y-100623038D01*
X153215888Y-100658660D01*
X153308748Y-100775819D01*
X153461901Y-100906163D01*
X153467279Y-100909169D01*
X153467281Y-100909170D01*
X153549679Y-100955220D01*
X153637456Y-101004277D01*
X153828723Y-101066424D01*
X154028420Y-101090236D01*
X154034555Y-101089764D01*
X154034557Y-101089764D01*
X154222796Y-101075280D01*
X154222800Y-101075279D01*
X154228938Y-101074807D01*
X154265782Y-101064520D01*
X154416696Y-101022384D01*
X154416700Y-101022383D01*
X154422640Y-101020724D01*
X154428144Y-101017944D01*
X154428146Y-101017943D01*
X154596646Y-100932828D01*
X154596648Y-100932827D01*
X154602149Y-100930048D01*
X154760627Y-100806232D01*
X154892037Y-100653992D01*
X154939785Y-100569940D01*
X154990822Y-100520591D01*
X155060440Y-100506668D01*
X155126534Y-100532594D01*
X155161406Y-100574583D01*
X155181010Y-100612729D01*
X155181013Y-100612733D01*
X155183828Y-100618210D01*
X155187651Y-100623034D01*
X155187654Y-100623038D01*
X155215888Y-100658660D01*
X155308748Y-100775819D01*
X155461901Y-100906163D01*
X155467279Y-100909169D01*
X155467281Y-100909170D01*
X155549679Y-100955220D01*
X155637456Y-101004277D01*
X155828723Y-101066424D01*
X156028420Y-101090236D01*
X156034555Y-101089764D01*
X156034557Y-101089764D01*
X156222796Y-101075280D01*
X156222800Y-101075279D01*
X156228938Y-101074807D01*
X156265782Y-101064520D01*
X156416696Y-101022384D01*
X156416700Y-101022383D01*
X156422640Y-101020724D01*
X156428144Y-101017944D01*
X156428146Y-101017943D01*
X156596646Y-100932828D01*
X156596648Y-100932827D01*
X156602149Y-100930048D01*
X156760627Y-100806232D01*
X156892037Y-100653992D01*
X156939785Y-100569940D01*
X156990822Y-100520591D01*
X157060440Y-100506668D01*
X157126534Y-100532594D01*
X157161406Y-100574583D01*
X157181010Y-100612729D01*
X157181013Y-100612733D01*
X157183828Y-100618210D01*
X157187651Y-100623034D01*
X157187654Y-100623038D01*
X157215888Y-100658660D01*
X157308748Y-100775819D01*
X157461901Y-100906163D01*
X157467279Y-100909169D01*
X157467281Y-100909170D01*
X157549679Y-100955220D01*
X157637456Y-101004277D01*
X157828723Y-101066424D01*
X158028420Y-101090236D01*
X158034555Y-101089764D01*
X158034557Y-101089764D01*
X158222796Y-101075280D01*
X158222800Y-101075279D01*
X158228938Y-101074807D01*
X158265782Y-101064520D01*
X158416696Y-101022384D01*
X158416700Y-101022383D01*
X158422640Y-101020724D01*
X158428144Y-101017944D01*
X158428146Y-101017943D01*
X158596646Y-100932828D01*
X158596648Y-100932827D01*
X158602149Y-100930048D01*
X158760627Y-100806232D01*
X158892037Y-100653992D01*
X158903735Y-100633400D01*
X158988329Y-100484488D01*
X158988331Y-100484484D01*
X158991374Y-100479127D01*
X159023114Y-100383712D01*
X159052909Y-100294145D01*
X159052910Y-100294142D01*
X159054854Y-100288297D01*
X159080060Y-100088772D01*
X159080462Y-100060000D01*
X159060837Y-99859849D01*
X159002710Y-99667321D01*
X158908294Y-99489751D01*
X158831123Y-99395130D01*
X158785081Y-99338676D01*
X158785078Y-99338673D01*
X158781186Y-99333901D01*
X158776437Y-99329972D01*
X158630977Y-99209637D01*
X158630974Y-99209635D01*
X158626227Y-99205708D01*
X158620806Y-99202777D01*
X158620802Y-99202774D01*
X158563028Y-99171536D01*
X158512619Y-99121541D01*
X158497241Y-99052230D01*
X158521777Y-98985608D01*
X158566145Y-98948235D01*
X158602149Y-98930048D01*
X158681388Y-98868140D01*
X158755771Y-98810026D01*
X158755772Y-98810025D01*
X158760627Y-98806232D01*
X158837535Y-98717133D01*
X158888008Y-98658660D01*
X158888009Y-98658658D01*
X158892037Y-98653992D01*
X158912364Y-98618210D01*
X158988329Y-98484488D01*
X158988331Y-98484484D01*
X158991374Y-98479127D01*
X159023637Y-98382141D01*
X159052909Y-98294145D01*
X159052910Y-98294142D01*
X159054854Y-98288297D01*
X159080060Y-98088772D01*
X159080462Y-98060000D01*
X159060837Y-97859849D01*
X159002710Y-97667321D01*
X158908294Y-97489751D01*
X158813164Y-97373110D01*
X158785081Y-97338676D01*
X158785078Y-97338673D01*
X158781186Y-97333901D01*
X158774637Y-97328483D01*
X158630977Y-97209637D01*
X158630974Y-97209635D01*
X158626227Y-97205708D01*
X158449320Y-97110055D01*
X158353262Y-97080320D01*
X158263090Y-97052407D01*
X158263087Y-97052406D01*
X158257203Y-97050585D01*
X158251078Y-97049941D01*
X158251077Y-97049941D01*
X158063322Y-97030207D01*
X158063321Y-97030207D01*
X158057194Y-97029563D01*
X157988188Y-97035843D01*
X157863050Y-97047231D01*
X157863047Y-97047232D01*
X157856911Y-97047790D01*
X157851005Y-97049528D01*
X157851001Y-97049529D01*
X157709644Y-97091133D01*
X157663982Y-97104572D01*
X157630010Y-97122332D01*
X157527872Y-97175729D01*
X157485757Y-97197746D01*
X157329024Y-97323763D01*
X157199752Y-97477823D01*
X157196788Y-97483215D01*
X157196785Y-97483219D01*
X157161482Y-97547436D01*
X157102866Y-97654058D01*
X157101005Y-97659925D01*
X157101004Y-97659927D01*
X157096787Y-97673221D01*
X157042056Y-97845755D01*
X157019638Y-98045613D01*
X157036467Y-98246018D01*
X157091901Y-98439338D01*
X157183828Y-98618210D01*
X157187651Y-98623034D01*
X157187654Y-98623038D01*
X157215888Y-98658660D01*
X157308748Y-98775819D01*
X157313442Y-98779814D01*
X157390395Y-98845306D01*
X157461901Y-98906163D01*
X157538929Y-98949212D01*
X157539580Y-98949576D01*
X157589286Y-99000269D01*
X157603694Y-99069788D01*
X157578231Y-99136061D01*
X157536485Y-99171226D01*
X157485757Y-99197746D01*
X157329024Y-99323763D01*
X157199752Y-99477823D01*
X157196786Y-99483219D01*
X157196783Y-99483223D01*
X157160632Y-99548982D01*
X157110287Y-99599041D01*
X157040870Y-99613935D01*
X156974421Y-99588935D01*
X156938966Y-99547436D01*
X156911190Y-99495197D01*
X156911189Y-99495195D01*
X156908294Y-99489751D01*
X156831123Y-99395130D01*
X156785081Y-99338676D01*
X156785078Y-99338673D01*
X156781186Y-99333901D01*
X156776437Y-99329972D01*
X156630977Y-99209637D01*
X156630974Y-99209635D01*
X156626227Y-99205708D01*
X156449320Y-99110055D01*
X156290849Y-99061000D01*
X156263090Y-99052407D01*
X156263087Y-99052406D01*
X156257203Y-99050585D01*
X156251078Y-99049941D01*
X156251077Y-99049941D01*
X156063322Y-99030207D01*
X156063321Y-99030207D01*
X156057194Y-99029563D01*
X155973056Y-99037220D01*
X155863050Y-99047231D01*
X155863047Y-99047232D01*
X155856911Y-99047790D01*
X155851005Y-99049528D01*
X155851001Y-99049529D01*
X155751164Y-99078913D01*
X155663982Y-99104572D01*
X155485757Y-99197746D01*
X155329024Y-99323763D01*
X155199752Y-99477823D01*
X155196786Y-99483219D01*
X155196783Y-99483223D01*
X155160632Y-99548982D01*
X155110287Y-99599041D01*
X155040870Y-99613935D01*
X154974421Y-99588935D01*
X154938966Y-99547436D01*
X154911190Y-99495197D01*
X154911189Y-99495195D01*
X154908294Y-99489751D01*
X154831123Y-99395130D01*
X154785081Y-99338676D01*
X154785078Y-99338673D01*
X154781186Y-99333901D01*
X154776437Y-99329972D01*
X154630977Y-99209637D01*
X154630974Y-99209635D01*
X154626227Y-99205708D01*
X154620806Y-99202777D01*
X154620802Y-99202774D01*
X154563028Y-99171536D01*
X154512619Y-99121541D01*
X154497241Y-99052230D01*
X154521777Y-98985608D01*
X154566145Y-98948235D01*
X154602149Y-98930048D01*
X154681388Y-98868140D01*
X154755771Y-98810026D01*
X154755772Y-98810025D01*
X154760627Y-98806232D01*
X154837535Y-98717133D01*
X154888008Y-98658660D01*
X154888009Y-98658658D01*
X154892037Y-98653992D01*
X154912364Y-98618210D01*
X154988329Y-98484488D01*
X154988331Y-98484484D01*
X154991374Y-98479127D01*
X155023637Y-98382141D01*
X155052909Y-98294145D01*
X155052910Y-98294142D01*
X155054854Y-98288297D01*
X155080060Y-98088772D01*
X155080462Y-98060000D01*
X155060837Y-97859849D01*
X155002710Y-97667321D01*
X154908294Y-97489751D01*
X154813164Y-97373110D01*
X154785081Y-97338676D01*
X154785078Y-97338673D01*
X154781186Y-97333901D01*
X154774637Y-97328483D01*
X154630977Y-97209637D01*
X154630974Y-97209635D01*
X154626227Y-97205708D01*
X154449320Y-97110055D01*
X154353262Y-97080320D01*
X154263090Y-97052407D01*
X154263087Y-97052406D01*
X154257203Y-97050585D01*
X154251078Y-97049941D01*
X154251077Y-97049941D01*
X154116944Y-97035843D01*
X154051287Y-97008830D01*
X154010658Y-96950608D01*
X154007955Y-96879663D01*
X154041020Y-96821438D01*
X154623586Y-96238872D01*
X154632312Y-96231900D01*
X154631923Y-96231442D01*
X154638757Y-96225626D01*
X154646350Y-96220835D01*
X154679506Y-96183293D01*
X154684852Y-96177606D01*
X154695373Y-96167085D01*
X154701048Y-96159513D01*
X154707424Y-96151682D01*
X154730570Y-96125474D01*
X154736513Y-96118745D01*
X154740329Y-96110618D01*
X154743834Y-96105281D01*
X154747930Y-96098463D01*
X154750987Y-96092880D01*
X154756372Y-96085695D01*
X154771798Y-96044546D01*
X154775725Y-96035226D01*
X154777235Y-96032010D01*
X154794399Y-95995452D01*
X154795780Y-95986582D01*
X154797639Y-95980502D01*
X154799665Y-95972781D01*
X154801031Y-95966568D01*
X154804184Y-95958157D01*
X154807441Y-95914324D01*
X154808595Y-95904277D01*
X154809751Y-95896855D01*
X154809751Y-95896853D01*
X154810500Y-95892044D01*
X154810500Y-95877838D01*
X154810846Y-95868501D01*
X154813612Y-95831274D01*
X154814277Y-95822326D01*
X154812404Y-95813550D01*
X154811793Y-95804593D01*
X154811899Y-95804586D01*
X154810500Y-95791333D01*
X154810500Y-95008760D01*
X154830502Y-94940639D01*
X154854836Y-94912807D01*
X154925320Y-94852819D01*
X154928738Y-94849910D01*
X155023546Y-94742559D01*
X155078859Y-94658354D01*
X155114579Y-94582275D01*
X155133602Y-94541756D01*
X155139728Y-94528709D01*
X155169186Y-94432357D01*
X155191220Y-94290839D01*
X155192450Y-94190098D01*
X155191410Y-94182144D01*
X155190346Y-94165808D01*
X155190346Y-93802728D01*
X155190704Y-93794152D01*
X155191220Y-93790838D01*
X155191547Y-93764098D01*
X155192230Y-93708082D01*
X155192450Y-93690098D01*
X155191770Y-93684892D01*
X155179959Y-93594572D01*
X155173880Y-93548084D01*
X155170078Y-93534464D01*
X155147992Y-93455362D01*
X155146786Y-93451041D01*
X155089103Y-93319948D01*
X155081325Y-93307452D01*
X155038230Y-93238218D01*
X155038227Y-93238214D01*
X155035863Y-93234416D01*
X154984067Y-93172796D01*
X154946590Y-93128212D01*
X154943706Y-93124781D01*
X154930573Y-93113038D01*
X154871931Y-93060606D01*
X154871930Y-93060606D01*
X154868598Y-93057626D01*
X154864877Y-93055149D01*
X154864873Y-93055146D01*
X154753102Y-92980745D01*
X154753100Y-92980744D01*
X154749373Y-92978263D01*
X154658436Y-92934888D01*
X154654157Y-92933551D01*
X154654154Y-92933550D01*
X154578691Y-92909974D01*
X154521730Y-92892178D01*
X154517306Y-92891461D01*
X154517304Y-92891461D01*
X154447528Y-92880160D01*
X154422276Y-92876070D01*
X154279077Y-92873445D01*
X154274637Y-92873998D01*
X154270153Y-92874235D01*
X154270147Y-92874121D01*
X154261553Y-92874654D01*
X153785000Y-92874654D01*
X153697768Y-92885527D01*
X153692194Y-92887972D01*
X153636861Y-92887114D01*
X153636518Y-92889464D01*
X153572744Y-92880160D01*
X153572740Y-92880160D01*
X153568218Y-92879500D01*
X152501782Y-92879500D01*
X152497232Y-92880170D01*
X152497229Y-92880170D01*
X152442574Y-92888216D01*
X152442573Y-92888216D01*
X152432888Y-92889642D01*
X152382992Y-92914140D01*
X152337493Y-92936478D01*
X152337491Y-92936479D01*
X152328145Y-92941068D01*
X152245707Y-93023650D01*
X152241134Y-93033006D01*
X152241133Y-93033007D01*
X152225699Y-93064583D01*
X152194464Y-93128482D01*
X152184500Y-93196782D01*
X152184500Y-94845520D01*
X152164498Y-94913641D01*
X152147596Y-94934615D01*
X152084617Y-94997595D01*
X152022305Y-95031620D01*
X151995521Y-95034500D01*
X151130687Y-95034500D01*
X151062566Y-95014498D01*
X151041592Y-94997596D01*
X150377405Y-94333410D01*
X150343380Y-94271097D01*
X150340500Y-94244314D01*
X150340500Y-93703960D01*
X150325365Y-93589001D01*
X150266117Y-93445963D01*
X150171867Y-93323133D01*
X150049037Y-93228883D01*
X149905999Y-93169635D01*
X149791040Y-93154500D01*
X149683862Y-93154500D01*
X149663283Y-93152808D01*
X149506994Y-93126934D01*
X149506990Y-93126934D01*
X149500256Y-93125819D01*
X149493439Y-93126176D01*
X149493435Y-93126176D01*
X149338389Y-93134302D01*
X149315719Y-93135490D01*
X149309146Y-93137301D01*
X149309143Y-93137301D01*
X149263128Y-93149976D01*
X149229668Y-93154500D01*
X149113960Y-93154500D01*
X148999001Y-93169635D01*
X148855963Y-93228883D01*
X148733133Y-93323133D01*
X148728111Y-93329678D01*
X148728107Y-93329682D01*
X148689963Y-93379393D01*
X148632625Y-93421261D01*
X148561754Y-93425483D01*
X148499851Y-93390720D01*
X148490037Y-93379393D01*
X148451893Y-93329682D01*
X148451889Y-93329678D01*
X148446867Y-93323133D01*
X148324037Y-93228883D01*
X148180999Y-93169635D01*
X148066040Y-93154500D01*
X147958862Y-93154500D01*
X147938283Y-93152808D01*
X147781994Y-93126934D01*
X147781990Y-93126934D01*
X147775256Y-93125819D01*
X147768439Y-93126176D01*
X147768435Y-93126176D01*
X147613389Y-93134302D01*
X147590719Y-93135490D01*
X147584146Y-93137301D01*
X147584143Y-93137301D01*
X147538128Y-93149976D01*
X147504668Y-93154500D01*
X147388960Y-93154500D01*
X147274001Y-93169635D01*
X147130963Y-93228883D01*
X147008133Y-93323133D01*
X146913883Y-93445963D01*
X146854635Y-93589001D01*
X146839500Y-93703960D01*
X146839500Y-94256040D01*
X146854635Y-94370999D01*
X146857796Y-94378630D01*
X146867409Y-94401838D01*
X146877000Y-94450056D01*
X146877000Y-95070938D01*
X146876558Y-95081479D01*
X146872240Y-95132902D01*
X146873142Y-95139662D01*
X146873142Y-95139666D01*
X146882881Y-95212659D01*
X146883251Y-95215713D01*
X146891205Y-95288928D01*
X146891942Y-95295709D01*
X146894116Y-95302169D01*
X146894786Y-95305217D01*
X146894867Y-95305678D01*
X146894903Y-95305829D01*
X146895036Y-95306288D01*
X146895778Y-95309307D01*
X146896680Y-95316069D01*
X146899013Y-95322479D01*
X146899014Y-95322483D01*
X146924197Y-95391671D01*
X146925214Y-95394575D01*
X146950883Y-95470848D01*
X146954400Y-95476702D01*
X146955700Y-95479514D01*
X146955882Y-95479957D01*
X146955958Y-95480116D01*
X146956186Y-95480534D01*
X146957549Y-95483303D01*
X146959882Y-95489715D01*
X146963536Y-95495473D01*
X146963539Y-95495479D01*
X147002990Y-95557644D01*
X147004608Y-95560263D01*
X147042541Y-95623393D01*
X147046057Y-95629244D01*
X147050746Y-95634203D01*
X147052628Y-95636682D01*
X147053168Y-95637459D01*
X147056125Y-95641369D01*
X147058898Y-95645738D01*
X147062683Y-95649972D01*
X147116188Y-95703477D01*
X147118641Y-95705999D01*
X147173024Y-95763507D01*
X147178666Y-95767341D01*
X147183866Y-95771767D01*
X147183523Y-95772170D01*
X147191415Y-95778704D01*
X147931749Y-96519037D01*
X147934402Y-96521170D01*
X148034258Y-96601458D01*
X148034261Y-96601460D01*
X148039573Y-96605731D01*
X148045677Y-96608761D01*
X148045680Y-96608763D01*
X148198982Y-96684862D01*
X148198986Y-96684863D01*
X148205093Y-96687895D01*
X148233080Y-96694873D01*
X148377771Y-96730949D01*
X148377774Y-96730949D01*
X148384394Y-96732600D01*
X148391210Y-96732790D01*
X148391215Y-96732791D01*
X148476752Y-96735179D01*
X148569111Y-96737759D01*
X148750628Y-96703133D01*
X148756899Y-96700445D01*
X148756903Y-96700444D01*
X148914203Y-96633024D01*
X148920475Y-96630336D01*
X149070729Y-96522766D01*
X149194377Y-96385440D01*
X149285653Y-96224766D01*
X149300252Y-96177606D01*
X149324750Y-96098463D01*
X149340297Y-96048240D01*
X149344415Y-95999201D01*
X149370047Y-95932993D01*
X149427405Y-95891153D01*
X149498278Y-95886965D01*
X149559068Y-95920650D01*
X150095774Y-96457356D01*
X150102917Y-96465123D01*
X150136227Y-96504540D01*
X150195448Y-96549817D01*
X150200155Y-96553416D01*
X150202578Y-96555317D01*
X150259961Y-96601455D01*
X150259971Y-96601461D01*
X150265280Y-96605730D01*
X150271384Y-96608760D01*
X150273997Y-96610431D01*
X150274383Y-96610701D01*
X150274546Y-96610802D01*
X150274945Y-96611022D01*
X150277615Y-96612639D01*
X150283027Y-96616777D01*
X150289204Y-96619658D01*
X150289210Y-96619661D01*
X150355959Y-96650787D01*
X150358732Y-96652121D01*
X150377862Y-96661617D01*
X150430799Y-96687895D01*
X150437415Y-96689545D01*
X150440333Y-96690618D01*
X150440760Y-96690796D01*
X150440937Y-96690858D01*
X150441392Y-96690992D01*
X150444317Y-96691988D01*
X150450504Y-96694873D01*
X150518664Y-96710108D01*
X150529065Y-96712433D01*
X150532064Y-96713142D01*
X150610101Y-96732599D01*
X150616923Y-96732789D01*
X150619993Y-96733210D01*
X150620922Y-96733378D01*
X150625791Y-96734054D01*
X150630844Y-96735183D01*
X150636514Y-96735500D01*
X150712187Y-96735500D01*
X150715705Y-96735549D01*
X150794818Y-96737759D01*
X150801524Y-96736480D01*
X150808321Y-96735933D01*
X150808364Y-96736462D01*
X150818570Y-96735500D01*
X152358938Y-96735500D01*
X152369479Y-96735942D01*
X152420902Y-96740260D01*
X152427662Y-96739358D01*
X152427664Y-96739358D01*
X152499457Y-96729779D01*
X152569625Y-96740596D01*
X152622806Y-96787632D01*
X152642114Y-96855952D01*
X152628056Y-96909763D01*
X152628139Y-96909794D01*
X152624988Y-96918198D01*
X152624988Y-96918199D01*
X152612713Y-96950943D01*
X152608786Y-96960263D01*
X152590112Y-97000037D01*
X152588731Y-97008905D01*
X152586106Y-97017491D01*
X152583091Y-97016569D01*
X152559502Y-97066686D01*
X152499337Y-97104379D01*
X152427975Y-97103447D01*
X152263090Y-97052407D01*
X152263087Y-97052406D01*
X152257203Y-97050585D01*
X152251078Y-97049941D01*
X152251077Y-97049941D01*
X152063322Y-97030207D01*
X152063321Y-97030207D01*
X152057194Y-97029563D01*
X151988188Y-97035843D01*
X151863050Y-97047231D01*
X151863047Y-97047232D01*
X151856911Y-97047790D01*
X151851005Y-97049528D01*
X151851001Y-97049529D01*
X151709644Y-97091133D01*
X151663982Y-97104572D01*
X151630010Y-97122332D01*
X151527872Y-97175729D01*
X151485757Y-97197746D01*
X151329024Y-97323763D01*
X151199752Y-97477823D01*
X151196788Y-97483215D01*
X151196785Y-97483219D01*
X151161482Y-97547436D01*
X151102866Y-97654058D01*
X151101005Y-97659925D01*
X151101004Y-97659927D01*
X151096787Y-97673221D01*
X151042056Y-97845755D01*
X151019638Y-98045613D01*
X151036467Y-98246018D01*
X151091901Y-98439338D01*
X151183828Y-98618210D01*
X151187651Y-98623034D01*
X151187654Y-98623038D01*
X151215888Y-98658660D01*
X151308748Y-98775819D01*
X151313442Y-98779814D01*
X151390395Y-98845306D01*
X151461901Y-98906163D01*
X151538929Y-98949212D01*
X151539580Y-98949576D01*
X151589286Y-99000269D01*
X151603694Y-99069788D01*
X151578231Y-99136061D01*
X151536485Y-99171226D01*
X151485757Y-99197746D01*
X151329024Y-99323763D01*
X151199752Y-99477823D01*
X151196786Y-99483219D01*
X151196783Y-99483223D01*
X151160632Y-99548982D01*
X151110287Y-99599041D01*
X151040870Y-99613935D01*
X150974421Y-99588935D01*
X150938966Y-99547436D01*
X150911190Y-99495197D01*
X150911189Y-99495195D01*
X150908294Y-99489751D01*
X150831123Y-99395130D01*
X150785081Y-99338676D01*
X150785078Y-99338673D01*
X150781186Y-99333901D01*
X150776437Y-99329972D01*
X150630977Y-99209637D01*
X150630974Y-99209635D01*
X150626227Y-99205708D01*
X150449320Y-99110055D01*
X150290849Y-99061000D01*
X150263090Y-99052407D01*
X150263087Y-99052406D01*
X150257203Y-99050585D01*
X150251078Y-99049941D01*
X150251077Y-99049941D01*
X150063322Y-99030207D01*
X150063321Y-99030207D01*
X150057194Y-99029563D01*
X149973056Y-99037220D01*
X149863050Y-99047231D01*
X149863047Y-99047232D01*
X149856911Y-99047790D01*
X149851005Y-99049528D01*
X149851001Y-99049529D01*
X149751164Y-99078913D01*
X149663982Y-99104572D01*
X149485757Y-99197746D01*
X149329024Y-99323763D01*
X149199752Y-99477823D01*
X149196786Y-99483219D01*
X149196783Y-99483223D01*
X149160632Y-99548982D01*
X149110287Y-99599041D01*
X149040870Y-99613935D01*
X148974421Y-99588935D01*
X148938966Y-99547436D01*
X148911190Y-99495197D01*
X148911189Y-99495195D01*
X148908294Y-99489751D01*
X148831123Y-99395130D01*
X148785081Y-99338676D01*
X148785078Y-99338673D01*
X148781186Y-99333901D01*
X148776437Y-99329972D01*
X148630977Y-99209637D01*
X148630974Y-99209635D01*
X148626227Y-99205708D01*
X148620806Y-99202777D01*
X148620802Y-99202774D01*
X148563028Y-99171536D01*
X148512619Y-99121541D01*
X148497241Y-99052230D01*
X148521777Y-98985608D01*
X148566145Y-98948235D01*
X148602149Y-98930048D01*
X148681388Y-98868140D01*
X148755771Y-98810026D01*
X148755772Y-98810025D01*
X148760627Y-98806232D01*
X148837535Y-98717133D01*
X148888008Y-98658660D01*
X148888009Y-98658658D01*
X148892037Y-98653992D01*
X148912364Y-98618210D01*
X148988329Y-98484488D01*
X148988331Y-98484484D01*
X148991374Y-98479127D01*
X149023637Y-98382141D01*
X149052909Y-98294145D01*
X149052910Y-98294142D01*
X149054854Y-98288297D01*
X149080060Y-98088772D01*
X149080462Y-98060000D01*
X149060837Y-97859849D01*
X149002710Y-97667321D01*
X148908294Y-97489751D01*
X148813164Y-97373110D01*
X148785081Y-97338676D01*
X148785078Y-97338673D01*
X148781186Y-97333901D01*
X148774637Y-97328483D01*
X148630977Y-97209637D01*
X148630974Y-97209635D01*
X148626227Y-97205708D01*
X148449320Y-97110055D01*
X148353262Y-97080320D01*
X148263090Y-97052407D01*
X148263087Y-97052406D01*
X148257203Y-97050585D01*
X148251078Y-97049941D01*
X148251077Y-97049941D01*
X148063322Y-97030207D01*
X148063321Y-97030207D01*
X148057194Y-97029563D01*
X147988188Y-97035843D01*
X147863050Y-97047231D01*
X147863047Y-97047232D01*
X147856911Y-97047790D01*
X147851005Y-97049528D01*
X147851001Y-97049529D01*
X147709644Y-97091133D01*
X147663982Y-97104572D01*
X147630010Y-97122332D01*
X147527872Y-97175729D01*
X147485757Y-97197746D01*
X147329024Y-97323763D01*
X147199752Y-97477823D01*
X147196786Y-97483219D01*
X147196783Y-97483223D01*
X147160632Y-97548982D01*
X147110287Y-97599041D01*
X147040870Y-97613935D01*
X146974421Y-97588935D01*
X146938966Y-97547436D01*
X146911190Y-97495197D01*
X146911189Y-97495195D01*
X146908294Y-97489751D01*
X146813164Y-97373110D01*
X146785081Y-97338676D01*
X146785078Y-97338673D01*
X146781186Y-97333901D01*
X146774637Y-97328483D01*
X146630977Y-97209637D01*
X146630974Y-97209635D01*
X146626227Y-97205708D01*
X146449320Y-97110055D01*
X146353262Y-97080320D01*
X146263090Y-97052407D01*
X146263087Y-97052406D01*
X146257203Y-97050585D01*
X146251078Y-97049941D01*
X146251077Y-97049941D01*
X146063322Y-97030207D01*
X146063321Y-97030207D01*
X146057194Y-97029563D01*
X145988188Y-97035843D01*
X145863050Y-97047231D01*
X145863047Y-97047232D01*
X145856911Y-97047790D01*
X145851005Y-97049528D01*
X145851001Y-97049529D01*
X145709644Y-97091133D01*
X145663982Y-97104572D01*
X145630010Y-97122332D01*
X145527872Y-97175729D01*
X145485757Y-97197746D01*
X145329024Y-97323763D01*
X145199752Y-97477823D01*
X145196786Y-97483219D01*
X145196783Y-97483223D01*
X145160632Y-97548982D01*
X145110287Y-97599041D01*
X145040870Y-97613935D01*
X144974421Y-97588935D01*
X144938966Y-97547436D01*
X144911190Y-97495197D01*
X144911189Y-97495195D01*
X144908294Y-97489751D01*
X144813164Y-97373110D01*
X144785081Y-97338676D01*
X144785078Y-97338673D01*
X144781186Y-97333901D01*
X144774637Y-97328483D01*
X144630977Y-97209637D01*
X144630974Y-97209635D01*
X144626227Y-97205708D01*
X144449320Y-97110055D01*
X144353262Y-97080320D01*
X144263090Y-97052407D01*
X144263087Y-97052406D01*
X144257203Y-97050585D01*
X144251078Y-97049941D01*
X144251077Y-97049941D01*
X144063322Y-97030207D01*
X144063321Y-97030207D01*
X144057194Y-97029563D01*
X143988188Y-97035843D01*
X143863050Y-97047231D01*
X143863047Y-97047232D01*
X143856911Y-97047790D01*
X143851005Y-97049528D01*
X143851001Y-97049529D01*
X143709644Y-97091133D01*
X143663982Y-97104572D01*
X143630010Y-97122332D01*
X143527872Y-97175729D01*
X143485757Y-97197746D01*
X143329024Y-97323763D01*
X143199752Y-97477823D01*
X143196786Y-97483219D01*
X143196783Y-97483223D01*
X143160632Y-97548982D01*
X143110287Y-97599041D01*
X143040870Y-97613935D01*
X142974421Y-97588935D01*
X142938966Y-97547436D01*
X142911190Y-97495197D01*
X142911189Y-97495195D01*
X142908294Y-97489751D01*
X142813164Y-97373110D01*
X142785081Y-97338676D01*
X142785078Y-97338673D01*
X142781186Y-97333901D01*
X142774637Y-97328483D01*
X142630977Y-97209637D01*
X142630974Y-97209635D01*
X142626227Y-97205708D01*
X142449320Y-97110055D01*
X142353262Y-97080320D01*
X142263090Y-97052407D01*
X142263087Y-97052406D01*
X142257203Y-97050585D01*
X142251078Y-97049941D01*
X142251077Y-97049941D01*
X142063322Y-97030207D01*
X142063321Y-97030207D01*
X142057194Y-97029563D01*
X141988188Y-97035843D01*
X141863050Y-97047231D01*
X141863047Y-97047232D01*
X141856911Y-97047790D01*
X141851005Y-97049528D01*
X141851001Y-97049529D01*
X141709644Y-97091133D01*
X141663982Y-97104572D01*
X141630010Y-97122332D01*
X141527872Y-97175729D01*
X141485757Y-97197746D01*
X141329024Y-97323763D01*
X141199752Y-97477823D01*
X141196788Y-97483215D01*
X141196785Y-97483219D01*
X141161482Y-97547436D01*
X141102866Y-97654058D01*
X141101005Y-97659925D01*
X141101004Y-97659927D01*
X141096787Y-97673221D01*
X141042056Y-97845755D01*
X141019638Y-98045613D01*
X141036467Y-98246018D01*
X141091901Y-98439338D01*
X141183828Y-98618210D01*
X141187651Y-98623034D01*
X141187654Y-98623038D01*
X141215888Y-98658660D01*
X141308748Y-98775819D01*
X141313442Y-98779814D01*
X141390395Y-98845306D01*
X141461901Y-98906163D01*
X141538929Y-98949212D01*
X141539580Y-98949576D01*
X141589286Y-99000269D01*
X141603694Y-99069788D01*
X141578231Y-99136061D01*
X141536485Y-99171226D01*
X141485757Y-99197746D01*
X141329024Y-99323763D01*
X141199752Y-99477823D01*
X141196786Y-99483219D01*
X141196783Y-99483223D01*
X141160632Y-99548982D01*
X141110287Y-99599041D01*
X141040870Y-99613935D01*
X140974421Y-99588935D01*
X140938966Y-99547436D01*
X140911190Y-99495197D01*
X140911189Y-99495195D01*
X140908294Y-99489751D01*
X140831123Y-99395130D01*
X140785081Y-99338676D01*
X140785078Y-99338673D01*
X140781186Y-99333901D01*
X140776437Y-99329972D01*
X140630977Y-99209637D01*
X140630974Y-99209635D01*
X140626227Y-99205708D01*
X140449320Y-99110055D01*
X140290849Y-99061000D01*
X140263090Y-99052407D01*
X140263087Y-99052406D01*
X140257203Y-99050585D01*
X140251078Y-99049941D01*
X140251077Y-99049941D01*
X140063322Y-99030207D01*
X140063321Y-99030207D01*
X140057194Y-99029563D01*
X139973056Y-99037220D01*
X139863050Y-99047231D01*
X139863047Y-99047232D01*
X139856911Y-99047790D01*
X139851005Y-99049528D01*
X139851001Y-99049529D01*
X139751164Y-99078913D01*
X139663982Y-99104572D01*
X139485757Y-99197746D01*
X139329024Y-99323763D01*
X139199752Y-99477823D01*
X139196786Y-99483219D01*
X139196783Y-99483223D01*
X139160632Y-99548982D01*
X139110287Y-99599041D01*
X139040870Y-99613935D01*
X138974421Y-99588935D01*
X138938966Y-99547436D01*
X138911190Y-99495197D01*
X138911189Y-99495195D01*
X138908294Y-99489751D01*
X138831123Y-99395130D01*
X138785081Y-99338676D01*
X138785078Y-99338673D01*
X138781186Y-99333901D01*
X138776437Y-99329972D01*
X138630977Y-99209637D01*
X138630974Y-99209635D01*
X138626227Y-99205708D01*
X138620806Y-99202777D01*
X138620802Y-99202774D01*
X138563028Y-99171536D01*
X138512619Y-99121541D01*
X138497241Y-99052230D01*
X138521777Y-98985608D01*
X138566145Y-98948235D01*
X138602149Y-98930048D01*
X138681388Y-98868140D01*
X138755771Y-98810026D01*
X138755772Y-98810025D01*
X138760627Y-98806232D01*
X138837535Y-98717133D01*
X138888008Y-98658660D01*
X138888009Y-98658658D01*
X138892037Y-98653992D01*
X138912364Y-98618210D01*
X138988329Y-98484488D01*
X138988331Y-98484484D01*
X138991374Y-98479127D01*
X139023637Y-98382141D01*
X139052909Y-98294145D01*
X139052910Y-98294142D01*
X139054854Y-98288297D01*
X139080060Y-98088772D01*
X139080462Y-98060000D01*
X139060837Y-97859849D01*
X139002710Y-97667321D01*
X138908294Y-97489751D01*
X138813164Y-97373110D01*
X138785081Y-97338676D01*
X138785078Y-97338673D01*
X138781186Y-97333901D01*
X138774637Y-97328483D01*
X138630977Y-97209637D01*
X138630974Y-97209635D01*
X138626227Y-97205708D01*
X138449320Y-97110055D01*
X138353262Y-97080320D01*
X138263090Y-97052407D01*
X138263087Y-97052406D01*
X138257203Y-97050585D01*
X138251078Y-97049941D01*
X138251077Y-97049941D01*
X138063322Y-97030207D01*
X138063321Y-97030207D01*
X138057194Y-97029563D01*
X137988188Y-97035843D01*
X137863050Y-97047231D01*
X137863047Y-97047232D01*
X137856911Y-97047790D01*
X137851005Y-97049528D01*
X137851001Y-97049529D01*
X137709644Y-97091133D01*
X137663982Y-97104572D01*
X137630010Y-97122332D01*
X137527872Y-97175729D01*
X137485757Y-97197746D01*
X137329024Y-97323763D01*
X137199752Y-97477823D01*
X137196786Y-97483219D01*
X137196783Y-97483223D01*
X137160632Y-97548982D01*
X137110287Y-97599041D01*
X137040870Y-97613935D01*
X136974421Y-97588935D01*
X136938966Y-97547436D01*
X136911190Y-97495197D01*
X136911189Y-97495195D01*
X136908294Y-97489751D01*
X136813164Y-97373110D01*
X136785081Y-97338676D01*
X136785078Y-97338673D01*
X136781186Y-97333901D01*
X136774637Y-97328483D01*
X136630977Y-97209637D01*
X136630974Y-97209635D01*
X136626227Y-97205708D01*
X136449320Y-97110055D01*
X136353262Y-97080320D01*
X136263090Y-97052407D01*
X136263087Y-97052406D01*
X136257203Y-97050585D01*
X136251078Y-97049941D01*
X136251077Y-97049941D01*
X136063322Y-97030207D01*
X136063321Y-97030207D01*
X136057194Y-97029563D01*
X135988188Y-97035843D01*
X135863050Y-97047231D01*
X135863047Y-97047232D01*
X135856911Y-97047790D01*
X135851005Y-97049528D01*
X135851001Y-97049529D01*
X135709644Y-97091133D01*
X135663982Y-97104572D01*
X135630010Y-97122332D01*
X135527872Y-97175729D01*
X135485757Y-97197746D01*
X135329024Y-97323763D01*
X135325065Y-97328481D01*
X135325063Y-97328483D01*
X135290153Y-97370088D01*
X135231043Y-97409415D01*
X135160056Y-97410541D01*
X135099728Y-97373110D01*
X135068975Y-97307450D01*
X135066786Y-97292580D01*
X135066784Y-97292573D01*
X135065358Y-97282888D01*
X135023556Y-97197746D01*
X135018522Y-97187493D01*
X135018521Y-97187491D01*
X135013932Y-97178145D01*
X134943898Y-97108233D01*
X134938721Y-97103065D01*
X134938720Y-97103065D01*
X134931350Y-97095707D01*
X134826518Y-97044464D01*
X134796027Y-97040016D01*
X134762744Y-97035160D01*
X134762740Y-97035160D01*
X134758218Y-97034500D01*
X133341782Y-97034500D01*
X133337232Y-97035170D01*
X133337229Y-97035170D01*
X133282574Y-97043216D01*
X133282573Y-97043216D01*
X133272888Y-97044642D01*
X133227989Y-97066686D01*
X133177493Y-97091478D01*
X133177491Y-97091479D01*
X133168145Y-97096068D01*
X133085707Y-97178650D01*
X133034464Y-97283482D01*
X133033052Y-97293162D01*
X133027109Y-97333901D01*
X133024500Y-97351782D01*
X133024500Y-98768218D01*
X133025170Y-98772768D01*
X133025170Y-98772771D01*
X133031373Y-98814906D01*
X133034642Y-98837112D01*
X133038958Y-98845902D01*
X133070021Y-98909170D01*
X133086068Y-98941855D01*
X133168650Y-99024293D01*
X133178006Y-99028866D01*
X133178007Y-99028867D01*
X133210460Y-99044730D01*
X133273482Y-99075536D01*
X133283161Y-99076948D01*
X133295753Y-99078785D01*
X133360272Y-99108412D01*
X133398532Y-99168218D01*
X133398384Y-99239214D01*
X133356516Y-99301659D01*
X133329024Y-99323763D01*
X133199752Y-99477823D01*
X133196788Y-99483215D01*
X133196785Y-99483219D01*
X133161482Y-99547436D01*
X133102866Y-99654058D01*
X133101005Y-99659925D01*
X133101004Y-99659927D01*
X133096787Y-99673221D01*
X133042056Y-99845755D01*
X133019638Y-100045613D01*
X127141014Y-100045613D01*
X127098405Y-99908876D01*
X127094764Y-99894103D01*
X127049842Y-99648972D01*
X127048008Y-99633868D01*
X127034537Y-99411165D01*
X127035312Y-99395130D01*
X127035312Y-99387293D01*
X127036863Y-99377500D01*
X127034051Y-99359746D01*
X127032500Y-99340035D01*
X127032500Y-82550000D01*
X127510846Y-82550000D01*
X127519649Y-82654823D01*
G37*
%TD.AperFunction*%
%TD*%
M02*
