%TF.GenerationSoftware,KiCad,Pcbnew,(6.0.2)*%
%TF.CreationDate,2026-01-28T07:44:18-08:00*%
%TF.ProjectId,i386sx-socket,69333836-7378-42d7-936f-636b65742e6b,1.0*%
%TF.SameCoordinates,Original*%
%TF.FileFunction,Paste,Top*%
%TF.FilePolarity,Positive*%
%FSLAX46Y46*%
G04 Gerber Fmt 4.6, Leading zero omitted, Abs format (unit mm)*
G04 Created by KiCad (PCBNEW (6.0.2)) date 2026-01-28 07:44:18*
%MOMM*%
%LPD*%
G01*
G04 APERTURE LIST*
%ADD10R,0.380000X2.500000*%
%ADD11R,2.500000X0.380000*%
G04 APERTURE END LIST*
D10*
%TO.C,U1*%
X138430000Y-71437500D03*
X139065000Y-71437500D03*
X139700000Y-71437500D03*
X140335000Y-71437500D03*
X140970000Y-71437500D03*
X141605000Y-71437500D03*
X142240000Y-71437500D03*
X142875000Y-71437500D03*
X143510000Y-71437500D03*
X144145000Y-71437500D03*
X144780000Y-71437500D03*
X145415000Y-71437500D03*
X146050000Y-71437500D03*
X146685000Y-71437500D03*
X147320000Y-71437500D03*
X147955000Y-71437500D03*
X148590000Y-71437500D03*
X149225000Y-71437500D03*
X149860000Y-71437500D03*
X150495000Y-71437500D03*
X151130000Y-71437500D03*
X151765000Y-71437500D03*
X152400000Y-71437500D03*
X153035000Y-71437500D03*
X153670000Y-71437500D03*
D11*
X157162500Y-74930000D03*
X157162500Y-75565000D03*
X157162500Y-76200000D03*
X157162500Y-76835000D03*
X157162500Y-77470000D03*
X157162500Y-78105000D03*
X157162500Y-78740000D03*
X157162500Y-79375000D03*
X157162500Y-80010000D03*
X157162500Y-80645000D03*
X157162500Y-81280000D03*
X157162500Y-81915000D03*
X157162500Y-82550000D03*
X157162500Y-83185000D03*
X157162500Y-83820000D03*
X157162500Y-84455000D03*
X157162500Y-85090000D03*
X157162500Y-85725000D03*
X157162500Y-86360000D03*
X157162500Y-86995000D03*
X157162500Y-87630000D03*
X157162500Y-88265000D03*
X157162500Y-88900000D03*
X157162500Y-89535000D03*
X157162500Y-90170000D03*
D10*
X153670000Y-93662500D03*
X153035000Y-93662500D03*
X152400000Y-93662500D03*
X151765000Y-93662500D03*
X151130000Y-93662500D03*
X150495000Y-93662500D03*
X149860000Y-93662500D03*
X149225000Y-93662500D03*
X148590000Y-93662500D03*
X147955000Y-93662500D03*
X147320000Y-93662500D03*
X146685000Y-93662500D03*
X146050000Y-93662500D03*
X145415000Y-93662500D03*
X144780000Y-93662500D03*
X144145000Y-93662500D03*
X143510000Y-93662500D03*
X142875000Y-93662500D03*
X142240000Y-93662500D03*
X141605000Y-93662500D03*
X140970000Y-93662500D03*
X140335000Y-93662500D03*
X139700000Y-93662500D03*
X139065000Y-93662500D03*
X138430000Y-93662500D03*
D11*
X134937500Y-90170000D03*
X134937500Y-89535000D03*
X134937500Y-88900000D03*
X134937500Y-88265000D03*
X134937500Y-87630000D03*
X134937500Y-86995000D03*
X134937500Y-86360000D03*
X134937500Y-85725000D03*
X134937500Y-85090000D03*
X134937500Y-84455000D03*
X134937500Y-83820000D03*
X134937500Y-83185000D03*
X134937500Y-82550000D03*
X134937500Y-81915000D03*
X134937500Y-81280000D03*
X134937500Y-80645000D03*
X134937500Y-80010000D03*
X134937500Y-79375000D03*
X134937500Y-78740000D03*
X134937500Y-78105000D03*
X134937500Y-77470000D03*
X134937500Y-76835000D03*
X134937500Y-76200000D03*
X134937500Y-75565000D03*
X134937500Y-74930000D03*
%TD*%
M02*
