%TF.GenerationSoftware,KiCad,Pcbnew,(6.0.2)*%
%TF.CreationDate,2026-01-28T07:44:18-08:00*%
%TF.ProjectId,i386sx-socket,69333836-7378-42d7-936f-636b65742e6b,1.0*%
%TF.SameCoordinates,Original*%
%TF.FileFunction,Legend,Bot*%
%TF.FilePolarity,Positive*%
%FSLAX46Y46*%
G04 Gerber Fmt 4.6, Leading zero omitted, Abs format (unit mm)*
G04 Created by KiCad (PCBNEW (6.0.2)) date 2026-01-28 07:44:18*
%MOMM*%
%LPD*%
G01*
G04 APERTURE LIST*
%ADD10C,0.150000*%
%ADD11C,0.120000*%
G04 APERTURE END LIST*
D10*
X139700000Y-92710000D02*
X138430000Y-93980000D01*
X137795000Y-93345000D02*
X136525000Y-94615000D01*
X138430000Y-93345000D02*
X138430000Y-94615000D01*
X137795000Y-92710000D02*
X137795000Y-93980000D01*
X139700000Y-92075000D02*
X139700000Y-93345000D01*
X140970000Y-94615000D02*
X142240000Y-94615000D01*
X139700000Y-93345000D02*
X140970000Y-94615000D01*
X138430000Y-94615000D02*
X139700000Y-93345000D01*
X137795000Y-93980000D02*
X138430000Y-94615000D01*
X137160000Y-94615000D02*
X137795000Y-93980000D01*
X135890000Y-94615000D02*
X137160000Y-94615000D01*
X137795000Y-92710000D02*
X135890000Y-94615000D01*
X138430000Y-93345000D02*
X137795000Y-92710000D01*
X139700000Y-92075000D02*
X138430000Y-93345000D01*
X142240000Y-94615000D02*
X139700000Y-92075000D01*
X145422142Y-95353214D02*
X145231666Y-96019880D01*
X145041190Y-95543690D01*
X144850714Y-96019880D01*
X144660238Y-95353214D01*
X144374523Y-95353214D02*
X144184047Y-96019880D01*
X143993571Y-95543690D01*
X143803095Y-96019880D01*
X143612619Y-95353214D01*
X143326904Y-95353214D02*
X143136428Y-96019880D01*
X142945952Y-95543690D01*
X142755476Y-96019880D01*
X142565000Y-95353214D01*
X142184047Y-95924642D02*
X142136428Y-95972261D01*
X142184047Y-96019880D01*
X142231666Y-95972261D01*
X142184047Y-95924642D01*
X142184047Y-96019880D01*
X141707857Y-96019880D02*
X141707857Y-95353214D01*
X141707857Y-95448452D02*
X141660238Y-95400833D01*
X141565000Y-95353214D01*
X141422142Y-95353214D01*
X141326904Y-95400833D01*
X141279285Y-95496071D01*
X141279285Y-96019880D01*
X141279285Y-95496071D02*
X141231666Y-95400833D01*
X141136428Y-95353214D01*
X140993571Y-95353214D01*
X140898333Y-95400833D01*
X140850714Y-95496071D01*
X140850714Y-96019880D01*
X139945952Y-96019880D02*
X139945952Y-95496071D01*
X139993571Y-95400833D01*
X140088809Y-95353214D01*
X140279285Y-95353214D01*
X140374523Y-95400833D01*
X139945952Y-95972261D02*
X140041190Y-96019880D01*
X140279285Y-96019880D01*
X140374523Y-95972261D01*
X140422142Y-95877023D01*
X140422142Y-95781785D01*
X140374523Y-95686547D01*
X140279285Y-95638928D01*
X140041190Y-95638928D01*
X139945952Y-95591309D01*
X139326904Y-96019880D02*
X139422142Y-95972261D01*
X139469761Y-95877023D01*
X139469761Y-95019880D01*
X138945952Y-96019880D02*
X138945952Y-95353214D01*
X138945952Y-95019880D02*
X138993571Y-95067500D01*
X138945952Y-95115119D01*
X138898333Y-95067500D01*
X138945952Y-95019880D01*
X138945952Y-95115119D01*
X138469761Y-95353214D02*
X138469761Y-96019880D01*
X138469761Y-95448452D02*
X138422142Y-95400833D01*
X138326904Y-95353214D01*
X138184047Y-95353214D01*
X138088809Y-95400833D01*
X138041190Y-95496071D01*
X138041190Y-96019880D01*
X137422142Y-96019880D02*
X137517380Y-95972261D01*
X137565000Y-95924642D01*
X137612619Y-95829404D01*
X137612619Y-95543690D01*
X137565000Y-95448452D01*
X137517380Y-95400833D01*
X137422142Y-95353214D01*
X137279285Y-95353214D01*
X137184047Y-95400833D01*
X137136428Y-95448452D01*
X137088809Y-95543690D01*
X137088809Y-95829404D01*
X137136428Y-95924642D01*
X137184047Y-95972261D01*
X137279285Y-96019880D01*
X137422142Y-96019880D01*
X136755476Y-95353214D02*
X136517380Y-96019880D01*
X136279285Y-95353214D01*
X135898333Y-95924642D02*
X135850714Y-95972261D01*
X135898333Y-96019880D01*
X135945952Y-95972261D01*
X135898333Y-95924642D01*
X135898333Y-96019880D01*
X134993571Y-95972261D02*
X135088809Y-96019880D01*
X135279285Y-96019880D01*
X135374523Y-95972261D01*
X135422142Y-95924642D01*
X135469761Y-95829404D01*
X135469761Y-95543690D01*
X135422142Y-95448452D01*
X135374523Y-95400833D01*
X135279285Y-95353214D01*
X135088809Y-95353214D01*
X134993571Y-95400833D01*
X134422142Y-96019880D02*
X134517380Y-95972261D01*
X134565000Y-95924642D01*
X134612619Y-95829404D01*
X134612619Y-95543690D01*
X134565000Y-95448452D01*
X134517380Y-95400833D01*
X134422142Y-95353214D01*
X134279285Y-95353214D01*
X134184047Y-95400833D01*
X134136428Y-95448452D01*
X134088809Y-95543690D01*
X134088809Y-95829404D01*
X134136428Y-95924642D01*
X134184047Y-95972261D01*
X134279285Y-96019880D01*
X134422142Y-96019880D01*
X133660238Y-96019880D02*
X133660238Y-95353214D01*
X133660238Y-95448452D02*
X133612619Y-95400833D01*
X133517380Y-95353214D01*
X133374523Y-95353214D01*
X133279285Y-95400833D01*
X133231666Y-95496071D01*
X133231666Y-96019880D01*
X133231666Y-95496071D02*
X133184047Y-95400833D01*
X133088809Y-95353214D01*
X132945952Y-95353214D01*
X132850714Y-95400833D01*
X132803095Y-95496071D01*
X132803095Y-96019880D01*
X132397500Y-72390000D02*
X159702500Y-72390000D01*
X159002380Y-70905714D02*
X159002380Y-71715238D01*
X159050000Y-71810476D01*
X159097619Y-71858095D01*
X159192857Y-71905714D01*
X159335714Y-71905714D01*
X159430952Y-71858095D01*
X159002380Y-71524761D02*
X159097619Y-71572380D01*
X159288095Y-71572380D01*
X159383333Y-71524761D01*
X159430952Y-71477142D01*
X159478571Y-71381904D01*
X159478571Y-71096190D01*
X159430952Y-71000952D01*
X159383333Y-70953333D01*
X159288095Y-70905714D01*
X159097619Y-70905714D01*
X159002380Y-70953333D01*
X158526190Y-71572380D02*
X158526190Y-70905714D01*
X158526190Y-70572380D02*
X158573809Y-70620000D01*
X158526190Y-70667619D01*
X158478571Y-70620000D01*
X158526190Y-70572380D01*
X158526190Y-70667619D01*
X158192857Y-70905714D02*
X157811904Y-70905714D01*
X158050000Y-70572380D02*
X158050000Y-71429523D01*
X158002380Y-71524761D01*
X157907142Y-71572380D01*
X157811904Y-71572380D01*
X157478571Y-71572380D02*
X157478571Y-70572380D01*
X157050000Y-71572380D02*
X157050000Y-71048571D01*
X157097619Y-70953333D01*
X157192857Y-70905714D01*
X157335714Y-70905714D01*
X157430952Y-70953333D01*
X157478571Y-71000952D01*
X156145238Y-70905714D02*
X156145238Y-71572380D01*
X156573809Y-70905714D02*
X156573809Y-71429523D01*
X156526190Y-71524761D01*
X156430952Y-71572380D01*
X156288095Y-71572380D01*
X156192857Y-71524761D01*
X156145238Y-71477142D01*
X155669047Y-71572380D02*
X155669047Y-70572380D01*
X155669047Y-70953333D02*
X155573809Y-70905714D01*
X155383333Y-70905714D01*
X155288095Y-70953333D01*
X155240476Y-71000952D01*
X155192857Y-71096190D01*
X155192857Y-71381904D01*
X155240476Y-71477142D01*
X155288095Y-71524761D01*
X155383333Y-71572380D01*
X155573809Y-71572380D01*
X155669047Y-71524761D01*
X154764285Y-71477142D02*
X154716666Y-71524761D01*
X154764285Y-71572380D01*
X154811904Y-71524761D01*
X154764285Y-71477142D01*
X154764285Y-71572380D01*
X153859523Y-71524761D02*
X153954761Y-71572380D01*
X154145238Y-71572380D01*
X154240476Y-71524761D01*
X154288095Y-71477142D01*
X154335714Y-71381904D01*
X154335714Y-71096190D01*
X154288095Y-71000952D01*
X154240476Y-70953333D01*
X154145238Y-70905714D01*
X153954761Y-70905714D01*
X153859523Y-70953333D01*
X153288095Y-71572380D02*
X153383333Y-71524761D01*
X153430952Y-71477142D01*
X153478571Y-71381904D01*
X153478571Y-71096190D01*
X153430952Y-71000952D01*
X153383333Y-70953333D01*
X153288095Y-70905714D01*
X153145238Y-70905714D01*
X153050000Y-70953333D01*
X153002380Y-71000952D01*
X152954761Y-71096190D01*
X152954761Y-71381904D01*
X153002380Y-71477142D01*
X153050000Y-71524761D01*
X153145238Y-71572380D01*
X153288095Y-71572380D01*
X152526190Y-71572380D02*
X152526190Y-70905714D01*
X152526190Y-71000952D02*
X152478571Y-70953333D01*
X152383333Y-70905714D01*
X152240476Y-70905714D01*
X152145238Y-70953333D01*
X152097619Y-71048571D01*
X152097619Y-71572380D01*
X152097619Y-71048571D02*
X152050000Y-70953333D01*
X151954761Y-70905714D01*
X151811904Y-70905714D01*
X151716666Y-70953333D01*
X151669047Y-71048571D01*
X151669047Y-71572380D01*
X150478571Y-70524761D02*
X151335714Y-71810476D01*
X150192857Y-71524761D02*
X150097619Y-71572380D01*
X149907142Y-71572380D01*
X149811904Y-71524761D01*
X149764285Y-71429523D01*
X149764285Y-71381904D01*
X149811904Y-71286666D01*
X149907142Y-71239047D01*
X150050000Y-71239047D01*
X150145238Y-71191428D01*
X150192857Y-71096190D01*
X150192857Y-71048571D01*
X150145238Y-70953333D01*
X150050000Y-70905714D01*
X149907142Y-70905714D01*
X149811904Y-70953333D01*
X149335714Y-71572380D02*
X149335714Y-70572380D01*
X149240476Y-71191428D02*
X148954761Y-71572380D01*
X148954761Y-70905714D02*
X149335714Y-71286666D01*
X148526190Y-71572380D02*
X148526190Y-70905714D01*
X148526190Y-70572380D02*
X148573809Y-70620000D01*
X148526190Y-70667619D01*
X148478571Y-70620000D01*
X148526190Y-70572380D01*
X148526190Y-70667619D01*
X148097619Y-71524761D02*
X148002380Y-71572380D01*
X147811904Y-71572380D01*
X147716666Y-71524761D01*
X147669047Y-71429523D01*
X147669047Y-71381904D01*
X147716666Y-71286666D01*
X147811904Y-71239047D01*
X147954761Y-71239047D01*
X148050000Y-71191428D01*
X148097619Y-71096190D01*
X148097619Y-71048571D01*
X148050000Y-70953333D01*
X147954761Y-70905714D01*
X147811904Y-70905714D01*
X147716666Y-70953333D01*
X146859523Y-71524761D02*
X146954761Y-71572380D01*
X147145238Y-71572380D01*
X147240476Y-71524761D01*
X147288095Y-71429523D01*
X147288095Y-71048571D01*
X147240476Y-70953333D01*
X147145238Y-70905714D01*
X146954761Y-70905714D01*
X146859523Y-70953333D01*
X146811904Y-71048571D01*
X146811904Y-71143809D01*
X147288095Y-71239047D01*
X146240476Y-71572380D02*
X146335714Y-71524761D01*
X146383333Y-71429523D01*
X146383333Y-70572380D01*
X145478571Y-71524761D02*
X145573809Y-71572380D01*
X145764285Y-71572380D01*
X145859523Y-71524761D01*
X145907142Y-71429523D01*
X145907142Y-71048571D01*
X145859523Y-70953333D01*
X145764285Y-70905714D01*
X145573809Y-70905714D01*
X145478571Y-70953333D01*
X145430952Y-71048571D01*
X145430952Y-71143809D01*
X145907142Y-71239047D01*
X145097619Y-70905714D02*
X144859523Y-71572380D01*
X144621428Y-70905714D01*
X143526190Y-70524761D02*
X144383333Y-71810476D01*
X143192857Y-71572380D02*
X143192857Y-70905714D01*
X143192857Y-70572380D02*
X143240476Y-70620000D01*
X143192857Y-70667619D01*
X143145238Y-70620000D01*
X143192857Y-70572380D01*
X143192857Y-70667619D01*
X142811904Y-70572380D02*
X142192857Y-70572380D01*
X142526190Y-70953333D01*
X142383333Y-70953333D01*
X142288095Y-71000952D01*
X142240476Y-71048571D01*
X142192857Y-71143809D01*
X142192857Y-71381904D01*
X142240476Y-71477142D01*
X142288095Y-71524761D01*
X142383333Y-71572380D01*
X142669047Y-71572380D01*
X142764285Y-71524761D01*
X142811904Y-71477142D01*
X141621428Y-71000952D02*
X141716666Y-70953333D01*
X141764285Y-70905714D01*
X141811904Y-70810476D01*
X141811904Y-70762857D01*
X141764285Y-70667619D01*
X141716666Y-70620000D01*
X141621428Y-70572380D01*
X141430952Y-70572380D01*
X141335714Y-70620000D01*
X141288095Y-70667619D01*
X141240476Y-70762857D01*
X141240476Y-70810476D01*
X141288095Y-70905714D01*
X141335714Y-70953333D01*
X141430952Y-71000952D01*
X141621428Y-71000952D01*
X141716666Y-71048571D01*
X141764285Y-71096190D01*
X141811904Y-71191428D01*
X141811904Y-71381904D01*
X141764285Y-71477142D01*
X141716666Y-71524761D01*
X141621428Y-71572380D01*
X141430952Y-71572380D01*
X141335714Y-71524761D01*
X141288095Y-71477142D01*
X141240476Y-71381904D01*
X141240476Y-71191428D01*
X141288095Y-71096190D01*
X141335714Y-71048571D01*
X141430952Y-71000952D01*
X140383333Y-70572380D02*
X140573809Y-70572380D01*
X140669047Y-70620000D01*
X140716666Y-70667619D01*
X140811904Y-70810476D01*
X140859523Y-71000952D01*
X140859523Y-71381904D01*
X140811904Y-71477142D01*
X140764285Y-71524761D01*
X140669047Y-71572380D01*
X140478571Y-71572380D01*
X140383333Y-71524761D01*
X140335714Y-71477142D01*
X140288095Y-71381904D01*
X140288095Y-71143809D01*
X140335714Y-71048571D01*
X140383333Y-71000952D01*
X140478571Y-70953333D01*
X140669047Y-70953333D01*
X140764285Y-71000952D01*
X140811904Y-71048571D01*
X140859523Y-71143809D01*
X139907142Y-71524761D02*
X139811904Y-71572380D01*
X139621428Y-71572380D01*
X139526190Y-71524761D01*
X139478571Y-71429523D01*
X139478571Y-71381904D01*
X139526190Y-71286666D01*
X139621428Y-71239047D01*
X139764285Y-71239047D01*
X139859523Y-71191428D01*
X139907142Y-71096190D01*
X139907142Y-71048571D01*
X139859523Y-70953333D01*
X139764285Y-70905714D01*
X139621428Y-70905714D01*
X139526190Y-70953333D01*
X139145238Y-71572380D02*
X138621428Y-70905714D01*
X139145238Y-70905714D02*
X138621428Y-71572380D01*
X138240476Y-71191428D02*
X137478571Y-71191428D01*
X137050000Y-71524761D02*
X136954761Y-71572380D01*
X136764285Y-71572380D01*
X136669047Y-71524761D01*
X136621428Y-71429523D01*
X136621428Y-71381904D01*
X136669047Y-71286666D01*
X136764285Y-71239047D01*
X136907142Y-71239047D01*
X137002380Y-71191428D01*
X137050000Y-71096190D01*
X137050000Y-71048571D01*
X137002380Y-70953333D01*
X136907142Y-70905714D01*
X136764285Y-70905714D01*
X136669047Y-70953333D01*
X136050000Y-71572380D02*
X136145238Y-71524761D01*
X136192857Y-71477142D01*
X136240476Y-71381904D01*
X136240476Y-71096190D01*
X136192857Y-71000952D01*
X136145238Y-70953333D01*
X136050000Y-70905714D01*
X135907142Y-70905714D01*
X135811904Y-70953333D01*
X135764285Y-71000952D01*
X135716666Y-71096190D01*
X135716666Y-71381904D01*
X135764285Y-71477142D01*
X135811904Y-71524761D01*
X135907142Y-71572380D01*
X136050000Y-71572380D01*
X134859523Y-71524761D02*
X134954761Y-71572380D01*
X135145238Y-71572380D01*
X135240476Y-71524761D01*
X135288095Y-71477142D01*
X135335714Y-71381904D01*
X135335714Y-71096190D01*
X135288095Y-71000952D01*
X135240476Y-70953333D01*
X135145238Y-70905714D01*
X134954761Y-70905714D01*
X134859523Y-70953333D01*
X134430952Y-71572380D02*
X134430952Y-70572380D01*
X134335714Y-71191428D02*
X134050000Y-71572380D01*
X134050000Y-70905714D02*
X134430952Y-71286666D01*
X133240476Y-71524761D02*
X133335714Y-71572380D01*
X133526190Y-71572380D01*
X133621428Y-71524761D01*
X133669047Y-71429523D01*
X133669047Y-71048571D01*
X133621428Y-70953333D01*
X133526190Y-70905714D01*
X133335714Y-70905714D01*
X133240476Y-70953333D01*
X133192857Y-71048571D01*
X133192857Y-71143809D01*
X133669047Y-71239047D01*
X132907142Y-70905714D02*
X132526190Y-70905714D01*
X132764285Y-70572380D02*
X132764285Y-71429523D01*
X132716666Y-71524761D01*
X132621428Y-71572380D01*
X132526190Y-71572380D01*
X158478571Y-69572142D02*
X158526190Y-69619761D01*
X158669047Y-69667380D01*
X158764285Y-69667380D01*
X158907142Y-69619761D01*
X159002380Y-69524523D01*
X159050000Y-69429285D01*
X159097619Y-69238809D01*
X159097619Y-69095952D01*
X159050000Y-68905476D01*
X159002380Y-68810238D01*
X158907142Y-68715000D01*
X158764285Y-68667380D01*
X158669047Y-68667380D01*
X158526190Y-68715000D01*
X158478571Y-68762619D01*
X157907142Y-69667380D02*
X158002380Y-69619761D01*
X158050000Y-69572142D01*
X158097619Y-69476904D01*
X158097619Y-69191190D01*
X158050000Y-69095952D01*
X158002380Y-69048333D01*
X157907142Y-69000714D01*
X157764285Y-69000714D01*
X157669047Y-69048333D01*
X157621428Y-69095952D01*
X157573809Y-69191190D01*
X157573809Y-69476904D01*
X157621428Y-69572142D01*
X157669047Y-69619761D01*
X157764285Y-69667380D01*
X157907142Y-69667380D01*
X157145238Y-69000714D02*
X157145238Y-70000714D01*
X157145238Y-69048333D02*
X157050000Y-69000714D01*
X156859523Y-69000714D01*
X156764285Y-69048333D01*
X156716666Y-69095952D01*
X156669047Y-69191190D01*
X156669047Y-69476904D01*
X156716666Y-69572142D01*
X156764285Y-69619761D01*
X156859523Y-69667380D01*
X157050000Y-69667380D01*
X157145238Y-69619761D01*
X156335714Y-69000714D02*
X156097619Y-69667380D01*
X155859523Y-69000714D02*
X156097619Y-69667380D01*
X156192857Y-69905476D01*
X156240476Y-69953095D01*
X156335714Y-70000714D01*
X155478571Y-69667380D02*
X155478571Y-69000714D01*
X155478571Y-69191190D02*
X155430952Y-69095952D01*
X155383333Y-69048333D01*
X155288095Y-69000714D01*
X155192857Y-69000714D01*
X154859523Y-69667380D02*
X154859523Y-69000714D01*
X154859523Y-68667380D02*
X154907142Y-68715000D01*
X154859523Y-68762619D01*
X154811904Y-68715000D01*
X154859523Y-68667380D01*
X154859523Y-68762619D01*
X153954761Y-69000714D02*
X153954761Y-69810238D01*
X154002380Y-69905476D01*
X154050000Y-69953095D01*
X154145238Y-70000714D01*
X154288095Y-70000714D01*
X154383333Y-69953095D01*
X153954761Y-69619761D02*
X154050000Y-69667380D01*
X154240476Y-69667380D01*
X154335714Y-69619761D01*
X154383333Y-69572142D01*
X154430952Y-69476904D01*
X154430952Y-69191190D01*
X154383333Y-69095952D01*
X154335714Y-69048333D01*
X154240476Y-69000714D01*
X154050000Y-69000714D01*
X153954761Y-69048333D01*
X153478571Y-69667380D02*
X153478571Y-68667380D01*
X153050000Y-69667380D02*
X153050000Y-69143571D01*
X153097619Y-69048333D01*
X153192857Y-69000714D01*
X153335714Y-69000714D01*
X153430952Y-69048333D01*
X153478571Y-69095952D01*
X152716666Y-69000714D02*
X152335714Y-69000714D01*
X152573809Y-68667380D02*
X152573809Y-69524523D01*
X152526190Y-69619761D01*
X152430952Y-69667380D01*
X152335714Y-69667380D01*
X150954761Y-70048333D02*
X151002380Y-70000714D01*
X151097619Y-69857857D01*
X151145238Y-69762619D01*
X151192857Y-69619761D01*
X151240476Y-69381666D01*
X151240476Y-69191190D01*
X151192857Y-68953095D01*
X151145238Y-68810238D01*
X151097619Y-68715000D01*
X151002380Y-68572142D01*
X150954761Y-68524523D01*
X150002380Y-69572142D02*
X150050000Y-69619761D01*
X150192857Y-69667380D01*
X150288095Y-69667380D01*
X150430952Y-69619761D01*
X150526190Y-69524523D01*
X150573809Y-69429285D01*
X150621428Y-69238809D01*
X150621428Y-69095952D01*
X150573809Y-68905476D01*
X150526190Y-68810238D01*
X150430952Y-68715000D01*
X150288095Y-68667380D01*
X150192857Y-68667380D01*
X150050000Y-68715000D01*
X150002380Y-68762619D01*
X149669047Y-70048333D02*
X149621428Y-70000714D01*
X149526190Y-69857857D01*
X149478571Y-69762619D01*
X149430952Y-69619761D01*
X149383333Y-69381666D01*
X149383333Y-69191190D01*
X149430952Y-68953095D01*
X149478571Y-68810238D01*
X149526190Y-68715000D01*
X149621428Y-68572142D01*
X149669047Y-68524523D01*
X148192857Y-68762619D02*
X148145238Y-68715000D01*
X148050000Y-68667380D01*
X147811904Y-68667380D01*
X147716666Y-68715000D01*
X147669047Y-68762619D01*
X147621428Y-68857857D01*
X147621428Y-68953095D01*
X147669047Y-69095952D01*
X148240476Y-69667380D01*
X147621428Y-69667380D01*
X147002380Y-68667380D02*
X146907142Y-68667380D01*
X146811904Y-68715000D01*
X146764285Y-68762619D01*
X146716666Y-68857857D01*
X146669047Y-69048333D01*
X146669047Y-69286428D01*
X146716666Y-69476904D01*
X146764285Y-69572142D01*
X146811904Y-69619761D01*
X146907142Y-69667380D01*
X147002380Y-69667380D01*
X147097619Y-69619761D01*
X147145238Y-69572142D01*
X147192857Y-69476904D01*
X147240476Y-69286428D01*
X147240476Y-69048333D01*
X147192857Y-68857857D01*
X147145238Y-68762619D01*
X147097619Y-68715000D01*
X147002380Y-68667380D01*
X146288095Y-68762619D02*
X146240476Y-68715000D01*
X146145238Y-68667380D01*
X145907142Y-68667380D01*
X145811904Y-68715000D01*
X145764285Y-68762619D01*
X145716666Y-68857857D01*
X145716666Y-68953095D01*
X145764285Y-69095952D01*
X146335714Y-69667380D01*
X145716666Y-69667380D01*
X144859523Y-68667380D02*
X145050000Y-68667380D01*
X145145238Y-68715000D01*
X145192857Y-68762619D01*
X145288095Y-68905476D01*
X145335714Y-69095952D01*
X145335714Y-69476904D01*
X145288095Y-69572142D01*
X145240476Y-69619761D01*
X145145238Y-69667380D01*
X144954761Y-69667380D01*
X144859523Y-69619761D01*
X144811904Y-69572142D01*
X144764285Y-69476904D01*
X144764285Y-69238809D01*
X144811904Y-69143571D01*
X144859523Y-69095952D01*
X144954761Y-69048333D01*
X145145238Y-69048333D01*
X145240476Y-69095952D01*
X145288095Y-69143571D01*
X145335714Y-69238809D01*
X143621428Y-69619761D02*
X143478571Y-69667380D01*
X143240476Y-69667380D01*
X143145238Y-69619761D01*
X143097619Y-69572142D01*
X143050000Y-69476904D01*
X143050000Y-69381666D01*
X143097619Y-69286428D01*
X143145238Y-69238809D01*
X143240476Y-69191190D01*
X143430952Y-69143571D01*
X143526190Y-69095952D01*
X143573809Y-69048333D01*
X143621428Y-68953095D01*
X143621428Y-68857857D01*
X143573809Y-68762619D01*
X143526190Y-68715000D01*
X143430952Y-68667380D01*
X143192857Y-68667380D01*
X143050000Y-68715000D01*
X142240476Y-69619761D02*
X142335714Y-69667380D01*
X142526190Y-69667380D01*
X142621428Y-69619761D01*
X142669047Y-69524523D01*
X142669047Y-69143571D01*
X142621428Y-69048333D01*
X142526190Y-69000714D01*
X142335714Y-69000714D01*
X142240476Y-69048333D01*
X142192857Y-69143571D01*
X142192857Y-69238809D01*
X142669047Y-69334047D01*
X141764285Y-69667380D02*
X141764285Y-69000714D01*
X141764285Y-69191190D02*
X141716666Y-69095952D01*
X141669047Y-69048333D01*
X141573809Y-69000714D01*
X141478571Y-69000714D01*
X140716666Y-69000714D02*
X140716666Y-69810238D01*
X140764285Y-69905476D01*
X140811904Y-69953095D01*
X140907142Y-70000714D01*
X141050000Y-70000714D01*
X141145238Y-69953095D01*
X140716666Y-69619761D02*
X140811904Y-69667380D01*
X141002380Y-69667380D01*
X141097619Y-69619761D01*
X141145238Y-69572142D01*
X141192857Y-69476904D01*
X141192857Y-69191190D01*
X141145238Y-69095952D01*
X141097619Y-69048333D01*
X141002380Y-69000714D01*
X140811904Y-69000714D01*
X140716666Y-69048333D01*
X139859523Y-69619761D02*
X139954761Y-69667380D01*
X140145238Y-69667380D01*
X140240476Y-69619761D01*
X140288095Y-69524523D01*
X140288095Y-69143571D01*
X140240476Y-69048333D01*
X140145238Y-69000714D01*
X139954761Y-69000714D01*
X139859523Y-69048333D01*
X139811904Y-69143571D01*
X139811904Y-69238809D01*
X140288095Y-69334047D01*
X139478571Y-69000714D02*
X139240476Y-69667380D01*
X139002380Y-69000714D02*
X139240476Y-69667380D01*
X139335714Y-69905476D01*
X139383333Y-69953095D01*
X139478571Y-70000714D01*
X137859523Y-69667380D02*
X137859523Y-68667380D01*
X137288095Y-69667380D02*
X137716666Y-69095952D01*
X137288095Y-68667380D02*
X137859523Y-69238809D01*
X136859523Y-69667380D02*
X136859523Y-69000714D01*
X136859523Y-68667380D02*
X136907142Y-68715000D01*
X136859523Y-68762619D01*
X136811904Y-68715000D01*
X136859523Y-68667380D01*
X136859523Y-68762619D01*
X136430952Y-69619761D02*
X136335714Y-69667380D01*
X136145238Y-69667380D01*
X136050000Y-69619761D01*
X136002380Y-69524523D01*
X136002380Y-69476904D01*
X136050000Y-69381666D01*
X136145238Y-69334047D01*
X136288095Y-69334047D01*
X136383333Y-69286428D01*
X136430952Y-69191190D01*
X136430952Y-69143571D01*
X136383333Y-69048333D01*
X136288095Y-69000714D01*
X136145238Y-69000714D01*
X136050000Y-69048333D01*
X135192857Y-69619761D02*
X135288095Y-69667380D01*
X135478571Y-69667380D01*
X135573809Y-69619761D01*
X135621428Y-69524523D01*
X135621428Y-69143571D01*
X135573809Y-69048333D01*
X135478571Y-69000714D01*
X135288095Y-69000714D01*
X135192857Y-69048333D01*
X135145238Y-69143571D01*
X135145238Y-69238809D01*
X135621428Y-69334047D01*
X134573809Y-69667380D02*
X134669047Y-69619761D01*
X134716666Y-69524523D01*
X134716666Y-68667380D01*
X133811904Y-69619761D02*
X133907142Y-69667380D01*
X134097619Y-69667380D01*
X134192857Y-69619761D01*
X134240476Y-69524523D01*
X134240476Y-69143571D01*
X134192857Y-69048333D01*
X134097619Y-69000714D01*
X133907142Y-69000714D01*
X133811904Y-69048333D01*
X133764285Y-69143571D01*
X133764285Y-69238809D01*
X134240476Y-69334047D01*
X133430952Y-69000714D02*
X133192857Y-69667380D01*
X132954761Y-69000714D01*
X159414523Y-73724761D02*
X159271666Y-73772380D01*
X159033571Y-73772380D01*
X158938333Y-73724761D01*
X158890714Y-73677142D01*
X158843095Y-73581904D01*
X158843095Y-73486666D01*
X158890714Y-73391428D01*
X158938333Y-73343809D01*
X159033571Y-73296190D01*
X159224047Y-73248571D01*
X159319285Y-73200952D01*
X159366904Y-73153333D01*
X159414523Y-73058095D01*
X159414523Y-72962857D01*
X159366904Y-72867619D01*
X159319285Y-72820000D01*
X159224047Y-72772380D01*
X158985952Y-72772380D01*
X158843095Y-72820000D01*
X158271666Y-73772380D02*
X158366904Y-73724761D01*
X158414523Y-73677142D01*
X158462142Y-73581904D01*
X158462142Y-73296190D01*
X158414523Y-73200952D01*
X158366904Y-73153333D01*
X158271666Y-73105714D01*
X158128809Y-73105714D01*
X158033571Y-73153333D01*
X157985952Y-73200952D01*
X157938333Y-73296190D01*
X157938333Y-73581904D01*
X157985952Y-73677142D01*
X158033571Y-73724761D01*
X158128809Y-73772380D01*
X158271666Y-73772380D01*
X157366904Y-73772380D02*
X157462142Y-73724761D01*
X157509761Y-73629523D01*
X157509761Y-72772380D01*
X156557380Y-73772380D02*
X156557380Y-72772380D01*
X156557380Y-73724761D02*
X156652619Y-73772380D01*
X156843095Y-73772380D01*
X156938333Y-73724761D01*
X156985952Y-73677142D01*
X157033571Y-73581904D01*
X157033571Y-73296190D01*
X156985952Y-73200952D01*
X156938333Y-73153333D01*
X156843095Y-73105714D01*
X156652619Y-73105714D01*
X156557380Y-73153333D01*
X155700238Y-73724761D02*
X155795476Y-73772380D01*
X155985952Y-73772380D01*
X156081190Y-73724761D01*
X156128809Y-73629523D01*
X156128809Y-73248571D01*
X156081190Y-73153333D01*
X155985952Y-73105714D01*
X155795476Y-73105714D01*
X155700238Y-73153333D01*
X155652619Y-73248571D01*
X155652619Y-73343809D01*
X156128809Y-73439047D01*
X155224047Y-73772380D02*
X155224047Y-73105714D01*
X155224047Y-73296190D02*
X155176428Y-73200952D01*
X155128809Y-73153333D01*
X155033571Y-73105714D01*
X154938333Y-73105714D01*
X153557380Y-72772380D02*
X153557380Y-73486666D01*
X153605000Y-73629523D01*
X153700238Y-73724761D01*
X153843095Y-73772380D01*
X153938333Y-73772380D01*
X152652619Y-73105714D02*
X152652619Y-73772380D01*
X153081190Y-73105714D02*
X153081190Y-73629523D01*
X153033571Y-73724761D01*
X152938333Y-73772380D01*
X152795476Y-73772380D01*
X152700238Y-73724761D01*
X152652619Y-73677142D01*
X152176428Y-73772380D02*
X152176428Y-73105714D01*
X152176428Y-73200952D02*
X152128809Y-73153333D01*
X152033571Y-73105714D01*
X151890714Y-73105714D01*
X151795476Y-73153333D01*
X151747857Y-73248571D01*
X151747857Y-73772380D01*
X151747857Y-73248571D02*
X151700238Y-73153333D01*
X151605000Y-73105714D01*
X151462142Y-73105714D01*
X151366904Y-73153333D01*
X151319285Y-73248571D01*
X151319285Y-73772380D01*
X150843095Y-73105714D02*
X150843095Y-74105714D01*
X150843095Y-73153333D02*
X150747857Y-73105714D01*
X150557380Y-73105714D01*
X150462142Y-73153333D01*
X150414523Y-73200952D01*
X150366904Y-73296190D01*
X150366904Y-73581904D01*
X150414523Y-73677142D01*
X150462142Y-73724761D01*
X150557380Y-73772380D01*
X150747857Y-73772380D01*
X150843095Y-73724761D01*
X149557380Y-73724761D02*
X149652619Y-73772380D01*
X149843095Y-73772380D01*
X149938333Y-73724761D01*
X149985952Y-73629523D01*
X149985952Y-73248571D01*
X149938333Y-73153333D01*
X149843095Y-73105714D01*
X149652619Y-73105714D01*
X149557380Y-73153333D01*
X149509761Y-73248571D01*
X149509761Y-73343809D01*
X149985952Y-73439047D01*
X149081190Y-73772380D02*
X149081190Y-73105714D01*
X149081190Y-73296190D02*
X149033571Y-73200952D01*
X148985952Y-73153333D01*
X148890714Y-73105714D01*
X148795476Y-73105714D01*
X148509761Y-73724761D02*
X148414523Y-73772380D01*
X148224047Y-73772380D01*
X148128809Y-73724761D01*
X148081190Y-73629523D01*
X148081190Y-73581904D01*
X148128809Y-73486666D01*
X148224047Y-73439047D01*
X148366904Y-73439047D01*
X148462142Y-73391428D01*
X148509761Y-73296190D01*
X148509761Y-73248571D01*
X148462142Y-73153333D01*
X148366904Y-73105714D01*
X148224047Y-73105714D01*
X148128809Y-73153333D01*
X147652619Y-73677142D02*
X147605000Y-73724761D01*
X147652619Y-73772380D01*
X147700238Y-73724761D01*
X147652619Y-73677142D01*
X147652619Y-73772380D01*
X147652619Y-73153333D02*
X147605000Y-73200952D01*
X147652619Y-73248571D01*
X147700238Y-73200952D01*
X147652619Y-73153333D01*
X147652619Y-73248571D01*
X158890714Y-74382380D02*
X159366904Y-74382380D01*
X159414523Y-74858571D01*
X159366904Y-74810952D01*
X159271666Y-74763333D01*
X159033571Y-74763333D01*
X158938333Y-74810952D01*
X158890714Y-74858571D01*
X158843095Y-74953809D01*
X158843095Y-75191904D01*
X158890714Y-75287142D01*
X158938333Y-75334761D01*
X159033571Y-75382380D01*
X159271666Y-75382380D01*
X159366904Y-75334761D01*
X159414523Y-75287142D01*
X158557380Y-74382380D02*
X158224047Y-75382380D01*
X157890714Y-74382380D01*
X157557380Y-75287142D02*
X157509761Y-75334761D01*
X157557380Y-75382380D01*
X157605000Y-75334761D01*
X157557380Y-75287142D01*
X157557380Y-75382380D01*
X157557380Y-74763333D02*
X157509761Y-74810952D01*
X157557380Y-74858571D01*
X157605000Y-74810952D01*
X157557380Y-74763333D01*
X157557380Y-74858571D01*
X156033571Y-74382380D02*
X156033571Y-75096666D01*
X156081190Y-75239523D01*
X156176428Y-75334761D01*
X156319285Y-75382380D01*
X156414523Y-75382380D01*
X155557380Y-75382380D02*
X155557380Y-74382380D01*
X155176428Y-74382380D01*
X155081190Y-74430000D01*
X155033571Y-74477619D01*
X154985952Y-74572857D01*
X154985952Y-74715714D01*
X155033571Y-74810952D01*
X155081190Y-74858571D01*
X155176428Y-74906190D01*
X155557380Y-74906190D01*
X154033571Y-75382380D02*
X154605000Y-75382380D01*
X154319285Y-75382380D02*
X154319285Y-74382380D01*
X154414523Y-74525238D01*
X154509761Y-74620476D01*
X154605000Y-74668095D01*
X153557380Y-75334761D02*
X153557380Y-75382380D01*
X153605000Y-75477619D01*
X153652619Y-75525238D01*
X152081190Y-74382380D02*
X152081190Y-75096666D01*
X152128809Y-75239523D01*
X152224047Y-75334761D01*
X152366904Y-75382380D01*
X152462142Y-75382380D01*
X151605000Y-75382380D02*
X151605000Y-74382380D01*
X151224047Y-74382380D01*
X151128809Y-74430000D01*
X151081190Y-74477619D01*
X151033571Y-74572857D01*
X151033571Y-74715714D01*
X151081190Y-74810952D01*
X151128809Y-74858571D01*
X151224047Y-74906190D01*
X151605000Y-74906190D01*
X150652619Y-74477619D02*
X150605000Y-74430000D01*
X150509761Y-74382380D01*
X150271666Y-74382380D01*
X150176428Y-74430000D01*
X150128809Y-74477619D01*
X150081190Y-74572857D01*
X150081190Y-74668095D01*
X150128809Y-74810952D01*
X150700238Y-75382380D01*
X150081190Y-75382380D01*
X148890714Y-75001428D02*
X148128809Y-75001428D01*
X146319285Y-75287142D02*
X146366904Y-75334761D01*
X146509761Y-75382380D01*
X146605000Y-75382380D01*
X146747857Y-75334761D01*
X146843095Y-75239523D01*
X146890714Y-75144285D01*
X146938333Y-74953809D01*
X146938333Y-74810952D01*
X146890714Y-74620476D01*
X146843095Y-74525238D01*
X146747857Y-74430000D01*
X146605000Y-74382380D01*
X146509761Y-74382380D01*
X146366904Y-74430000D01*
X146319285Y-74477619D01*
X145747857Y-75382380D02*
X145843095Y-75334761D01*
X145890714Y-75239523D01*
X145890714Y-74382380D01*
X145224047Y-75382380D02*
X145319285Y-75334761D01*
X145366904Y-75287142D01*
X145414523Y-75191904D01*
X145414523Y-74906190D01*
X145366904Y-74810952D01*
X145319285Y-74763333D01*
X145224047Y-74715714D01*
X145081190Y-74715714D01*
X144985952Y-74763333D01*
X144938333Y-74810952D01*
X144890714Y-74906190D01*
X144890714Y-75191904D01*
X144938333Y-75287142D01*
X144985952Y-75334761D01*
X145081190Y-75382380D01*
X145224047Y-75382380D01*
X144509761Y-75334761D02*
X144414523Y-75382380D01*
X144224047Y-75382380D01*
X144128809Y-75334761D01*
X144081190Y-75239523D01*
X144081190Y-75191904D01*
X144128809Y-75096666D01*
X144224047Y-75049047D01*
X144366904Y-75049047D01*
X144462142Y-75001428D01*
X144509761Y-74906190D01*
X144509761Y-74858571D01*
X144462142Y-74763333D01*
X144366904Y-74715714D01*
X144224047Y-74715714D01*
X144128809Y-74763333D01*
X143271666Y-75334761D02*
X143366904Y-75382380D01*
X143557380Y-75382380D01*
X143652619Y-75334761D01*
X143700238Y-75239523D01*
X143700238Y-74858571D01*
X143652619Y-74763333D01*
X143557380Y-74715714D01*
X143366904Y-74715714D01*
X143271666Y-74763333D01*
X143224047Y-74858571D01*
X143224047Y-74953809D01*
X143700238Y-75049047D01*
X142366904Y-75382380D02*
X142366904Y-74382380D01*
X142366904Y-75334761D02*
X142462142Y-75382380D01*
X142652619Y-75382380D01*
X142747857Y-75334761D01*
X142795476Y-75287142D01*
X142843095Y-75191904D01*
X142843095Y-74906190D01*
X142795476Y-74810952D01*
X142747857Y-74763333D01*
X142652619Y-74715714D01*
X142462142Y-74715714D01*
X142366904Y-74763333D01*
X141843095Y-75334761D02*
X141843095Y-75382380D01*
X141890714Y-75477619D01*
X141938333Y-75525238D01*
X140366904Y-74382380D02*
X140366904Y-75096666D01*
X140414523Y-75239523D01*
X140509761Y-75334761D01*
X140652619Y-75382380D01*
X140747857Y-75382380D01*
X139890714Y-75382380D02*
X139890714Y-74382380D01*
X139509761Y-74382380D01*
X139414523Y-74430000D01*
X139366904Y-74477619D01*
X139319285Y-74572857D01*
X139319285Y-74715714D01*
X139366904Y-74810952D01*
X139414523Y-74858571D01*
X139509761Y-74906190D01*
X139890714Y-74906190D01*
X138985952Y-74382380D02*
X138366904Y-74382380D01*
X138700238Y-74763333D01*
X138557380Y-74763333D01*
X138462142Y-74810952D01*
X138414523Y-74858571D01*
X138366904Y-74953809D01*
X138366904Y-75191904D01*
X138414523Y-75287142D01*
X138462142Y-75334761D01*
X138557380Y-75382380D01*
X138843095Y-75382380D01*
X138938333Y-75334761D01*
X138985952Y-75287142D01*
X137176428Y-75001428D02*
X136414523Y-75001428D01*
X134652619Y-75382380D02*
X135224047Y-75382380D01*
X134938333Y-75382380D02*
X134938333Y-74382380D01*
X135033571Y-74525238D01*
X135128809Y-74620476D01*
X135224047Y-74668095D01*
X134224047Y-75001428D02*
X133462142Y-75001428D01*
X133033571Y-74477619D02*
X132985952Y-74430000D01*
X132890714Y-74382380D01*
X132652619Y-74382380D01*
X132557380Y-74430000D01*
X132509761Y-74477619D01*
X132462142Y-74572857D01*
X132462142Y-74668095D01*
X132509761Y-74810952D01*
X133081190Y-75382380D01*
X132462142Y-75382380D01*
X159462142Y-75992380D02*
X158843095Y-75992380D01*
X159176428Y-76373333D01*
X159033571Y-76373333D01*
X158938333Y-76420952D01*
X158890714Y-76468571D01*
X158843095Y-76563809D01*
X158843095Y-76801904D01*
X158890714Y-76897142D01*
X158938333Y-76944761D01*
X159033571Y-76992380D01*
X159319285Y-76992380D01*
X159414523Y-76944761D01*
X159462142Y-76897142D01*
X158414523Y-76897142D02*
X158366904Y-76944761D01*
X158414523Y-76992380D01*
X158462142Y-76944761D01*
X158414523Y-76897142D01*
X158414523Y-76992380D01*
X158033571Y-75992380D02*
X157414523Y-75992380D01*
X157747857Y-76373333D01*
X157605000Y-76373333D01*
X157509761Y-76420952D01*
X157462142Y-76468571D01*
X157414523Y-76563809D01*
X157414523Y-76801904D01*
X157462142Y-76897142D01*
X157509761Y-76944761D01*
X157605000Y-76992380D01*
X157890714Y-76992380D01*
X157985952Y-76944761D01*
X158033571Y-76897142D01*
X157128809Y-75992380D02*
X156795476Y-76992380D01*
X156462142Y-75992380D01*
X156128809Y-76897142D02*
X156081190Y-76944761D01*
X156128809Y-76992380D01*
X156176428Y-76944761D01*
X156128809Y-76897142D01*
X156128809Y-76992380D01*
X156128809Y-76373333D02*
X156081190Y-76420952D01*
X156128809Y-76468571D01*
X156176428Y-76420952D01*
X156128809Y-76373333D01*
X156128809Y-76468571D01*
X154605000Y-75992380D02*
X154605000Y-76706666D01*
X154652619Y-76849523D01*
X154747857Y-76944761D01*
X154890714Y-76992380D01*
X154985952Y-76992380D01*
X154128809Y-76992380D02*
X154128809Y-75992380D01*
X153747857Y-75992380D01*
X153652619Y-76040000D01*
X153605000Y-76087619D01*
X153557380Y-76182857D01*
X153557380Y-76325714D01*
X153605000Y-76420952D01*
X153652619Y-76468571D01*
X153747857Y-76516190D01*
X154128809Y-76516190D01*
X152605000Y-76992380D02*
X153176428Y-76992380D01*
X152890714Y-76992380D02*
X152890714Y-75992380D01*
X152985952Y-76135238D01*
X153081190Y-76230476D01*
X153176428Y-76278095D01*
X152128809Y-76944761D02*
X152128809Y-76992380D01*
X152176428Y-77087619D01*
X152224047Y-77135238D01*
X150652619Y-75992380D02*
X150652619Y-76706666D01*
X150700238Y-76849523D01*
X150795476Y-76944761D01*
X150938333Y-76992380D01*
X151033571Y-76992380D01*
X150176428Y-76992380D02*
X150176428Y-75992380D01*
X149795476Y-75992380D01*
X149700238Y-76040000D01*
X149652619Y-76087619D01*
X149605000Y-76182857D01*
X149605000Y-76325714D01*
X149652619Y-76420952D01*
X149700238Y-76468571D01*
X149795476Y-76516190D01*
X150176428Y-76516190D01*
X149224047Y-76087619D02*
X149176428Y-76040000D01*
X149081190Y-75992380D01*
X148843095Y-75992380D01*
X148747857Y-76040000D01*
X148700238Y-76087619D01*
X148652619Y-76182857D01*
X148652619Y-76278095D01*
X148700238Y-76420952D01*
X149271666Y-76992380D01*
X148652619Y-76992380D01*
X147462142Y-76611428D02*
X146700238Y-76611428D01*
X145271666Y-75992380D02*
X145081190Y-75992380D01*
X144985952Y-76040000D01*
X144890714Y-76135238D01*
X144843095Y-76325714D01*
X144843095Y-76659047D01*
X144890714Y-76849523D01*
X144985952Y-76944761D01*
X145081190Y-76992380D01*
X145271666Y-76992380D01*
X145366904Y-76944761D01*
X145462142Y-76849523D01*
X145509761Y-76659047D01*
X145509761Y-76325714D01*
X145462142Y-76135238D01*
X145366904Y-76040000D01*
X145271666Y-75992380D01*
X144414523Y-76325714D02*
X144414523Y-77325714D01*
X144414523Y-76373333D02*
X144319285Y-76325714D01*
X144128809Y-76325714D01*
X144033571Y-76373333D01*
X143985952Y-76420952D01*
X143938333Y-76516190D01*
X143938333Y-76801904D01*
X143985952Y-76897142D01*
X144033571Y-76944761D01*
X144128809Y-76992380D01*
X144319285Y-76992380D01*
X144414523Y-76944761D01*
X143128809Y-76944761D02*
X143224047Y-76992380D01*
X143414523Y-76992380D01*
X143509761Y-76944761D01*
X143557380Y-76849523D01*
X143557380Y-76468571D01*
X143509761Y-76373333D01*
X143414523Y-76325714D01*
X143224047Y-76325714D01*
X143128809Y-76373333D01*
X143081190Y-76468571D01*
X143081190Y-76563809D01*
X143557380Y-76659047D01*
X142652619Y-76325714D02*
X142652619Y-76992380D01*
X142652619Y-76420952D02*
X142605000Y-76373333D01*
X142509761Y-76325714D01*
X142366904Y-76325714D01*
X142271666Y-76373333D01*
X142224047Y-76468571D01*
X142224047Y-76992380D01*
X141700238Y-76944761D02*
X141700238Y-76992380D01*
X141747857Y-77087619D01*
X141795476Y-77135238D01*
X140224047Y-75992380D02*
X140224047Y-76706666D01*
X140271666Y-76849523D01*
X140366904Y-76944761D01*
X140509761Y-76992380D01*
X140605000Y-76992380D01*
X139747857Y-76992380D02*
X139747857Y-75992380D01*
X139366904Y-75992380D01*
X139271666Y-76040000D01*
X139224047Y-76087619D01*
X139176428Y-76182857D01*
X139176428Y-76325714D01*
X139224047Y-76420952D01*
X139271666Y-76468571D01*
X139366904Y-76516190D01*
X139747857Y-76516190D01*
X138843095Y-75992380D02*
X138224047Y-75992380D01*
X138557380Y-76373333D01*
X138414523Y-76373333D01*
X138319285Y-76420952D01*
X138271666Y-76468571D01*
X138224047Y-76563809D01*
X138224047Y-76801904D01*
X138271666Y-76897142D01*
X138319285Y-76944761D01*
X138414523Y-76992380D01*
X138700238Y-76992380D01*
X138795476Y-76944761D01*
X138843095Y-76897142D01*
X137033571Y-76611428D02*
X136271666Y-76611428D01*
X135081190Y-76087619D02*
X135033571Y-76040000D01*
X134938333Y-75992380D01*
X134700238Y-75992380D01*
X134605000Y-76040000D01*
X134557380Y-76087619D01*
X134509761Y-76182857D01*
X134509761Y-76278095D01*
X134557380Y-76420952D01*
X135128809Y-76992380D01*
X134509761Y-76992380D01*
X134081190Y-76611428D02*
X133319285Y-76611428D01*
X132938333Y-75992380D02*
X132319285Y-75992380D01*
X132652619Y-76373333D01*
X132509761Y-76373333D01*
X132414523Y-76420952D01*
X132366904Y-76468571D01*
X132319285Y-76563809D01*
X132319285Y-76801904D01*
X132366904Y-76897142D01*
X132414523Y-76944761D01*
X132509761Y-76992380D01*
X132795476Y-76992380D01*
X132890714Y-76944761D01*
X132938333Y-76897142D01*
%TO.C,JP2*%
X137358333Y-82319880D02*
X137358333Y-83034166D01*
X137405952Y-83177023D01*
X137501190Y-83272261D01*
X137644047Y-83319880D01*
X137739285Y-83319880D01*
X136882142Y-83319880D02*
X136882142Y-82319880D01*
X136501190Y-82319880D01*
X136405952Y-82367500D01*
X136358333Y-82415119D01*
X136310714Y-82510357D01*
X136310714Y-82653214D01*
X136358333Y-82748452D01*
X136405952Y-82796071D01*
X136501190Y-82843690D01*
X136882142Y-82843690D01*
X135929761Y-82415119D02*
X135882142Y-82367500D01*
X135786904Y-82319880D01*
X135548809Y-82319880D01*
X135453571Y-82367500D01*
X135405952Y-82415119D01*
X135358333Y-82510357D01*
X135358333Y-82605595D01*
X135405952Y-82748452D01*
X135977380Y-83319880D01*
X135358333Y-83319880D01*
X138540833Y-86129880D02*
X139017023Y-86129880D01*
X139064642Y-86606071D01*
X139017023Y-86558452D01*
X138921785Y-86510833D01*
X138683690Y-86510833D01*
X138588452Y-86558452D01*
X138540833Y-86606071D01*
X138493214Y-86701309D01*
X138493214Y-86939404D01*
X138540833Y-87034642D01*
X138588452Y-87082261D01*
X138683690Y-87129880D01*
X138921785Y-87129880D01*
X139017023Y-87082261D01*
X139064642Y-87034642D01*
X138207500Y-86129880D02*
X137874166Y-87129880D01*
X137540833Y-86129880D01*
X136493214Y-86082261D02*
X137350357Y-87367976D01*
X136255119Y-86129880D02*
X135636071Y-86129880D01*
X135969404Y-86510833D01*
X135826547Y-86510833D01*
X135731309Y-86558452D01*
X135683690Y-86606071D01*
X135636071Y-86701309D01*
X135636071Y-86939404D01*
X135683690Y-87034642D01*
X135731309Y-87082261D01*
X135826547Y-87129880D01*
X136112261Y-87129880D01*
X136207500Y-87082261D01*
X136255119Y-87034642D01*
X135207500Y-87034642D02*
X135159880Y-87082261D01*
X135207500Y-87129880D01*
X135255119Y-87082261D01*
X135207500Y-87034642D01*
X135207500Y-87129880D01*
X134826547Y-86129880D02*
X134207500Y-86129880D01*
X134540833Y-86510833D01*
X134397976Y-86510833D01*
X134302738Y-86558452D01*
X134255119Y-86606071D01*
X134207500Y-86701309D01*
X134207500Y-86939404D01*
X134255119Y-87034642D01*
X134302738Y-87082261D01*
X134397976Y-87129880D01*
X134683690Y-87129880D01*
X134778928Y-87082261D01*
X134826547Y-87034642D01*
X133921785Y-86129880D02*
X133588452Y-87129880D01*
X133255119Y-86129880D01*
%TO.C,U2*%
X152526904Y-77874880D02*
X152526904Y-78684404D01*
X152479285Y-78779642D01*
X152431666Y-78827261D01*
X152336428Y-78874880D01*
X152145952Y-78874880D01*
X152050714Y-78827261D01*
X152003095Y-78779642D01*
X151955476Y-78684404D01*
X151955476Y-77874880D01*
X151526904Y-77970119D02*
X151479285Y-77922500D01*
X151384047Y-77874880D01*
X151145952Y-77874880D01*
X151050714Y-77922500D01*
X151003095Y-77970119D01*
X150955476Y-78065357D01*
X150955476Y-78160595D01*
X151003095Y-78303452D01*
X151574523Y-78874880D01*
X150955476Y-78874880D01*
X149780000Y-78874880D02*
X149780000Y-77874880D01*
X149208571Y-78874880D01*
X149208571Y-77874880D01*
X148160952Y-78779642D02*
X148208571Y-78827261D01*
X148351428Y-78874880D01*
X148446666Y-78874880D01*
X148589523Y-78827261D01*
X148684761Y-78732023D01*
X148732380Y-78636785D01*
X148780000Y-78446309D01*
X148780000Y-78303452D01*
X148732380Y-78112976D01*
X148684761Y-78017738D01*
X148589523Y-77922500D01*
X148446666Y-77874880D01*
X148351428Y-77874880D01*
X148208571Y-77922500D01*
X148160952Y-77970119D01*
X147732380Y-78874880D02*
X147732380Y-77874880D01*
X147351428Y-77874880D01*
X147256190Y-77922500D01*
X147208571Y-77970119D01*
X147160952Y-78065357D01*
X147160952Y-78208214D01*
X147208571Y-78303452D01*
X147256190Y-78351071D01*
X147351428Y-78398690D01*
X147732380Y-78398690D01*
X146208571Y-78874880D02*
X146780000Y-78874880D01*
X146494285Y-78874880D02*
X146494285Y-77874880D01*
X146589523Y-78017738D01*
X146684761Y-78112976D01*
X146780000Y-78160595D01*
X145256190Y-78874880D02*
X145827619Y-78874880D01*
X145541904Y-78874880D02*
X145541904Y-77874880D01*
X145637142Y-78017738D01*
X145732380Y-78112976D01*
X145827619Y-78160595D01*
X144303809Y-78874880D02*
X144875238Y-78874880D01*
X144589523Y-78874880D02*
X144589523Y-77874880D01*
X144684761Y-78017738D01*
X144780000Y-78112976D01*
X144875238Y-78160595D01*
X143970476Y-77874880D02*
X143303809Y-77874880D01*
X143732380Y-78874880D01*
X142922857Y-78493928D02*
X142160952Y-78493928D01*
X141780000Y-77874880D02*
X141160952Y-77874880D01*
X141494285Y-78255833D01*
X141351428Y-78255833D01*
X141256190Y-78303452D01*
X141208571Y-78351071D01*
X141160952Y-78446309D01*
X141160952Y-78684404D01*
X141208571Y-78779642D01*
X141256190Y-78827261D01*
X141351428Y-78874880D01*
X141637142Y-78874880D01*
X141732380Y-78827261D01*
X141780000Y-78779642D01*
X140732380Y-78779642D02*
X140684761Y-78827261D01*
X140732380Y-78874880D01*
X140780000Y-78827261D01*
X140732380Y-78779642D01*
X140732380Y-78874880D01*
X140351428Y-77874880D02*
X139732380Y-77874880D01*
X140065714Y-78255833D01*
X139922857Y-78255833D01*
X139827619Y-78303452D01*
X139780000Y-78351071D01*
X139732380Y-78446309D01*
X139732380Y-78684404D01*
X139780000Y-78779642D01*
X139827619Y-78827261D01*
X139922857Y-78874880D01*
X140208571Y-78874880D01*
X140303809Y-78827261D01*
X140351428Y-78779642D01*
%TO.C,JP3*%
X153868333Y-91527380D02*
X153868333Y-92241666D01*
X153915952Y-92384523D01*
X154011190Y-92479761D01*
X154154047Y-92527380D01*
X154249285Y-92527380D01*
X153392142Y-92527380D02*
X153392142Y-91527380D01*
X153011190Y-91527380D01*
X152915952Y-91575000D01*
X152868333Y-91622619D01*
X152820714Y-91717857D01*
X152820714Y-91860714D01*
X152868333Y-91955952D01*
X152915952Y-92003571D01*
X153011190Y-92051190D01*
X153392142Y-92051190D01*
X152487380Y-91527380D02*
X151868333Y-91527380D01*
X152201666Y-91908333D01*
X152058809Y-91908333D01*
X151963571Y-91955952D01*
X151915952Y-92003571D01*
X151868333Y-92098809D01*
X151868333Y-92336904D01*
X151915952Y-92432142D01*
X151963571Y-92479761D01*
X152058809Y-92527380D01*
X152344523Y-92527380D01*
X152439761Y-92479761D01*
X152487380Y-92432142D01*
X155546133Y-95654880D02*
X156022323Y-95654880D01*
X156069942Y-96131071D01*
X156022323Y-96083452D01*
X155927085Y-96035833D01*
X155688990Y-96035833D01*
X155593752Y-96083452D01*
X155546133Y-96131071D01*
X155498514Y-96226309D01*
X155498514Y-96464404D01*
X155546133Y-96559642D01*
X155593752Y-96607261D01*
X155688990Y-96654880D01*
X155927085Y-96654880D01*
X156022323Y-96607261D01*
X156069942Y-96559642D01*
X155212800Y-95654880D02*
X154879466Y-96654880D01*
X154546133Y-95654880D01*
X153498514Y-95607261D02*
X154355657Y-96892976D01*
X153260419Y-95654880D02*
X152641371Y-95654880D01*
X152974704Y-96035833D01*
X152831847Y-96035833D01*
X152736609Y-96083452D01*
X152688990Y-96131071D01*
X152641371Y-96226309D01*
X152641371Y-96464404D01*
X152688990Y-96559642D01*
X152736609Y-96607261D01*
X152831847Y-96654880D01*
X153117561Y-96654880D01*
X153212800Y-96607261D01*
X153260419Y-96559642D01*
X152212800Y-96559642D02*
X152165180Y-96607261D01*
X152212800Y-96654880D01*
X152260419Y-96607261D01*
X152212800Y-96559642D01*
X152212800Y-96654880D01*
X151831847Y-95654880D02*
X151212800Y-95654880D01*
X151546133Y-96035833D01*
X151403276Y-96035833D01*
X151308038Y-96083452D01*
X151260419Y-96131071D01*
X151212800Y-96226309D01*
X151212800Y-96464404D01*
X151260419Y-96559642D01*
X151308038Y-96607261D01*
X151403276Y-96654880D01*
X151688990Y-96654880D01*
X151784228Y-96607261D01*
X151831847Y-96559642D01*
X150927085Y-95654880D02*
X150593752Y-96654880D01*
X150260419Y-95654880D01*
X150768333Y-93432380D02*
X150149285Y-93432380D01*
X150482619Y-93813333D01*
X150339761Y-93813333D01*
X150244523Y-93860952D01*
X150196904Y-93908571D01*
X150149285Y-94003809D01*
X150149285Y-94241904D01*
X150196904Y-94337142D01*
X150244523Y-94384761D01*
X150339761Y-94432380D01*
X150625476Y-94432380D01*
X150720714Y-94384761D01*
X150768333Y-94337142D01*
X155349285Y-94432380D02*
X155920714Y-94432380D01*
X155635000Y-94432380D02*
X155635000Y-93432380D01*
X155730238Y-93575238D01*
X155825476Y-93670476D01*
X155920714Y-93718095D01*
%TO.C,JP1*%
X156408333Y-82319880D02*
X156408333Y-83034166D01*
X156455952Y-83177023D01*
X156551190Y-83272261D01*
X156694047Y-83319880D01*
X156789285Y-83319880D01*
X155932142Y-83319880D02*
X155932142Y-82319880D01*
X155551190Y-82319880D01*
X155455952Y-82367500D01*
X155408333Y-82415119D01*
X155360714Y-82510357D01*
X155360714Y-82653214D01*
X155408333Y-82748452D01*
X155455952Y-82796071D01*
X155551190Y-82843690D01*
X155932142Y-82843690D01*
X154408333Y-83319880D02*
X154979761Y-83319880D01*
X154694047Y-83319880D02*
X154694047Y-82319880D01*
X154789285Y-82462738D01*
X154884523Y-82557976D01*
X154979761Y-82605595D01*
X157590833Y-86447380D02*
X158067023Y-86447380D01*
X158114642Y-86923571D01*
X158067023Y-86875952D01*
X157971785Y-86828333D01*
X157733690Y-86828333D01*
X157638452Y-86875952D01*
X157590833Y-86923571D01*
X157543214Y-87018809D01*
X157543214Y-87256904D01*
X157590833Y-87352142D01*
X157638452Y-87399761D01*
X157733690Y-87447380D01*
X157971785Y-87447380D01*
X158067023Y-87399761D01*
X158114642Y-87352142D01*
X157257500Y-86447380D02*
X156924166Y-87447380D01*
X156590833Y-86447380D01*
X155543214Y-86399761D02*
X156400357Y-87685476D01*
X155305119Y-86447380D02*
X154686071Y-86447380D01*
X155019404Y-86828333D01*
X154876547Y-86828333D01*
X154781309Y-86875952D01*
X154733690Y-86923571D01*
X154686071Y-87018809D01*
X154686071Y-87256904D01*
X154733690Y-87352142D01*
X154781309Y-87399761D01*
X154876547Y-87447380D01*
X155162261Y-87447380D01*
X155257500Y-87399761D01*
X155305119Y-87352142D01*
X154257500Y-87352142D02*
X154209880Y-87399761D01*
X154257500Y-87447380D01*
X154305119Y-87399761D01*
X154257500Y-87352142D01*
X154257500Y-87447380D01*
X153876547Y-86447380D02*
X153257500Y-86447380D01*
X153590833Y-86828333D01*
X153447976Y-86828333D01*
X153352738Y-86875952D01*
X153305119Y-86923571D01*
X153257500Y-87018809D01*
X153257500Y-87256904D01*
X153305119Y-87352142D01*
X153352738Y-87399761D01*
X153447976Y-87447380D01*
X153733690Y-87447380D01*
X153828928Y-87399761D01*
X153876547Y-87352142D01*
X152971785Y-86447380D02*
X152638452Y-87447380D01*
X152305119Y-86447380D01*
%TO.C,C5*%
X143359166Y-90209642D02*
X143406785Y-90257261D01*
X143549642Y-90304880D01*
X143644880Y-90304880D01*
X143787738Y-90257261D01*
X143882976Y-90162023D01*
X143930595Y-90066785D01*
X143978214Y-89876309D01*
X143978214Y-89733452D01*
X143930595Y-89542976D01*
X143882976Y-89447738D01*
X143787738Y-89352500D01*
X143644880Y-89304880D01*
X143549642Y-89304880D01*
X143406785Y-89352500D01*
X143359166Y-89400119D01*
X142454404Y-89304880D02*
X142930595Y-89304880D01*
X142978214Y-89781071D01*
X142930595Y-89733452D01*
X142835357Y-89685833D01*
X142597261Y-89685833D01*
X142502023Y-89733452D01*
X142454404Y-89781071D01*
X142406785Y-89876309D01*
X142406785Y-90114404D01*
X142454404Y-90209642D01*
X142502023Y-90257261D01*
X142597261Y-90304880D01*
X142835357Y-90304880D01*
X142930595Y-90257261D01*
X142978214Y-90209642D01*
X140453928Y-90304880D02*
X141025357Y-90304880D01*
X140739642Y-90304880D02*
X140739642Y-89304880D01*
X140834880Y-89447738D01*
X140930119Y-89542976D01*
X141025357Y-89590595D01*
X139834880Y-89304880D02*
X139739642Y-89304880D01*
X139644404Y-89352500D01*
X139596785Y-89400119D01*
X139549166Y-89495357D01*
X139501547Y-89685833D01*
X139501547Y-89923928D01*
X139549166Y-90114404D01*
X139596785Y-90209642D01*
X139644404Y-90257261D01*
X139739642Y-90304880D01*
X139834880Y-90304880D01*
X139930119Y-90257261D01*
X139977738Y-90209642D01*
X140025357Y-90114404D01*
X140072976Y-89923928D01*
X140072976Y-89685833D01*
X140025357Y-89495357D01*
X139977738Y-89400119D01*
X139930119Y-89352500D01*
X139834880Y-89304880D01*
X138644404Y-89638214D02*
X138644404Y-90304880D01*
X139072976Y-89638214D02*
X139072976Y-90162023D01*
X139025357Y-90257261D01*
X138930119Y-90304880D01*
X138787261Y-90304880D01*
X138692023Y-90257261D01*
X138644404Y-90209642D01*
X137834880Y-89781071D02*
X138168214Y-89781071D01*
X138168214Y-90304880D02*
X138168214Y-89304880D01*
X137692023Y-89304880D01*
%TO.C,C4*%
X151614166Y-90209642D02*
X151661785Y-90257261D01*
X151804642Y-90304880D01*
X151899880Y-90304880D01*
X152042738Y-90257261D01*
X152137976Y-90162023D01*
X152185595Y-90066785D01*
X152233214Y-89876309D01*
X152233214Y-89733452D01*
X152185595Y-89542976D01*
X152137976Y-89447738D01*
X152042738Y-89352500D01*
X151899880Y-89304880D01*
X151804642Y-89304880D01*
X151661785Y-89352500D01*
X151614166Y-89400119D01*
X150757023Y-89638214D02*
X150757023Y-90304880D01*
X150995119Y-89257261D02*
X151233214Y-89971547D01*
X150614166Y-89971547D01*
X149026428Y-90304880D02*
X149597857Y-90304880D01*
X149312142Y-90304880D02*
X149312142Y-89304880D01*
X149407380Y-89447738D01*
X149502619Y-89542976D01*
X149597857Y-89590595D01*
X148407380Y-89304880D02*
X148312142Y-89304880D01*
X148216904Y-89352500D01*
X148169285Y-89400119D01*
X148121666Y-89495357D01*
X148074047Y-89685833D01*
X148074047Y-89923928D01*
X148121666Y-90114404D01*
X148169285Y-90209642D01*
X148216904Y-90257261D01*
X148312142Y-90304880D01*
X148407380Y-90304880D01*
X148502619Y-90257261D01*
X148550238Y-90209642D01*
X148597857Y-90114404D01*
X148645476Y-89923928D01*
X148645476Y-89685833D01*
X148597857Y-89495357D01*
X148550238Y-89400119D01*
X148502619Y-89352500D01*
X148407380Y-89304880D01*
X147216904Y-89638214D02*
X147216904Y-90304880D01*
X147645476Y-89638214D02*
X147645476Y-90162023D01*
X147597857Y-90257261D01*
X147502619Y-90304880D01*
X147359761Y-90304880D01*
X147264523Y-90257261D01*
X147216904Y-90209642D01*
X146407380Y-89781071D02*
X146740714Y-89781071D01*
X146740714Y-90304880D02*
X146740714Y-89304880D01*
X146264523Y-89304880D01*
%TO.C,C3*%
X149709166Y-92749642D02*
X149756785Y-92797261D01*
X149899642Y-92844880D01*
X149994880Y-92844880D01*
X150137738Y-92797261D01*
X150232976Y-92702023D01*
X150280595Y-92606785D01*
X150328214Y-92416309D01*
X150328214Y-92273452D01*
X150280595Y-92082976D01*
X150232976Y-91987738D01*
X150137738Y-91892500D01*
X149994880Y-91844880D01*
X149899642Y-91844880D01*
X149756785Y-91892500D01*
X149709166Y-91940119D01*
X149375833Y-91844880D02*
X148756785Y-91844880D01*
X149090119Y-92225833D01*
X148947261Y-92225833D01*
X148852023Y-92273452D01*
X148804404Y-92321071D01*
X148756785Y-92416309D01*
X148756785Y-92654404D01*
X148804404Y-92749642D01*
X148852023Y-92797261D01*
X148947261Y-92844880D01*
X149232976Y-92844880D01*
X149328214Y-92797261D01*
X149375833Y-92749642D01*
X147280119Y-92844880D02*
X147851547Y-92844880D01*
X147565833Y-92844880D02*
X147565833Y-91844880D01*
X147661071Y-91987738D01*
X147756309Y-92082976D01*
X147851547Y-92130595D01*
X146661071Y-91844880D02*
X146565833Y-91844880D01*
X146470595Y-91892500D01*
X146422976Y-91940119D01*
X146375357Y-92035357D01*
X146327738Y-92225833D01*
X146327738Y-92463928D01*
X146375357Y-92654404D01*
X146422976Y-92749642D01*
X146470595Y-92797261D01*
X146565833Y-92844880D01*
X146661071Y-92844880D01*
X146756309Y-92797261D01*
X146803928Y-92749642D01*
X146851547Y-92654404D01*
X146899166Y-92463928D01*
X146899166Y-92225833D01*
X146851547Y-92035357D01*
X146803928Y-91940119D01*
X146756309Y-91892500D01*
X146661071Y-91844880D01*
X145708690Y-91844880D02*
X145613452Y-91844880D01*
X145518214Y-91892500D01*
X145470595Y-91940119D01*
X145422976Y-92035357D01*
X145375357Y-92225833D01*
X145375357Y-92463928D01*
X145422976Y-92654404D01*
X145470595Y-92749642D01*
X145518214Y-92797261D01*
X145613452Y-92844880D01*
X145708690Y-92844880D01*
X145803928Y-92797261D01*
X145851547Y-92749642D01*
X145899166Y-92654404D01*
X145946785Y-92463928D01*
X145946785Y-92225833D01*
X145899166Y-92035357D01*
X145851547Y-91940119D01*
X145803928Y-91892500D01*
X145708690Y-91844880D01*
X144946785Y-92178214D02*
X144946785Y-92844880D01*
X144946785Y-92273452D02*
X144899166Y-92225833D01*
X144803928Y-92178214D01*
X144661071Y-92178214D01*
X144565833Y-92225833D01*
X144518214Y-92321071D01*
X144518214Y-92844880D01*
X143708690Y-92321071D02*
X144042023Y-92321071D01*
X144042023Y-92844880D02*
X144042023Y-91844880D01*
X143565833Y-91844880D01*
%TO.C,C2*%
X136691666Y-78779642D02*
X136739285Y-78827261D01*
X136882142Y-78874880D01*
X136977380Y-78874880D01*
X137120238Y-78827261D01*
X137215476Y-78732023D01*
X137263095Y-78636785D01*
X137310714Y-78446309D01*
X137310714Y-78303452D01*
X137263095Y-78112976D01*
X137215476Y-78017738D01*
X137120238Y-77922500D01*
X136977380Y-77874880D01*
X136882142Y-77874880D01*
X136739285Y-77922500D01*
X136691666Y-77970119D01*
X136310714Y-77970119D02*
X136263095Y-77922500D01*
X136167857Y-77874880D01*
X135929761Y-77874880D01*
X135834523Y-77922500D01*
X135786904Y-77970119D01*
X135739285Y-78065357D01*
X135739285Y-78160595D01*
X135786904Y-78303452D01*
X136358333Y-78874880D01*
X135739285Y-78874880D01*
X138072619Y-81732380D02*
X138644047Y-81732380D01*
X138358333Y-81732380D02*
X138358333Y-80732380D01*
X138453571Y-80875238D01*
X138548809Y-80970476D01*
X138644047Y-81018095D01*
X137453571Y-80732380D02*
X137358333Y-80732380D01*
X137263095Y-80780000D01*
X137215476Y-80827619D01*
X137167857Y-80922857D01*
X137120238Y-81113333D01*
X137120238Y-81351428D01*
X137167857Y-81541904D01*
X137215476Y-81637142D01*
X137263095Y-81684761D01*
X137358333Y-81732380D01*
X137453571Y-81732380D01*
X137548809Y-81684761D01*
X137596428Y-81637142D01*
X137644047Y-81541904D01*
X137691666Y-81351428D01*
X137691666Y-81113333D01*
X137644047Y-80922857D01*
X137596428Y-80827619D01*
X137548809Y-80780000D01*
X137453571Y-80732380D01*
X136501190Y-80732380D02*
X136405952Y-80732380D01*
X136310714Y-80780000D01*
X136263095Y-80827619D01*
X136215476Y-80922857D01*
X136167857Y-81113333D01*
X136167857Y-81351428D01*
X136215476Y-81541904D01*
X136263095Y-81637142D01*
X136310714Y-81684761D01*
X136405952Y-81732380D01*
X136501190Y-81732380D01*
X136596428Y-81684761D01*
X136644047Y-81637142D01*
X136691666Y-81541904D01*
X136739285Y-81351428D01*
X136739285Y-81113333D01*
X136691666Y-80922857D01*
X136644047Y-80827619D01*
X136596428Y-80780000D01*
X136501190Y-80732380D01*
X135739285Y-81065714D02*
X135739285Y-81732380D01*
X135739285Y-81160952D02*
X135691666Y-81113333D01*
X135596428Y-81065714D01*
X135453571Y-81065714D01*
X135358333Y-81113333D01*
X135310714Y-81208571D01*
X135310714Y-81732380D01*
X134501190Y-81208571D02*
X134834523Y-81208571D01*
X134834523Y-81732380D02*
X134834523Y-80732380D01*
X134358333Y-80732380D01*
%TO.C,C1*%
X155741666Y-78779642D02*
X155789285Y-78827261D01*
X155932142Y-78874880D01*
X156027380Y-78874880D01*
X156170238Y-78827261D01*
X156265476Y-78732023D01*
X156313095Y-78636785D01*
X156360714Y-78446309D01*
X156360714Y-78303452D01*
X156313095Y-78112976D01*
X156265476Y-78017738D01*
X156170238Y-77922500D01*
X156027380Y-77874880D01*
X155932142Y-77874880D01*
X155789285Y-77922500D01*
X155741666Y-77970119D01*
X154789285Y-78874880D02*
X155360714Y-78874880D01*
X155075000Y-78874880D02*
X155075000Y-77874880D01*
X155170238Y-78017738D01*
X155265476Y-78112976D01*
X155360714Y-78160595D01*
X156805119Y-81732380D02*
X157376547Y-81732380D01*
X157090833Y-81732380D02*
X157090833Y-80732380D01*
X157186071Y-80875238D01*
X157281309Y-80970476D01*
X157376547Y-81018095D01*
X156186071Y-80732380D02*
X156090833Y-80732380D01*
X155995595Y-80780000D01*
X155947976Y-80827619D01*
X155900357Y-80922857D01*
X155852738Y-81113333D01*
X155852738Y-81351428D01*
X155900357Y-81541904D01*
X155947976Y-81637142D01*
X155995595Y-81684761D01*
X156090833Y-81732380D01*
X156186071Y-81732380D01*
X156281309Y-81684761D01*
X156328928Y-81637142D01*
X156376547Y-81541904D01*
X156424166Y-81351428D01*
X156424166Y-81113333D01*
X156376547Y-80922857D01*
X156328928Y-80827619D01*
X156281309Y-80780000D01*
X156186071Y-80732380D01*
X155233690Y-80732380D02*
X155138452Y-80732380D01*
X155043214Y-80780000D01*
X154995595Y-80827619D01*
X154947976Y-80922857D01*
X154900357Y-81113333D01*
X154900357Y-81351428D01*
X154947976Y-81541904D01*
X154995595Y-81637142D01*
X155043214Y-81684761D01*
X155138452Y-81732380D01*
X155233690Y-81732380D01*
X155328928Y-81684761D01*
X155376547Y-81637142D01*
X155424166Y-81541904D01*
X155471785Y-81351428D01*
X155471785Y-81113333D01*
X155424166Y-80922857D01*
X155376547Y-80827619D01*
X155328928Y-80780000D01*
X155233690Y-80732380D01*
X154471785Y-81065714D02*
X154471785Y-81732380D01*
X154471785Y-81160952D02*
X154424166Y-81113333D01*
X154328928Y-81065714D01*
X154186071Y-81065714D01*
X154090833Y-81113333D01*
X154043214Y-81208571D01*
X154043214Y-81732380D01*
X153233690Y-81208571D02*
X153567023Y-81208571D01*
X153567023Y-81732380D02*
X153567023Y-80732380D01*
X153090833Y-80732380D01*
D11*
%TO.C,JP2*%
X137925000Y-84472500D02*
G75*
G03*
X137225000Y-83772500I-699999J1D01*
G01*
X135825000Y-83772500D02*
G75*
G03*
X135125000Y-84472500I-1J-699999D01*
G01*
X135125000Y-85072500D02*
G75*
G03*
X135825000Y-85772500I699999J-1D01*
G01*
X137225000Y-85772500D02*
G75*
G03*
X137925000Y-85072500I1J699999D01*
G01*
X135825000Y-85772500D02*
X137225000Y-85772500D01*
X135125000Y-84472500D02*
X135125000Y-85072500D01*
X137225000Y-83772500D02*
X135825000Y-83772500D01*
X137925000Y-85072500D02*
X137925000Y-84472500D01*
%TO.C,U2*%
X147020000Y-79100000D02*
X148520000Y-79100000D01*
X148520000Y-79370000D02*
X151350000Y-79370000D01*
X148520000Y-85730000D02*
X149620000Y-85730000D01*
X147020000Y-86000000D02*
X148520000Y-86000000D01*
X148520000Y-79100000D02*
X148520000Y-79370000D01*
X148520000Y-86000000D02*
X148520000Y-85730000D01*
%TO.C,JP3*%
X154435000Y-92980000D02*
X151635000Y-92980000D01*
X150985000Y-93680000D02*
X150985000Y-94280000D01*
X151635000Y-94980000D02*
X154435000Y-94980000D01*
X155085000Y-94280000D02*
X155085000Y-93680000D01*
X151685000Y-92980000D02*
G75*
G03*
X150985000Y-93680000I-1J-699999D01*
G01*
X154385000Y-94980000D02*
G75*
G03*
X155085000Y-94280000I1J699999D01*
G01*
X155085000Y-93680000D02*
G75*
G03*
X154385000Y-92980000I-699999J1D01*
G01*
X150985000Y-94280000D02*
G75*
G03*
X151685000Y-94980000I699999J-1D01*
G01*
%TO.C,JP1*%
X154175000Y-84472500D02*
X154175000Y-85072500D01*
X154875000Y-85772500D02*
X156275000Y-85772500D01*
X156975000Y-85072500D02*
X156975000Y-84472500D01*
X156275000Y-83772500D02*
X154875000Y-83772500D01*
X154875000Y-83772500D02*
G75*
G03*
X154175000Y-84472500I-1J-699999D01*
G01*
X156975000Y-84472500D02*
G75*
G03*
X156275000Y-83772500I-699999J1D01*
G01*
X156275000Y-85772500D02*
G75*
G03*
X156975000Y-85072500I1J699999D01*
G01*
X154175000Y-85072500D02*
G75*
G03*
X154875000Y-85772500I699999J-1D01*
G01*
%TO.C,J4*%
X159110000Y-66040000D02*
X159110000Y-63980000D01*
X132990000Y-68100000D02*
X132990000Y-63980000D01*
X158050000Y-68100000D02*
X159110000Y-68100000D01*
X159110000Y-68100000D02*
X159110000Y-67040000D01*
X157050000Y-68100000D02*
X157050000Y-66040000D01*
X159110000Y-63980000D02*
X132990000Y-63980000D01*
X157050000Y-68100000D02*
X132990000Y-68100000D01*
X157050000Y-66040000D02*
X159110000Y-66040000D01*
%TO.C,J3*%
X162560000Y-95610000D02*
X164620000Y-95610000D01*
X160500000Y-69490000D02*
X164620000Y-69490000D01*
X160500000Y-94550000D02*
X160500000Y-95610000D01*
X160500000Y-95610000D02*
X161560000Y-95610000D01*
X160500000Y-93550000D02*
X162560000Y-93550000D01*
X164620000Y-95610000D02*
X164620000Y-69490000D01*
X160500000Y-93550000D02*
X160500000Y-69490000D01*
X162560000Y-93550000D02*
X162560000Y-95610000D01*
%TO.C,J2*%
X135050000Y-99060000D02*
X132990000Y-99060000D01*
X135050000Y-97000000D02*
X159110000Y-97000000D01*
X132990000Y-101120000D02*
X159110000Y-101120000D01*
X135050000Y-97000000D02*
X135050000Y-99060000D01*
X132990000Y-97000000D02*
X132990000Y-98060000D01*
X134050000Y-97000000D02*
X132990000Y-97000000D01*
X159110000Y-97000000D02*
X159110000Y-101120000D01*
X132990000Y-99060000D02*
X132990000Y-101120000D01*
%TO.C,J1*%
X129540000Y-69490000D02*
X127480000Y-69490000D01*
X131600000Y-95610000D02*
X127480000Y-95610000D01*
X131600000Y-70550000D02*
X131600000Y-69490000D01*
X131600000Y-69490000D02*
X130540000Y-69490000D01*
X131600000Y-71550000D02*
X129540000Y-71550000D01*
X127480000Y-69490000D02*
X127480000Y-95610000D01*
X131600000Y-71550000D02*
X131600000Y-95610000D01*
X129540000Y-71550000D02*
X129540000Y-69490000D01*
%TO.C,C5*%
X142633752Y-88857500D02*
X141211248Y-88857500D01*
X142633752Y-87037500D02*
X141211248Y-87037500D01*
%TO.C,C4*%
X148348752Y-87037500D02*
X146926248Y-87037500D01*
X148348752Y-88857500D02*
X146926248Y-88857500D01*
%TO.C,C3*%
X148736267Y-94490000D02*
X148443733Y-94490000D01*
X148736267Y-93470000D02*
X148443733Y-93470000D01*
%TO.C,C2*%
X136671267Y-79182500D02*
X136378733Y-79182500D01*
X136671267Y-80202500D02*
X136378733Y-80202500D01*
%TO.C,C1*%
X155428733Y-79182500D02*
X155721267Y-79182500D01*
X155428733Y-80202500D02*
X155721267Y-80202500D01*
%TD*%
M02*
