%TF.GenerationSoftware,KiCad,Pcbnew,(6.0.2)*%
%TF.CreationDate,2026-01-28T07:44:18-08:00*%
%TF.ProjectId,i386sx-socket,69333836-7378-42d7-936f-636b65742e6b,1.0*%
%TF.SameCoordinates,Original*%
%TF.FileFunction,Copper,L1,Top*%
%TF.FilePolarity,Positive*%
%FSLAX46Y46*%
G04 Gerber Fmt 4.6, Leading zero omitted, Abs format (unit mm)*
G04 Created by KiCad (PCBNEW (6.0.2)) date 2026-01-28 07:44:18*
%MOMM*%
%LPD*%
G01*
G04 APERTURE LIST*
%TA.AperFunction,SMDPad,CuDef*%
%ADD10R,0.380000X2.500000*%
%TD*%
%TA.AperFunction,SMDPad,CuDef*%
%ADD11R,2.500000X0.380000*%
%TD*%
%TA.AperFunction,ComponentPad*%
%ADD12R,1.350000X1.350000*%
%TD*%
%TA.AperFunction,ComponentPad*%
%ADD13O,1.350000X1.350000*%
%TD*%
%TA.AperFunction,ViaPad*%
%ADD14C,0.800000*%
%TD*%
%TA.AperFunction,Conductor*%
%ADD15C,0.250000*%
%TD*%
G04 APERTURE END LIST*
D10*
%TO.P,U1,100,D1*%
%TO.N,/D1*%
X138430000Y-71437500D03*
%TO.P,U1,99,D2*%
%TO.N,/D2*%
X139065000Y-71437500D03*
%TO.P,U1,98,GND*%
%TO.N,GND*%
X139700000Y-71437500D03*
%TO.P,U1,97,VCC*%
%TO.N,/VCC_CORE*%
X140335000Y-71437500D03*
%TO.P,U1,96,D3*%
%TO.N,/D3*%
X140970000Y-71437500D03*
%TO.P,U1,95,D4*%
%TO.N,/D4*%
X141605000Y-71437500D03*
%TO.P,U1,94,D5*%
%TO.N,/D5*%
X142240000Y-71437500D03*
%TO.P,U1,93,D6*%
%TO.N,/D6*%
X142875000Y-71437500D03*
%TO.P,U1,92,D7*%
%TO.N,/D7*%
X143510000Y-71437500D03*
%TO.P,U1,91,VCC*%
%TO.N,/VCC_CORE*%
X144145000Y-71437500D03*
%TO.P,U1,90,D8*%
%TO.N,/D8*%
X144780000Y-71437500D03*
%TO.P,U1,89,D9*%
%TO.N,/D9*%
X145415000Y-71437500D03*
%TO.P,U1,88,D10*%
%TO.N,/D10*%
X146050000Y-71437500D03*
%TO.P,U1,87,D11*%
%TO.N,/D11*%
X146685000Y-71437500D03*
%TO.P,U1,86,D12*%
%TO.N,/D12*%
X147320000Y-71437500D03*
%TO.P,U1,85,GND*%
%TO.N,GND*%
X147955000Y-71437500D03*
%TO.P,U1,84,VCC*%
%TO.N,/VCC_CORE*%
X148590000Y-71437500D03*
%TO.P,U1,83,D13*%
%TO.N,/D13*%
X149225000Y-71437500D03*
%TO.P,U1,82,D14*%
%TO.N,/D14*%
X149860000Y-71437500D03*
%TO.P,U1,81,D15*%
%TO.N,/D15*%
X150495000Y-71437500D03*
%TO.P,U1,80,A23*%
%TO.N,/A23*%
X151130000Y-71437500D03*
%TO.P,U1,79,A22*%
%TO.N,/A22*%
X151765000Y-71437500D03*
%TO.P,U1,78,GND*%
%TO.N,GND*%
X152400000Y-71437500D03*
%TO.P,U1,77,GND*%
X153035000Y-71437500D03*
%TO.P,U1,76,A21*%
%TO.N,/A21*%
X153670000Y-71437500D03*
D11*
%TO.P,U1,75,A20*%
%TO.N,/A20*%
X157162500Y-74930000D03*
%TO.P,U1,74,A19*%
%TO.N,/A19*%
X157162500Y-75565000D03*
%TO.P,U1,73,A18*%
%TO.N,/A18*%
X157162500Y-76200000D03*
%TO.P,U1,72,A17*%
%TO.N,/A17*%
X157162500Y-76835000D03*
%TO.P,U1,71,VCC*%
%TO.N,/VCC_CORE*%
X157162500Y-77470000D03*
%TO.P,U1,70,A16*%
%TO.N,/A16*%
X157162500Y-78105000D03*
%TO.P,U1,69,VCC*%
%TO.N,/VCC_CORE*%
X157162500Y-78740000D03*
%TO.P,U1,68,GND*%
%TO.N,GND*%
X157162500Y-79375000D03*
%TO.P,U1,67,GND*%
X157162500Y-80010000D03*
%TO.P,U1,66,A15*%
%TO.N,/A15*%
X157162500Y-80645000D03*
%TO.P,U1,65,A14*%
%TO.N,/A14*%
X157162500Y-81280000D03*
%TO.P,U1,64,A13*%
%TO.N,/A13*%
X157162500Y-81915000D03*
%TO.P,U1,63,GND*%
%TO.N,GND*%
X157162500Y-82550000D03*
%TO.P,U1,62,A12*%
%TO.N,/A12*%
X157162500Y-83185000D03*
%TO.P,U1,61,A11*%
%TO.N,/A11*%
X157162500Y-83820000D03*
%TO.P,U1,60,A10*%
%TO.N,/A10*%
X157162500Y-84455000D03*
%TO.P,U1,59,A9*%
%TO.N,/A9*%
X157162500Y-85090000D03*
%TO.P,U1,58,A8*%
%TO.N,/A8*%
X157162500Y-85725000D03*
%TO.P,U1,57,VCC*%
%TO.N,/VCC_CORE*%
X157162500Y-86360000D03*
%TO.P,U1,56,A7*%
%TO.N,/A7*%
X157162500Y-86995000D03*
%TO.P,U1,55,A6*%
%TO.N,/A6*%
X157162500Y-87630000D03*
%TO.P,U1,54,A5*%
%TO.N,/A5*%
X157162500Y-88265000D03*
%TO.P,U1,53,A4*%
%TO.N,/A4*%
X157162500Y-88900000D03*
%TO.P,U1,52,A3*%
%TO.N,/A3*%
X157162500Y-89535000D03*
%TO.P,U1,51,A2*%
%TO.N,/A2*%
X157162500Y-90170000D03*
D10*
%TO.P,U1,50,GND*%
%TO.N,GND*%
X153670000Y-93662500D03*
%TO.P,U1,49,GND*%
X153035000Y-93662500D03*
%TO.P,U1,48,VCC*%
%TO.N,/VCC_CORE*%
X152400000Y-93662500D03*
%TO.P,U1,47,NC/~{SMI}*%
%TO.N,/~{SMI}*%
X151765000Y-93662500D03*
%TO.P,U1,46,NC/~{RPLVAL}*%
%TO.N,/~{RPLVAL}*%
X151130000Y-93662500D03*
%TO.P,U1,45,NC/VCC5/RPLSET*%
%TO.N,/~{RPLSET}{slash}VCC5*%
X150495000Y-93662500D03*
%TO.P,U1,44,~{SUSPA}*%
%TO.N,/~{SUSPA}*%
X149860000Y-93662500D03*
%TO.P,U1,43,NC/~{SMI}/~{SUSP}*%
%TO.N,/~{SUSP}*%
X149225000Y-93662500D03*
%TO.P,U1,42,VCC*%
%TO.N,/VCC_CORE*%
X148590000Y-93662500D03*
%TO.P,U1,41,GND*%
%TO.N,GND*%
X147955000Y-93662500D03*
%TO.P,U1,40,INTR*%
%TO.N,/INTR*%
X147320000Y-93662500D03*
%TO.P,U1,39,VCC*%
%TO.N,/VCC_CORE*%
X146685000Y-93662500D03*
%TO.P,U1,38,NMI*%
%TO.N,/NMI*%
X146050000Y-93662500D03*
%TO.P,U1,37,PEREQ*%
%TO.N,/PEREQ*%
X145415000Y-93662500D03*
%TO.P,U1,36,~{ERROR}*%
%TO.N,/~{ERROR}*%
X144780000Y-93662500D03*
%TO.P,U1,35,GND*%
%TO.N,GND*%
X144145000Y-93662500D03*
%TO.P,U1,34,~{BUSY}*%
%TO.N,/~{BUSY}*%
X143510000Y-93662500D03*
%TO.P,U1,33,RESET*%
%TO.N,/RESET*%
X142875000Y-93662500D03*
%TO.P,U1,32,VCC*%
%TO.N,/VCC_CORE*%
X142240000Y-93662500D03*
%TO.P,U1,31,NC/~{SMIADS}/~{A20M}*%
%TO.N,/~{A20M}*%
X141605000Y-93662500D03*
%TO.P,U1,30,NC/~{SMIRDY}/~{FLUSH}*%
%TO.N,/~{FLUSH}*%
X140970000Y-93662500D03*
%TO.P,U1,29,NC/~{IIBEN}/~{KEN}*%
%TO.N,/~{KEN}*%
X140335000Y-93662500D03*
%TO.P,U1,28,~{FLT}*%
%TO.N,/~{FLT}*%
X139700000Y-93662500D03*
%TO.P,U1,27,NC*%
%TO.N,/NC*%
X139065000Y-93662500D03*
%TO.P,U1,26,~{LOCK}*%
%TO.N,/~{LOCK}*%
X138430000Y-93662500D03*
D11*
%TO.P,U1,25,W/~{R}*%
%TO.N,/W{slash}~{R}*%
X134937500Y-90170000D03*
%TO.P,U1,24,D/~{C}*%
%TO.N,/D{slash}~{C}*%
X134937500Y-89535000D03*
%TO.P,U1,23,M/~{IO}*%
%TO.N,/M{slash}~{IO}*%
X134937500Y-88900000D03*
%TO.P,U1,22,GND*%
%TO.N,GND*%
X134937500Y-88265000D03*
%TO.P,U1,21,VCC*%
%TO.N,/VCC_CORE*%
X134937500Y-87630000D03*
%TO.P,U1,20,NC/~{SMADS}*%
%TO.N,/~{SMADS}*%
X134937500Y-86995000D03*
%TO.P,U1,19,~{BHE}*%
%TO.N,/~{BHE}*%
X134937500Y-86360000D03*
%TO.P,U1,18,A1*%
%TO.N,/A1*%
X134937500Y-85725000D03*
%TO.P,U1,17,~{BLE}*%
%TO.N,/~{BLE}*%
X134937500Y-85090000D03*
%TO.P,U1,16,~{ADS}*%
%TO.N,/~{ADS}*%
X134937500Y-84455000D03*
%TO.P,U1,15,CLK2*%
%TO.N,/CLK2*%
X134937500Y-83820000D03*
%TO.P,U1,14,GND*%
%TO.N,GND*%
X134937500Y-83185000D03*
%TO.P,U1,13,GND*%
X134937500Y-82550000D03*
%TO.P,U1,12,GND*%
X134937500Y-81915000D03*
%TO.P,U1,11,GND*%
X134937500Y-81280000D03*
%TO.P,U1,10,VCC*%
%TO.N,/VCC_CORE*%
X134937500Y-80645000D03*
%TO.P,U1,9,VCC*%
X134937500Y-80010000D03*
%TO.P,U1,8,VCC*%
X134937500Y-79375000D03*
%TO.P,U1,7,~{READY}*%
%TO.N,/~{READY}*%
X134937500Y-78740000D03*
%TO.P,U1,6,~{NA}*%
%TO.N,/~{NA}*%
X134937500Y-78105000D03*
%TO.P,U1,5,GND*%
%TO.N,GND*%
X134937500Y-77470000D03*
%TO.P,U1,4,HOLD*%
%TO.N,/HOLD*%
X134937500Y-76835000D03*
%TO.P,U1,3,HLDA*%
%TO.N,/HLDA*%
X134937500Y-76200000D03*
%TO.P,U1,2,GND*%
%TO.N,GND*%
X134937500Y-75565000D03*
%TO.P,U1,1,D0*%
%TO.N,/D0*%
X134937500Y-74930000D03*
%TD*%
D12*
%TO.P,J4,1,Pin_1*%
%TO.N,/A21*%
X158050000Y-67040000D03*
D13*
%TO.P,J4,2,Pin_2*%
%TO.N,GND*%
X158050000Y-65040000D03*
%TO.P,J4,3,Pin_3*%
X156050000Y-67040000D03*
%TO.P,J4,4,Pin_4*%
%TO.N,/A22*%
X156050000Y-65040000D03*
%TO.P,J4,5,Pin_5*%
%TO.N,/A23*%
X154050000Y-67040000D03*
%TO.P,J4,6,Pin_6*%
%TO.N,/D15*%
X154050000Y-65040000D03*
%TO.P,J4,7,Pin_7*%
%TO.N,/D14*%
X152050000Y-67040000D03*
%TO.P,J4,8,Pin_8*%
%TO.N,/D13*%
X152050000Y-65040000D03*
%TO.P,J4,9,Pin_9*%
%TO.N,VCC*%
X150050000Y-67040000D03*
%TO.P,J4,10,Pin_10*%
%TO.N,GND*%
X150050000Y-65040000D03*
%TO.P,J4,11,Pin_11*%
%TO.N,/D12*%
X148050000Y-67040000D03*
%TO.P,J4,12,Pin_12*%
%TO.N,/D11*%
X148050000Y-65040000D03*
%TO.P,J4,13,Pin_13*%
%TO.N,/D10*%
X146050000Y-67040000D03*
%TO.P,J4,14,Pin_14*%
%TO.N,/D9*%
X146050000Y-65040000D03*
%TO.P,J4,15,Pin_15*%
%TO.N,/D8*%
X144050000Y-67040000D03*
%TO.P,J4,16,Pin_16*%
%TO.N,VCC*%
X144050000Y-65040000D03*
%TO.P,J4,17,Pin_17*%
%TO.N,/D7*%
X142050000Y-67040000D03*
%TO.P,J4,18,Pin_18*%
%TO.N,/D6*%
X142050000Y-65040000D03*
%TO.P,J4,19,Pin_19*%
%TO.N,/D5*%
X140050000Y-67040000D03*
%TO.P,J4,20,Pin_20*%
%TO.N,/D4*%
X140050000Y-65040000D03*
%TO.P,J4,21,Pin_21*%
%TO.N,/D3*%
X138050000Y-67040000D03*
%TO.P,J4,22,Pin_22*%
%TO.N,VCC*%
X138050000Y-65040000D03*
%TO.P,J4,23,Pin_23*%
%TO.N,GND*%
X136050000Y-67040000D03*
%TO.P,J4,24,Pin_24*%
%TO.N,/D2*%
X136050000Y-65040000D03*
%TO.P,J4,25,Pin_25*%
%TO.N,/D1*%
X134050000Y-67040000D03*
%TO.P,J4,26,Pin_26*%
%TO.N,unconnected-(J4-Pad26)*%
X134050000Y-65040000D03*
%TD*%
D12*
%TO.P,J3,1,Pin_1*%
%TO.N,/A2*%
X161560000Y-94550000D03*
D13*
%TO.P,J3,2,Pin_2*%
%TO.N,/A3*%
X163560000Y-94550000D03*
%TO.P,J3,3,Pin_3*%
%TO.N,/A4*%
X161560000Y-92550000D03*
%TO.P,J3,4,Pin_4*%
%TO.N,/A5*%
X163560000Y-92550000D03*
%TO.P,J3,5,Pin_5*%
%TO.N,/A6*%
X161560000Y-90550000D03*
%TO.P,J3,6,Pin_6*%
%TO.N,/A7*%
X163560000Y-90550000D03*
%TO.P,J3,7,Pin_7*%
%TO.N,VCC*%
X161560000Y-88550000D03*
%TO.P,J3,8,Pin_8*%
%TO.N,/A8*%
X163560000Y-88550000D03*
%TO.P,J3,9,Pin_9*%
%TO.N,/A9*%
X161560000Y-86550000D03*
%TO.P,J3,10,Pin_10*%
%TO.N,/A10*%
X163560000Y-86550000D03*
%TO.P,J3,11,Pin_11*%
%TO.N,/A11*%
X161560000Y-84550000D03*
%TO.P,J3,12,Pin_12*%
%TO.N,/A12*%
X163560000Y-84550000D03*
%TO.P,J3,13,Pin_13*%
%TO.N,GND*%
X161560000Y-82550000D03*
%TO.P,J3,14,Pin_14*%
%TO.N,/A13*%
X163560000Y-82550000D03*
%TO.P,J3,15,Pin_15*%
%TO.N,/A14*%
X161560000Y-80550000D03*
%TO.P,J3,16,Pin_16*%
%TO.N,/A15*%
X163560000Y-80550000D03*
%TO.P,J3,17,Pin_17*%
%TO.N,GND*%
X161560000Y-78550000D03*
%TO.P,J3,18,Pin_18*%
X163560000Y-78550000D03*
%TO.P,J3,19,Pin_19*%
%TO.N,VCC*%
X161560000Y-76550000D03*
%TO.P,J3,20,Pin_20*%
%TO.N,/A16*%
X163560000Y-76550000D03*
%TO.P,J3,21,Pin_21*%
%TO.N,VCC*%
X161560000Y-74550000D03*
%TO.P,J3,22,Pin_22*%
%TO.N,/A17*%
X163560000Y-74550000D03*
%TO.P,J3,23,Pin_23*%
%TO.N,/A18*%
X161560000Y-72550000D03*
%TO.P,J3,24,Pin_24*%
%TO.N,/A19*%
X163560000Y-72550000D03*
%TO.P,J3,25,Pin_25*%
%TO.N,/A20*%
X161560000Y-70550000D03*
%TO.P,J3,26,Pin_26*%
%TO.N,unconnected-(J3-Pad26)*%
X163560000Y-70550000D03*
%TD*%
%TO.P,J2,26,Pin_26*%
%TO.N,unconnected-(J2-Pad26)*%
X158050000Y-100060000D03*
%TO.P,J2,25,Pin_25*%
%TO.N,GND*%
X158050000Y-98060000D03*
%TO.P,J2,24,Pin_24*%
X156050000Y-100060000D03*
%TO.P,J2,23,Pin_23*%
%TO.N,VCC*%
X156050000Y-98060000D03*
%TO.P,J2,22,Pin_22*%
%TO.N,/~{SMI}*%
X154050000Y-100060000D03*
%TO.P,J2,21,Pin_21*%
%TO.N,/~{RPLVAL}*%
X154050000Y-98060000D03*
%TO.P,J2,20,Pin_20*%
%TO.N,/~{RPLSET}*%
X152050000Y-100060000D03*
%TO.P,J2,19,Pin_19*%
%TO.N,/~{SUSPA}*%
X152050000Y-98060000D03*
%TO.P,J2,18,Pin_18*%
%TO.N,/~{SUSP}*%
X150050000Y-100060000D03*
%TO.P,J2,17,Pin_17*%
%TO.N,VCC*%
X150050000Y-98060000D03*
%TO.P,J2,16,Pin_16*%
%TO.N,GND*%
X148050000Y-100060000D03*
%TO.P,J2,15,Pin_15*%
%TO.N,/INTR*%
X148050000Y-98060000D03*
%TO.P,J2,14,Pin_14*%
%TO.N,VCC*%
X146050000Y-100060000D03*
%TO.P,J2,13,Pin_13*%
%TO.N,/NMI*%
X146050000Y-98060000D03*
%TO.P,J2,12,Pin_12*%
%TO.N,/PEREQ*%
X144050000Y-100060000D03*
%TO.P,J2,11,Pin_11*%
%TO.N,/~{ERROR}*%
X144050000Y-98060000D03*
%TO.P,J2,10,Pin_10*%
%TO.N,GND*%
X142050000Y-100060000D03*
%TO.P,J2,9,Pin_9*%
%TO.N,/~{BUSY}*%
X142050000Y-98060000D03*
%TO.P,J2,8,Pin_8*%
%TO.N,/RESET*%
X140050000Y-100060000D03*
%TO.P,J2,7,Pin_7*%
%TO.N,VCC*%
X140050000Y-98060000D03*
%TO.P,J2,6,Pin_6*%
%TO.N,/~{A20M}*%
X138050000Y-100060000D03*
%TO.P,J2,5,Pin_5*%
%TO.N,/~{FLUSH}*%
X138050000Y-98060000D03*
%TO.P,J2,4,Pin_4*%
%TO.N,/~{KEN}*%
X136050000Y-100060000D03*
%TO.P,J2,3,Pin_3*%
%TO.N,/~{FLT}*%
X136050000Y-98060000D03*
%TO.P,J2,2,Pin_2*%
%TO.N,/NC*%
X134050000Y-100060000D03*
D12*
%TO.P,J2,1,Pin_1*%
%TO.N,/~{LOCK}*%
X134050000Y-98060000D03*
%TD*%
%TO.P,J1,1,Pin_1*%
%TO.N,/D0*%
X130540000Y-70550000D03*
D13*
%TO.P,J1,2,Pin_2*%
%TO.N,GND*%
X128540000Y-70550000D03*
%TO.P,J1,3,Pin_3*%
%TO.N,/HLDA*%
X130540000Y-72550000D03*
%TO.P,J1,4,Pin_4*%
%TO.N,/HOLD*%
X128540000Y-72550000D03*
%TO.P,J1,5,Pin_5*%
%TO.N,GND*%
X130540000Y-74550000D03*
%TO.P,J1,6,Pin_6*%
%TO.N,/~{NA}*%
X128540000Y-74550000D03*
%TO.P,J1,7,Pin_7*%
%TO.N,/~{READY}*%
X130540000Y-76550000D03*
%TO.P,J1,8,Pin_8*%
%TO.N,VCC*%
X128540000Y-76550000D03*
%TO.P,J1,9,Pin_9*%
X130540000Y-78550000D03*
%TO.P,J1,10,Pin_10*%
X128540000Y-78550000D03*
%TO.P,J1,11,Pin_11*%
%TO.N,GND*%
X130540000Y-80550000D03*
%TO.P,J1,12,Pin_12*%
X128540000Y-80550000D03*
%TO.P,J1,13,Pin_13*%
X130540000Y-82550000D03*
%TO.P,J1,14,Pin_14*%
X128540000Y-82550000D03*
%TO.P,J1,15,Pin_15*%
%TO.N,/CLK2*%
X130540000Y-84550000D03*
%TO.P,J1,16,Pin_16*%
%TO.N,/~{ADS}*%
X128540000Y-84550000D03*
%TO.P,J1,17,Pin_17*%
%TO.N,/~{BLE}*%
X130540000Y-86550000D03*
%TO.P,J1,18,Pin_18*%
%TO.N,/A1*%
X128540000Y-86550000D03*
%TO.P,J1,19,Pin_19*%
%TO.N,/~{BHE}*%
X130540000Y-88550000D03*
%TO.P,J1,20,Pin_20*%
%TO.N,/~{SMADS}*%
X128540000Y-88550000D03*
%TO.P,J1,21,Pin_21*%
%TO.N,VCC*%
X130540000Y-90550000D03*
%TO.P,J1,22,Pin_22*%
%TO.N,GND*%
X128540000Y-90550000D03*
%TO.P,J1,23,Pin_23*%
%TO.N,/M{slash}~{IO}*%
X130540000Y-92550000D03*
%TO.P,J1,24,Pin_24*%
%TO.N,/D{slash}~{C}*%
X128540000Y-92550000D03*
%TO.P,J1,25,Pin_25*%
%TO.N,/W{slash}~{R}*%
X130540000Y-94550000D03*
%TO.P,J1,26,Pin_26*%
%TO.N,unconnected-(J1-Pad26)*%
X128540000Y-94550000D03*
%TD*%
D14*
%TO.N,GND*%
X151511000Y-81915000D03*
X149225000Y-81915000D03*
X150368000Y-81915000D03*
X146050000Y-89535000D03*
X140335000Y-89535000D03*
X132715000Y-79692500D03*
X159067500Y-79692500D03*
X148500500Y-95885000D03*
%TO.N,/~{RPLSET}{slash}VCC5*%
X150610604Y-95769397D03*
%TO.N,/VCC_CORE*%
X140335000Y-74295000D03*
X144145000Y-74295000D03*
X148590000Y-74295000D03*
X154305000Y-77470000D03*
X154305000Y-78740000D03*
X154305000Y-86360000D03*
X152400000Y-90805000D03*
X148590000Y-90805000D03*
X146685000Y-90805000D03*
X142240000Y-90805000D03*
X137795000Y-78740000D03*
X137795000Y-80645000D03*
X137795000Y-87630000D03*
%TO.N,/~{RPLSET}*%
X153035000Y-99060000D03*
%TD*%
D15*
%TO.N,GND*%
X146367500Y-89852500D02*
X146050000Y-89535000D01*
X147637500Y-89852500D02*
X146367500Y-89852500D01*
X144145000Y-89852500D02*
X147637500Y-89852500D01*
X140335000Y-89852500D02*
X140335000Y-89535000D01*
X139382500Y-89852500D02*
X140335000Y-89852500D01*
X139382500Y-89852500D02*
X144145000Y-89852500D01*
X138747500Y-89852500D02*
X139382500Y-89852500D01*
X131397500Y-79692500D02*
X132715000Y-79692500D01*
X130540000Y-80550000D02*
X131397500Y-79692500D01*
%TO.N,/VCC_CORE*%
X137795000Y-79375000D02*
X137795000Y-78740000D01*
X134937500Y-79375000D02*
X137795000Y-79375000D01*
X137795000Y-78740000D02*
X137795000Y-80010000D01*
%TO.N,/~{RPLSET}{slash}VCC5*%
X150495000Y-95653793D02*
X150495000Y-93662500D01*
X150610604Y-95769397D02*
X150495000Y-95653793D01*
%TO.N,GND*%
X148500500Y-95974500D02*
X147955000Y-96520000D01*
X148500500Y-95885000D02*
X148500500Y-95974500D01*
%TO.N,/~{SUSPA}*%
X149860000Y-96043391D02*
X149860000Y-93662500D01*
X150650209Y-96610969D02*
X150427578Y-96610969D01*
X152050000Y-98010760D02*
X150650209Y-96610969D01*
X152050000Y-98060000D02*
X152050000Y-98010760D01*
X150427578Y-96610969D02*
X149860000Y-96043391D01*
%TO.N,/~{SUSP}*%
X150082989Y-97060489D02*
X149225000Y-96202500D01*
X151050489Y-97646966D02*
X150464012Y-97060489D01*
X149225000Y-96202500D02*
X149225000Y-93662500D01*
X150050000Y-100060000D02*
X151050489Y-99059511D01*
X151050489Y-99059511D02*
X151050489Y-97646966D01*
X150464012Y-97060489D02*
X150082989Y-97060489D01*
%TO.N,GND*%
X153352500Y-82550000D02*
X153352500Y-89852500D01*
X153352500Y-82550000D02*
X157162500Y-82550000D01*
X153352500Y-79692500D02*
X153352500Y-82550000D01*
X155257500Y-80010000D02*
X154940000Y-79692500D01*
X157162500Y-80010000D02*
X155257500Y-80010000D01*
X155257500Y-79375000D02*
X157162500Y-79375000D01*
X153352500Y-79692500D02*
X154940000Y-79692500D01*
X154940000Y-79692500D02*
X155257500Y-79375000D01*
X153352500Y-75247500D02*
X153352500Y-79692500D01*
X152717500Y-75247500D02*
X153352500Y-75247500D01*
X153035000Y-73342500D02*
X153035000Y-71437500D01*
X152717500Y-73660000D02*
X153035000Y-73342500D01*
X152400000Y-73342500D02*
X152400000Y-71437500D01*
X152717500Y-73660000D02*
X152400000Y-73342500D01*
X147637500Y-75247500D02*
X152717500Y-75247500D01*
X152717500Y-75247500D02*
X152717500Y-73660000D01*
X147637500Y-73660000D02*
X147955000Y-73342500D01*
X147955000Y-73342500D02*
X147955000Y-71437500D01*
X147637500Y-75247500D02*
X147637500Y-73660000D01*
X139382500Y-75247500D02*
X147637500Y-75247500D01*
X138747500Y-75247500D02*
X138747500Y-75565000D01*
X139382500Y-73660000D02*
X139382500Y-75247500D01*
X139382500Y-75247500D02*
X138747500Y-75247500D01*
X139700000Y-73342500D02*
X139382500Y-73660000D01*
X139700000Y-71437500D02*
X139700000Y-73342500D01*
X138747500Y-75565000D02*
X134937500Y-75565000D01*
X138747500Y-77470000D02*
X138747500Y-75565000D01*
X138747500Y-77470000D02*
X134937500Y-77470000D01*
X138747500Y-81915000D02*
X138747500Y-77470000D01*
X136842500Y-81280000D02*
X137477500Y-81915000D01*
X134937500Y-81280000D02*
X136842500Y-81280000D01*
X138747500Y-81915000D02*
X137477500Y-81915000D01*
X137477500Y-81915000D02*
X134937500Y-81915000D01*
X138747500Y-82550000D02*
X138747500Y-81915000D01*
X138747500Y-82550000D02*
X134937500Y-82550000D01*
X138747500Y-83185000D02*
X138747500Y-82550000D01*
X138747500Y-83185000D02*
X134937500Y-83185000D01*
X138747500Y-88582500D02*
X138747500Y-83185000D01*
X138747500Y-88582500D02*
X138747500Y-89852500D01*
X137160000Y-88582500D02*
X138747500Y-88582500D01*
X136842500Y-88265000D02*
X137160000Y-88582500D01*
X134937500Y-88265000D02*
X136842500Y-88265000D01*
X153670000Y-91757500D02*
X153352500Y-91440000D01*
X153670000Y-93662500D02*
X153670000Y-91757500D01*
X153352500Y-91440000D02*
X153035000Y-91757500D01*
X153035000Y-91757500D02*
X153035000Y-93662500D01*
X153352500Y-89852500D02*
X153352500Y-91440000D01*
X147637500Y-89852500D02*
X153352500Y-89852500D01*
X147955000Y-91757500D02*
X147955000Y-93662500D01*
X147637500Y-89852500D02*
X147637500Y-91440000D01*
X144145000Y-93662500D02*
X144145000Y-89852500D01*
X147637500Y-91440000D02*
X147955000Y-91757500D01*
%TO.N,/VCC_CORE*%
X152400000Y-90805000D02*
X152400000Y-93662500D01*
X148590000Y-90805000D02*
X148590000Y-93662500D01*
X146685000Y-90805000D02*
X146685000Y-93662500D01*
X142240000Y-93662500D02*
X142240000Y-90805000D01*
X157162500Y-86360000D02*
X154305000Y-86360000D01*
X157162500Y-77470000D02*
X154305000Y-77470000D01*
X154305000Y-78740000D02*
X157162500Y-78740000D01*
%TO.N,/A20*%
X157162500Y-74930000D02*
X158750000Y-74930000D01*
X158750000Y-74930000D02*
X159067500Y-74612500D01*
X159067500Y-74612500D02*
X159067500Y-72707500D01*
X159067500Y-72707500D02*
X161225000Y-70550000D01*
X161225000Y-70550000D02*
X161560000Y-70550000D01*
%TO.N,/VCC_CORE*%
X148590000Y-74295000D02*
X148590000Y-71437500D01*
X144145000Y-74295000D02*
X144145000Y-71437500D01*
X140335000Y-71437500D02*
X140335000Y-74295000D01*
X137795000Y-80010000D02*
X137795000Y-80645000D01*
X134937500Y-87630000D02*
X137795000Y-87630000D01*
X137795000Y-80645000D02*
X134937500Y-80645000D01*
X137795000Y-80010000D02*
X134937500Y-80010000D01*
%TO.N,/~{A20M}*%
X139050489Y-99059511D02*
X138050000Y-100060000D01*
X139050489Y-97645988D02*
X139050489Y-99059511D01*
X141605000Y-95091477D02*
X139050489Y-97645988D01*
X141605000Y-93662500D02*
X141605000Y-95091477D01*
%TO.N,/~{FLUSH}*%
X140970000Y-95090760D02*
X140970000Y-93662500D01*
X138050000Y-98010760D02*
X140970000Y-95090760D01*
X138050000Y-98060000D02*
X138050000Y-98010760D01*
%TO.N,/~{KEN}*%
X137050489Y-99059511D02*
X136050000Y-100060000D01*
X137050489Y-97582011D02*
X137050489Y-99059511D01*
X137795000Y-96837500D02*
X137050489Y-97582011D01*
X140335000Y-95090042D02*
X138587542Y-96837500D01*
X138587542Y-96837500D02*
X137795000Y-96837500D01*
X140335000Y-93662500D02*
X140335000Y-95090042D01*
%TO.N,/~{FLT}*%
X136050000Y-97629641D02*
X136050000Y-98060000D01*
X138587004Y-96202320D02*
X137477320Y-96202320D01*
X139700000Y-95089324D02*
X138587004Y-96202320D01*
X139700000Y-93662500D02*
X139700000Y-95089324D01*
X137477320Y-96202320D02*
X136050000Y-97629641D01*
%TO.N,/~{LOCK}*%
X138430000Y-95087888D02*
X138430000Y-93662500D01*
X136757480Y-95303280D02*
X138214608Y-95303280D01*
X138214608Y-95303280D02*
X138430000Y-95087888D01*
X134050000Y-98010760D02*
X136757480Y-95303280D01*
X134050000Y-98060000D02*
X134050000Y-98010760D01*
%TO.N,/NC*%
X139065000Y-95088606D02*
X139065000Y-93662500D01*
X138400806Y-95752800D02*
X139065000Y-95088606D01*
X135050489Y-97645988D02*
X135050489Y-99059511D01*
X135050489Y-99059511D02*
X134050000Y-100060000D01*
X138400806Y-95752800D02*
X136943677Y-95752800D01*
X136943677Y-95752800D02*
X135050489Y-97645988D01*
%TO.N,/D4*%
X139050489Y-66039511D02*
X140050000Y-65040000D01*
X139050489Y-67454012D02*
X139050489Y-66039511D01*
X141605000Y-69849282D02*
X139795229Y-68039511D01*
X139795229Y-68039511D02*
X139635988Y-68039511D01*
X141605000Y-71437500D02*
X141605000Y-69849282D01*
X139635988Y-68039511D02*
X139050489Y-67454012D01*
%TO.N,/D3*%
X138050000Y-67565000D02*
X138050000Y-67040000D01*
X138974031Y-68489031D02*
X138050000Y-67565000D01*
X139609031Y-68489031D02*
X138974031Y-68489031D01*
X140970000Y-71437500D02*
X140970000Y-69850000D01*
X140970000Y-69850000D02*
X139609031Y-68489031D01*
%TO.N,/~{NA}*%
X129540489Y-75550489D02*
X128540000Y-74550000D01*
X130954012Y-75550489D02*
X129540489Y-75550489D01*
X133508524Y-78105000D02*
X130954012Y-75550489D01*
X134937500Y-78105000D02*
X133508524Y-78105000D01*
%TO.N,GND*%
X130589241Y-74550000D02*
X130540000Y-74550000D01*
X133509242Y-77470000D02*
X130589241Y-74550000D01*
X134937500Y-77470000D02*
X133509242Y-77470000D01*
%TO.N,/HOLD*%
X129540489Y-73550489D02*
X128540000Y-72550000D01*
X130954012Y-73550489D02*
X129540489Y-73550489D01*
X131571762Y-74896803D02*
X131571762Y-74168238D01*
X133509960Y-76835000D02*
X131571762Y-74896803D01*
X131571762Y-74168238D02*
X130954012Y-73550489D01*
X134937500Y-76835000D02*
X133509960Y-76835000D01*
%TO.N,/HLDA*%
X130970000Y-72550000D02*
X130540000Y-72550000D01*
X132080000Y-73660000D02*
X130970000Y-72550000D01*
X133510678Y-76200000D02*
X132080000Y-74769323D01*
X132080000Y-74769323D02*
X132080000Y-73660000D01*
X134937500Y-76200000D02*
X133510678Y-76200000D01*
%TO.N,GND*%
X129539511Y-71549511D02*
X128540000Y-70550000D01*
X130953034Y-71549511D02*
X129539511Y-71549511D01*
X133511396Y-75565000D02*
X132529520Y-74583124D01*
X132529520Y-74583124D02*
X132529520Y-73125997D01*
X132529520Y-73125997D02*
X130953034Y-71549511D01*
X134937500Y-75565000D02*
X133511396Y-75565000D01*
%TO.N,/RESET*%
X141049511Y-97646966D02*
X141049511Y-99060489D01*
X142875000Y-95821477D02*
X141049511Y-97646966D01*
X141049511Y-99060489D02*
X140050000Y-100060000D01*
X142875000Y-93662500D02*
X142875000Y-95821477D01*
%TO.N,/~{BUSY}*%
X142050000Y-97662500D02*
X142050000Y-98060000D01*
X143510000Y-96202500D02*
X142050000Y-97662500D01*
X143510000Y-93662500D02*
X143510000Y-96202500D01*
%TO.N,GND*%
X144145000Y-96520000D02*
X144145000Y-93662500D01*
X143050489Y-97614511D02*
X144145000Y-96520000D01*
X143050489Y-99059511D02*
X143050489Y-97614511D01*
X142050000Y-100060000D02*
X143050489Y-99059511D01*
%TO.N,/~{ERROR}*%
X144780000Y-96837500D02*
X144780000Y-93662500D01*
X144050000Y-97567500D02*
X144780000Y-96837500D01*
X144050000Y-98060000D02*
X144050000Y-97567500D01*
%TO.N,/PEREQ*%
X145415000Y-97155000D02*
X145415000Y-93662500D01*
X145049511Y-97520489D02*
X145415000Y-97155000D01*
X145049511Y-99060489D02*
X145049511Y-97520489D01*
X144050000Y-100060000D02*
X145049511Y-99060489D01*
%TO.N,GND*%
X155875000Y-95885000D02*
X153670000Y-95885000D01*
X153670000Y-95885000D02*
X153670000Y-93662500D01*
X158050000Y-98060000D02*
X155875000Y-95885000D01*
X153352500Y-95885000D02*
X153035000Y-95567500D01*
X153035000Y-95567500D02*
X153035000Y-93662500D01*
X153670000Y-95885000D02*
X153352500Y-95885000D01*
X156050000Y-100060000D02*
X158050000Y-98060000D01*
%TO.N,/~{SMI}*%
X153463218Y-96837500D02*
X151765000Y-95139282D01*
X155050489Y-97646966D02*
X154241023Y-96837500D01*
X151765000Y-95139282D02*
X151765000Y-93662500D01*
X155050489Y-99059511D02*
X155050489Y-97646966D01*
X154241023Y-96837500D02*
X153463218Y-96837500D01*
X154050000Y-100060000D02*
X155050489Y-99059511D01*
%TO.N,/~{RPLVAL}*%
X151130000Y-95140000D02*
X151130000Y-93662500D01*
X154050000Y-98060000D02*
X151130000Y-95140000D01*
%TO.N,/~{RPLSET}*%
X153035000Y-99075000D02*
X152050000Y-100060000D01*
X153035000Y-99060000D02*
X153035000Y-99075000D01*
%TO.N,GND*%
X149049511Y-99060489D02*
X148050000Y-100060000D01*
X149049511Y-97614511D02*
X149049511Y-99060489D01*
X147955000Y-96520000D02*
X149049511Y-97614511D01*
X147955000Y-93662500D02*
X147955000Y-96520000D01*
%TO.N,/INTR*%
X147320000Y-97330000D02*
X147320000Y-93662500D01*
X148050000Y-98060000D02*
X147320000Y-97330000D01*
%TO.N,/NMI*%
X146050000Y-98060000D02*
X146050000Y-93662500D01*
%TO.N,/W{slash}~{R}*%
X133032500Y-90646250D02*
X133508750Y-90170000D01*
X133032500Y-92710000D02*
X133032500Y-90646250D01*
X131192500Y-94550000D02*
X133032500Y-92710000D01*
X133508750Y-90170000D02*
X134937500Y-90170000D01*
X130540000Y-94550000D02*
X131192500Y-94550000D01*
%TO.N,/D{slash}~{C}*%
X133351436Y-89535000D02*
X134937500Y-89535000D01*
X132529879Y-90356557D02*
X133351436Y-89535000D01*
X132529879Y-91973644D02*
X132529879Y-90356557D01*
X130953034Y-93550489D02*
X132529879Y-91973644D01*
X129540489Y-93550489D02*
X130953034Y-93550489D01*
X128540000Y-92550000D02*
X129540489Y-93550489D01*
%TO.N,/M{slash}~{IO}*%
X133350718Y-88900000D02*
X134937500Y-88900000D01*
X132080359Y-90170359D02*
X133350718Y-88900000D01*
X132080359Y-91439641D02*
X132080359Y-90170359D01*
X130970000Y-92550000D02*
X132080359Y-91439641D01*
X130540000Y-92550000D02*
X130970000Y-92550000D01*
%TO.N,GND*%
X133350000Y-88265000D02*
X134937500Y-88265000D01*
X131539511Y-90075489D02*
X133350000Y-88265000D01*
X131539511Y-91027989D02*
X131539511Y-90075489D01*
X131017989Y-91549511D02*
X131539511Y-91027989D01*
X128540000Y-90550000D02*
X129539511Y-91549511D01*
X129539511Y-91549511D02*
X131017989Y-91549511D01*
%TO.N,/~{SMADS}*%
X130954012Y-89549511D02*
X129539511Y-89549511D01*
X131539511Y-88964012D02*
X130954012Y-89549511D01*
X133033218Y-86995000D02*
X131539511Y-88488707D01*
X131539511Y-88488707D02*
X131539511Y-88964012D01*
X134937500Y-86995000D02*
X133033218Y-86995000D01*
X129539511Y-89549511D02*
X128540000Y-88550000D01*
%TO.N,/~{BHE}*%
X130842500Y-88550000D02*
X130540000Y-88550000D01*
X133032500Y-86360000D02*
X130842500Y-88550000D01*
X134937500Y-86360000D02*
X133032500Y-86360000D01*
%TO.N,/A1*%
X129539511Y-87549511D02*
X128540000Y-86550000D01*
X130954012Y-87549511D02*
X129539511Y-87549511D01*
X132778523Y-85725000D02*
X130954012Y-87549511D01*
X134937500Y-85725000D02*
X132778523Y-85725000D01*
%TO.N,/~{BLE}*%
X130937500Y-86550000D02*
X130540000Y-86550000D01*
X132397500Y-85090000D02*
X130937500Y-86550000D01*
X134937500Y-85090000D02*
X132397500Y-85090000D01*
%TO.N,/~{ADS}*%
X129539511Y-85549511D02*
X128540000Y-84550000D01*
X130985489Y-85549511D02*
X129539511Y-85549511D01*
X132080000Y-84455000D02*
X130985489Y-85549511D01*
X134937500Y-84455000D02*
X132080000Y-84455000D01*
%TO.N,/CLK2*%
X131270000Y-83820000D02*
X130540000Y-84550000D01*
X134937500Y-83820000D02*
X131270000Y-83820000D01*
%TO.N,/D0*%
X133032500Y-72707500D02*
X130875000Y-70550000D01*
X130875000Y-70550000D02*
X130540000Y-70550000D01*
X133032500Y-74450387D02*
X133032500Y-72707500D01*
X134937500Y-74930000D02*
X133512113Y-74930000D01*
X133512113Y-74930000D02*
X133032500Y-74450387D01*
%TO.N,/~{READY}*%
X132730000Y-78740000D02*
X130540000Y-76550000D01*
X134937500Y-78740000D02*
X132730000Y-78740000D01*
%TO.N,GND*%
X130540000Y-80550000D02*
X128540000Y-80550000D01*
X134937500Y-81280000D02*
X131270000Y-81280000D01*
X131270000Y-81280000D02*
X130540000Y-80550000D01*
X131175000Y-81915000D02*
X130540000Y-82550000D01*
X134937500Y-81915000D02*
X131175000Y-81915000D01*
X134937500Y-83185000D02*
X131175000Y-83185000D01*
X131175000Y-83185000D02*
X130540000Y-82550000D01*
X130540000Y-82550000D02*
X128540000Y-82550000D01*
X134937500Y-82550000D02*
X130540000Y-82550000D01*
X156050000Y-67470000D02*
X156050000Y-67040000D01*
X154940000Y-68580000D02*
X156050000Y-67470000D01*
X153830678Y-68580000D02*
X154940000Y-68580000D01*
X153115339Y-69295339D02*
X153830678Y-68580000D01*
%TO.N,/A21*%
X155875000Y-69215000D02*
X158050000Y-67040000D01*
X154028551Y-69215000D02*
X155875000Y-69215000D01*
X153670000Y-69573551D02*
X154028551Y-69215000D01*
X153670000Y-71437500D02*
X153670000Y-69573551D01*
%TO.N,GND*%
X153035000Y-69375678D02*
X153115339Y-69295339D01*
X153035000Y-71437500D02*
X153035000Y-69375678D01*
X152400000Y-70010677D02*
X153115339Y-69295339D01*
X152400000Y-71437500D02*
X152400000Y-70010677D01*
X156050000Y-67040000D02*
X158050000Y-65040000D01*
%TO.N,/A22*%
X155049511Y-66040489D02*
X156050000Y-65040000D01*
X155049511Y-67454012D02*
X155049511Y-66040489D01*
X153735448Y-68039511D02*
X154464012Y-68039511D01*
X154464012Y-68039511D02*
X155049511Y-67454012D01*
X151765000Y-70009959D02*
X153735448Y-68039511D01*
X151765000Y-71437500D02*
X151765000Y-70009959D01*
%TO.N,/A23*%
X154050000Y-67089241D02*
X154050000Y-67040000D01*
X151130000Y-70009241D02*
X154050000Y-67089241D01*
X151130000Y-71437500D02*
X151130000Y-70009241D01*
%TO.N,/D15*%
X153049511Y-67454012D02*
X153049511Y-66040489D01*
X153049511Y-66040489D02*
X154050000Y-65040000D01*
X150495000Y-70008523D02*
X153049511Y-67454012D01*
X150495000Y-71437500D02*
X150495000Y-70008523D01*
%TO.N,/D14*%
X152050000Y-67089241D02*
X152050000Y-67040000D01*
X149860000Y-69279241D02*
X152050000Y-67089241D01*
X149860000Y-71437500D02*
X149860000Y-69279241D01*
%TO.N,/D13*%
X151050489Y-66039511D02*
X152050000Y-65040000D01*
X149225000Y-69278523D02*
X151050489Y-67453034D01*
X149225000Y-71437500D02*
X149225000Y-69278523D01*
X151050489Y-67453034D02*
X151050489Y-66039511D01*
%TO.N,GND*%
X149049511Y-66040489D02*
X150050000Y-65040000D01*
X147955000Y-68548523D02*
X149049511Y-67454012D01*
X149049511Y-67454012D02*
X149049511Y-66040489D01*
X147955000Y-71437500D02*
X147955000Y-68548523D01*
%TO.N,/D1*%
X134050000Y-67390871D02*
X134050000Y-67040000D01*
X135820669Y-69161540D02*
X134050000Y-67390871D01*
X137739386Y-69161540D02*
X135820669Y-69161540D01*
X138430000Y-69852154D02*
X137739386Y-69161540D01*
X138430000Y-71437500D02*
X138430000Y-69852154D01*
%TO.N,/D2*%
X135049511Y-66040489D02*
X136050000Y-65040000D01*
X135049511Y-67453034D02*
X135049511Y-66040489D01*
X136308497Y-68712020D02*
X135049511Y-67453034D01*
X137925584Y-68712020D02*
X136308497Y-68712020D01*
X139065000Y-69851436D02*
X137925584Y-68712020D01*
X139065000Y-71437500D02*
X139065000Y-69851436D01*
%TO.N,GND*%
X139700000Y-71437500D02*
X139700000Y-69850718D01*
X138111782Y-68262500D02*
X137272500Y-68262500D01*
X139700000Y-69850718D02*
X138111782Y-68262500D01*
X137272500Y-68262500D02*
X136050000Y-67040000D01*
%TO.N,/D5*%
X140050000Y-67342500D02*
X140050000Y-67040000D01*
X142240000Y-69532500D02*
X140050000Y-67342500D01*
X142240000Y-71437500D02*
X142240000Y-69532500D01*
%TO.N,/D6*%
X141049511Y-66040489D02*
X142050000Y-65040000D01*
X141049511Y-67453034D02*
X141049511Y-66040489D01*
X142875000Y-69278523D02*
X141049511Y-67453034D01*
X142875000Y-71437500D02*
X142875000Y-69278523D01*
%TO.N,/D7*%
X143510000Y-68500000D02*
X142050000Y-67040000D01*
X143510000Y-71437500D02*
X143510000Y-68500000D01*
%TO.N,/D8*%
X144050000Y-67850000D02*
X144050000Y-67040000D01*
X144780000Y-71437500D02*
X144780000Y-68580000D01*
X144780000Y-68580000D02*
X144050000Y-67850000D01*
%TO.N,/D12*%
X148050000Y-67532500D02*
X148050000Y-67040000D01*
X147320000Y-71437500D02*
X147320000Y-68262500D01*
X147320000Y-68262500D02*
X148050000Y-67532500D01*
%TO.N,/D9*%
X145049511Y-67579511D02*
X145049511Y-66040489D01*
X145415000Y-67945000D02*
X145049511Y-67579511D01*
X145049511Y-66040489D02*
X146050000Y-65040000D01*
X145415000Y-71437500D02*
X145415000Y-67945000D01*
%TO.N,/D11*%
X147049511Y-67580489D02*
X147049511Y-66040489D01*
X147049511Y-66040489D02*
X148050000Y-65040000D01*
X146685000Y-67945000D02*
X147049511Y-67580489D01*
X146685000Y-71437500D02*
X146685000Y-67945000D01*
%TO.N,/D10*%
X146050000Y-71437500D02*
X146050000Y-67040000D01*
%TO.N,/A19*%
X162560489Y-71550489D02*
X163560000Y-72550000D01*
X161145988Y-71550489D02*
X162560489Y-71550489D01*
X159570480Y-73125997D02*
X161145988Y-71550489D01*
X159570480Y-74856302D02*
X159570480Y-73125997D01*
X157162500Y-75565000D02*
X158861782Y-75565000D01*
X158861782Y-75565000D02*
X159570480Y-74856302D01*
%TO.N,/A18*%
X160020000Y-74090000D02*
X161560000Y-72550000D01*
X160020000Y-75203750D02*
X160020000Y-74090000D01*
X159023750Y-76200000D02*
X160020000Y-75203750D01*
X157162500Y-76200000D02*
X159023750Y-76200000D01*
%TO.N,/A17*%
X162559511Y-75550489D02*
X163560000Y-74550000D01*
X159385000Y-76835000D02*
X160669511Y-75550489D01*
X157162500Y-76835000D02*
X159385000Y-76835000D01*
X160669511Y-75550489D02*
X162559511Y-75550489D01*
%TO.N,/A16*%
X160574511Y-77550489D02*
X162559511Y-77550489D01*
X162559511Y-77550489D02*
X163560000Y-76550000D01*
X160020000Y-78105000D02*
X160574511Y-77550489D01*
X157162500Y-78105000D02*
X160020000Y-78105000D01*
%TO.N,GND*%
X157162500Y-79375000D02*
X160337500Y-79375000D01*
X161560000Y-78550000D02*
X163560000Y-78550000D01*
X159702500Y-80010000D02*
X161162500Y-78550000D01*
X157162500Y-80010000D02*
X159702500Y-80010000D01*
%TO.N,/A15*%
X162560489Y-79550489D02*
X163560000Y-80550000D01*
X161145988Y-79550489D02*
X162560489Y-79550489D01*
X157162500Y-80645000D02*
X160051477Y-80645000D01*
X160051477Y-80645000D02*
X161145988Y-79550489D01*
%TO.N,/A14*%
X161067500Y-80550000D02*
X161560000Y-80550000D01*
X157162500Y-81280000D02*
X160337500Y-81280000D01*
X160337500Y-81280000D02*
X161067500Y-80550000D01*
%TO.N,/A13*%
X161019511Y-81550489D02*
X162560489Y-81550489D01*
X157162500Y-81915000D02*
X160655000Y-81915000D01*
X160655000Y-81915000D02*
X161019511Y-81550489D01*
X162560489Y-81550489D02*
X163560000Y-82550000D01*
%TO.N,/A12*%
X162559511Y-83549511D02*
X163560000Y-84550000D01*
X161019511Y-83549511D02*
X162559511Y-83549511D01*
X160655000Y-83185000D02*
X161019511Y-83549511D01*
X157162500Y-83185000D02*
X160655000Y-83185000D01*
%TO.N,/A11*%
X161067500Y-84550000D02*
X161560000Y-84550000D01*
X157162500Y-83820000D02*
X160337500Y-83820000D01*
X160337500Y-83820000D02*
X161067500Y-84550000D01*
%TO.N,/A10*%
X162560489Y-85550489D02*
X161114771Y-85550489D01*
X161114771Y-85550489D02*
X160019282Y-84455000D01*
X160019282Y-84455000D02*
X157162500Y-84455000D01*
X163560000Y-86550000D02*
X162560489Y-85550489D01*
%TO.N,/A9*%
X161161782Y-86550000D02*
X159701782Y-85090000D01*
X159701782Y-85090000D02*
X157162500Y-85090000D01*
X161560000Y-86550000D02*
X161161782Y-86550000D01*
%TO.N,GND*%
X157162500Y-82550000D02*
X161560000Y-82550000D01*
%TO.N,/A8*%
X159321477Y-85725000D02*
X157162500Y-85725000D01*
X161146966Y-87550489D02*
X159321477Y-85725000D01*
X162560489Y-87550489D02*
X161146966Y-87550489D01*
X163560000Y-88550000D02*
X162560489Y-87550489D01*
%TO.N,/A2*%
X158587887Y-90170000D02*
X157162500Y-90170000D01*
X158803460Y-92128460D02*
X158803460Y-90385573D01*
X158803460Y-90385573D02*
X158587887Y-90170000D01*
X161225000Y-94550000D02*
X158803460Y-92128460D01*
X161560000Y-94550000D02*
X161225000Y-94550000D01*
%TO.N,/A3*%
X159252980Y-90199375D02*
X158588605Y-89535000D01*
X159252980Y-91625480D02*
X159252980Y-90199375D01*
X160560489Y-92964012D02*
X160560489Y-92932989D01*
X158588605Y-89535000D02*
X157162500Y-89535000D01*
X162559511Y-93549511D02*
X161145988Y-93549511D01*
X161145988Y-93549511D02*
X160560489Y-92964012D01*
X160560489Y-92932989D02*
X159252980Y-91625480D01*
X163560000Y-94550000D02*
X162559511Y-93549511D01*
%TO.N,/A4*%
X159702500Y-90013177D02*
X158589323Y-88900000D01*
X159702500Y-91122500D02*
X159702500Y-90013177D01*
X161130000Y-92550000D02*
X159702500Y-91122500D01*
X158589323Y-88900000D02*
X157162500Y-88900000D01*
X161560000Y-92550000D02*
X161130000Y-92550000D01*
%TO.N,/A6*%
X158590759Y-87630000D02*
X157162500Y-87630000D01*
X160655000Y-89694241D02*
X158590759Y-87630000D01*
X160655000Y-90170000D02*
X160655000Y-89694241D01*
X161035000Y-90550000D02*
X160655000Y-90170000D01*
X161560000Y-90550000D02*
X161035000Y-90550000D01*
%TO.N,/A5*%
X160205480Y-89880439D02*
X158590041Y-88265000D01*
X160205480Y-90672980D02*
X160205480Y-89880439D01*
X158590041Y-88265000D02*
X157162500Y-88265000D01*
X162559511Y-91549511D02*
X161082011Y-91549511D01*
X161082011Y-91549511D02*
X160205480Y-90672980D01*
X163560000Y-92550000D02*
X162559511Y-91549511D01*
%TO.N,/A7*%
X158591477Y-86995000D02*
X157162500Y-86995000D01*
X161146966Y-89550489D02*
X158591477Y-86995000D01*
X162560489Y-89550489D02*
X161146966Y-89550489D01*
X163560000Y-90550000D02*
X162560489Y-89550489D01*
%TD*%
%TA.AperFunction,Conductor*%
%TO.N,GND*%
G36*
X133667817Y-63870002D02*
G01*
X133714310Y-63923658D01*
X133724414Y-63993932D01*
X133694920Y-64058512D01*
X133658073Y-64087661D01*
X133485757Y-64177746D01*
X133329024Y-64303763D01*
X133199752Y-64457823D01*
X133196788Y-64463215D01*
X133196785Y-64463219D01*
X133176562Y-64500005D01*
X133102866Y-64634058D01*
X133101005Y-64639925D01*
X133101004Y-64639927D01*
X133049499Y-64802293D01*
X133042056Y-64825755D01*
X133019638Y-65025613D01*
X133036467Y-65226018D01*
X133091901Y-65419338D01*
X133183828Y-65598210D01*
X133187651Y-65603034D01*
X133187654Y-65603038D01*
X133275711Y-65714137D01*
X133308748Y-65755819D01*
X133313442Y-65759814D01*
X133430320Y-65859285D01*
X133461901Y-65886163D01*
X133537179Y-65928234D01*
X133539580Y-65929576D01*
X133589286Y-65980269D01*
X133603694Y-66049788D01*
X133578231Y-66116061D01*
X133536485Y-66151226D01*
X133485757Y-66177746D01*
X133329024Y-66303763D01*
X133199752Y-66457823D01*
X133196788Y-66463215D01*
X133196785Y-66463219D01*
X133161482Y-66527436D01*
X133102866Y-66634058D01*
X133101005Y-66639925D01*
X133101004Y-66639927D01*
X133049499Y-66802293D01*
X133042056Y-66825755D01*
X133019638Y-67025613D01*
X133036467Y-67226018D01*
X133091901Y-67419338D01*
X133126504Y-67486668D01*
X133174220Y-67579514D01*
X133183828Y-67598210D01*
X133187651Y-67603034D01*
X133187654Y-67603038D01*
X133245721Y-67676299D01*
X133308748Y-67755819D01*
X133313442Y-67759814D01*
X133390395Y-67825306D01*
X133461901Y-67886163D01*
X133467279Y-67889169D01*
X133467281Y-67889170D01*
X133524861Y-67921350D01*
X133637456Y-67984277D01*
X133828723Y-68046424D01*
X133903647Y-68055358D01*
X134017441Y-68068927D01*
X134082714Y-68096854D01*
X134091617Y-68104946D01*
X135436797Y-69450126D01*
X135443769Y-69458852D01*
X135444227Y-69458463D01*
X135450043Y-69465297D01*
X135454834Y-69472890D01*
X135461563Y-69478832D01*
X135461563Y-69478833D01*
X135492376Y-69506046D01*
X135498063Y-69511392D01*
X135508584Y-69521913D01*
X135516156Y-69527588D01*
X135523987Y-69533964D01*
X135556924Y-69563053D01*
X135565051Y-69566869D01*
X135570388Y-69570374D01*
X135577206Y-69574470D01*
X135582789Y-69577527D01*
X135589974Y-69582912D01*
X135598379Y-69586063D01*
X135598381Y-69586064D01*
X135631123Y-69598338D01*
X135640443Y-69602265D01*
X135680217Y-69620939D01*
X135689087Y-69622320D01*
X135695167Y-69624179D01*
X135702888Y-69626205D01*
X135709101Y-69627571D01*
X135717512Y-69630724D01*
X135744549Y-69632733D01*
X135761345Y-69633981D01*
X135771392Y-69635135D01*
X135778814Y-69636291D01*
X135778816Y-69636291D01*
X135783625Y-69637040D01*
X135797831Y-69637040D01*
X135807169Y-69637386D01*
X135853343Y-69640817D01*
X135862119Y-69638944D01*
X135871076Y-69638333D01*
X135871083Y-69638439D01*
X135884336Y-69637040D01*
X137490238Y-69637040D01*
X137558359Y-69657042D01*
X137579333Y-69673945D01*
X137868650Y-69963262D01*
X137902676Y-70025574D01*
X137900149Y-70084580D01*
X137899464Y-70085982D01*
X137898052Y-70095659D01*
X137898052Y-70095660D01*
X137890992Y-70144058D01*
X137889500Y-70154282D01*
X137889500Y-72720718D01*
X137890170Y-72725268D01*
X137890170Y-72725271D01*
X137898216Y-72779926D01*
X137899642Y-72789612D01*
X137903958Y-72798402D01*
X137941272Y-72874402D01*
X137951068Y-72894355D01*
X137958438Y-72901712D01*
X138025971Y-72969127D01*
X138033650Y-72976793D01*
X138138482Y-73028036D01*
X138168973Y-73032484D01*
X138202256Y-73037340D01*
X138202260Y-73037340D01*
X138206782Y-73038000D01*
X138653218Y-73038000D01*
X138657768Y-73037330D01*
X138657771Y-73037330D01*
X138722112Y-73027858D01*
X138722425Y-73029983D01*
X138773204Y-73029945D01*
X138773482Y-73028036D01*
X138837256Y-73037340D01*
X138837260Y-73037340D01*
X138841782Y-73038000D01*
X139288218Y-73038000D01*
X139292768Y-73037330D01*
X139292771Y-73037330D01*
X139347426Y-73029284D01*
X139347427Y-73029284D01*
X139357112Y-73027858D01*
X139451804Y-72981367D01*
X139452507Y-72981022D01*
X139452509Y-72981021D01*
X139461855Y-72976432D01*
X139522716Y-72915465D01*
X139536935Y-72901221D01*
X139536935Y-72901220D01*
X139544293Y-72893850D01*
X139548954Y-72884316D01*
X139586762Y-72806967D01*
X139634647Y-72754550D01*
X139703270Y-72736343D01*
X139770842Y-72758127D01*
X139813065Y-72806769D01*
X139846603Y-72875077D01*
X139859500Y-72930608D01*
X139859500Y-73657195D01*
X139839498Y-73725316D01*
X139821663Y-73747213D01*
X139749724Y-73817661D01*
X139658515Y-73959190D01*
X139656105Y-73965810D01*
X139656104Y-73965813D01*
X139652643Y-73975322D01*
X139600927Y-74117409D01*
X139579825Y-74284455D01*
X139580512Y-74291462D01*
X139580512Y-74291465D01*
X139583311Y-74320010D01*
X139596255Y-74452025D01*
X139649402Y-74611791D01*
X139653049Y-74617813D01*
X139653050Y-74617815D01*
X139665567Y-74638482D01*
X139736624Y-74755812D01*
X139741513Y-74760875D01*
X139741514Y-74760876D01*
X139768103Y-74788409D01*
X139853586Y-74876929D01*
X139859483Y-74880788D01*
X139988577Y-74965266D01*
X139988581Y-74965268D01*
X139994475Y-74969125D01*
X140152289Y-75027815D01*
X140159270Y-75028746D01*
X140159272Y-75028747D01*
X140204812Y-75034823D01*
X140319183Y-75050083D01*
X140326194Y-75049445D01*
X140326198Y-75049445D01*
X140479843Y-75035462D01*
X140486864Y-75034823D01*
X140493566Y-75032645D01*
X140493568Y-75032645D01*
X140640298Y-74984970D01*
X140640301Y-74984969D01*
X140646997Y-74982793D01*
X140791623Y-74896578D01*
X140796717Y-74891727D01*
X140796721Y-74891724D01*
X140908454Y-74785322D01*
X140908455Y-74785320D01*
X140913554Y-74780465D01*
X140929934Y-74755812D01*
X141002836Y-74646085D01*
X141006731Y-74640223D01*
X141066521Y-74482823D01*
X141089955Y-74316088D01*
X141090249Y-74295000D01*
X141085586Y-74253429D01*
X141072266Y-74134672D01*
X141072265Y-74134669D01*
X141071481Y-74127676D01*
X141016108Y-73968668D01*
X140926884Y-73825879D01*
X140921018Y-73819972D01*
X140847094Y-73745530D01*
X140813287Y-73683099D01*
X140810500Y-73656746D01*
X140810500Y-73164000D01*
X140830502Y-73095879D01*
X140884158Y-73049386D01*
X140936500Y-73038000D01*
X141193218Y-73038000D01*
X141197768Y-73037330D01*
X141197771Y-73037330D01*
X141262112Y-73027858D01*
X141262425Y-73029983D01*
X141313204Y-73029945D01*
X141313482Y-73028036D01*
X141377256Y-73037340D01*
X141377260Y-73037340D01*
X141381782Y-73038000D01*
X141828218Y-73038000D01*
X141832768Y-73037330D01*
X141832771Y-73037330D01*
X141897112Y-73027858D01*
X141897425Y-73029983D01*
X141948204Y-73029945D01*
X141948482Y-73028036D01*
X142012256Y-73037340D01*
X142012260Y-73037340D01*
X142016782Y-73038000D01*
X142463218Y-73038000D01*
X142467768Y-73037330D01*
X142467771Y-73037330D01*
X142532112Y-73027858D01*
X142532425Y-73029983D01*
X142583204Y-73029945D01*
X142583482Y-73028036D01*
X142647256Y-73037340D01*
X142647260Y-73037340D01*
X142651782Y-73038000D01*
X143098218Y-73038000D01*
X143102768Y-73037330D01*
X143102771Y-73037330D01*
X143167112Y-73027858D01*
X143167425Y-73029983D01*
X143218204Y-73029945D01*
X143218482Y-73028036D01*
X143282256Y-73037340D01*
X143282260Y-73037340D01*
X143286782Y-73038000D01*
X143543500Y-73038000D01*
X143611621Y-73058002D01*
X143658114Y-73111658D01*
X143669500Y-73164000D01*
X143669500Y-73657195D01*
X143649498Y-73725316D01*
X143631663Y-73747213D01*
X143559724Y-73817661D01*
X143468515Y-73959190D01*
X143466105Y-73965810D01*
X143466104Y-73965813D01*
X143462643Y-73975322D01*
X143410927Y-74117409D01*
X143389825Y-74284455D01*
X143390512Y-74291462D01*
X143390512Y-74291465D01*
X143393311Y-74320010D01*
X143406255Y-74452025D01*
X143459402Y-74611791D01*
X143463049Y-74617813D01*
X143463050Y-74617815D01*
X143475567Y-74638482D01*
X143546624Y-74755812D01*
X143551513Y-74760875D01*
X143551514Y-74760876D01*
X143578103Y-74788409D01*
X143663586Y-74876929D01*
X143669483Y-74880788D01*
X143798577Y-74965266D01*
X143798581Y-74965268D01*
X143804475Y-74969125D01*
X143962289Y-75027815D01*
X143969270Y-75028746D01*
X143969272Y-75028747D01*
X144014812Y-75034823D01*
X144129183Y-75050083D01*
X144136194Y-75049445D01*
X144136198Y-75049445D01*
X144289843Y-75035462D01*
X144296864Y-75034823D01*
X144303566Y-75032645D01*
X144303568Y-75032645D01*
X144450298Y-74984970D01*
X144450301Y-74984969D01*
X144456997Y-74982793D01*
X144601623Y-74896578D01*
X144606717Y-74891727D01*
X144606721Y-74891724D01*
X144718454Y-74785322D01*
X144718455Y-74785320D01*
X144723554Y-74780465D01*
X144739934Y-74755812D01*
X144812836Y-74646085D01*
X144816731Y-74640223D01*
X144876521Y-74482823D01*
X144899955Y-74316088D01*
X144900249Y-74295000D01*
X144895586Y-74253429D01*
X144882266Y-74134672D01*
X144882265Y-74134669D01*
X144881481Y-74127676D01*
X144826108Y-73968668D01*
X144736884Y-73825879D01*
X144731018Y-73819972D01*
X144657094Y-73745530D01*
X144623287Y-73683099D01*
X144620500Y-73656746D01*
X144620500Y-73164000D01*
X144640502Y-73095879D01*
X144694158Y-73049386D01*
X144746500Y-73038000D01*
X145003218Y-73038000D01*
X145007768Y-73037330D01*
X145007771Y-73037330D01*
X145072112Y-73027858D01*
X145072425Y-73029983D01*
X145123204Y-73029945D01*
X145123482Y-73028036D01*
X145187256Y-73037340D01*
X145187260Y-73037340D01*
X145191782Y-73038000D01*
X145638218Y-73038000D01*
X145642768Y-73037330D01*
X145642771Y-73037330D01*
X145707112Y-73027858D01*
X145707425Y-73029983D01*
X145758204Y-73029945D01*
X145758482Y-73028036D01*
X145822256Y-73037340D01*
X145822260Y-73037340D01*
X145826782Y-73038000D01*
X146273218Y-73038000D01*
X146277768Y-73037330D01*
X146277771Y-73037330D01*
X146342112Y-73027858D01*
X146342425Y-73029983D01*
X146393204Y-73029945D01*
X146393482Y-73028036D01*
X146457256Y-73037340D01*
X146457260Y-73037340D01*
X146461782Y-73038000D01*
X146908218Y-73038000D01*
X146912768Y-73037330D01*
X146912771Y-73037330D01*
X146977112Y-73027858D01*
X146977425Y-73029983D01*
X147028204Y-73029945D01*
X147028482Y-73028036D01*
X147092256Y-73037340D01*
X147092260Y-73037340D01*
X147096782Y-73038000D01*
X147543218Y-73038000D01*
X147547768Y-73037330D01*
X147547771Y-73037330D01*
X147602426Y-73029284D01*
X147602427Y-73029284D01*
X147612112Y-73027858D01*
X147706804Y-72981367D01*
X147707507Y-72981022D01*
X147707509Y-72981021D01*
X147716855Y-72976432D01*
X147777716Y-72915465D01*
X147791935Y-72901221D01*
X147791935Y-72901220D01*
X147799293Y-72893850D01*
X147803954Y-72884316D01*
X147841762Y-72806967D01*
X147889647Y-72754550D01*
X147958270Y-72736343D01*
X148025842Y-72758127D01*
X148068065Y-72806769D01*
X148101603Y-72875077D01*
X148114500Y-72930608D01*
X148114500Y-73657195D01*
X148094498Y-73725316D01*
X148076663Y-73747213D01*
X148004724Y-73817661D01*
X147913515Y-73959190D01*
X147911105Y-73965810D01*
X147911104Y-73965813D01*
X147907643Y-73975322D01*
X147855927Y-74117409D01*
X147834825Y-74284455D01*
X147835512Y-74291462D01*
X147835512Y-74291465D01*
X147838311Y-74320010D01*
X147851255Y-74452025D01*
X147904402Y-74611791D01*
X147908049Y-74617813D01*
X147908050Y-74617815D01*
X147920567Y-74638482D01*
X147991624Y-74755812D01*
X147996513Y-74760875D01*
X147996514Y-74760876D01*
X148023103Y-74788409D01*
X148108586Y-74876929D01*
X148114483Y-74880788D01*
X148243577Y-74965266D01*
X148243581Y-74965268D01*
X148249475Y-74969125D01*
X148407289Y-75027815D01*
X148414270Y-75028746D01*
X148414272Y-75028747D01*
X148459812Y-75034823D01*
X148574183Y-75050083D01*
X148581194Y-75049445D01*
X148581198Y-75049445D01*
X148734843Y-75035462D01*
X148741864Y-75034823D01*
X148748566Y-75032645D01*
X148748568Y-75032645D01*
X148895298Y-74984970D01*
X148895301Y-74984969D01*
X148901997Y-74982793D01*
X149046623Y-74896578D01*
X149051717Y-74891727D01*
X149051721Y-74891724D01*
X149163454Y-74785322D01*
X149163455Y-74785320D01*
X149168554Y-74780465D01*
X149184934Y-74755812D01*
X149257836Y-74646085D01*
X149261731Y-74640223D01*
X149321521Y-74482823D01*
X149344955Y-74316088D01*
X149345249Y-74295000D01*
X149340586Y-74253429D01*
X149327266Y-74134672D01*
X149327265Y-74134669D01*
X149326481Y-74127676D01*
X149271108Y-73968668D01*
X149181884Y-73825879D01*
X149176018Y-73819972D01*
X149102094Y-73745530D01*
X149068287Y-73683099D01*
X149065500Y-73656746D01*
X149065500Y-73164000D01*
X149085502Y-73095879D01*
X149139158Y-73049386D01*
X149191500Y-73038000D01*
X149448218Y-73038000D01*
X149452768Y-73037330D01*
X149452771Y-73037330D01*
X149517112Y-73027858D01*
X149517425Y-73029983D01*
X149568204Y-73029945D01*
X149568482Y-73028036D01*
X149632256Y-73037340D01*
X149632260Y-73037340D01*
X149636782Y-73038000D01*
X150083218Y-73038000D01*
X150087768Y-73037330D01*
X150087771Y-73037330D01*
X150152112Y-73027858D01*
X150152425Y-73029983D01*
X150203204Y-73029945D01*
X150203482Y-73028036D01*
X150267256Y-73037340D01*
X150267260Y-73037340D01*
X150271782Y-73038000D01*
X150718218Y-73038000D01*
X150722768Y-73037330D01*
X150722771Y-73037330D01*
X150787112Y-73027858D01*
X150787425Y-73029983D01*
X150838204Y-73029945D01*
X150838482Y-73028036D01*
X150902256Y-73037340D01*
X150902260Y-73037340D01*
X150906782Y-73038000D01*
X151353218Y-73038000D01*
X151357768Y-73037330D01*
X151357771Y-73037330D01*
X151422112Y-73027858D01*
X151422425Y-73029983D01*
X151473204Y-73029945D01*
X151473482Y-73028036D01*
X151537256Y-73037340D01*
X151537260Y-73037340D01*
X151541782Y-73038000D01*
X151988218Y-73038000D01*
X151992768Y-73037330D01*
X151992771Y-73037330D01*
X152047426Y-73029284D01*
X152047427Y-73029284D01*
X152057112Y-73027858D01*
X152151804Y-72981367D01*
X152152507Y-72981022D01*
X152152509Y-72981021D01*
X152161855Y-72976432D01*
X152222716Y-72915465D01*
X152236935Y-72901221D01*
X152236935Y-72901220D01*
X152244293Y-72893850D01*
X152248954Y-72884316D01*
X152291240Y-72797806D01*
X152295536Y-72789018D01*
X152305500Y-72720718D01*
X152305500Y-70194107D01*
X152325502Y-70125986D01*
X152342405Y-70105012D01*
X152978892Y-69468525D01*
X153041204Y-69434499D01*
X153112019Y-69439564D01*
X153168855Y-69482111D01*
X153193666Y-69548631D01*
X153193641Y-69566954D01*
X153190723Y-69606225D01*
X153192596Y-69615001D01*
X153193207Y-69623958D01*
X153193101Y-69623965D01*
X153194500Y-69637218D01*
X153194500Y-69944243D01*
X153181700Y-69999576D01*
X153169639Y-70024251D01*
X153139464Y-70085982D01*
X153138052Y-70095662D01*
X153130992Y-70144058D01*
X153129500Y-70154282D01*
X153129500Y-72720718D01*
X153130170Y-72725268D01*
X153130170Y-72725271D01*
X153138216Y-72779926D01*
X153139642Y-72789612D01*
X153143958Y-72798402D01*
X153181272Y-72874402D01*
X153191068Y-72894355D01*
X153198438Y-72901712D01*
X153265971Y-72969127D01*
X153273650Y-72976793D01*
X153378482Y-73028036D01*
X153408973Y-73032484D01*
X153442256Y-73037340D01*
X153442260Y-73037340D01*
X153446782Y-73038000D01*
X153893218Y-73038000D01*
X153897768Y-73037330D01*
X153897771Y-73037330D01*
X153952426Y-73029284D01*
X153952427Y-73029284D01*
X153962112Y-73027858D01*
X154056804Y-72981367D01*
X154057507Y-72981022D01*
X154057509Y-72981021D01*
X154066855Y-72976432D01*
X154127716Y-72915465D01*
X154141935Y-72901221D01*
X154141935Y-72901220D01*
X154149293Y-72893850D01*
X154153954Y-72884316D01*
X154196240Y-72797806D01*
X154200536Y-72789018D01*
X154210500Y-72720718D01*
X154210500Y-70154282D01*
X154208914Y-70143504D01*
X154201784Y-70095074D01*
X154201784Y-70095073D01*
X154200358Y-70085388D01*
X154158397Y-69999923D01*
X154145500Y-69944392D01*
X154145500Y-69822700D01*
X154165502Y-69754579D01*
X154182412Y-69733597D01*
X154188613Y-69727397D01*
X154250928Y-69693377D01*
X154277701Y-69690500D01*
X155807627Y-69690500D01*
X155818723Y-69691739D01*
X155818771Y-69691141D01*
X155827717Y-69691861D01*
X155836473Y-69693842D01*
X155886441Y-69690742D01*
X155894242Y-69690500D01*
X155909145Y-69690500D01*
X155918514Y-69689158D01*
X155928566Y-69688129D01*
X155972417Y-69685408D01*
X155980862Y-69682359D01*
X155987098Y-69681068D01*
X155994849Y-69679135D01*
X156000938Y-69677354D01*
X156009829Y-69676081D01*
X156027284Y-69668145D01*
X156049836Y-69657892D01*
X156059201Y-69654080D01*
X156092083Y-69642209D01*
X156092086Y-69642207D01*
X156100530Y-69639159D01*
X156107777Y-69633864D01*
X156113407Y-69630871D01*
X156120257Y-69626868D01*
X156125644Y-69623423D01*
X156133820Y-69619706D01*
X156144783Y-69610260D01*
X156167113Y-69591019D01*
X156175029Y-69584734D01*
X156181101Y-69580298D01*
X156181108Y-69580292D01*
X156185035Y-69577423D01*
X156195076Y-69567382D01*
X156201923Y-69561024D01*
X156206465Y-69557110D01*
X156237004Y-69530796D01*
X156241888Y-69523261D01*
X156247787Y-69516499D01*
X156247867Y-69516569D01*
X156256252Y-69506206D01*
X157660053Y-68102405D01*
X157722365Y-68068379D01*
X157749148Y-68065500D01*
X158758218Y-68065500D01*
X158762768Y-68064830D01*
X158762771Y-68064830D01*
X158817426Y-68056784D01*
X158817427Y-68056784D01*
X158827112Y-68055358D01*
X158900880Y-68019140D01*
X158922507Y-68008522D01*
X158922509Y-68008521D01*
X158931855Y-68003932D01*
X159014293Y-67921350D01*
X159065536Y-67816518D01*
X159071356Y-67776626D01*
X159074840Y-67752744D01*
X159074840Y-67752740D01*
X159075500Y-67748218D01*
X159075500Y-66331782D01*
X159072290Y-66309972D01*
X159066784Y-66272574D01*
X159066784Y-66272573D01*
X159065358Y-66262888D01*
X159023556Y-66177746D01*
X159018522Y-66167493D01*
X159018521Y-66167491D01*
X159013932Y-66158145D01*
X158957229Y-66101541D01*
X158938721Y-66083065D01*
X158938720Y-66083065D01*
X158931350Y-66075707D01*
X158918667Y-66069507D01*
X158885201Y-66053149D01*
X158826518Y-66024464D01*
X158787611Y-66018788D01*
X158762744Y-66015160D01*
X158762740Y-66015160D01*
X158758218Y-66014500D01*
X157341782Y-66014500D01*
X157337232Y-66015170D01*
X157337229Y-66015170D01*
X157282574Y-66023216D01*
X157282573Y-66023216D01*
X157272888Y-66024642D01*
X157236216Y-66042647D01*
X157177493Y-66071478D01*
X157177491Y-66071479D01*
X157168145Y-66076068D01*
X157085707Y-66158650D01*
X157034464Y-66263482D01*
X157033052Y-66273162D01*
X157027109Y-66313901D01*
X157024500Y-66331782D01*
X157024500Y-67340851D01*
X157004498Y-67408972D01*
X156987595Y-67429946D01*
X155714947Y-68702595D01*
X155652635Y-68736620D01*
X155625852Y-68739500D01*
X154654936Y-68739500D01*
X154586815Y-68719498D01*
X154540322Y-68665842D01*
X154530218Y-68595568D01*
X154559712Y-68530988D01*
X154602786Y-68498799D01*
X154638848Y-68482403D01*
X154648213Y-68478591D01*
X154681095Y-68466720D01*
X154681098Y-68466718D01*
X154689542Y-68463670D01*
X154696789Y-68458375D01*
X154702419Y-68455382D01*
X154709269Y-68451379D01*
X154714656Y-68447934D01*
X154722832Y-68444217D01*
X154756125Y-68415530D01*
X154764041Y-68409245D01*
X154770113Y-68404809D01*
X154770120Y-68404803D01*
X154774047Y-68401934D01*
X154784088Y-68391893D01*
X154790935Y-68385535D01*
X154819218Y-68361165D01*
X154819219Y-68361163D01*
X154826016Y-68355307D01*
X154830896Y-68347778D01*
X154836801Y-68341009D01*
X154836881Y-68341078D01*
X154845263Y-68330720D01*
X155338100Y-67837883D01*
X155346822Y-67830914D01*
X155346432Y-67830456D01*
X155353269Y-67824637D01*
X155360861Y-67819847D01*
X155394010Y-67782313D01*
X155399356Y-67776626D01*
X155409885Y-67766097D01*
X155415561Y-67758523D01*
X155421943Y-67750685D01*
X155445082Y-67724485D01*
X155451024Y-67717757D01*
X155454839Y-67709631D01*
X155458337Y-67704306D01*
X155462447Y-67697466D01*
X155465499Y-67691890D01*
X155470883Y-67684707D01*
X155486309Y-67643558D01*
X155490236Y-67634238D01*
X155491746Y-67631022D01*
X155508910Y-67594464D01*
X155510291Y-67585594D01*
X155512150Y-67579514D01*
X155514176Y-67571793D01*
X155515542Y-67565580D01*
X155518695Y-67557169D01*
X155521952Y-67513336D01*
X155523106Y-67503289D01*
X155524262Y-67495867D01*
X155524262Y-67495865D01*
X155525011Y-67491056D01*
X155525011Y-67476850D01*
X155525357Y-67467513D01*
X155528123Y-67430286D01*
X155528788Y-67421338D01*
X155526915Y-67412562D01*
X155526304Y-67403605D01*
X155526410Y-67403598D01*
X155525011Y-67390345D01*
X155525011Y-66289637D01*
X155545013Y-66221516D01*
X155561916Y-66200542D01*
X155689071Y-66073387D01*
X155751383Y-66039361D01*
X155817097Y-66042647D01*
X155822865Y-66044521D01*
X155822869Y-66044522D01*
X155828723Y-66046424D01*
X155834833Y-66047153D01*
X155834835Y-66047153D01*
X155899026Y-66054807D01*
X156028420Y-66070236D01*
X156034555Y-66069764D01*
X156034557Y-66069764D01*
X156222796Y-66055280D01*
X156222800Y-66055279D01*
X156228938Y-66054807D01*
X156284259Y-66039361D01*
X156416696Y-66002384D01*
X156416700Y-66002383D01*
X156422640Y-66000724D01*
X156428144Y-65997944D01*
X156428146Y-65997943D01*
X156596646Y-65912828D01*
X156596648Y-65912827D01*
X156602149Y-65910048D01*
X156760627Y-65786232D01*
X156864759Y-65665594D01*
X156888008Y-65638660D01*
X156888009Y-65638658D01*
X156892037Y-65633992D01*
X156912364Y-65598210D01*
X156988329Y-65464488D01*
X156988331Y-65464484D01*
X156991374Y-65459127D01*
X157028948Y-65346173D01*
X157052909Y-65274145D01*
X157052910Y-65274142D01*
X157054854Y-65268297D01*
X157080060Y-65068772D01*
X157080462Y-65040000D01*
X157060837Y-64839849D01*
X157002710Y-64647321D01*
X156938966Y-64527436D01*
X156911190Y-64475197D01*
X156911189Y-64475195D01*
X156908294Y-64469751D01*
X156848198Y-64396066D01*
X156785081Y-64318676D01*
X156785078Y-64318673D01*
X156781186Y-64313901D01*
X156774638Y-64308484D01*
X156630977Y-64189637D01*
X156630974Y-64189635D01*
X156626227Y-64185708D01*
X156449320Y-64090055D01*
X156449585Y-64089564D01*
X156397718Y-64047319D01*
X156375650Y-63979840D01*
X156393566Y-63911141D01*
X156445780Y-63863035D01*
X156501591Y-63850000D01*
X162522535Y-63850000D01*
X162542247Y-63851551D01*
X162560000Y-63854363D01*
X162569793Y-63852812D01*
X162577630Y-63852812D01*
X162593665Y-63852037D01*
X162816368Y-63865508D01*
X162831472Y-63867342D01*
X163076603Y-63912264D01*
X163091376Y-63915905D01*
X163329315Y-63990050D01*
X163343533Y-63995442D01*
X163570801Y-64097727D01*
X163584257Y-64104789D01*
X163797538Y-64233722D01*
X163810058Y-64242364D01*
X163907463Y-64318676D01*
X164006244Y-64396066D01*
X164017632Y-64406156D01*
X164193844Y-64582368D01*
X164203934Y-64593756D01*
X164353060Y-64784100D01*
X164357635Y-64789940D01*
X164366277Y-64802461D01*
X164495211Y-65015743D01*
X164502273Y-65029199D01*
X164604556Y-65256463D01*
X164609950Y-65270685D01*
X164612357Y-65278409D01*
X164684095Y-65508624D01*
X164687736Y-65523397D01*
X164732658Y-65768528D01*
X164734492Y-65783632D01*
X164747963Y-66006335D01*
X164747188Y-66022370D01*
X164747188Y-66030207D01*
X164745637Y-66040000D01*
X164747188Y-66049792D01*
X164748449Y-66057754D01*
X164750000Y-66077465D01*
X164750000Y-70098262D01*
X164729998Y-70166383D01*
X164676342Y-70212876D01*
X164606068Y-70222980D01*
X164541488Y-70193486D01*
X164514725Y-70156249D01*
X164512710Y-70157321D01*
X164421190Y-69985197D01*
X164421189Y-69985195D01*
X164418294Y-69979751D01*
X164352083Y-69898568D01*
X164295081Y-69828676D01*
X164295078Y-69828673D01*
X164291186Y-69823901D01*
X164282842Y-69816998D01*
X164140977Y-69699637D01*
X164140974Y-69699635D01*
X164136227Y-69695708D01*
X163959320Y-69600055D01*
X163853770Y-69567382D01*
X163773090Y-69542407D01*
X163773087Y-69542406D01*
X163767203Y-69540585D01*
X163761078Y-69539941D01*
X163761077Y-69539941D01*
X163573322Y-69520207D01*
X163573321Y-69520207D01*
X163567194Y-69519563D01*
X163483056Y-69527220D01*
X163373050Y-69537231D01*
X163373047Y-69537232D01*
X163366911Y-69537790D01*
X163361005Y-69539528D01*
X163361001Y-69539529D01*
X163242283Y-69574470D01*
X163173982Y-69594572D01*
X163104830Y-69630724D01*
X163012814Y-69678829D01*
X162995757Y-69687746D01*
X162839024Y-69813763D01*
X162709752Y-69967823D01*
X162706786Y-69973219D01*
X162706783Y-69973223D01*
X162670632Y-70038982D01*
X162620287Y-70089041D01*
X162550870Y-70103935D01*
X162484421Y-70078935D01*
X162448966Y-70037436D01*
X162421190Y-69985197D01*
X162421189Y-69985195D01*
X162418294Y-69979751D01*
X162352083Y-69898568D01*
X162295081Y-69828676D01*
X162295078Y-69828673D01*
X162291186Y-69823901D01*
X162282842Y-69816998D01*
X162140977Y-69699637D01*
X162140974Y-69699635D01*
X162136227Y-69695708D01*
X161959320Y-69600055D01*
X161853770Y-69567382D01*
X161773090Y-69542407D01*
X161773087Y-69542406D01*
X161767203Y-69540585D01*
X161761078Y-69539941D01*
X161761077Y-69539941D01*
X161573322Y-69520207D01*
X161573321Y-69520207D01*
X161567194Y-69519563D01*
X161483056Y-69527220D01*
X161373050Y-69537231D01*
X161373047Y-69537232D01*
X161366911Y-69537790D01*
X161361005Y-69539528D01*
X161361001Y-69539529D01*
X161242283Y-69574470D01*
X161173982Y-69594572D01*
X161104830Y-69630724D01*
X161012814Y-69678829D01*
X160995757Y-69687746D01*
X160839024Y-69813763D01*
X160709752Y-69967823D01*
X160706788Y-69973215D01*
X160706785Y-69973219D01*
X160634924Y-70103935D01*
X160612866Y-70144058D01*
X160611005Y-70149925D01*
X160611004Y-70149927D01*
X160587830Y-70222980D01*
X160552056Y-70335755D01*
X160551370Y-70341874D01*
X160529845Y-70533766D01*
X160502374Y-70599233D01*
X160493725Y-70608816D01*
X158778914Y-72323628D01*
X158770188Y-72330600D01*
X158770577Y-72331058D01*
X158763743Y-72336874D01*
X158756150Y-72341665D01*
X158750208Y-72348394D01*
X158750207Y-72348394D01*
X158722994Y-72379207D01*
X158717648Y-72384894D01*
X158707127Y-72395415D01*
X158701452Y-72402987D01*
X158695076Y-72410818D01*
X158665987Y-72443755D01*
X158662171Y-72451882D01*
X158658666Y-72457219D01*
X158654570Y-72464037D01*
X158651513Y-72469620D01*
X158646128Y-72476805D01*
X158642977Y-72485210D01*
X158642976Y-72485212D01*
X158630702Y-72517954D01*
X158626775Y-72527274D01*
X158608101Y-72567048D01*
X158606720Y-72575918D01*
X158604861Y-72581998D01*
X158602835Y-72589719D01*
X158601469Y-72595932D01*
X158598316Y-72604343D01*
X158597651Y-72613298D01*
X158595059Y-72648176D01*
X158593905Y-72658222D01*
X158592000Y-72670456D01*
X158592000Y-72684662D01*
X158591654Y-72693999D01*
X158588223Y-72740174D01*
X158590096Y-72748950D01*
X158590707Y-72757907D01*
X158590601Y-72757914D01*
X158592000Y-72771167D01*
X158592000Y-74265125D01*
X158571998Y-74333246D01*
X158518342Y-74379739D01*
X158454910Y-74388797D01*
X158454787Y-74390490D01*
X158450244Y-74390160D01*
X158445718Y-74389500D01*
X155879282Y-74389500D01*
X155874732Y-74390170D01*
X155874729Y-74390170D01*
X155820074Y-74398216D01*
X155820073Y-74398216D01*
X155810388Y-74399642D01*
X155760492Y-74424140D01*
X155714993Y-74446478D01*
X155714991Y-74446479D01*
X155705645Y-74451068D01*
X155623207Y-74533650D01*
X155571964Y-74638482D01*
X155562000Y-74706782D01*
X155562000Y-75153218D01*
X155562670Y-75157768D01*
X155562670Y-75157771D01*
X155572142Y-75222112D01*
X155570017Y-75222425D01*
X155570055Y-75273204D01*
X155571964Y-75273482D01*
X155568092Y-75300026D01*
X155562000Y-75341782D01*
X155562000Y-75788218D01*
X155562670Y-75792768D01*
X155562670Y-75792771D01*
X155572142Y-75857112D01*
X155570017Y-75857425D01*
X155570055Y-75908204D01*
X155571964Y-75908482D01*
X155562000Y-75976782D01*
X155562000Y-76423218D01*
X155562670Y-76427768D01*
X155562670Y-76427771D01*
X155572142Y-76492112D01*
X155570017Y-76492425D01*
X155570055Y-76543204D01*
X155571964Y-76543482D01*
X155562000Y-76611782D01*
X155562000Y-76868500D01*
X155541998Y-76936621D01*
X155488342Y-76983114D01*
X155436000Y-76994500D01*
X154942998Y-76994500D01*
X154874877Y-76974498D01*
X154853592Y-76957284D01*
X154833073Y-76936621D01*
X154778242Y-76881406D01*
X154767206Y-76874402D01*
X154722953Y-76846319D01*
X154636079Y-76791187D01*
X154477462Y-76734706D01*
X154470474Y-76733873D01*
X154470471Y-76733872D01*
X154377300Y-76722762D01*
X154310273Y-76714769D01*
X154303270Y-76715505D01*
X154303269Y-76715505D01*
X154257712Y-76720293D01*
X154142821Y-76732369D01*
X154136155Y-76734638D01*
X154136152Y-76734639D01*
X153990098Y-76784360D01*
X153990095Y-76784361D01*
X153983431Y-76786630D01*
X153977436Y-76790318D01*
X153977432Y-76790320D01*
X153846021Y-76871165D01*
X153846019Y-76871167D01*
X153840022Y-76874856D01*
X153794189Y-76919739D01*
X153738282Y-76974488D01*
X153719724Y-76992661D01*
X153628515Y-77134190D01*
X153626105Y-77140810D01*
X153626104Y-77140813D01*
X153610360Y-77184070D01*
X153570927Y-77292409D01*
X153549825Y-77459455D01*
X153550512Y-77466462D01*
X153550512Y-77466465D01*
X153558640Y-77549361D01*
X153566255Y-77627025D01*
X153619402Y-77786791D01*
X153623049Y-77792813D01*
X153623050Y-77792815D01*
X153697525Y-77915787D01*
X153706624Y-77930812D01*
X153711513Y-77935875D01*
X153711514Y-77935876D01*
X153730431Y-77955465D01*
X153789428Y-78016557D01*
X153790778Y-78017955D01*
X153823711Y-78080852D01*
X153817411Y-78151568D01*
X153788300Y-78195506D01*
X153755850Y-78227284D01*
X153719724Y-78262661D01*
X153628515Y-78404190D01*
X153626105Y-78410810D01*
X153626104Y-78410813D01*
X153610360Y-78454070D01*
X153570927Y-78562409D01*
X153549825Y-78729455D01*
X153550512Y-78736462D01*
X153550512Y-78736465D01*
X153554614Y-78778297D01*
X153566255Y-78897025D01*
X153619402Y-79056791D01*
X153623049Y-79062813D01*
X153623050Y-79062815D01*
X153700994Y-79191515D01*
X153706624Y-79200812D01*
X153711513Y-79205875D01*
X153711514Y-79205876D01*
X153757568Y-79253566D01*
X153823586Y-79321929D01*
X153829483Y-79325788D01*
X153958577Y-79410266D01*
X153958581Y-79410268D01*
X153964475Y-79414125D01*
X154122289Y-79472815D01*
X154129270Y-79473746D01*
X154129272Y-79473747D01*
X154174812Y-79479823D01*
X154289183Y-79495083D01*
X154296194Y-79494445D01*
X154296198Y-79494445D01*
X154449843Y-79480462D01*
X154456864Y-79479823D01*
X154463566Y-79477645D01*
X154463568Y-79477645D01*
X154610298Y-79429970D01*
X154610301Y-79429969D01*
X154616997Y-79427793D01*
X154761623Y-79341578D01*
X154766717Y-79336727D01*
X154766721Y-79336724D01*
X154857523Y-79250254D01*
X154920648Y-79217762D01*
X154944415Y-79215500D01*
X155669243Y-79215500D01*
X155724576Y-79228300D01*
X155737655Y-79234693D01*
X155810982Y-79270536D01*
X155841473Y-79274984D01*
X155874756Y-79279840D01*
X155874760Y-79279840D01*
X155879282Y-79280500D01*
X158445718Y-79280500D01*
X158450268Y-79279830D01*
X158450271Y-79279830D01*
X158504926Y-79271784D01*
X158504927Y-79271784D01*
X158514612Y-79270358D01*
X158585606Y-79235502D01*
X158610007Y-79223522D01*
X158610009Y-79223521D01*
X158619355Y-79218932D01*
X158689339Y-79148826D01*
X158694435Y-79143721D01*
X158694435Y-79143720D01*
X158701793Y-79136350D01*
X158706691Y-79126331D01*
X158732100Y-79074348D01*
X158753036Y-79031518D01*
X158763000Y-78963218D01*
X158763000Y-78706500D01*
X158783002Y-78638379D01*
X158836658Y-78591886D01*
X158889000Y-78580500D01*
X159952627Y-78580500D01*
X159963723Y-78581739D01*
X159963771Y-78581141D01*
X159972717Y-78581861D01*
X159981473Y-78583842D01*
X160031441Y-78580742D01*
X160039242Y-78580500D01*
X160054145Y-78580500D01*
X160063514Y-78579158D01*
X160073566Y-78578129D01*
X160117417Y-78575408D01*
X160125862Y-78572359D01*
X160132098Y-78571068D01*
X160139849Y-78569135D01*
X160145938Y-78567354D01*
X160154829Y-78566081D01*
X160166751Y-78560660D01*
X160194836Y-78547892D01*
X160204201Y-78544080D01*
X160237083Y-78532209D01*
X160237086Y-78532207D01*
X160245530Y-78529159D01*
X160252777Y-78523864D01*
X160258407Y-78520871D01*
X160265257Y-78516868D01*
X160270644Y-78513423D01*
X160278820Y-78509706D01*
X160312113Y-78481019D01*
X160320029Y-78474734D01*
X160326101Y-78470298D01*
X160326108Y-78470292D01*
X160330035Y-78467423D01*
X160340076Y-78457382D01*
X160346923Y-78451024D01*
X160375202Y-78426657D01*
X160382004Y-78420796D01*
X160386888Y-78413261D01*
X160392787Y-78406499D01*
X160392867Y-78406569D01*
X160401252Y-78396206D01*
X160734564Y-78062894D01*
X160796876Y-78028868D01*
X160823659Y-78025989D01*
X162492138Y-78025989D01*
X162503234Y-78027228D01*
X162503282Y-78026630D01*
X162512228Y-78027350D01*
X162520984Y-78029331D01*
X162570952Y-78026231D01*
X162578753Y-78025989D01*
X162593656Y-78025989D01*
X162603025Y-78024647D01*
X162613077Y-78023618D01*
X162656928Y-78020897D01*
X162665373Y-78017848D01*
X162671609Y-78016557D01*
X162679360Y-78014624D01*
X162685449Y-78012843D01*
X162694340Y-78011570D01*
X162716196Y-78001633D01*
X162734347Y-77993381D01*
X162743712Y-77989569D01*
X162776594Y-77977698D01*
X162776597Y-77977696D01*
X162785041Y-77974648D01*
X162792288Y-77969353D01*
X162797918Y-77966360D01*
X162804768Y-77962357D01*
X162810155Y-77958912D01*
X162818331Y-77955195D01*
X162825132Y-77949335D01*
X162851624Y-77926508D01*
X162859540Y-77920223D01*
X162865612Y-77915787D01*
X162865619Y-77915781D01*
X162869546Y-77912912D01*
X162872983Y-77909475D01*
X162872990Y-77909469D01*
X162879587Y-77902871D01*
X162886434Y-77896513D01*
X162914713Y-77872146D01*
X162921515Y-77866285D01*
X162926399Y-77858750D01*
X162932298Y-77851988D01*
X162932378Y-77852058D01*
X162940763Y-77841695D01*
X163199071Y-77583387D01*
X163261383Y-77549361D01*
X163327097Y-77552647D01*
X163332865Y-77554521D01*
X163332869Y-77554522D01*
X163338723Y-77556424D01*
X163344833Y-77557153D01*
X163344835Y-77557153D01*
X163409026Y-77564807D01*
X163538420Y-77580236D01*
X163544555Y-77579764D01*
X163544557Y-77579764D01*
X163732796Y-77565280D01*
X163732800Y-77565279D01*
X163738938Y-77564807D01*
X163794259Y-77549361D01*
X163926696Y-77512384D01*
X163926700Y-77512383D01*
X163932640Y-77510724D01*
X163938144Y-77507944D01*
X163938146Y-77507943D01*
X164106646Y-77422828D01*
X164106648Y-77422827D01*
X164112149Y-77420048D01*
X164270627Y-77296232D01*
X164402037Y-77143992D01*
X164411964Y-77126518D01*
X164498329Y-76974488D01*
X164498331Y-76974484D01*
X164501374Y-76969127D01*
X164504441Y-76959907D01*
X164505500Y-76958381D01*
X164505827Y-76957647D01*
X164505967Y-76957709D01*
X164544923Y-76901582D01*
X164610510Y-76874402D01*
X164680381Y-76886996D01*
X164732351Y-76935366D01*
X164750000Y-76999678D01*
X164750000Y-80098262D01*
X164729998Y-80166383D01*
X164676342Y-80212876D01*
X164606068Y-80222980D01*
X164541488Y-80193486D01*
X164514725Y-80156249D01*
X164512710Y-80157321D01*
X164421190Y-79985197D01*
X164421189Y-79985195D01*
X164418294Y-79979751D01*
X164371083Y-79921865D01*
X164295081Y-79828676D01*
X164295078Y-79828673D01*
X164291186Y-79823901D01*
X164240846Y-79782256D01*
X164140977Y-79699637D01*
X164140974Y-79699635D01*
X164136227Y-79695708D01*
X163959320Y-79600055D01*
X163812220Y-79554520D01*
X163773090Y-79542407D01*
X163773087Y-79542406D01*
X163767203Y-79540585D01*
X163761078Y-79539941D01*
X163761077Y-79539941D01*
X163573322Y-79520207D01*
X163573321Y-79520207D01*
X163567194Y-79519563D01*
X163483056Y-79527220D01*
X163373050Y-79537231D01*
X163373047Y-79537232D01*
X163366911Y-79537790D01*
X163361001Y-79539529D01*
X163360998Y-79539530D01*
X163325365Y-79550017D01*
X163254368Y-79550061D01*
X163200696Y-79518238D01*
X162944361Y-79261903D01*
X162937389Y-79253177D01*
X162936931Y-79253566D01*
X162931115Y-79246732D01*
X162926324Y-79239139D01*
X162888782Y-79205983D01*
X162883095Y-79200637D01*
X162872574Y-79190116D01*
X162865002Y-79184441D01*
X162857171Y-79178065D01*
X162830963Y-79154919D01*
X162830964Y-79154919D01*
X162824234Y-79148976D01*
X162816107Y-79145160D01*
X162810770Y-79141655D01*
X162803952Y-79137559D01*
X162798369Y-79134502D01*
X162791184Y-79129117D01*
X162782779Y-79125966D01*
X162782777Y-79125965D01*
X162750035Y-79113691D01*
X162740715Y-79109764D01*
X162725739Y-79102733D01*
X162700941Y-79091090D01*
X162692071Y-79089709D01*
X162685991Y-79087850D01*
X162678270Y-79085824D01*
X162672057Y-79084458D01*
X162663646Y-79081305D01*
X162636609Y-79079296D01*
X162619813Y-79078048D01*
X162609766Y-79076894D01*
X162602344Y-79075738D01*
X162602342Y-79075738D01*
X162597533Y-79074989D01*
X162583327Y-79074989D01*
X162573990Y-79074643D01*
X162559818Y-79073590D01*
X162527815Y-79071212D01*
X162519039Y-79073085D01*
X162510082Y-79073696D01*
X162510075Y-79073590D01*
X162496822Y-79074989D01*
X161213361Y-79074989D01*
X161202265Y-79073750D01*
X161202217Y-79074348D01*
X161193271Y-79073628D01*
X161184515Y-79071647D01*
X161136224Y-79074643D01*
X161134548Y-79074747D01*
X161126746Y-79074989D01*
X161111843Y-79074989D01*
X161102474Y-79076331D01*
X161092422Y-79077360D01*
X161073811Y-79078515D01*
X161057528Y-79079525D01*
X161057526Y-79079525D01*
X161048571Y-79080081D01*
X161040131Y-79083128D01*
X161033906Y-79084417D01*
X161026140Y-79086353D01*
X161020044Y-79088135D01*
X161011159Y-79089408D01*
X161002988Y-79093123D01*
X161002985Y-79093124D01*
X160971147Y-79107600D01*
X160961784Y-79111412D01*
X160920458Y-79126331D01*
X160913208Y-79131627D01*
X160907581Y-79134619D01*
X160900674Y-79138655D01*
X160895336Y-79142069D01*
X160887168Y-79145783D01*
X160865418Y-79164524D01*
X160853879Y-79174467D01*
X160845964Y-79180753D01*
X160835953Y-79188066D01*
X160825912Y-79198107D01*
X160819065Y-79204465D01*
X160783984Y-79234693D01*
X160779100Y-79242228D01*
X160773201Y-79248990D01*
X160773121Y-79248920D01*
X160764736Y-79259283D01*
X159891424Y-80132595D01*
X159829112Y-80166621D01*
X159802329Y-80169500D01*
X158655757Y-80169500D01*
X158600424Y-80156700D01*
X158551110Y-80132595D01*
X158514018Y-80114464D01*
X158483527Y-80110016D01*
X158450244Y-80105160D01*
X158450240Y-80105160D01*
X158445718Y-80104500D01*
X155879282Y-80104500D01*
X155874732Y-80105170D01*
X155874729Y-80105170D01*
X155820074Y-80113216D01*
X155820073Y-80113216D01*
X155810388Y-80114642D01*
X155773822Y-80132595D01*
X155714993Y-80161478D01*
X155714991Y-80161479D01*
X155705645Y-80166068D01*
X155623207Y-80248650D01*
X155571964Y-80353482D01*
X155562000Y-80421782D01*
X155562000Y-80868218D01*
X155562670Y-80872768D01*
X155562670Y-80872771D01*
X155572142Y-80937112D01*
X155570017Y-80937425D01*
X155570055Y-80988204D01*
X155571964Y-80988482D01*
X155564178Y-81041855D01*
X155562000Y-81056782D01*
X155562000Y-81503218D01*
X155562670Y-81507768D01*
X155562670Y-81507771D01*
X155572142Y-81572112D01*
X155570017Y-81572425D01*
X155570055Y-81623204D01*
X155571964Y-81623482D01*
X155562000Y-81691782D01*
X155562000Y-82138218D01*
X155572142Y-82207112D01*
X155623568Y-82311855D01*
X155642617Y-82330871D01*
X155690966Y-82379135D01*
X155706150Y-82394293D01*
X155793034Y-82436763D01*
X155845450Y-82484647D01*
X155863657Y-82553270D01*
X155841873Y-82620842D01*
X155793231Y-82663065D01*
X155714993Y-82701478D01*
X155714991Y-82701479D01*
X155705645Y-82706068D01*
X155623207Y-82788650D01*
X155571964Y-82893482D01*
X155562000Y-82961782D01*
X155562000Y-83408218D01*
X155562670Y-83412768D01*
X155562670Y-83412771D01*
X155572142Y-83477112D01*
X155570017Y-83477425D01*
X155570055Y-83528204D01*
X155571964Y-83528482D01*
X155569933Y-83542407D01*
X155562000Y-83596782D01*
X155562000Y-84043218D01*
X155562670Y-84047768D01*
X155562670Y-84047771D01*
X155572142Y-84112112D01*
X155570017Y-84112425D01*
X155570055Y-84163204D01*
X155571964Y-84163482D01*
X155563081Y-84224374D01*
X155562000Y-84231782D01*
X155562000Y-84678218D01*
X155562670Y-84682768D01*
X155562670Y-84682771D01*
X155572142Y-84747112D01*
X155570017Y-84747425D01*
X155570055Y-84798204D01*
X155571964Y-84798482D01*
X155562000Y-84866782D01*
X155562000Y-85313218D01*
X155562670Y-85317768D01*
X155562670Y-85317771D01*
X155572142Y-85382112D01*
X155570017Y-85382425D01*
X155570055Y-85433204D01*
X155571964Y-85433482D01*
X155563680Y-85490269D01*
X155562000Y-85501782D01*
X155562000Y-85758500D01*
X155541998Y-85826621D01*
X155488342Y-85873114D01*
X155436000Y-85884500D01*
X154942998Y-85884500D01*
X154874877Y-85864498D01*
X154853592Y-85847284D01*
X154783204Y-85776403D01*
X154778242Y-85771406D01*
X154757906Y-85758500D01*
X154722953Y-85736319D01*
X154636079Y-85681187D01*
X154477462Y-85624706D01*
X154470474Y-85623873D01*
X154470471Y-85623872D01*
X154367062Y-85611541D01*
X154310273Y-85604769D01*
X154303270Y-85605505D01*
X154303269Y-85605505D01*
X154257712Y-85610293D01*
X154142821Y-85622369D01*
X154136155Y-85624638D01*
X154136152Y-85624639D01*
X153990098Y-85674360D01*
X153990095Y-85674361D01*
X153983431Y-85676630D01*
X153977436Y-85680318D01*
X153977432Y-85680320D01*
X153846021Y-85761165D01*
X153846019Y-85761167D01*
X153840022Y-85764856D01*
X153719724Y-85882661D01*
X153628515Y-86024190D01*
X153570927Y-86182409D01*
X153549825Y-86349455D01*
X153566255Y-86517025D01*
X153619402Y-86676791D01*
X153623049Y-86682813D01*
X153623050Y-86682815D01*
X153632058Y-86697688D01*
X153706624Y-86820812D01*
X153711513Y-86825875D01*
X153711514Y-86825876D01*
X153775015Y-86891633D01*
X153823586Y-86941929D01*
X153829483Y-86945788D01*
X153958577Y-87030266D01*
X153958581Y-87030268D01*
X153964475Y-87034125D01*
X154122289Y-87092815D01*
X154129270Y-87093746D01*
X154129272Y-87093747D01*
X154174812Y-87099823D01*
X154289183Y-87115083D01*
X154296194Y-87114445D01*
X154296198Y-87114445D01*
X154449843Y-87100462D01*
X154456864Y-87099823D01*
X154463566Y-87097645D01*
X154463568Y-87097645D01*
X154610298Y-87049970D01*
X154610301Y-87049969D01*
X154616997Y-87047793D01*
X154761623Y-86961578D01*
X154766717Y-86956727D01*
X154766721Y-86956724D01*
X154857523Y-86870254D01*
X154920648Y-86837762D01*
X154944415Y-86835500D01*
X155436000Y-86835500D01*
X155504121Y-86855502D01*
X155550614Y-86909158D01*
X155562000Y-86961500D01*
X155562000Y-87218218D01*
X155562670Y-87222768D01*
X155562670Y-87222771D01*
X155572142Y-87287112D01*
X155570017Y-87287425D01*
X155570055Y-87338204D01*
X155571964Y-87338482D01*
X155564132Y-87392170D01*
X155562000Y-87406782D01*
X155562000Y-87853218D01*
X155562670Y-87857768D01*
X155562670Y-87857771D01*
X155572142Y-87922112D01*
X155570017Y-87922425D01*
X155570055Y-87973204D01*
X155571964Y-87973482D01*
X155563896Y-88028788D01*
X155562000Y-88041782D01*
X155562000Y-88488218D01*
X155562670Y-88492768D01*
X155562670Y-88492771D01*
X155572142Y-88557112D01*
X155570017Y-88557425D01*
X155570055Y-88608204D01*
X155571964Y-88608482D01*
X155562000Y-88676782D01*
X155562000Y-89123218D01*
X155562670Y-89127768D01*
X155562670Y-89127771D01*
X155572142Y-89192112D01*
X155570017Y-89192425D01*
X155570055Y-89243204D01*
X155571964Y-89243482D01*
X155564269Y-89296232D01*
X155562000Y-89311782D01*
X155562000Y-89758218D01*
X155562670Y-89762768D01*
X155562670Y-89762771D01*
X155572142Y-89827112D01*
X155570017Y-89827425D01*
X155570055Y-89878204D01*
X155571964Y-89878482D01*
X155569322Y-89896595D01*
X155562000Y-89946782D01*
X155562000Y-90393218D01*
X155562670Y-90397768D01*
X155562670Y-90397771D01*
X155570716Y-90452426D01*
X155572142Y-90462112D01*
X155596640Y-90512008D01*
X155615293Y-90550000D01*
X155623568Y-90566855D01*
X155706150Y-90649293D01*
X155810982Y-90700536D01*
X155841473Y-90704984D01*
X155874756Y-90709840D01*
X155874760Y-90709840D01*
X155879282Y-90710500D01*
X158201960Y-90710500D01*
X158270081Y-90730502D01*
X158316574Y-90784158D01*
X158327960Y-90836500D01*
X158327960Y-92061087D01*
X158326721Y-92072183D01*
X158327319Y-92072231D01*
X158326599Y-92081177D01*
X158324618Y-92089933D01*
X158325174Y-92098893D01*
X158327718Y-92139900D01*
X158327960Y-92147702D01*
X158327960Y-92162605D01*
X158328911Y-92169243D01*
X158329301Y-92171968D01*
X158330331Y-92182026D01*
X158333052Y-92225877D01*
X158336101Y-92234322D01*
X158337392Y-92240558D01*
X158339325Y-92248309D01*
X158341106Y-92254398D01*
X158342379Y-92263289D01*
X158346096Y-92271464D01*
X158360568Y-92303296D01*
X158364380Y-92312661D01*
X158376251Y-92345543D01*
X158376253Y-92345546D01*
X158379301Y-92353990D01*
X158384596Y-92361237D01*
X158387589Y-92366867D01*
X158391592Y-92373717D01*
X158395037Y-92379104D01*
X158398754Y-92387280D01*
X158404614Y-92394080D01*
X158404614Y-92394081D01*
X158427441Y-92420573D01*
X158433726Y-92428489D01*
X158438162Y-92434561D01*
X158438168Y-92434568D01*
X158441037Y-92438495D01*
X158451078Y-92448536D01*
X158457436Y-92455383D01*
X158487664Y-92490464D01*
X158495199Y-92495348D01*
X158501961Y-92501247D01*
X158501891Y-92501327D01*
X158512254Y-92509712D01*
X160497595Y-94495054D01*
X160531621Y-94557366D01*
X160534500Y-94584149D01*
X160534500Y-95258218D01*
X160535170Y-95262768D01*
X160535170Y-95262771D01*
X160541373Y-95304906D01*
X160544642Y-95327112D01*
X160561747Y-95361951D01*
X160590135Y-95419770D01*
X160596068Y-95431855D01*
X160678650Y-95514293D01*
X160783482Y-95565536D01*
X160813973Y-95569984D01*
X160847256Y-95574840D01*
X160847260Y-95574840D01*
X160851782Y-95575500D01*
X162268218Y-95575500D01*
X162272768Y-95574830D01*
X162272771Y-95574830D01*
X162327426Y-95566784D01*
X162327427Y-95566784D01*
X162337112Y-95565358D01*
X162431804Y-95518867D01*
X162432507Y-95518522D01*
X162432509Y-95518521D01*
X162441855Y-95513932D01*
X162524293Y-95431350D01*
X162529954Y-95419770D01*
X162558216Y-95361951D01*
X162575536Y-95326518D01*
X162578689Y-95304906D01*
X162608317Y-95240386D01*
X162668123Y-95202127D01*
X162739119Y-95202275D01*
X162802115Y-95244833D01*
X162814920Y-95260990D01*
X162814923Y-95260993D01*
X162818748Y-95265819D01*
X162823442Y-95269814D01*
X162963485Y-95389000D01*
X162971901Y-95396163D01*
X162977279Y-95399169D01*
X162977281Y-95399170D01*
X163048050Y-95438721D01*
X163147456Y-95494277D01*
X163338723Y-95556424D01*
X163538420Y-95580236D01*
X163544555Y-95579764D01*
X163544557Y-95579764D01*
X163732796Y-95565280D01*
X163732800Y-95565279D01*
X163738938Y-95564807D01*
X163775782Y-95554520D01*
X163926696Y-95512384D01*
X163926700Y-95512383D01*
X163932640Y-95510724D01*
X163938144Y-95507944D01*
X163938146Y-95507943D01*
X164106646Y-95422828D01*
X164106648Y-95422827D01*
X164112149Y-95420048D01*
X164218884Y-95336658D01*
X164265771Y-95300026D01*
X164265772Y-95300025D01*
X164270627Y-95296232D01*
X164348494Y-95206022D01*
X164398008Y-95148660D01*
X164398009Y-95148658D01*
X164402037Y-95143992D01*
X164405082Y-95138632D01*
X164498329Y-94974488D01*
X164498331Y-94974484D01*
X164501374Y-94969127D01*
X164504441Y-94959907D01*
X164505500Y-94958381D01*
X164505827Y-94957647D01*
X164505967Y-94957709D01*
X164544923Y-94901582D01*
X164610510Y-94874402D01*
X164680381Y-94886996D01*
X164732351Y-94935366D01*
X164750000Y-94999678D01*
X164750000Y-99022535D01*
X164748449Y-99042246D01*
X164745637Y-99060000D01*
X164747188Y-99069793D01*
X164747188Y-99077630D01*
X164747963Y-99093665D01*
X164734492Y-99316368D01*
X164732658Y-99331472D01*
X164687736Y-99576603D01*
X164684095Y-99591376D01*
X164612139Y-99822293D01*
X164609952Y-99829310D01*
X164604558Y-99843533D01*
X164502273Y-100070801D01*
X164495211Y-100084257D01*
X164490364Y-100092275D01*
X164366278Y-100297538D01*
X164357636Y-100310058D01*
X164260990Y-100433418D01*
X164203934Y-100506244D01*
X164193844Y-100517632D01*
X164017632Y-100693844D01*
X164006244Y-100703934D01*
X163810060Y-100857635D01*
X163797539Y-100866277D01*
X163584257Y-100995211D01*
X163570801Y-101002273D01*
X163343533Y-101104558D01*
X163329315Y-101109950D01*
X163116256Y-101176342D01*
X163091376Y-101184095D01*
X163076603Y-101187736D01*
X162831472Y-101232658D01*
X162816368Y-101234492D01*
X162593665Y-101247963D01*
X162577630Y-101247188D01*
X162569793Y-101247188D01*
X162560000Y-101245637D01*
X162550208Y-101247188D01*
X162542246Y-101248449D01*
X162522535Y-101250000D01*
X158497643Y-101250000D01*
X158429522Y-101229998D01*
X158383029Y-101176342D01*
X158372925Y-101106068D01*
X158402419Y-101041488D01*
X158440833Y-101011534D01*
X158461151Y-101001271D01*
X158602149Y-100930048D01*
X158760627Y-100806232D01*
X158892037Y-100653992D01*
X158912364Y-100618210D01*
X158988329Y-100484488D01*
X158988331Y-100484484D01*
X158991374Y-100479127D01*
X159045672Y-100315900D01*
X159052909Y-100294145D01*
X159052910Y-100294142D01*
X159054854Y-100288297D01*
X159080060Y-100088772D01*
X159080462Y-100060000D01*
X159060837Y-99859849D01*
X159002710Y-99667321D01*
X158908294Y-99489751D01*
X158823565Y-99385863D01*
X158785081Y-99338676D01*
X158785078Y-99338673D01*
X158781186Y-99333901D01*
X158769188Y-99323975D01*
X158630977Y-99209637D01*
X158630974Y-99209635D01*
X158626227Y-99205708D01*
X158449320Y-99110055D01*
X158344694Y-99077668D01*
X158263090Y-99052407D01*
X158263087Y-99052406D01*
X158257203Y-99050585D01*
X158251078Y-99049941D01*
X158251077Y-99049941D01*
X158063322Y-99030207D01*
X158063321Y-99030207D01*
X158057194Y-99029563D01*
X157973056Y-99037220D01*
X157863050Y-99047231D01*
X157863047Y-99047232D01*
X157856911Y-99047790D01*
X157851005Y-99049528D01*
X157851001Y-99049529D01*
X157747695Y-99079934D01*
X157663982Y-99104572D01*
X157646336Y-99113797D01*
X157511504Y-99184286D01*
X157485757Y-99197746D01*
X157329024Y-99323763D01*
X157199752Y-99477823D01*
X157196788Y-99483215D01*
X157196785Y-99483219D01*
X157145447Y-99576603D01*
X157102866Y-99654058D01*
X157101005Y-99659925D01*
X157101004Y-99659927D01*
X157096787Y-99673221D01*
X157042056Y-99845755D01*
X157019638Y-100045613D01*
X157036467Y-100246018D01*
X157091901Y-100439338D01*
X157183828Y-100618210D01*
X157187651Y-100623034D01*
X157187654Y-100623038D01*
X157215888Y-100658660D01*
X157308748Y-100775819D01*
X157461901Y-100906163D01*
X157467279Y-100909169D01*
X157467281Y-100909170D01*
X157632077Y-101001271D01*
X157637456Y-101004277D01*
X157643315Y-101006181D01*
X157648713Y-101008539D01*
X157703128Y-101054140D01*
X157724251Y-101121922D01*
X157705375Y-101190363D01*
X157652493Y-101237735D01*
X157598268Y-101250000D01*
X154497643Y-101250000D01*
X154429522Y-101229998D01*
X154383029Y-101176342D01*
X154372925Y-101106068D01*
X154402419Y-101041488D01*
X154440833Y-101011534D01*
X154461151Y-101001271D01*
X154602149Y-100930048D01*
X154760627Y-100806232D01*
X154892037Y-100653992D01*
X154912364Y-100618210D01*
X154988329Y-100484488D01*
X154988331Y-100484484D01*
X154991374Y-100479127D01*
X155045672Y-100315900D01*
X155052909Y-100294145D01*
X155052910Y-100294142D01*
X155054854Y-100288297D01*
X155080060Y-100088772D01*
X155080462Y-100060000D01*
X155060837Y-99859849D01*
X155050577Y-99825866D01*
X155050036Y-99754872D01*
X155082104Y-99700354D01*
X155339075Y-99443383D01*
X155347801Y-99436411D01*
X155347412Y-99435953D01*
X155354246Y-99430137D01*
X155361839Y-99425346D01*
X155394995Y-99387804D01*
X155400341Y-99382117D01*
X155410862Y-99371596D01*
X155416537Y-99364024D01*
X155422913Y-99356193D01*
X155446059Y-99329985D01*
X155452002Y-99323256D01*
X155455818Y-99315129D01*
X155459323Y-99309792D01*
X155463419Y-99302974D01*
X155466476Y-99297391D01*
X155471861Y-99290206D01*
X155487287Y-99249057D01*
X155491214Y-99239737D01*
X155492724Y-99236521D01*
X155509888Y-99199963D01*
X155511269Y-99191093D01*
X155513128Y-99185013D01*
X155515154Y-99177292D01*
X155516520Y-99171079D01*
X155519673Y-99162668D01*
X155522044Y-99130754D01*
X155547038Y-99064302D01*
X155603991Y-99021912D01*
X155674820Y-99017043D01*
X155686628Y-99020254D01*
X155828723Y-99066424D01*
X156028420Y-99090236D01*
X156034555Y-99089764D01*
X156034557Y-99089764D01*
X156222796Y-99075280D01*
X156222800Y-99075279D01*
X156228938Y-99074807D01*
X156281970Y-99060000D01*
X156416696Y-99022384D01*
X156416700Y-99022383D01*
X156422640Y-99020724D01*
X156428144Y-99017944D01*
X156428146Y-99017943D01*
X156596646Y-98932828D01*
X156596648Y-98932827D01*
X156602149Y-98930048D01*
X156681388Y-98868140D01*
X156755771Y-98810026D01*
X156755772Y-98810025D01*
X156760627Y-98806232D01*
X156892037Y-98653992D01*
X156961001Y-98532594D01*
X156988329Y-98484488D01*
X156988331Y-98484484D01*
X156991374Y-98479127D01*
X157048839Y-98306379D01*
X157052909Y-98294145D01*
X157052910Y-98294142D01*
X157054854Y-98288297D01*
X157080060Y-98088772D01*
X157080462Y-98060000D01*
X157060837Y-97859849D01*
X157002710Y-97667321D01*
X156908294Y-97489751D01*
X156817574Y-97378517D01*
X156785081Y-97338676D01*
X156785078Y-97338673D01*
X156781186Y-97333901D01*
X156774638Y-97328484D01*
X156630977Y-97209637D01*
X156630974Y-97209635D01*
X156626227Y-97205708D01*
X156449320Y-97110055D01*
X156306562Y-97065864D01*
X156263090Y-97052407D01*
X156263087Y-97052406D01*
X156257203Y-97050585D01*
X156251078Y-97049941D01*
X156251077Y-97049941D01*
X156063322Y-97030207D01*
X156063321Y-97030207D01*
X156057194Y-97029563D01*
X155973056Y-97037220D01*
X155863050Y-97047231D01*
X155863047Y-97047232D01*
X155856911Y-97047790D01*
X155851005Y-97049528D01*
X155851001Y-97049529D01*
X155760606Y-97076134D01*
X155663982Y-97104572D01*
X155637312Y-97118515D01*
X155491217Y-97194891D01*
X155491213Y-97194894D01*
X155485757Y-97197746D01*
X155480957Y-97201606D01*
X155480956Y-97201606D01*
X155456331Y-97221405D01*
X155390708Y-97248501D01*
X155320854Y-97235818D01*
X155288284Y-97212303D01*
X154624895Y-96548914D01*
X154617923Y-96540188D01*
X154617465Y-96540577D01*
X154611649Y-96533743D01*
X154606858Y-96526150D01*
X154569316Y-96492994D01*
X154563629Y-96487648D01*
X154553108Y-96477127D01*
X154545536Y-96471452D01*
X154537705Y-96465076D01*
X154511497Y-96441930D01*
X154511498Y-96441930D01*
X154504768Y-96435987D01*
X154496641Y-96432171D01*
X154491304Y-96428666D01*
X154484486Y-96424570D01*
X154478903Y-96421513D01*
X154471718Y-96416128D01*
X154463313Y-96412977D01*
X154463311Y-96412976D01*
X154430569Y-96400702D01*
X154421249Y-96396775D01*
X154411990Y-96392428D01*
X154381475Y-96378101D01*
X154372605Y-96376720D01*
X154366525Y-96374861D01*
X154358804Y-96372835D01*
X154352591Y-96371469D01*
X154344180Y-96368316D01*
X154317143Y-96366307D01*
X154300347Y-96365059D01*
X154290300Y-96363905D01*
X154282878Y-96362749D01*
X154282876Y-96362749D01*
X154278067Y-96362000D01*
X154263861Y-96362000D01*
X154254524Y-96361654D01*
X154240352Y-96360601D01*
X154208349Y-96358223D01*
X154199573Y-96360096D01*
X154190616Y-96360707D01*
X154190609Y-96360601D01*
X154177356Y-96362000D01*
X153712366Y-96362000D01*
X153644245Y-96341998D01*
X153623271Y-96325095D01*
X152722053Y-95423877D01*
X152688027Y-95361565D01*
X152693092Y-95290750D01*
X152735639Y-95233914D01*
X152755617Y-95221679D01*
X152787507Y-95206022D01*
X152787509Y-95206021D01*
X152796855Y-95201432D01*
X152854195Y-95143992D01*
X152871935Y-95126221D01*
X152871935Y-95126220D01*
X152879293Y-95118850D01*
X152888470Y-95100077D01*
X152926240Y-95022806D01*
X152930536Y-95014018D01*
X152939261Y-94954210D01*
X152939840Y-94950244D01*
X152939840Y-94950240D01*
X152940500Y-94945718D01*
X152940500Y-92379282D01*
X152939081Y-92369638D01*
X152931784Y-92320074D01*
X152931784Y-92320073D01*
X152930358Y-92310388D01*
X152888397Y-92224923D01*
X152875500Y-92169392D01*
X152875500Y-91442606D01*
X152895502Y-91374485D01*
X152914608Y-91351360D01*
X152973454Y-91295322D01*
X152973455Y-91295320D01*
X152978554Y-91290465D01*
X152994934Y-91265812D01*
X153067836Y-91156085D01*
X153071731Y-91150223D01*
X153131521Y-90992823D01*
X153154955Y-90826088D01*
X153155249Y-90805000D01*
X153144972Y-90713379D01*
X153137266Y-90644672D01*
X153137265Y-90644669D01*
X153136481Y-90637676D01*
X153081108Y-90478668D01*
X152991884Y-90335879D01*
X152983723Y-90327661D01*
X152878205Y-90221403D01*
X152878201Y-90221400D01*
X152873242Y-90216406D01*
X152852170Y-90203033D01*
X152794418Y-90166383D01*
X152731079Y-90126187D01*
X152572462Y-90069706D01*
X152565474Y-90068873D01*
X152565471Y-90068872D01*
X152472300Y-90057762D01*
X152405273Y-90049769D01*
X152398270Y-90050505D01*
X152398269Y-90050505D01*
X152352712Y-90055293D01*
X152237821Y-90067369D01*
X152231155Y-90069638D01*
X152231152Y-90069639D01*
X152085098Y-90119360D01*
X152085095Y-90119361D01*
X152078431Y-90121630D01*
X152072436Y-90125318D01*
X152072432Y-90125320D01*
X151941021Y-90206165D01*
X151941019Y-90206167D01*
X151935022Y-90209856D01*
X151814724Y-90327661D01*
X151723515Y-90469190D01*
X151665927Y-90627409D01*
X151644825Y-90794455D01*
X151645512Y-90801462D01*
X151645512Y-90801465D01*
X151654399Y-90892104D01*
X151661255Y-90962025D01*
X151714402Y-91121791D01*
X151801624Y-91265812D01*
X151806513Y-91270875D01*
X151806514Y-91270876D01*
X151889137Y-91356434D01*
X151922069Y-91419330D01*
X151924500Y-91443961D01*
X151924500Y-91936000D01*
X151904498Y-92004121D01*
X151850842Y-92050614D01*
X151798500Y-92062000D01*
X151541782Y-92062000D01*
X151537232Y-92062670D01*
X151537229Y-92062670D01*
X151472888Y-92072142D01*
X151472575Y-92070017D01*
X151421796Y-92070055D01*
X151421518Y-92071964D01*
X151357744Y-92062660D01*
X151357740Y-92062660D01*
X151353218Y-92062000D01*
X150906782Y-92062000D01*
X150902232Y-92062670D01*
X150902229Y-92062670D01*
X150837888Y-92072142D01*
X150837575Y-92070017D01*
X150786796Y-92070055D01*
X150786518Y-92071964D01*
X150722744Y-92062660D01*
X150722740Y-92062660D01*
X150718218Y-92062000D01*
X150271782Y-92062000D01*
X150267232Y-92062670D01*
X150267229Y-92062670D01*
X150202888Y-92072142D01*
X150202575Y-92070017D01*
X150151796Y-92070055D01*
X150151518Y-92071964D01*
X150087744Y-92062660D01*
X150087740Y-92062660D01*
X150083218Y-92062000D01*
X149636782Y-92062000D01*
X149632232Y-92062670D01*
X149632229Y-92062670D01*
X149567888Y-92072142D01*
X149567575Y-92070017D01*
X149516796Y-92070055D01*
X149516518Y-92071964D01*
X149452744Y-92062660D01*
X149452740Y-92062660D01*
X149448218Y-92062000D01*
X149191500Y-92062000D01*
X149123379Y-92041998D01*
X149076886Y-91988342D01*
X149065500Y-91936000D01*
X149065500Y-91442606D01*
X149085502Y-91374485D01*
X149104608Y-91351360D01*
X149163454Y-91295322D01*
X149163455Y-91295320D01*
X149168554Y-91290465D01*
X149184934Y-91265812D01*
X149257836Y-91156085D01*
X149261731Y-91150223D01*
X149321521Y-90992823D01*
X149344955Y-90826088D01*
X149345249Y-90805000D01*
X149334972Y-90713379D01*
X149327266Y-90644672D01*
X149327265Y-90644669D01*
X149326481Y-90637676D01*
X149271108Y-90478668D01*
X149181884Y-90335879D01*
X149173723Y-90327661D01*
X149068205Y-90221403D01*
X149068201Y-90221400D01*
X149063242Y-90216406D01*
X149042170Y-90203033D01*
X148984418Y-90166383D01*
X148921079Y-90126187D01*
X148762462Y-90069706D01*
X148755474Y-90068873D01*
X148755471Y-90068872D01*
X148662300Y-90057762D01*
X148595273Y-90049769D01*
X148588270Y-90050505D01*
X148588269Y-90050505D01*
X148542712Y-90055293D01*
X148427821Y-90067369D01*
X148421155Y-90069638D01*
X148421152Y-90069639D01*
X148275098Y-90119360D01*
X148275095Y-90119361D01*
X148268431Y-90121630D01*
X148262436Y-90125318D01*
X148262432Y-90125320D01*
X148131021Y-90206165D01*
X148131019Y-90206167D01*
X148125022Y-90209856D01*
X148004724Y-90327661D01*
X147913515Y-90469190D01*
X147855927Y-90627409D01*
X147834825Y-90794455D01*
X147835512Y-90801462D01*
X147835512Y-90801465D01*
X147844399Y-90892104D01*
X147851255Y-90962025D01*
X147904402Y-91121791D01*
X147991624Y-91265812D01*
X147996513Y-91270875D01*
X147996514Y-91270876D01*
X148079137Y-91356434D01*
X148112069Y-91419330D01*
X148114500Y-91443961D01*
X148114500Y-92169243D01*
X148101700Y-92224576D01*
X148068238Y-92293033D01*
X148020353Y-92345449D01*
X147951731Y-92363657D01*
X147884158Y-92341873D01*
X147841935Y-92293231D01*
X147803522Y-92214993D01*
X147803521Y-92214991D01*
X147798932Y-92205645D01*
X147740888Y-92147702D01*
X147723721Y-92130565D01*
X147723720Y-92130565D01*
X147716350Y-92123207D01*
X147611518Y-92071964D01*
X147581027Y-92067516D01*
X147547744Y-92062660D01*
X147547740Y-92062660D01*
X147543218Y-92062000D01*
X147286500Y-92062000D01*
X147218379Y-92041998D01*
X147171886Y-91988342D01*
X147160500Y-91936000D01*
X147160500Y-91442606D01*
X147180502Y-91374485D01*
X147199608Y-91351360D01*
X147258454Y-91295322D01*
X147258455Y-91295320D01*
X147263554Y-91290465D01*
X147279934Y-91265812D01*
X147352836Y-91156085D01*
X147356731Y-91150223D01*
X147416521Y-90992823D01*
X147439955Y-90826088D01*
X147440249Y-90805000D01*
X147429972Y-90713379D01*
X147422266Y-90644672D01*
X147422265Y-90644669D01*
X147421481Y-90637676D01*
X147366108Y-90478668D01*
X147276884Y-90335879D01*
X147268723Y-90327661D01*
X147163205Y-90221403D01*
X147163201Y-90221400D01*
X147158242Y-90216406D01*
X147137170Y-90203033D01*
X147079418Y-90166383D01*
X147016079Y-90126187D01*
X146857462Y-90069706D01*
X146850474Y-90068873D01*
X146850471Y-90068872D01*
X146757300Y-90057762D01*
X146690273Y-90049769D01*
X146683270Y-90050505D01*
X146683269Y-90050505D01*
X146637712Y-90055293D01*
X146522821Y-90067369D01*
X146516155Y-90069638D01*
X146516152Y-90069639D01*
X146370098Y-90119360D01*
X146370095Y-90119361D01*
X146363431Y-90121630D01*
X146357436Y-90125318D01*
X146357432Y-90125320D01*
X146226021Y-90206165D01*
X146226019Y-90206167D01*
X146220022Y-90209856D01*
X146099724Y-90327661D01*
X146008515Y-90469190D01*
X145950927Y-90627409D01*
X145929825Y-90794455D01*
X145930512Y-90801462D01*
X145930512Y-90801465D01*
X145939399Y-90892104D01*
X145946255Y-90962025D01*
X145999402Y-91121791D01*
X146086624Y-91265812D01*
X146091513Y-91270875D01*
X146091514Y-91270876D01*
X146174137Y-91356434D01*
X146207069Y-91419330D01*
X146209500Y-91443961D01*
X146209500Y-91936000D01*
X146189498Y-92004121D01*
X146135842Y-92050614D01*
X146083500Y-92062000D01*
X145826782Y-92062000D01*
X145822232Y-92062670D01*
X145822229Y-92062670D01*
X145757888Y-92072142D01*
X145757575Y-92070017D01*
X145706796Y-92070055D01*
X145706518Y-92071964D01*
X145642744Y-92062660D01*
X145642740Y-92062660D01*
X145638218Y-92062000D01*
X145191782Y-92062000D01*
X145187232Y-92062670D01*
X145187229Y-92062670D01*
X145122888Y-92072142D01*
X145122575Y-92070017D01*
X145071796Y-92070055D01*
X145071518Y-92071964D01*
X145007744Y-92062660D01*
X145007740Y-92062660D01*
X145003218Y-92062000D01*
X144556782Y-92062000D01*
X144552232Y-92062670D01*
X144552229Y-92062670D01*
X144497574Y-92070716D01*
X144497573Y-92070716D01*
X144487888Y-92072142D01*
X144462441Y-92084636D01*
X144392493Y-92118978D01*
X144392491Y-92118979D01*
X144383145Y-92123568D01*
X144300707Y-92206150D01*
X144296134Y-92215506D01*
X144296133Y-92215507D01*
X144258238Y-92293033D01*
X144210353Y-92345450D01*
X144141730Y-92363657D01*
X144074158Y-92341873D01*
X144031935Y-92293231D01*
X143993522Y-92214993D01*
X143993521Y-92214991D01*
X143988932Y-92205645D01*
X143930888Y-92147702D01*
X143913721Y-92130565D01*
X143913720Y-92130565D01*
X143906350Y-92123207D01*
X143801518Y-92071964D01*
X143771027Y-92067516D01*
X143737744Y-92062660D01*
X143737740Y-92062660D01*
X143733218Y-92062000D01*
X143286782Y-92062000D01*
X143282232Y-92062670D01*
X143282229Y-92062670D01*
X143217888Y-92072142D01*
X143217575Y-92070017D01*
X143166796Y-92070055D01*
X143166518Y-92071964D01*
X143102744Y-92062660D01*
X143102740Y-92062660D01*
X143098218Y-92062000D01*
X142841500Y-92062000D01*
X142773379Y-92041998D01*
X142726886Y-91988342D01*
X142715500Y-91936000D01*
X142715500Y-91442606D01*
X142735502Y-91374485D01*
X142754608Y-91351360D01*
X142813454Y-91295322D01*
X142813455Y-91295320D01*
X142818554Y-91290465D01*
X142834934Y-91265812D01*
X142907836Y-91156085D01*
X142911731Y-91150223D01*
X142971521Y-90992823D01*
X142994955Y-90826088D01*
X142995249Y-90805000D01*
X142984972Y-90713379D01*
X142977266Y-90644672D01*
X142977265Y-90644669D01*
X142976481Y-90637676D01*
X142921108Y-90478668D01*
X142831884Y-90335879D01*
X142823723Y-90327661D01*
X142718205Y-90221403D01*
X142718201Y-90221400D01*
X142713242Y-90216406D01*
X142692170Y-90203033D01*
X142634418Y-90166383D01*
X142571079Y-90126187D01*
X142412462Y-90069706D01*
X142405474Y-90068873D01*
X142405471Y-90068872D01*
X142312300Y-90057762D01*
X142245273Y-90049769D01*
X142238270Y-90050505D01*
X142238269Y-90050505D01*
X142192712Y-90055293D01*
X142077821Y-90067369D01*
X142071155Y-90069638D01*
X142071152Y-90069639D01*
X141925098Y-90119360D01*
X141925095Y-90119361D01*
X141918431Y-90121630D01*
X141912436Y-90125318D01*
X141912432Y-90125320D01*
X141781021Y-90206165D01*
X141781019Y-90206167D01*
X141775022Y-90209856D01*
X141654724Y-90327661D01*
X141563515Y-90469190D01*
X141505927Y-90627409D01*
X141484825Y-90794455D01*
X141485512Y-90801462D01*
X141485512Y-90801465D01*
X141494399Y-90892104D01*
X141501255Y-90962025D01*
X141554402Y-91121791D01*
X141641624Y-91265812D01*
X141646513Y-91270875D01*
X141646514Y-91270876D01*
X141729137Y-91356434D01*
X141762069Y-91419330D01*
X141764500Y-91443961D01*
X141764500Y-91936000D01*
X141744498Y-92004121D01*
X141690842Y-92050614D01*
X141638500Y-92062000D01*
X141381782Y-92062000D01*
X141377232Y-92062670D01*
X141377229Y-92062670D01*
X141312888Y-92072142D01*
X141312575Y-92070017D01*
X141261796Y-92070055D01*
X141261518Y-92071964D01*
X141197744Y-92062660D01*
X141197740Y-92062660D01*
X141193218Y-92062000D01*
X140746782Y-92062000D01*
X140742232Y-92062670D01*
X140742229Y-92062670D01*
X140677888Y-92072142D01*
X140677575Y-92070017D01*
X140626796Y-92070055D01*
X140626518Y-92071964D01*
X140562744Y-92062660D01*
X140562740Y-92062660D01*
X140558218Y-92062000D01*
X140111782Y-92062000D01*
X140107232Y-92062670D01*
X140107229Y-92062670D01*
X140042888Y-92072142D01*
X140042575Y-92070017D01*
X139991796Y-92070055D01*
X139991518Y-92071964D01*
X139927744Y-92062660D01*
X139927740Y-92062660D01*
X139923218Y-92062000D01*
X139476782Y-92062000D01*
X139472232Y-92062670D01*
X139472229Y-92062670D01*
X139407888Y-92072142D01*
X139407575Y-92070017D01*
X139356796Y-92070055D01*
X139356518Y-92071964D01*
X139292744Y-92062660D01*
X139292740Y-92062660D01*
X139288218Y-92062000D01*
X138841782Y-92062000D01*
X138837232Y-92062670D01*
X138837229Y-92062670D01*
X138772888Y-92072142D01*
X138772575Y-92070017D01*
X138721796Y-92070055D01*
X138721518Y-92071964D01*
X138657744Y-92062660D01*
X138657740Y-92062660D01*
X138653218Y-92062000D01*
X138206782Y-92062000D01*
X138202232Y-92062670D01*
X138202229Y-92062670D01*
X138147574Y-92070716D01*
X138147573Y-92070716D01*
X138137888Y-92072142D01*
X138112441Y-92084636D01*
X138042493Y-92118978D01*
X138042491Y-92118979D01*
X138033145Y-92123568D01*
X137950707Y-92206150D01*
X137946134Y-92215506D01*
X137946133Y-92215507D01*
X137941064Y-92225877D01*
X137899464Y-92310982D01*
X137889500Y-92379282D01*
X137889500Y-94701780D01*
X137869498Y-94769901D01*
X137815842Y-94816394D01*
X137763500Y-94827780D01*
X136824853Y-94827780D01*
X136813757Y-94826541D01*
X136813709Y-94827139D01*
X136804763Y-94826419D01*
X136796007Y-94824438D01*
X136746040Y-94827538D01*
X136738238Y-94827780D01*
X136723335Y-94827780D01*
X136713966Y-94829122D01*
X136703914Y-94830151D01*
X136660063Y-94832872D01*
X136651618Y-94835921D01*
X136645382Y-94837212D01*
X136637631Y-94839145D01*
X136631542Y-94840926D01*
X136622651Y-94842199D01*
X136614475Y-94845916D01*
X136614476Y-94845916D01*
X136582644Y-94860388D01*
X136573279Y-94864200D01*
X136540397Y-94876071D01*
X136540394Y-94876073D01*
X136531950Y-94879121D01*
X136524703Y-94884416D01*
X136519073Y-94887409D01*
X136512223Y-94891412D01*
X136506836Y-94894857D01*
X136498660Y-94898574D01*
X136491860Y-94904434D01*
X136491859Y-94904434D01*
X136465367Y-94927261D01*
X136457451Y-94933546D01*
X136451379Y-94937982D01*
X136451372Y-94937988D01*
X136447445Y-94940857D01*
X136437404Y-94950898D01*
X136430557Y-94957256D01*
X136395476Y-94987484D01*
X136390592Y-94995019D01*
X136384693Y-95001781D01*
X136384613Y-95001711D01*
X136376228Y-95012074D01*
X134390707Y-96997595D01*
X134328395Y-97031621D01*
X134301612Y-97034500D01*
X133341782Y-97034500D01*
X133337232Y-97035170D01*
X133337229Y-97035170D01*
X133282574Y-97043216D01*
X133282573Y-97043216D01*
X133272888Y-97044642D01*
X133231344Y-97065039D01*
X133177493Y-97091478D01*
X133177491Y-97091479D01*
X133168145Y-97096068D01*
X133145737Y-97118515D01*
X133107169Y-97157151D01*
X133085707Y-97178650D01*
X133034464Y-97283482D01*
X133033052Y-97293162D01*
X133025440Y-97345341D01*
X133024500Y-97351782D01*
X133024500Y-98768218D01*
X133025170Y-98772768D01*
X133025170Y-98772771D01*
X133033216Y-98827426D01*
X133034642Y-98837112D01*
X133038958Y-98845902D01*
X133070021Y-98909170D01*
X133086068Y-98941855D01*
X133127558Y-98983273D01*
X133153474Y-99009143D01*
X133168650Y-99024293D01*
X133178006Y-99028866D01*
X133178007Y-99028867D01*
X133205378Y-99042246D01*
X133273482Y-99075536D01*
X133283161Y-99076948D01*
X133295753Y-99078785D01*
X133360272Y-99108412D01*
X133398532Y-99168218D01*
X133398384Y-99239214D01*
X133356516Y-99301659D01*
X133329024Y-99323763D01*
X133199752Y-99477823D01*
X133196788Y-99483215D01*
X133196785Y-99483219D01*
X133145447Y-99576603D01*
X133102866Y-99654058D01*
X133101005Y-99659925D01*
X133101004Y-99659927D01*
X133096787Y-99673221D01*
X133042056Y-99845755D01*
X133019638Y-100045613D01*
X133036467Y-100246018D01*
X133091901Y-100439338D01*
X133183828Y-100618210D01*
X133187651Y-100623034D01*
X133187654Y-100623038D01*
X133215888Y-100658660D01*
X133308748Y-100775819D01*
X133461901Y-100906163D01*
X133467279Y-100909169D01*
X133467281Y-100909170D01*
X133632077Y-101001271D01*
X133637456Y-101004277D01*
X133643315Y-101006181D01*
X133648713Y-101008539D01*
X133703128Y-101054140D01*
X133724251Y-101121922D01*
X133705375Y-101190363D01*
X133652493Y-101237735D01*
X133598268Y-101250000D01*
X129577465Y-101250000D01*
X129557754Y-101248449D01*
X129549792Y-101247188D01*
X129540000Y-101245637D01*
X129530207Y-101247188D01*
X129522370Y-101247188D01*
X129506335Y-101247963D01*
X129283632Y-101234492D01*
X129268528Y-101232658D01*
X129023397Y-101187736D01*
X129008624Y-101184095D01*
X128983744Y-101176342D01*
X128770685Y-101109950D01*
X128756467Y-101104558D01*
X128529199Y-101002273D01*
X128515743Y-100995211D01*
X128302461Y-100866277D01*
X128289940Y-100857635D01*
X128093756Y-100703934D01*
X128082368Y-100693844D01*
X127906156Y-100517632D01*
X127896066Y-100506244D01*
X127839010Y-100433418D01*
X127742364Y-100310058D01*
X127733722Y-100297538D01*
X127609636Y-100092275D01*
X127604789Y-100084257D01*
X127597727Y-100070801D01*
X127495442Y-99843533D01*
X127490048Y-99829310D01*
X127487862Y-99822293D01*
X127415905Y-99591376D01*
X127412264Y-99576603D01*
X127367342Y-99331472D01*
X127365508Y-99316368D01*
X127352037Y-99093665D01*
X127352812Y-99077630D01*
X127352812Y-99069793D01*
X127354363Y-99060000D01*
X127351551Y-99042246D01*
X127350000Y-99022535D01*
X127350000Y-94998930D01*
X127370002Y-94930809D01*
X127423658Y-94884316D01*
X127493932Y-94874212D01*
X127558512Y-94903706D01*
X127588067Y-94941336D01*
X127669827Y-95100424D01*
X127673828Y-95108210D01*
X127677651Y-95113034D01*
X127677654Y-95113038D01*
X127763763Y-95221679D01*
X127798748Y-95265819D01*
X127803442Y-95269814D01*
X127943485Y-95389000D01*
X127951901Y-95396163D01*
X127957279Y-95399169D01*
X127957281Y-95399170D01*
X128028050Y-95438721D01*
X128127456Y-95494277D01*
X128318723Y-95556424D01*
X128518420Y-95580236D01*
X128524555Y-95579764D01*
X128524557Y-95579764D01*
X128712796Y-95565280D01*
X128712800Y-95565279D01*
X128718938Y-95564807D01*
X128755782Y-95554520D01*
X128906696Y-95512384D01*
X128906700Y-95512383D01*
X128912640Y-95510724D01*
X128918144Y-95507944D01*
X128918146Y-95507943D01*
X129086646Y-95422828D01*
X129086648Y-95422827D01*
X129092149Y-95420048D01*
X129198884Y-95336658D01*
X129245771Y-95300026D01*
X129245772Y-95300025D01*
X129250627Y-95296232D01*
X129328494Y-95206022D01*
X129378008Y-95148660D01*
X129378009Y-95148658D01*
X129382037Y-95143992D01*
X129429785Y-95059940D01*
X129480822Y-95010591D01*
X129550440Y-94996668D01*
X129616534Y-95022594D01*
X129651406Y-95064583D01*
X129671010Y-95102729D01*
X129671013Y-95102733D01*
X129673828Y-95108210D01*
X129677651Y-95113034D01*
X129677654Y-95113038D01*
X129763763Y-95221679D01*
X129798748Y-95265819D01*
X129803442Y-95269814D01*
X129943485Y-95389000D01*
X129951901Y-95396163D01*
X129957279Y-95399169D01*
X129957281Y-95399170D01*
X130028050Y-95438721D01*
X130127456Y-95494277D01*
X130318723Y-95556424D01*
X130518420Y-95580236D01*
X130524555Y-95579764D01*
X130524557Y-95579764D01*
X130712796Y-95565280D01*
X130712800Y-95565279D01*
X130718938Y-95564807D01*
X130755782Y-95554520D01*
X130906696Y-95512384D01*
X130906700Y-95512383D01*
X130912640Y-95510724D01*
X130918144Y-95507944D01*
X130918146Y-95507943D01*
X131086646Y-95422828D01*
X131086648Y-95422827D01*
X131092149Y-95420048D01*
X131198884Y-95336658D01*
X131245771Y-95300026D01*
X131245772Y-95300025D01*
X131250627Y-95296232D01*
X131328494Y-95206022D01*
X131378008Y-95148660D01*
X131378009Y-95148658D01*
X131382037Y-95143992D01*
X131481374Y-94969127D01*
X131489201Y-94945597D01*
X131526511Y-94889917D01*
X131554504Y-94865796D01*
X131559389Y-94858260D01*
X131565287Y-94851499D01*
X131565367Y-94851569D01*
X131573752Y-94841206D01*
X133321086Y-93093872D01*
X133329812Y-93086900D01*
X133329423Y-93086442D01*
X133336257Y-93080626D01*
X133343850Y-93075835D01*
X133377006Y-93038293D01*
X133382352Y-93032606D01*
X133392873Y-93022085D01*
X133398548Y-93014513D01*
X133404924Y-93006682D01*
X133428070Y-92980474D01*
X133434013Y-92973745D01*
X133437829Y-92965618D01*
X133441334Y-92960281D01*
X133445430Y-92953463D01*
X133448487Y-92947880D01*
X133453872Y-92940695D01*
X133467739Y-92903706D01*
X133469298Y-92899546D01*
X133473225Y-92890226D01*
X133480654Y-92874402D01*
X133491899Y-92850452D01*
X133493280Y-92841582D01*
X133495139Y-92835502D01*
X133497165Y-92827781D01*
X133498531Y-92821568D01*
X133501684Y-92813157D01*
X133504941Y-92769324D01*
X133506095Y-92759277D01*
X133507251Y-92751855D01*
X133507251Y-92751853D01*
X133508000Y-92747044D01*
X133508000Y-92732838D01*
X133508346Y-92723501D01*
X133511112Y-92686274D01*
X133511777Y-92677326D01*
X133509904Y-92668550D01*
X133509293Y-92659593D01*
X133509399Y-92659586D01*
X133508000Y-92646333D01*
X133508000Y-90895398D01*
X133528002Y-90827277D01*
X133544905Y-90806303D01*
X133603803Y-90747405D01*
X133666115Y-90713379D01*
X133692898Y-90710500D01*
X136220718Y-90710500D01*
X136225268Y-90709830D01*
X136225271Y-90709830D01*
X136279926Y-90701784D01*
X136279927Y-90701784D01*
X136289612Y-90700358D01*
X136384304Y-90653867D01*
X136385007Y-90653522D01*
X136385009Y-90653521D01*
X136394355Y-90648932D01*
X136476793Y-90566350D01*
X136528036Y-90461518D01*
X136538000Y-90393218D01*
X136538000Y-89946782D01*
X136527858Y-89877888D01*
X136529983Y-89877575D01*
X136529945Y-89826796D01*
X136528036Y-89826518D01*
X136537340Y-89762744D01*
X136537340Y-89762740D01*
X136538000Y-89758218D01*
X136538000Y-89311782D01*
X136536270Y-89300026D01*
X136527858Y-89242888D01*
X136529983Y-89242575D01*
X136529945Y-89191796D01*
X136528036Y-89191518D01*
X136537340Y-89127744D01*
X136537340Y-89127740D01*
X136538000Y-89123218D01*
X136538000Y-88676782D01*
X136536963Y-88669734D01*
X136529284Y-88617574D01*
X136529284Y-88617573D01*
X136527858Y-88607888D01*
X136476432Y-88503145D01*
X136409341Y-88436171D01*
X136401221Y-88428065D01*
X136401220Y-88428065D01*
X136393850Y-88420707D01*
X136306966Y-88378237D01*
X136254550Y-88330353D01*
X136236343Y-88261730D01*
X136258127Y-88194158D01*
X136306769Y-88151935D01*
X136375077Y-88118397D01*
X136430608Y-88105500D01*
X137157324Y-88105500D01*
X137225445Y-88125502D01*
X137247960Y-88143973D01*
X137308687Y-88206857D01*
X137308692Y-88206861D01*
X137313586Y-88211929D01*
X137319483Y-88215788D01*
X137448577Y-88300266D01*
X137448581Y-88300268D01*
X137454475Y-88304125D01*
X137612289Y-88362815D01*
X137619270Y-88363746D01*
X137619272Y-88363747D01*
X137663456Y-88369642D01*
X137779183Y-88385083D01*
X137786194Y-88384445D01*
X137786198Y-88384445D01*
X137939843Y-88370462D01*
X137946864Y-88369823D01*
X137953566Y-88367645D01*
X137953568Y-88367645D01*
X138100298Y-88319970D01*
X138100301Y-88319969D01*
X138106997Y-88317793D01*
X138251623Y-88231578D01*
X138256717Y-88226727D01*
X138256721Y-88226724D01*
X138368454Y-88120322D01*
X138368455Y-88120320D01*
X138373554Y-88115465D01*
X138382544Y-88101935D01*
X138462836Y-87981085D01*
X138466731Y-87975223D01*
X138477240Y-87947559D01*
X138524019Y-87824409D01*
X138526521Y-87817823D01*
X138549955Y-87651088D01*
X138550249Y-87630000D01*
X138541183Y-87549171D01*
X138532266Y-87469672D01*
X138532265Y-87469669D01*
X138531481Y-87462676D01*
X138476108Y-87303668D01*
X138386884Y-87160879D01*
X138381920Y-87155880D01*
X138273205Y-87046403D01*
X138273201Y-87046400D01*
X138268242Y-87041406D01*
X138247906Y-87028500D01*
X138201310Y-86998930D01*
X138126079Y-86951187D01*
X137967462Y-86894706D01*
X137960474Y-86893873D01*
X137960471Y-86893872D01*
X137867300Y-86882762D01*
X137800273Y-86874769D01*
X137793270Y-86875505D01*
X137793269Y-86875505D01*
X137747712Y-86880293D01*
X137632821Y-86892369D01*
X137626155Y-86894638D01*
X137626152Y-86894639D01*
X137480098Y-86944360D01*
X137480095Y-86944361D01*
X137473431Y-86946630D01*
X137467436Y-86950318D01*
X137467432Y-86950320D01*
X137336021Y-87031165D01*
X137336019Y-87031167D01*
X137330022Y-87034856D01*
X137244583Y-87118525D01*
X137181918Y-87151894D01*
X137156426Y-87154500D01*
X136664000Y-87154500D01*
X136595879Y-87134498D01*
X136549386Y-87080842D01*
X136538000Y-87028500D01*
X136538000Y-86771782D01*
X136527858Y-86702888D01*
X136529983Y-86702575D01*
X136529945Y-86651796D01*
X136528036Y-86651518D01*
X136537340Y-86587744D01*
X136537340Y-86587740D01*
X136538000Y-86583218D01*
X136538000Y-86136782D01*
X136532330Y-86098262D01*
X136527858Y-86067888D01*
X136529983Y-86067575D01*
X136529945Y-86016796D01*
X136528036Y-86016518D01*
X136537340Y-85952744D01*
X136537340Y-85952740D01*
X136538000Y-85948218D01*
X136538000Y-85501782D01*
X136527858Y-85432888D01*
X136529983Y-85432575D01*
X136529945Y-85381796D01*
X136528036Y-85381518D01*
X136537340Y-85317744D01*
X136537340Y-85317740D01*
X136538000Y-85313218D01*
X136538000Y-84866782D01*
X136527858Y-84797888D01*
X136529983Y-84797575D01*
X136529945Y-84746796D01*
X136528036Y-84746518D01*
X136537340Y-84682744D01*
X136537340Y-84682740D01*
X136538000Y-84678218D01*
X136538000Y-84231782D01*
X136536910Y-84224374D01*
X136527858Y-84162888D01*
X136529983Y-84162575D01*
X136529945Y-84111796D01*
X136528036Y-84111518D01*
X136537340Y-84047744D01*
X136537340Y-84047740D01*
X136538000Y-84043218D01*
X136538000Y-83596782D01*
X136530850Y-83548209D01*
X136529284Y-83537574D01*
X136529284Y-83537573D01*
X136527858Y-83527888D01*
X136486662Y-83443981D01*
X136481022Y-83432493D01*
X136481021Y-83432491D01*
X136476432Y-83423145D01*
X136409342Y-83356172D01*
X136401221Y-83348065D01*
X136401220Y-83348065D01*
X136393850Y-83340707D01*
X136289018Y-83289464D01*
X136258527Y-83285016D01*
X136225244Y-83280160D01*
X136225240Y-83280160D01*
X136220718Y-83279500D01*
X133654282Y-83279500D01*
X133649732Y-83280170D01*
X133649729Y-83280170D01*
X133595074Y-83288216D01*
X133595073Y-83288216D01*
X133585388Y-83289642D01*
X133504059Y-83329572D01*
X133499923Y-83331603D01*
X133444392Y-83344500D01*
X131337373Y-83344500D01*
X131326277Y-83343261D01*
X131326229Y-83343859D01*
X131317283Y-83343139D01*
X131308527Y-83341158D01*
X131260865Y-83344115D01*
X131258553Y-83344258D01*
X131250752Y-83344500D01*
X131235855Y-83344500D01*
X131231423Y-83345135D01*
X131231419Y-83345135D01*
X131226491Y-83345841D01*
X131216431Y-83346871D01*
X131172583Y-83349591D01*
X131164135Y-83352641D01*
X131157896Y-83353933D01*
X131150158Y-83355862D01*
X131144054Y-83357647D01*
X131135171Y-83358919D01*
X131127000Y-83362634D01*
X131095165Y-83377108D01*
X131085805Y-83380918D01*
X131044470Y-83395841D01*
X131037220Y-83401138D01*
X131031583Y-83404135D01*
X131024743Y-83408132D01*
X131019356Y-83411577D01*
X131011180Y-83415294D01*
X131004380Y-83421154D01*
X131004379Y-83421154D01*
X130977887Y-83443981D01*
X130969971Y-83450266D01*
X130963899Y-83454702D01*
X130963892Y-83454708D01*
X130959965Y-83457577D01*
X130949924Y-83467618D01*
X130943077Y-83473976D01*
X130907996Y-83504204D01*
X130903634Y-83510934D01*
X130844187Y-83548858D01*
X130771834Y-83548209D01*
X130753093Y-83542408D01*
X130753091Y-83542408D01*
X130747203Y-83540585D01*
X130741078Y-83539941D01*
X130741077Y-83539941D01*
X130553322Y-83520207D01*
X130553321Y-83520207D01*
X130547194Y-83519563D01*
X130463056Y-83527220D01*
X130353050Y-83537231D01*
X130353047Y-83537232D01*
X130346911Y-83537790D01*
X130341005Y-83539528D01*
X130341001Y-83539529D01*
X130233597Y-83571140D01*
X130153982Y-83594572D01*
X129975757Y-83687746D01*
X129819024Y-83813763D01*
X129689752Y-83967823D01*
X129686786Y-83973219D01*
X129686783Y-83973223D01*
X129650632Y-84038982D01*
X129600287Y-84089041D01*
X129530870Y-84103935D01*
X129464421Y-84078935D01*
X129428966Y-84037436D01*
X129401190Y-83985197D01*
X129401189Y-83985195D01*
X129398294Y-83979751D01*
X129351083Y-83921865D01*
X129275081Y-83828676D01*
X129275078Y-83828673D01*
X129271186Y-83823901D01*
X129264638Y-83818484D01*
X129120977Y-83699637D01*
X129120974Y-83699635D01*
X129116227Y-83695708D01*
X128939320Y-83600055D01*
X128780849Y-83551000D01*
X128753090Y-83542407D01*
X128753087Y-83542406D01*
X128747203Y-83540585D01*
X128741078Y-83539941D01*
X128741077Y-83539941D01*
X128553322Y-83520207D01*
X128553321Y-83520207D01*
X128547194Y-83519563D01*
X128463056Y-83527220D01*
X128353050Y-83537231D01*
X128353047Y-83537232D01*
X128346911Y-83537790D01*
X128341005Y-83539528D01*
X128341001Y-83539529D01*
X128233597Y-83571140D01*
X128153982Y-83594572D01*
X127975757Y-83687746D01*
X127819024Y-83813763D01*
X127689752Y-83967823D01*
X127686788Y-83973215D01*
X127686785Y-83973219D01*
X127651482Y-84037436D01*
X127592866Y-84144058D01*
X127591470Y-84148457D01*
X127546593Y-84202777D01*
X127478961Y-84224374D01*
X127410389Y-84205978D01*
X127362648Y-84153430D01*
X127350000Y-84098409D01*
X127350000Y-78998930D01*
X127370002Y-78930809D01*
X127423658Y-78884316D01*
X127493932Y-78874212D01*
X127558512Y-78903706D01*
X127588067Y-78941336D01*
X127668169Y-79097198D01*
X127673828Y-79108210D01*
X127677651Y-79113034D01*
X127677654Y-79113038D01*
X127766764Y-79225465D01*
X127798748Y-79265819D01*
X127803442Y-79269814D01*
X127936026Y-79382652D01*
X127951901Y-79396163D01*
X127957279Y-79399169D01*
X127957281Y-79399170D01*
X128002044Y-79424187D01*
X128127456Y-79494277D01*
X128318723Y-79556424D01*
X128518420Y-79580236D01*
X128524555Y-79579764D01*
X128524557Y-79579764D01*
X128712796Y-79565280D01*
X128712800Y-79565279D01*
X128718938Y-79564807D01*
X128771752Y-79550061D01*
X128906696Y-79512384D01*
X128906700Y-79512383D01*
X128912640Y-79510724D01*
X128918144Y-79507944D01*
X128918146Y-79507943D01*
X129086646Y-79422828D01*
X129086648Y-79422827D01*
X129092149Y-79420048D01*
X129187974Y-79345182D01*
X129245771Y-79300026D01*
X129245772Y-79300025D01*
X129250627Y-79296232D01*
X129328620Y-79205876D01*
X129378008Y-79148660D01*
X129378009Y-79148658D01*
X129382037Y-79143992D01*
X129429785Y-79059940D01*
X129480822Y-79010591D01*
X129550440Y-78996668D01*
X129616534Y-79022594D01*
X129651406Y-79064583D01*
X129671010Y-79102729D01*
X129671013Y-79102733D01*
X129673828Y-79108210D01*
X129677651Y-79113034D01*
X129677654Y-79113038D01*
X129766764Y-79225465D01*
X129798748Y-79265819D01*
X129803442Y-79269814D01*
X129936026Y-79382652D01*
X129951901Y-79396163D01*
X129957279Y-79399169D01*
X129957281Y-79399170D01*
X130002044Y-79424187D01*
X130127456Y-79494277D01*
X130318723Y-79556424D01*
X130518420Y-79580236D01*
X130524555Y-79579764D01*
X130524557Y-79579764D01*
X130712796Y-79565280D01*
X130712800Y-79565279D01*
X130718938Y-79564807D01*
X130771752Y-79550061D01*
X130906696Y-79512384D01*
X130906700Y-79512383D01*
X130912640Y-79510724D01*
X130918144Y-79507944D01*
X130918146Y-79507943D01*
X131086646Y-79422828D01*
X131086648Y-79422827D01*
X131092149Y-79420048D01*
X131187974Y-79345182D01*
X131245771Y-79300026D01*
X131245772Y-79300025D01*
X131250627Y-79296232D01*
X131328620Y-79205876D01*
X131378008Y-79148660D01*
X131378009Y-79148658D01*
X131382037Y-79143992D01*
X131385577Y-79137760D01*
X131478329Y-78974488D01*
X131478331Y-78974484D01*
X131481374Y-78969127D01*
X131529038Y-78825842D01*
X131542909Y-78784145D01*
X131542910Y-78784142D01*
X131544854Y-78778297D01*
X131570060Y-78578772D01*
X131570388Y-78555267D01*
X131591339Y-78487433D01*
X131645638Y-78441693D01*
X131716046Y-78432571D01*
X131780209Y-78462962D01*
X131785471Y-78467931D01*
X132346129Y-79028589D01*
X132353098Y-79037311D01*
X132353556Y-79036921D01*
X132359375Y-79043758D01*
X132364165Y-79051350D01*
X132370894Y-79057293D01*
X132370895Y-79057294D01*
X132401699Y-79084499D01*
X132407386Y-79089845D01*
X132417915Y-79100374D01*
X132421502Y-79103062D01*
X132425485Y-79106047D01*
X132433327Y-79112432D01*
X132448650Y-79125965D01*
X132466255Y-79141513D01*
X132474381Y-79145328D01*
X132479706Y-79148826D01*
X132486546Y-79152936D01*
X132492122Y-79155988D01*
X132499305Y-79161372D01*
X132507713Y-79164524D01*
X132540454Y-79176798D01*
X132549774Y-79180725D01*
X132589548Y-79199399D01*
X132598418Y-79200780D01*
X132604498Y-79202639D01*
X132612219Y-79204665D01*
X132618432Y-79206031D01*
X132626843Y-79209184D01*
X132653880Y-79211193D01*
X132670676Y-79212441D01*
X132680723Y-79213595D01*
X132688145Y-79214751D01*
X132688147Y-79214751D01*
X132692956Y-79215500D01*
X132707162Y-79215500D01*
X132716500Y-79215846D01*
X132762674Y-79219277D01*
X132771450Y-79217404D01*
X132780407Y-79216793D01*
X132780414Y-79216899D01*
X132793667Y-79215500D01*
X133211000Y-79215500D01*
X133279121Y-79235502D01*
X133325614Y-79289158D01*
X133337000Y-79341500D01*
X133337000Y-79598218D01*
X133337670Y-79602768D01*
X133337670Y-79602771D01*
X133347142Y-79667112D01*
X133345017Y-79667425D01*
X133345055Y-79718204D01*
X133346964Y-79718482D01*
X133337000Y-79786782D01*
X133337000Y-80233218D01*
X133337670Y-80237768D01*
X133337670Y-80237771D01*
X133347142Y-80302112D01*
X133345017Y-80302425D01*
X133345055Y-80353204D01*
X133346964Y-80353482D01*
X133337000Y-80421782D01*
X133337000Y-80868218D01*
X133337670Y-80872768D01*
X133337670Y-80872771D01*
X133345716Y-80927426D01*
X133347142Y-80937112D01*
X133398568Y-81041855D01*
X133481150Y-81124293D01*
X133490506Y-81128866D01*
X133490507Y-81128867D01*
X133499775Y-81133397D01*
X133585982Y-81175536D01*
X133616473Y-81179984D01*
X133649756Y-81184840D01*
X133649760Y-81184840D01*
X133654282Y-81185500D01*
X136220718Y-81185500D01*
X136225268Y-81184830D01*
X136225271Y-81184830D01*
X136279926Y-81176784D01*
X136279927Y-81176784D01*
X136289612Y-81175358D01*
X136375077Y-81133397D01*
X136430608Y-81120500D01*
X137157324Y-81120500D01*
X137225445Y-81140502D01*
X137247960Y-81158973D01*
X137308687Y-81221857D01*
X137308692Y-81221861D01*
X137313586Y-81226929D01*
X137319483Y-81230788D01*
X137448577Y-81315266D01*
X137448581Y-81315268D01*
X137454475Y-81319125D01*
X137612289Y-81377815D01*
X137619270Y-81378746D01*
X137619272Y-81378747D01*
X137664812Y-81384823D01*
X137779183Y-81400083D01*
X137786194Y-81399445D01*
X137786198Y-81399445D01*
X137939843Y-81385462D01*
X137946864Y-81384823D01*
X137953566Y-81382645D01*
X137953568Y-81382645D01*
X138100298Y-81334970D01*
X138100301Y-81334969D01*
X138106997Y-81332793D01*
X138251623Y-81246578D01*
X138256717Y-81241727D01*
X138256721Y-81241724D01*
X138368454Y-81135322D01*
X138368455Y-81135320D01*
X138373554Y-81130465D01*
X138382544Y-81116935D01*
X138462836Y-80996085D01*
X138466731Y-80990223D01*
X138477240Y-80962559D01*
X138524019Y-80839409D01*
X138526521Y-80832823D01*
X138549955Y-80666088D01*
X138550249Y-80645000D01*
X138549809Y-80641077D01*
X138532266Y-80484672D01*
X138532265Y-80484669D01*
X138531481Y-80477676D01*
X138476108Y-80318668D01*
X138386884Y-80175879D01*
X138307163Y-80095599D01*
X138273356Y-80033170D01*
X138270571Y-80006047D01*
X138270698Y-79985197D01*
X138270945Y-79944804D01*
X138270581Y-79943531D01*
X138270500Y-79942340D01*
X138270500Y-79383095D01*
X138270502Y-79382319D01*
X138270536Y-79376798D01*
X138290958Y-79308802D01*
X138309642Y-79286329D01*
X138368450Y-79230327D01*
X138368456Y-79230319D01*
X138373554Y-79225465D01*
X138377666Y-79219277D01*
X138447817Y-79113691D01*
X138466731Y-79085223D01*
X138469457Y-79078048D01*
X138499510Y-78998930D01*
X138526521Y-78927823D01*
X138546115Y-78788409D01*
X138549404Y-78765010D01*
X138549404Y-78765006D01*
X138549955Y-78761088D01*
X138550249Y-78740000D01*
X138548283Y-78722468D01*
X138532266Y-78579672D01*
X138532265Y-78579669D01*
X138531481Y-78572676D01*
X138476108Y-78413668D01*
X138386884Y-78270879D01*
X138381920Y-78265880D01*
X138273205Y-78156403D01*
X138273201Y-78156400D01*
X138268242Y-78151406D01*
X138256664Y-78144058D01*
X138193439Y-78103935D01*
X138126079Y-78061187D01*
X137967462Y-78004706D01*
X137960474Y-78003873D01*
X137960471Y-78003872D01*
X137867300Y-77992762D01*
X137800273Y-77984769D01*
X137793270Y-77985505D01*
X137793269Y-77985505D01*
X137754604Y-77989569D01*
X137632821Y-78002369D01*
X137626155Y-78004638D01*
X137626152Y-78004639D01*
X137480098Y-78054360D01*
X137480095Y-78054361D01*
X137473431Y-78056630D01*
X137467436Y-78060318D01*
X137467432Y-78060320D01*
X137336021Y-78141165D01*
X137336019Y-78141167D01*
X137330022Y-78144856D01*
X137209724Y-78262661D01*
X137118515Y-78404190D01*
X137116105Y-78410810D01*
X137116104Y-78410813D01*
X137100360Y-78454070D01*
X137060927Y-78562409D01*
X137039825Y-78729455D01*
X137040512Y-78736462D01*
X137040512Y-78736465D01*
X137042938Y-78761205D01*
X137029678Y-78830952D01*
X136980815Y-78882459D01*
X136917539Y-78899500D01*
X136664000Y-78899500D01*
X136595879Y-78879498D01*
X136549386Y-78825842D01*
X136538000Y-78773500D01*
X136538000Y-78516782D01*
X136536959Y-78509706D01*
X136527858Y-78447888D01*
X136529983Y-78447575D01*
X136529945Y-78396796D01*
X136528036Y-78396518D01*
X136537340Y-78332744D01*
X136537340Y-78332740D01*
X136538000Y-78328218D01*
X136538000Y-77881782D01*
X136536582Y-77872146D01*
X136529284Y-77822574D01*
X136529284Y-77822573D01*
X136527858Y-77812888D01*
X136476432Y-77708145D01*
X136393850Y-77625707D01*
X136382208Y-77620016D01*
X136355765Y-77607091D01*
X136306966Y-77583237D01*
X136254550Y-77535353D01*
X136236343Y-77466730D01*
X136258127Y-77399158D01*
X136306769Y-77356935D01*
X136385007Y-77318522D01*
X136385009Y-77318521D01*
X136394355Y-77313932D01*
X136448909Y-77259283D01*
X136469435Y-77238721D01*
X136469435Y-77238720D01*
X136476793Y-77231350D01*
X136528036Y-77126518D01*
X136534177Y-77084421D01*
X136537340Y-77062744D01*
X136537340Y-77062740D01*
X136538000Y-77058218D01*
X136538000Y-76611782D01*
X136527858Y-76542888D01*
X136529983Y-76542575D01*
X136529945Y-76491796D01*
X136528036Y-76491518D01*
X136537340Y-76427744D01*
X136537340Y-76427740D01*
X136538000Y-76423218D01*
X136538000Y-75976782D01*
X136527858Y-75907888D01*
X136483963Y-75818484D01*
X136481022Y-75812493D01*
X136481021Y-75812491D01*
X136476432Y-75803145D01*
X136393850Y-75720707D01*
X136306966Y-75678237D01*
X136254550Y-75630353D01*
X136236343Y-75561730D01*
X136258127Y-75494158D01*
X136306769Y-75451935D01*
X136385007Y-75413522D01*
X136385009Y-75413521D01*
X136394355Y-75408932D01*
X136476793Y-75326350D01*
X136489661Y-75300026D01*
X136506381Y-75265819D01*
X136528036Y-75221518D01*
X136538000Y-75153218D01*
X136538000Y-74706782D01*
X136529371Y-74648162D01*
X136529284Y-74647574D01*
X136529284Y-74647573D01*
X136527858Y-74637888D01*
X136498834Y-74578772D01*
X136481022Y-74542493D01*
X136481021Y-74542491D01*
X136476432Y-74533145D01*
X136393850Y-74450707D01*
X136382208Y-74445016D01*
X136352040Y-74430270D01*
X136289018Y-74399464D01*
X136258527Y-74395016D01*
X136225244Y-74390160D01*
X136225240Y-74390160D01*
X136220718Y-74389500D01*
X133696261Y-74389500D01*
X133628140Y-74369498D01*
X133607166Y-74352595D01*
X133544905Y-74290334D01*
X133510879Y-74228022D01*
X133508000Y-74201239D01*
X133508000Y-72774873D01*
X133509239Y-72763777D01*
X133508641Y-72763729D01*
X133509361Y-72754783D01*
X133511342Y-72746027D01*
X133508242Y-72696053D01*
X133508000Y-72688252D01*
X133508000Y-72673355D01*
X133506659Y-72663990D01*
X133505629Y-72653930D01*
X133503465Y-72619046D01*
X133502909Y-72610083D01*
X133499859Y-72601635D01*
X133498567Y-72595396D01*
X133496638Y-72587658D01*
X133494853Y-72581554D01*
X133493581Y-72572671D01*
X133487332Y-72558926D01*
X133475393Y-72532667D01*
X133471581Y-72523303D01*
X133459708Y-72490416D01*
X133459707Y-72490415D01*
X133456659Y-72481971D01*
X133451363Y-72474721D01*
X133448362Y-72469078D01*
X133444363Y-72462235D01*
X133440923Y-72456856D01*
X133437206Y-72448680D01*
X133408522Y-72415390D01*
X133402245Y-72407487D01*
X133394924Y-72397465D01*
X133384876Y-72387417D01*
X133378518Y-72380570D01*
X133354157Y-72352298D01*
X133348296Y-72345496D01*
X133340761Y-72340612D01*
X133333999Y-72334713D01*
X133334069Y-72334633D01*
X133323709Y-72326250D01*
X131602405Y-70604947D01*
X131568380Y-70542635D01*
X131565500Y-70515852D01*
X131565500Y-69841782D01*
X131563929Y-69831106D01*
X131556784Y-69782574D01*
X131556784Y-69782573D01*
X131555358Y-69772888D01*
X131515452Y-69691608D01*
X131508522Y-69677493D01*
X131508521Y-69677491D01*
X131503932Y-69668145D01*
X131433898Y-69598233D01*
X131428721Y-69593065D01*
X131428720Y-69593065D01*
X131421350Y-69585707D01*
X131410285Y-69580298D01*
X131359336Y-69555394D01*
X131316518Y-69534464D01*
X131286027Y-69530016D01*
X131252744Y-69525160D01*
X131252740Y-69525160D01*
X131248218Y-69524500D01*
X129831782Y-69524500D01*
X129827232Y-69525170D01*
X129827229Y-69525170D01*
X129772574Y-69533216D01*
X129772573Y-69533216D01*
X129762888Y-69534642D01*
X129734396Y-69548631D01*
X129667493Y-69581478D01*
X129667491Y-69581479D01*
X129658145Y-69586068D01*
X129638077Y-69606171D01*
X129588538Y-69655797D01*
X129575707Y-69668650D01*
X129571134Y-69678006D01*
X129571133Y-69678007D01*
X129567244Y-69685964D01*
X129524464Y-69773482D01*
X129523052Y-69783162D01*
X129515198Y-69837000D01*
X129514500Y-69841782D01*
X129514500Y-71258218D01*
X129515170Y-71262768D01*
X129515170Y-71262771D01*
X129523216Y-71317426D01*
X129524642Y-71327112D01*
X129576068Y-71431855D01*
X129658650Y-71514293D01*
X129668006Y-71518866D01*
X129668007Y-71518867D01*
X129700460Y-71534730D01*
X129763482Y-71565536D01*
X129773161Y-71566948D01*
X129785753Y-71568785D01*
X129850272Y-71598412D01*
X129888532Y-71658218D01*
X129888384Y-71729214D01*
X129846516Y-71791659D01*
X129819024Y-71813763D01*
X129689752Y-71967823D01*
X129686786Y-71973219D01*
X129686783Y-71973223D01*
X129650632Y-72038982D01*
X129600287Y-72089041D01*
X129530870Y-72103935D01*
X129464421Y-72078935D01*
X129428966Y-72037436D01*
X129401190Y-71985197D01*
X129401189Y-71985195D01*
X129398294Y-71979751D01*
X129351083Y-71921865D01*
X129275081Y-71828676D01*
X129275078Y-71828673D01*
X129271186Y-71823901D01*
X129264638Y-71818484D01*
X129120977Y-71699637D01*
X129120974Y-71699635D01*
X129116227Y-71695708D01*
X128939320Y-71600055D01*
X128780849Y-71551000D01*
X128753090Y-71542407D01*
X128753087Y-71542406D01*
X128747203Y-71540585D01*
X128741078Y-71539941D01*
X128741077Y-71539941D01*
X128553322Y-71520207D01*
X128553321Y-71520207D01*
X128547194Y-71519563D01*
X128463056Y-71527220D01*
X128353050Y-71537231D01*
X128353047Y-71537232D01*
X128346911Y-71537790D01*
X128341005Y-71539528D01*
X128341001Y-71539529D01*
X128233597Y-71571140D01*
X128153982Y-71594572D01*
X127975757Y-71687746D01*
X127819024Y-71813763D01*
X127689752Y-71967823D01*
X127686788Y-71973215D01*
X127686785Y-71973219D01*
X127630656Y-72075319D01*
X127592866Y-72144058D01*
X127591470Y-72148457D01*
X127546593Y-72202777D01*
X127478961Y-72224374D01*
X127410389Y-72205978D01*
X127362648Y-72153430D01*
X127350000Y-72098409D01*
X127350000Y-66077465D01*
X127351551Y-66057754D01*
X127352812Y-66049792D01*
X127354363Y-66040000D01*
X127352812Y-66030207D01*
X127352812Y-66022370D01*
X127352037Y-66006335D01*
X127365508Y-65783632D01*
X127367342Y-65768528D01*
X127412264Y-65523397D01*
X127415905Y-65508624D01*
X127487643Y-65278409D01*
X127490050Y-65270685D01*
X127495444Y-65256463D01*
X127597727Y-65029199D01*
X127604789Y-65015743D01*
X127733723Y-64802461D01*
X127742365Y-64789940D01*
X127746941Y-64784100D01*
X127896066Y-64593756D01*
X127906156Y-64582368D01*
X128082368Y-64406156D01*
X128093756Y-64396066D01*
X128192537Y-64318676D01*
X128289942Y-64242364D01*
X128302462Y-64233722D01*
X128515743Y-64104789D01*
X128529199Y-64097727D01*
X128756467Y-63995442D01*
X128770685Y-63990050D01*
X129008624Y-63915905D01*
X129023397Y-63912264D01*
X129268528Y-63867342D01*
X129283632Y-63865508D01*
X129506335Y-63852037D01*
X129522370Y-63852812D01*
X129530207Y-63852812D01*
X129540000Y-63854363D01*
X129549792Y-63852812D01*
X129557754Y-63851551D01*
X129577465Y-63850000D01*
X133599696Y-63850000D01*
X133667817Y-63870002D01*
G37*
%TD.AperFunction*%
%TA.AperFunction,Conductor*%
G36*
X143126534Y-98532594D02*
G01*
X143161406Y-98574583D01*
X143181010Y-98612729D01*
X143181016Y-98612738D01*
X143183828Y-98618210D01*
X143187651Y-98623034D01*
X143187654Y-98623038D01*
X143215888Y-98658660D01*
X143308748Y-98775819D01*
X143461901Y-98906163D01*
X143538929Y-98949212D01*
X143539580Y-98949576D01*
X143589286Y-99000269D01*
X143603694Y-99069788D01*
X143578231Y-99136061D01*
X143536485Y-99171226D01*
X143511504Y-99184286D01*
X143485757Y-99197746D01*
X143329024Y-99323763D01*
X143199752Y-99477823D01*
X143196788Y-99483215D01*
X143196785Y-99483219D01*
X143145447Y-99576603D01*
X143102866Y-99654058D01*
X143101005Y-99659925D01*
X143101004Y-99659927D01*
X143096787Y-99673221D01*
X143042056Y-99845755D01*
X143019638Y-100045613D01*
X143036467Y-100246018D01*
X143091901Y-100439338D01*
X143183828Y-100618210D01*
X143187651Y-100623034D01*
X143187654Y-100623038D01*
X143215888Y-100658660D01*
X143308748Y-100775819D01*
X143461901Y-100906163D01*
X143467279Y-100909169D01*
X143467281Y-100909170D01*
X143632077Y-101001271D01*
X143637456Y-101004277D01*
X143643315Y-101006181D01*
X143648713Y-101008539D01*
X143703128Y-101054140D01*
X143724251Y-101121922D01*
X143705375Y-101190363D01*
X143652493Y-101237735D01*
X143598268Y-101250000D01*
X140497643Y-101250000D01*
X140429522Y-101229998D01*
X140383029Y-101176342D01*
X140372925Y-101106068D01*
X140402419Y-101041488D01*
X140440833Y-101011534D01*
X140461151Y-101001271D01*
X140602149Y-100930048D01*
X140760627Y-100806232D01*
X140892037Y-100653992D01*
X140912364Y-100618210D01*
X140988329Y-100484488D01*
X140988331Y-100484484D01*
X140991374Y-100479127D01*
X141045672Y-100315900D01*
X141052909Y-100294145D01*
X141052910Y-100294142D01*
X141054854Y-100288297D01*
X141080060Y-100088772D01*
X141080462Y-100060000D01*
X141060837Y-99859849D01*
X141050577Y-99825866D01*
X141050036Y-99754872D01*
X141082104Y-99700354D01*
X141338097Y-99444361D01*
X141346823Y-99437389D01*
X141346434Y-99436931D01*
X141353268Y-99431115D01*
X141360861Y-99426324D01*
X141394017Y-99388782D01*
X141399363Y-99383095D01*
X141409884Y-99372574D01*
X141415559Y-99365002D01*
X141421935Y-99357171D01*
X141442486Y-99333901D01*
X141451024Y-99324234D01*
X141454840Y-99316107D01*
X141458345Y-99310770D01*
X141462441Y-99303952D01*
X141465498Y-99298369D01*
X141470883Y-99291184D01*
X141474402Y-99281799D01*
X141486309Y-99250035D01*
X141490236Y-99240715D01*
X141504827Y-99209637D01*
X141508910Y-99200941D01*
X141510291Y-99192071D01*
X141512150Y-99185991D01*
X141514176Y-99178270D01*
X141515542Y-99172057D01*
X141518695Y-99163646D01*
X141521160Y-99130467D01*
X141546154Y-99064015D01*
X141603107Y-99021625D01*
X141673936Y-99016756D01*
X141685750Y-99019969D01*
X141724175Y-99032454D01*
X141828723Y-99066424D01*
X142028420Y-99090236D01*
X142034555Y-99089764D01*
X142034557Y-99089764D01*
X142222796Y-99075280D01*
X142222800Y-99075279D01*
X142228938Y-99074807D01*
X142281970Y-99060000D01*
X142416696Y-99022384D01*
X142416700Y-99022383D01*
X142422640Y-99020724D01*
X142428144Y-99017944D01*
X142428146Y-99017943D01*
X142596646Y-98932828D01*
X142596648Y-98932827D01*
X142602149Y-98930048D01*
X142681388Y-98868140D01*
X142755771Y-98810026D01*
X142755772Y-98810025D01*
X142760627Y-98806232D01*
X142892037Y-98653992D01*
X142939785Y-98569940D01*
X142990822Y-98520591D01*
X143060440Y-98506668D01*
X143126534Y-98532594D01*
G37*
%TD.AperFunction*%
%TA.AperFunction,Conductor*%
G36*
X149126534Y-98532594D02*
G01*
X149161406Y-98574583D01*
X149181010Y-98612729D01*
X149181016Y-98612738D01*
X149183828Y-98618210D01*
X149187651Y-98623034D01*
X149187654Y-98623038D01*
X149215888Y-98658660D01*
X149308748Y-98775819D01*
X149461901Y-98906163D01*
X149538929Y-98949212D01*
X149539580Y-98949576D01*
X149589286Y-99000269D01*
X149603694Y-99069788D01*
X149578231Y-99136061D01*
X149536485Y-99171226D01*
X149511504Y-99184286D01*
X149485757Y-99197746D01*
X149329024Y-99323763D01*
X149199752Y-99477823D01*
X149196788Y-99483215D01*
X149196785Y-99483219D01*
X149145447Y-99576603D01*
X149102866Y-99654058D01*
X149101005Y-99659925D01*
X149101004Y-99659927D01*
X149096787Y-99673221D01*
X149042056Y-99845755D01*
X149019638Y-100045613D01*
X149036467Y-100246018D01*
X149091901Y-100439338D01*
X149183828Y-100618210D01*
X149187651Y-100623034D01*
X149187654Y-100623038D01*
X149215888Y-100658660D01*
X149308748Y-100775819D01*
X149461901Y-100906163D01*
X149467279Y-100909169D01*
X149467281Y-100909170D01*
X149632077Y-101001271D01*
X149637456Y-101004277D01*
X149643315Y-101006181D01*
X149648713Y-101008539D01*
X149703128Y-101054140D01*
X149724251Y-101121922D01*
X149705375Y-101190363D01*
X149652493Y-101237735D01*
X149598268Y-101250000D01*
X146497643Y-101250000D01*
X146429522Y-101229998D01*
X146383029Y-101176342D01*
X146372925Y-101106068D01*
X146402419Y-101041488D01*
X146440833Y-101011534D01*
X146461151Y-101001271D01*
X146602149Y-100930048D01*
X146760627Y-100806232D01*
X146892037Y-100653992D01*
X146912364Y-100618210D01*
X146988329Y-100484488D01*
X146988331Y-100484484D01*
X146991374Y-100479127D01*
X147045672Y-100315900D01*
X147052909Y-100294145D01*
X147052910Y-100294142D01*
X147054854Y-100288297D01*
X147080060Y-100088772D01*
X147080462Y-100060000D01*
X147060837Y-99859849D01*
X147002710Y-99667321D01*
X146908294Y-99489751D01*
X146823565Y-99385863D01*
X146785081Y-99338676D01*
X146785078Y-99338673D01*
X146781186Y-99333901D01*
X146769188Y-99323975D01*
X146630977Y-99209637D01*
X146630974Y-99209635D01*
X146626227Y-99205708D01*
X146620806Y-99202777D01*
X146620802Y-99202774D01*
X146563028Y-99171536D01*
X146512619Y-99121541D01*
X146497241Y-99052230D01*
X146521777Y-98985608D01*
X146566145Y-98948235D01*
X146602149Y-98930048D01*
X146681388Y-98868140D01*
X146755771Y-98810026D01*
X146755772Y-98810025D01*
X146760627Y-98806232D01*
X146892037Y-98653992D01*
X146939785Y-98569940D01*
X146990822Y-98520591D01*
X147060440Y-98506668D01*
X147126534Y-98532594D01*
X147161406Y-98574583D01*
X147181010Y-98612729D01*
X147181016Y-98612738D01*
X147183828Y-98618210D01*
X147187651Y-98623034D01*
X147187654Y-98623038D01*
X147215888Y-98658660D01*
X147308748Y-98775819D01*
X147461901Y-98906163D01*
X147467279Y-98909169D01*
X147467281Y-98909170D01*
X147525988Y-98941980D01*
X147637456Y-99004277D01*
X147828723Y-99066424D01*
X148028420Y-99090236D01*
X148034555Y-99089764D01*
X148034557Y-99089764D01*
X148222796Y-99075280D01*
X148222800Y-99075279D01*
X148228938Y-99074807D01*
X148281970Y-99060000D01*
X148416696Y-99022384D01*
X148416700Y-99022383D01*
X148422640Y-99020724D01*
X148428144Y-99017944D01*
X148428146Y-99017943D01*
X148596646Y-98932828D01*
X148596648Y-98932827D01*
X148602149Y-98930048D01*
X148681388Y-98868140D01*
X148755771Y-98810026D01*
X148755772Y-98810025D01*
X148760627Y-98806232D01*
X148892037Y-98653992D01*
X148939785Y-98569940D01*
X148990822Y-98520591D01*
X149060440Y-98506668D01*
X149126534Y-98532594D01*
G37*
%TD.AperFunction*%
%TA.AperFunction,Conductor*%
G36*
X148025842Y-94983127D02*
G01*
X148068065Y-95031769D01*
X148084176Y-95064583D01*
X148111068Y-95119355D01*
X148193650Y-95201793D01*
X148298482Y-95253036D01*
X148328973Y-95257484D01*
X148362256Y-95262340D01*
X148362260Y-95262340D01*
X148366782Y-95263000D01*
X148623500Y-95263000D01*
X148691621Y-95283002D01*
X148738114Y-95336658D01*
X148749500Y-95389000D01*
X148749500Y-96135127D01*
X148748261Y-96146223D01*
X148748859Y-96146271D01*
X148748139Y-96155217D01*
X148746158Y-96163973D01*
X148746714Y-96172933D01*
X148749258Y-96213940D01*
X148749500Y-96221742D01*
X148749500Y-96236645D01*
X148750604Y-96244355D01*
X148750841Y-96246008D01*
X148751871Y-96256066D01*
X148754592Y-96299917D01*
X148757641Y-96308362D01*
X148758932Y-96314598D01*
X148760865Y-96322349D01*
X148762646Y-96328438D01*
X148763919Y-96337329D01*
X148767636Y-96345504D01*
X148782108Y-96377336D01*
X148785920Y-96386701D01*
X148797791Y-96419583D01*
X148797793Y-96419586D01*
X148800841Y-96428030D01*
X148806136Y-96435277D01*
X148809129Y-96440907D01*
X148813132Y-96447757D01*
X148816577Y-96453144D01*
X148820294Y-96461320D01*
X148826154Y-96468120D01*
X148826154Y-96468121D01*
X148848981Y-96494613D01*
X148855266Y-96502529D01*
X148859702Y-96508601D01*
X148859708Y-96508608D01*
X148862577Y-96512535D01*
X148872618Y-96522576D01*
X148878976Y-96529423D01*
X148895771Y-96548914D01*
X148909204Y-96564504D01*
X148916733Y-96569384D01*
X148923502Y-96575289D01*
X148923432Y-96575369D01*
X148933794Y-96583752D01*
X149420844Y-97070802D01*
X149454870Y-97133114D01*
X149449805Y-97203929D01*
X149410703Y-97258091D01*
X149329024Y-97323763D01*
X149199752Y-97477823D01*
X149196785Y-97483221D01*
X149196783Y-97483223D01*
X149160632Y-97548982D01*
X149110287Y-97599041D01*
X149040870Y-97613935D01*
X148974421Y-97588935D01*
X148938966Y-97547436D01*
X148911190Y-97495197D01*
X148911189Y-97495195D01*
X148908294Y-97489751D01*
X148817574Y-97378517D01*
X148785081Y-97338676D01*
X148785078Y-97338673D01*
X148781186Y-97333901D01*
X148774638Y-97328484D01*
X148630977Y-97209637D01*
X148630974Y-97209635D01*
X148626227Y-97205708D01*
X148449320Y-97110055D01*
X148306562Y-97065864D01*
X148263090Y-97052407D01*
X148263087Y-97052406D01*
X148257203Y-97050585D01*
X148251078Y-97049941D01*
X148251077Y-97049941D01*
X148063322Y-97030207D01*
X148063321Y-97030207D01*
X148057194Y-97029563D01*
X147932919Y-97040873D01*
X147863267Y-97027128D01*
X147812102Y-96977907D01*
X147795500Y-96915392D01*
X147795500Y-95155757D01*
X147808300Y-95100424D01*
X147841762Y-95031967D01*
X147889647Y-94979551D01*
X147958269Y-94961343D01*
X148025842Y-94983127D01*
G37*
%TD.AperFunction*%
%TA.AperFunction,Conductor*%
G36*
X144215842Y-94983127D02*
G01*
X144258065Y-95031769D01*
X144291603Y-95100077D01*
X144304500Y-95155608D01*
X144304500Y-96588352D01*
X144284498Y-96656473D01*
X144267595Y-96677447D01*
X143933415Y-97011627D01*
X143867928Y-97046301D01*
X143863051Y-97047231D01*
X143856911Y-97047790D01*
X143851001Y-97049529D01*
X143850998Y-97049530D01*
X143760606Y-97076134D01*
X143663982Y-97104572D01*
X143658526Y-97107425D01*
X143658522Y-97107426D01*
X143589869Y-97143317D01*
X143520233Y-97157151D01*
X143454173Y-97131141D01*
X143412661Y-97073545D01*
X143408878Y-97002649D01*
X143442398Y-96942560D01*
X143798589Y-96586370D01*
X143807311Y-96579402D01*
X143806921Y-96578944D01*
X143813758Y-96573125D01*
X143821350Y-96568335D01*
X143854499Y-96530801D01*
X143859845Y-96525114D01*
X143870374Y-96514585D01*
X143876050Y-96507011D01*
X143882432Y-96499173D01*
X143905571Y-96472973D01*
X143911513Y-96466245D01*
X143915328Y-96458119D01*
X143918826Y-96452794D01*
X143922936Y-96445954D01*
X143925988Y-96440378D01*
X143931372Y-96433195D01*
X143946798Y-96392046D01*
X143950725Y-96382726D01*
X143954296Y-96375120D01*
X143969399Y-96342952D01*
X143970780Y-96334082D01*
X143972639Y-96328002D01*
X143974665Y-96320281D01*
X143976031Y-96314068D01*
X143979184Y-96305657D01*
X143982441Y-96261824D01*
X143983595Y-96251777D01*
X143984751Y-96244355D01*
X143984751Y-96244353D01*
X143985500Y-96239544D01*
X143985500Y-96225338D01*
X143985846Y-96216001D01*
X143988612Y-96178774D01*
X143989277Y-96169826D01*
X143987404Y-96161050D01*
X143986793Y-96152093D01*
X143986899Y-96152086D01*
X143985500Y-96138833D01*
X143985500Y-95155757D01*
X143998300Y-95100424D01*
X144031762Y-95031967D01*
X144079647Y-94979551D01*
X144148269Y-94961343D01*
X144215842Y-94983127D01*
G37*
%TD.AperFunction*%
%TA.AperFunction,Conductor*%
G36*
X127558512Y-88903706D02*
G01*
X127588067Y-88941336D01*
X127664220Y-89089514D01*
X127673828Y-89108210D01*
X127677651Y-89113034D01*
X127677654Y-89113038D01*
X127735721Y-89186299D01*
X127798748Y-89265819D01*
X127803442Y-89269814D01*
X127866073Y-89323117D01*
X127951901Y-89396163D01*
X127957279Y-89399169D01*
X127957281Y-89399170D01*
X127994638Y-89420048D01*
X128127456Y-89494277D01*
X128318723Y-89556424D01*
X128518420Y-89580236D01*
X128524555Y-89579764D01*
X128524557Y-89579764D01*
X128712796Y-89565280D01*
X128712800Y-89565279D01*
X128718938Y-89564807D01*
X128775767Y-89548940D01*
X128846756Y-89549886D01*
X128898745Y-89581203D01*
X129155639Y-89838097D01*
X129162611Y-89846823D01*
X129163069Y-89846434D01*
X129168885Y-89853268D01*
X129173676Y-89860861D01*
X129180405Y-89866803D01*
X129180405Y-89866804D01*
X129211218Y-89894017D01*
X129216905Y-89899363D01*
X129227426Y-89909884D01*
X129234998Y-89915559D01*
X129242829Y-89921935D01*
X129275766Y-89951024D01*
X129283893Y-89954840D01*
X129289230Y-89958345D01*
X129296048Y-89962441D01*
X129301631Y-89965498D01*
X129308816Y-89970883D01*
X129317221Y-89974034D01*
X129317223Y-89974035D01*
X129349965Y-89986309D01*
X129359285Y-89990236D01*
X129399059Y-90008910D01*
X129407929Y-90010291D01*
X129414009Y-90012150D01*
X129421730Y-90014176D01*
X129427943Y-90015542D01*
X129436354Y-90018695D01*
X129457244Y-90020247D01*
X129469150Y-90021132D01*
X129535601Y-90046128D01*
X129577990Y-90103081D01*
X129582859Y-90173911D01*
X129579916Y-90184883D01*
X129571994Y-90209856D01*
X129534624Y-90327661D01*
X129532056Y-90335755D01*
X129509638Y-90535613D01*
X129510154Y-90541756D01*
X129524269Y-90709840D01*
X129526467Y-90736018D01*
X129581901Y-90929338D01*
X129584716Y-90934815D01*
X129663185Y-91087500D01*
X129673828Y-91108210D01*
X129677651Y-91113034D01*
X129677654Y-91113038D01*
X129705888Y-91148660D01*
X129798748Y-91265819D01*
X129803442Y-91269814D01*
X129926430Y-91374485D01*
X129951901Y-91396163D01*
X130027179Y-91438234D01*
X130029580Y-91439576D01*
X130079286Y-91490269D01*
X130093694Y-91559788D01*
X130068231Y-91626061D01*
X130026485Y-91661226D01*
X129975757Y-91687746D01*
X129819024Y-91813763D01*
X129689752Y-91967823D01*
X129686786Y-91973219D01*
X129686783Y-91973223D01*
X129650632Y-92038982D01*
X129600287Y-92089041D01*
X129530870Y-92103935D01*
X129464421Y-92078935D01*
X129428966Y-92037436D01*
X129401190Y-91985197D01*
X129401189Y-91985195D01*
X129398294Y-91979751D01*
X129351083Y-91921865D01*
X129275081Y-91828676D01*
X129275078Y-91828673D01*
X129271186Y-91823901D01*
X129264638Y-91818484D01*
X129120977Y-91699637D01*
X129120974Y-91699635D01*
X129116227Y-91695708D01*
X128939320Y-91600055D01*
X128780849Y-91551000D01*
X128753090Y-91542407D01*
X128753087Y-91542406D01*
X128747203Y-91540585D01*
X128741078Y-91539941D01*
X128741077Y-91539941D01*
X128553322Y-91520207D01*
X128553321Y-91520207D01*
X128547194Y-91519563D01*
X128463056Y-91527220D01*
X128353050Y-91537231D01*
X128353047Y-91537232D01*
X128346911Y-91537790D01*
X128341005Y-91539528D01*
X128341001Y-91539529D01*
X128233597Y-91571140D01*
X128153982Y-91594572D01*
X128121548Y-91611528D01*
X128022084Y-91663527D01*
X127975757Y-91687746D01*
X127819024Y-91813763D01*
X127689752Y-91967823D01*
X127686788Y-91973215D01*
X127686785Y-91973219D01*
X127669797Y-92004121D01*
X127592866Y-92144058D01*
X127591470Y-92148457D01*
X127546593Y-92202777D01*
X127478961Y-92224374D01*
X127410389Y-92205978D01*
X127362648Y-92153430D01*
X127350000Y-92098409D01*
X127350000Y-88998930D01*
X127370002Y-88930809D01*
X127423658Y-88884316D01*
X127493932Y-88874212D01*
X127558512Y-88903706D01*
G37*
%TD.AperFunction*%
%TA.AperFunction,Conductor*%
G36*
X131203167Y-91446491D02*
G01*
X131243870Y-91504661D01*
X131246663Y-91575603D01*
X131213559Y-91633982D01*
X131205747Y-91641794D01*
X131143435Y-91675820D01*
X131072620Y-91670755D01*
X131056710Y-91663527D01*
X131053014Y-91661528D01*
X131002611Y-91611528D01*
X130987242Y-91542215D01*
X131011786Y-91475595D01*
X131056145Y-91438235D01*
X131067655Y-91432421D01*
X131137476Y-91419561D01*
X131203167Y-91446491D01*
G37*
%TD.AperFunction*%
%TA.AperFunction,Conductor*%
G36*
X133255033Y-87549811D02*
G01*
X133311868Y-87592358D01*
X133336679Y-87658878D01*
X133337000Y-87667867D01*
X133337000Y-87853218D01*
X133347142Y-87922112D01*
X133398568Y-88026855D01*
X133481150Y-88109293D01*
X133490506Y-88113866D01*
X133490507Y-88113867D01*
X133519235Y-88127909D01*
X133568034Y-88151763D01*
X133620450Y-88199647D01*
X133638657Y-88268270D01*
X133616873Y-88335842D01*
X133568231Y-88378065D01*
X133499923Y-88411603D01*
X133444392Y-88424500D01*
X133418091Y-88424500D01*
X133406995Y-88423261D01*
X133406947Y-88423859D01*
X133398001Y-88423139D01*
X133389245Y-88421158D01*
X133339278Y-88424258D01*
X133331476Y-88424500D01*
X133316573Y-88424500D01*
X133307204Y-88425842D01*
X133297152Y-88426871D01*
X133253301Y-88429592D01*
X133244856Y-88432641D01*
X133238620Y-88433932D01*
X133230869Y-88435865D01*
X133224780Y-88437646D01*
X133215889Y-88438919D01*
X133207713Y-88442636D01*
X133207714Y-88442636D01*
X133175882Y-88457108D01*
X133166517Y-88460920D01*
X133133635Y-88472791D01*
X133133632Y-88472793D01*
X133125188Y-88475841D01*
X133117941Y-88481136D01*
X133112311Y-88484129D01*
X133105461Y-88488132D01*
X133100074Y-88491577D01*
X133091898Y-88495294D01*
X133085098Y-88501154D01*
X133085097Y-88501154D01*
X133058605Y-88523981D01*
X133050689Y-88530266D01*
X133044617Y-88534702D01*
X133044610Y-88534708D01*
X133040683Y-88537577D01*
X133030642Y-88547618D01*
X133023795Y-88553976D01*
X132988714Y-88584204D01*
X132983830Y-88591739D01*
X132977931Y-88598501D01*
X132977851Y-88598431D01*
X132969466Y-88608794D01*
X131791773Y-89786487D01*
X131783047Y-89793459D01*
X131783436Y-89793917D01*
X131776602Y-89799733D01*
X131769009Y-89804524D01*
X131763067Y-89811253D01*
X131763066Y-89811253D01*
X131735853Y-89842066D01*
X131730507Y-89847753D01*
X131719986Y-89858274D01*
X131714311Y-89865846D01*
X131707935Y-89873677D01*
X131678846Y-89906614D01*
X131675030Y-89914741D01*
X131671525Y-89920078D01*
X131667429Y-89926896D01*
X131664372Y-89932479D01*
X131658987Y-89939664D01*
X131655836Y-89948069D01*
X131655835Y-89948071D01*
X131643561Y-89980813D01*
X131639631Y-89990139D01*
X131636098Y-89997663D01*
X131589039Y-90050822D01*
X131520710Y-90070101D01*
X131452805Y-90049378D01*
X131410795Y-90003261D01*
X131401190Y-89985197D01*
X131401189Y-89985195D01*
X131398294Y-89979751D01*
X131379478Y-89956681D01*
X131351927Y-89891249D01*
X131364124Y-89821308D01*
X131388029Y-89787952D01*
X131594779Y-89581203D01*
X131828100Y-89347882D01*
X131836822Y-89340914D01*
X131836432Y-89340456D01*
X131843269Y-89334637D01*
X131850861Y-89329847D01*
X131884010Y-89292313D01*
X131889356Y-89286626D01*
X131899885Y-89276097D01*
X131905561Y-89268523D01*
X131911943Y-89260685D01*
X131935082Y-89234485D01*
X131941024Y-89227757D01*
X131944839Y-89219631D01*
X131948337Y-89214306D01*
X131952447Y-89207466D01*
X131955499Y-89201890D01*
X131960883Y-89194707D01*
X131976309Y-89153558D01*
X131980236Y-89144238D01*
X131987980Y-89127744D01*
X131998910Y-89104464D01*
X132000291Y-89095594D01*
X132002150Y-89089514D01*
X132004176Y-89081793D01*
X132005542Y-89075580D01*
X132008695Y-89067169D01*
X132011952Y-89023336D01*
X132013106Y-89013289D01*
X132014262Y-89005867D01*
X132014262Y-89005865D01*
X132015011Y-89001056D01*
X132015011Y-88986850D01*
X132015357Y-88977513D01*
X132016779Y-88958381D01*
X132018788Y-88931338D01*
X132016915Y-88922562D01*
X132016304Y-88913605D01*
X132016410Y-88913598D01*
X132015011Y-88900345D01*
X132015011Y-88737855D01*
X132035013Y-88669734D01*
X132051916Y-88648760D01*
X133121905Y-87578772D01*
X133184217Y-87544746D01*
X133255033Y-87549811D01*
G37*
%TD.AperFunction*%
%TA.AperFunction,Conductor*%
G36*
X162379462Y-82045991D02*
G01*
X162400436Y-82062894D01*
X162527083Y-82189541D01*
X162561109Y-82251853D01*
X162558089Y-82316737D01*
X162553918Y-82329883D01*
X162553917Y-82329890D01*
X162552056Y-82335755D01*
X162529638Y-82535613D01*
X162530154Y-82541756D01*
X162545913Y-82729415D01*
X162546467Y-82736018D01*
X162548166Y-82741943D01*
X162597296Y-82913281D01*
X162596845Y-82984276D01*
X162558083Y-83043757D01*
X162493317Y-83072840D01*
X162476177Y-83074011D01*
X161268659Y-83074011D01*
X161200538Y-83054009D01*
X161179564Y-83037106D01*
X161038872Y-82896414D01*
X161031900Y-82887688D01*
X161031442Y-82888077D01*
X161025626Y-82881243D01*
X161020835Y-82873650D01*
X160983293Y-82840494D01*
X160977606Y-82835148D01*
X160967085Y-82824627D01*
X160959513Y-82818952D01*
X160951682Y-82812576D01*
X160925474Y-82789430D01*
X160925475Y-82789430D01*
X160918745Y-82783487D01*
X160910618Y-82779671D01*
X160905281Y-82776166D01*
X160898463Y-82772070D01*
X160892880Y-82769013D01*
X160885695Y-82763628D01*
X160877290Y-82760477D01*
X160877288Y-82760476D01*
X160844546Y-82748202D01*
X160835226Y-82744275D01*
X160830259Y-82741943D01*
X160795452Y-82725601D01*
X160786582Y-82724220D01*
X160780502Y-82722361D01*
X160772781Y-82720335D01*
X160766568Y-82718969D01*
X160758157Y-82715816D01*
X160731120Y-82713807D01*
X160714324Y-82712559D01*
X160704277Y-82711405D01*
X160696855Y-82710249D01*
X160696853Y-82710249D01*
X160692044Y-82709500D01*
X160677838Y-82709500D01*
X160668501Y-82709154D01*
X160654329Y-82708101D01*
X160622326Y-82705723D01*
X160613550Y-82707596D01*
X160604593Y-82708207D01*
X160604586Y-82708101D01*
X160591333Y-82709500D01*
X158655757Y-82709500D01*
X158600424Y-82696700D01*
X158577073Y-82685286D01*
X158531966Y-82663237D01*
X158479551Y-82615353D01*
X158461343Y-82546731D01*
X158483127Y-82479158D01*
X158531769Y-82436935D01*
X158600077Y-82403397D01*
X158655608Y-82390500D01*
X160587627Y-82390500D01*
X160598723Y-82391739D01*
X160598771Y-82391141D01*
X160607717Y-82391861D01*
X160616473Y-82393842D01*
X160666441Y-82390742D01*
X160674242Y-82390500D01*
X160689145Y-82390500D01*
X160698514Y-82389158D01*
X160708566Y-82388129D01*
X160752417Y-82385408D01*
X160760862Y-82382359D01*
X160767098Y-82381068D01*
X160774849Y-82379135D01*
X160780938Y-82377354D01*
X160789829Y-82376081D01*
X160801751Y-82370660D01*
X160829836Y-82357892D01*
X160839201Y-82354080D01*
X160872083Y-82342209D01*
X160872086Y-82342207D01*
X160880530Y-82339159D01*
X160887777Y-82333864D01*
X160893407Y-82330871D01*
X160900257Y-82326868D01*
X160905644Y-82323423D01*
X160913820Y-82319706D01*
X160920621Y-82313846D01*
X160947113Y-82291019D01*
X160955029Y-82284734D01*
X160961101Y-82280298D01*
X160961108Y-82280292D01*
X160965035Y-82277423D01*
X160975076Y-82267382D01*
X160981923Y-82261024D01*
X161010202Y-82236657D01*
X161017004Y-82230796D01*
X161021888Y-82223261D01*
X161027787Y-82216499D01*
X161027867Y-82216569D01*
X161036252Y-82206206D01*
X161179564Y-82062894D01*
X161241876Y-82028868D01*
X161268659Y-82025989D01*
X162311341Y-82025989D01*
X162379462Y-82045991D01*
G37*
%TD.AperFunction*%
%TA.AperFunction,Conductor*%
G36*
X130772983Y-74045991D02*
G01*
X130793957Y-74062893D01*
X131059357Y-74328292D01*
X131093382Y-74390605D01*
X131096262Y-74417388D01*
X131096262Y-74829430D01*
X131095023Y-74840526D01*
X131095621Y-74840574D01*
X131094901Y-74849520D01*
X131092920Y-74858276D01*
X131094077Y-74876929D01*
X131096020Y-74908243D01*
X131096262Y-74916045D01*
X131096262Y-74930948D01*
X131096896Y-74935378D01*
X131097200Y-74939640D01*
X131082090Y-75009010D01*
X131031873Y-75059198D01*
X130962182Y-75074247D01*
X130921338Y-75071212D01*
X130912562Y-75073085D01*
X130903605Y-75073696D01*
X130903598Y-75073590D01*
X130890345Y-75074989D01*
X129789637Y-75074989D01*
X129721516Y-75054987D01*
X129700542Y-75038084D01*
X129573895Y-74911437D01*
X129539869Y-74849125D01*
X129543011Y-74790488D01*
X129541543Y-74790154D01*
X129542907Y-74784150D01*
X129544854Y-74778297D01*
X129570060Y-74578772D01*
X129570462Y-74550000D01*
X129550837Y-74349849D01*
X129502095Y-74188406D01*
X129501554Y-74117412D01*
X129539482Y-74057396D01*
X129603836Y-74027412D01*
X129622717Y-74025989D01*
X130704862Y-74025989D01*
X130772983Y-74045991D01*
G37*
%TD.AperFunction*%
%TA.AperFunction,Conductor*%
G36*
X131672618Y-72031790D02*
G01*
X131710245Y-72057704D01*
X132520095Y-72867554D01*
X132554121Y-72929866D01*
X132557000Y-72956649D01*
X132557000Y-73160352D01*
X132536998Y-73228473D01*
X132483342Y-73274966D01*
X132413068Y-73285070D01*
X132348488Y-73255576D01*
X132341905Y-73249447D01*
X131594537Y-72502079D01*
X131560511Y-72439767D01*
X131558233Y-72425279D01*
X131555770Y-72400159D01*
X131550837Y-72349849D01*
X131500528Y-72183216D01*
X131499987Y-72112222D01*
X131537915Y-72052206D01*
X131602269Y-72022222D01*
X131672618Y-72031790D01*
G37*
%TD.AperFunction*%
%TA.AperFunction,Conductor*%
G36*
X149126534Y-67512594D02*
G01*
X149161406Y-67554583D01*
X149181010Y-67592729D01*
X149181013Y-67592733D01*
X149183828Y-67598210D01*
X149187651Y-67603034D01*
X149187654Y-67603038D01*
X149245721Y-67676299D01*
X149308748Y-67755819D01*
X149313442Y-67759814D01*
X149390395Y-67825306D01*
X149461901Y-67886163D01*
X149626312Y-67978049D01*
X149676016Y-68028740D01*
X149690425Y-68098259D01*
X149664961Y-68164532D01*
X149653935Y-68177130D01*
X148936414Y-68894651D01*
X148927688Y-68901623D01*
X148928077Y-68902081D01*
X148921243Y-68907897D01*
X148913650Y-68912688D01*
X148881942Y-68948591D01*
X148880494Y-68950230D01*
X148875148Y-68955917D01*
X148864627Y-68966438D01*
X148858952Y-68974010D01*
X148852576Y-68981841D01*
X148823487Y-69014778D01*
X148819671Y-69022905D01*
X148816166Y-69028242D01*
X148812070Y-69035060D01*
X148809013Y-69040643D01*
X148803628Y-69047828D01*
X148800477Y-69056233D01*
X148800476Y-69056235D01*
X148788202Y-69088977D01*
X148784275Y-69098297D01*
X148765601Y-69138071D01*
X148764220Y-69146941D01*
X148762361Y-69153021D01*
X148760335Y-69160742D01*
X148758969Y-69166955D01*
X148755816Y-69175366D01*
X148755151Y-69184321D01*
X148752559Y-69219199D01*
X148751405Y-69229245D01*
X148749500Y-69241479D01*
X148749500Y-69255685D01*
X148749154Y-69265022D01*
X148745723Y-69311197D01*
X148747596Y-69319973D01*
X148748207Y-69328930D01*
X148748101Y-69328937D01*
X148749500Y-69342190D01*
X148749500Y-69711000D01*
X148729498Y-69779121D01*
X148675842Y-69825614D01*
X148623500Y-69837000D01*
X148366782Y-69837000D01*
X148362232Y-69837670D01*
X148362229Y-69837670D01*
X148307574Y-69845716D01*
X148307573Y-69845716D01*
X148297888Y-69847142D01*
X148247992Y-69871640D01*
X148202493Y-69893978D01*
X148202491Y-69893979D01*
X148193145Y-69898568D01*
X148185787Y-69905938D01*
X148185788Y-69905938D01*
X148128721Y-69963105D01*
X148110707Y-69981150D01*
X148106134Y-69990506D01*
X148106133Y-69990507D01*
X148068238Y-70068033D01*
X148020353Y-70120450D01*
X147951730Y-70138657D01*
X147884158Y-70116873D01*
X147841935Y-70068231D01*
X147808397Y-69999923D01*
X147795500Y-69944392D01*
X147795500Y-68511649D01*
X147815502Y-68443528D01*
X147832405Y-68422553D01*
X148166640Y-68088319D01*
X148229201Y-68055750D01*
X148228938Y-68054807D01*
X148233411Y-68053558D01*
X148234873Y-68053150D01*
X148234878Y-68053149D01*
X148416696Y-68002384D01*
X148416700Y-68002383D01*
X148422640Y-68000724D01*
X148428144Y-67997944D01*
X148428146Y-67997943D01*
X148596646Y-67912828D01*
X148596648Y-67912827D01*
X148602149Y-67910048D01*
X148760627Y-67786232D01*
X148892037Y-67633992D01*
X148939785Y-67549940D01*
X148990822Y-67500591D01*
X149060440Y-67486668D01*
X149126534Y-67512594D01*
G37*
%TD.AperFunction*%
%TA.AperFunction,Conductor*%
G36*
X139428003Y-68984533D02*
G01*
X139448978Y-69001436D01*
X140088684Y-69641143D01*
X140122709Y-69703455D01*
X140117644Y-69774271D01*
X140075097Y-69831106D01*
X140044003Y-69846978D01*
X140042888Y-69847142D01*
X140034100Y-69851457D01*
X140034096Y-69851458D01*
X139947493Y-69893978D01*
X139947491Y-69893979D01*
X139938145Y-69898568D01*
X139930787Y-69905938D01*
X139930788Y-69905938D01*
X139873721Y-69963105D01*
X139855707Y-69981150D01*
X139851134Y-69990506D01*
X139851133Y-69990507D01*
X139813238Y-70068033D01*
X139765353Y-70120450D01*
X139696730Y-70138657D01*
X139629158Y-70116873D01*
X139586935Y-70068231D01*
X139553397Y-69999923D01*
X139540500Y-69944392D01*
X139540500Y-69918809D01*
X139541739Y-69907713D01*
X139541141Y-69907665D01*
X139541861Y-69898719D01*
X139543842Y-69889963D01*
X139540742Y-69839990D01*
X139540500Y-69832189D01*
X139540500Y-69817291D01*
X139539159Y-69807928D01*
X139538129Y-69797870D01*
X139535965Y-69762978D01*
X139535965Y-69762976D01*
X139535409Y-69754020D01*
X139532362Y-69745580D01*
X139531068Y-69739333D01*
X139529147Y-69731627D01*
X139527353Y-69725492D01*
X139526081Y-69716607D01*
X139514503Y-69691141D01*
X139507893Y-69676604D01*
X139504080Y-69667238D01*
X139492206Y-69634347D01*
X139489159Y-69625907D01*
X139483865Y-69618661D01*
X139480868Y-69613024D01*
X139476863Y-69606171D01*
X139473423Y-69600792D01*
X139469706Y-69592616D01*
X139441022Y-69559326D01*
X139434745Y-69551423D01*
X139427424Y-69541401D01*
X139417376Y-69531353D01*
X139411018Y-69524506D01*
X139386657Y-69496234D01*
X139380796Y-69489432D01*
X139373261Y-69484548D01*
X139366499Y-69478649D01*
X139366569Y-69478569D01*
X139356209Y-69470186D01*
X139065649Y-69179626D01*
X139031623Y-69117314D01*
X139036688Y-69046499D01*
X139079235Y-68989663D01*
X139145755Y-68964852D01*
X139154744Y-68964531D01*
X139359882Y-68964531D01*
X139428003Y-68984533D01*
G37*
%TD.AperFunction*%
%TA.AperFunction,Conductor*%
G36*
X137126534Y-65512594D02*
G01*
X137161406Y-65554583D01*
X137181010Y-65592729D01*
X137181013Y-65592733D01*
X137183828Y-65598210D01*
X137187651Y-65603034D01*
X137187654Y-65603038D01*
X137275711Y-65714137D01*
X137308748Y-65755819D01*
X137313442Y-65759814D01*
X137430320Y-65859285D01*
X137461901Y-65886163D01*
X137537179Y-65928234D01*
X137539580Y-65929576D01*
X137589286Y-65980269D01*
X137603694Y-66049788D01*
X137578231Y-66116061D01*
X137536485Y-66151226D01*
X137485757Y-66177746D01*
X137329024Y-66303763D01*
X137199752Y-66457823D01*
X137196788Y-66463215D01*
X137196785Y-66463219D01*
X137161482Y-66527436D01*
X137102866Y-66634058D01*
X137101005Y-66639925D01*
X137101004Y-66639927D01*
X137049499Y-66802293D01*
X137042056Y-66825755D01*
X137019638Y-67025613D01*
X137036467Y-67226018D01*
X137091901Y-67419338D01*
X137126504Y-67486668D01*
X137174220Y-67579514D01*
X137183828Y-67598210D01*
X137187651Y-67603034D01*
X137187654Y-67603038D01*
X137245721Y-67676299D01*
X137308748Y-67755819D01*
X137313442Y-67759814D01*
X137390395Y-67825306D01*
X137461901Y-67886163D01*
X137467279Y-67889169D01*
X137467281Y-67889170D01*
X137524861Y-67921350D01*
X137637456Y-67984277D01*
X137643316Y-67986181D01*
X137657184Y-67990687D01*
X137715790Y-68030760D01*
X137743427Y-68096157D01*
X137731320Y-68166114D01*
X137683314Y-68218420D01*
X137618248Y-68236520D01*
X136557645Y-68236520D01*
X136489524Y-68216518D01*
X136468550Y-68199615D01*
X135561916Y-67292981D01*
X135527890Y-67230669D01*
X135525011Y-67203886D01*
X135525011Y-66289637D01*
X135545013Y-66221516D01*
X135561916Y-66200542D01*
X135689071Y-66073387D01*
X135751383Y-66039361D01*
X135817097Y-66042647D01*
X135822865Y-66044521D01*
X135822869Y-66044522D01*
X135828723Y-66046424D01*
X135834833Y-66047153D01*
X135834835Y-66047153D01*
X135899026Y-66054807D01*
X136028420Y-66070236D01*
X136034555Y-66069764D01*
X136034557Y-66069764D01*
X136222796Y-66055280D01*
X136222800Y-66055279D01*
X136228938Y-66054807D01*
X136284259Y-66039361D01*
X136416696Y-66002384D01*
X136416700Y-66002383D01*
X136422640Y-66000724D01*
X136428144Y-65997944D01*
X136428146Y-65997943D01*
X136596646Y-65912828D01*
X136596648Y-65912827D01*
X136602149Y-65910048D01*
X136760627Y-65786232D01*
X136864759Y-65665594D01*
X136888008Y-65638660D01*
X136888009Y-65638658D01*
X136892037Y-65633992D01*
X136939785Y-65549940D01*
X136990822Y-65500591D01*
X137060440Y-65486668D01*
X137126534Y-65512594D01*
G37*
%TD.AperFunction*%
%TA.AperFunction,Conductor*%
G36*
X151667817Y-63870002D02*
G01*
X151714310Y-63923658D01*
X151724414Y-63993932D01*
X151694920Y-64058512D01*
X151658073Y-64087661D01*
X151485757Y-64177746D01*
X151329024Y-64303763D01*
X151199752Y-64457823D01*
X151196788Y-64463215D01*
X151196785Y-64463219D01*
X151176562Y-64500005D01*
X151102866Y-64634058D01*
X151101005Y-64639925D01*
X151101004Y-64639927D01*
X151049499Y-64802293D01*
X151042056Y-64825755D01*
X151019638Y-65025613D01*
X151036467Y-65226018D01*
X151038165Y-65231940D01*
X151038166Y-65231943D01*
X151050563Y-65275178D01*
X151050112Y-65346173D01*
X151018539Y-65399003D01*
X150761903Y-65655639D01*
X150753177Y-65662611D01*
X150753566Y-65663069D01*
X150746732Y-65668885D01*
X150739139Y-65673676D01*
X150733197Y-65680405D01*
X150733196Y-65680405D01*
X150705983Y-65711218D01*
X150700637Y-65716905D01*
X150690116Y-65727426D01*
X150684441Y-65734998D01*
X150678065Y-65742829D01*
X150648976Y-65775766D01*
X150645160Y-65783893D01*
X150641655Y-65789230D01*
X150637559Y-65796048D01*
X150634502Y-65801631D01*
X150629117Y-65808816D01*
X150625966Y-65817221D01*
X150625965Y-65817223D01*
X150613691Y-65849965D01*
X150609764Y-65859285D01*
X150591090Y-65899059D01*
X150589709Y-65907929D01*
X150587850Y-65914009D01*
X150585824Y-65921730D01*
X150584458Y-65927943D01*
X150581305Y-65936354D01*
X150580640Y-65945309D01*
X150578901Y-65968708D01*
X150553906Y-66035160D01*
X150496953Y-66077549D01*
X150426123Y-66082418D01*
X150415988Y-66079737D01*
X150263090Y-66032407D01*
X150263087Y-66032406D01*
X150257203Y-66030585D01*
X150251078Y-66029941D01*
X150251077Y-66029941D01*
X150063322Y-66010207D01*
X150063321Y-66010207D01*
X150057194Y-66009563D01*
X149973056Y-66017220D01*
X149863050Y-66027231D01*
X149863047Y-66027232D01*
X149856911Y-66027790D01*
X149851005Y-66029528D01*
X149851001Y-66029529D01*
X149721831Y-66067546D01*
X149663982Y-66084572D01*
X149658522Y-66087426D01*
X149658523Y-66087426D01*
X149536384Y-66151279D01*
X149485757Y-66177746D01*
X149329024Y-66303763D01*
X149199752Y-66457823D01*
X149196786Y-66463219D01*
X149196783Y-66463223D01*
X149160632Y-66528982D01*
X149110287Y-66579041D01*
X149040870Y-66593935D01*
X148974421Y-66568935D01*
X148938966Y-66527436D01*
X148911190Y-66475197D01*
X148911189Y-66475195D01*
X148908294Y-66469751D01*
X148799526Y-66336388D01*
X148785081Y-66318676D01*
X148785078Y-66318673D01*
X148781186Y-66313901D01*
X148774638Y-66308484D01*
X148630977Y-66189637D01*
X148630974Y-66189635D01*
X148626227Y-66185708D01*
X148620807Y-66182778D01*
X148620802Y-66182774D01*
X148563028Y-66151536D01*
X148512619Y-66101541D01*
X148497241Y-66032230D01*
X148521777Y-65965608D01*
X148566145Y-65928235D01*
X148602149Y-65910048D01*
X148760627Y-65786232D01*
X148864759Y-65665594D01*
X148888008Y-65638660D01*
X148888009Y-65638658D01*
X148892037Y-65633992D01*
X148912364Y-65598210D01*
X148988329Y-65464488D01*
X148988331Y-65464484D01*
X148991374Y-65459127D01*
X149028948Y-65346173D01*
X149052909Y-65274145D01*
X149052910Y-65274142D01*
X149054854Y-65268297D01*
X149080060Y-65068772D01*
X149080462Y-65040000D01*
X149060837Y-64839849D01*
X149002710Y-64647321D01*
X148938966Y-64527436D01*
X148911190Y-64475197D01*
X148911189Y-64475195D01*
X148908294Y-64469751D01*
X148848198Y-64396066D01*
X148785081Y-64318676D01*
X148785078Y-64318673D01*
X148781186Y-64313901D01*
X148774638Y-64308484D01*
X148630977Y-64189637D01*
X148630974Y-64189635D01*
X148626227Y-64185708D01*
X148449320Y-64090055D01*
X148449585Y-64089564D01*
X148397718Y-64047319D01*
X148375650Y-63979840D01*
X148393566Y-63911141D01*
X148445780Y-63863035D01*
X148501591Y-63850000D01*
X151599696Y-63850000D01*
X151667817Y-63870002D01*
G37*
%TD.AperFunction*%
%TD*%
M02*
