%TF.GenerationSoftware,KiCad,Pcbnew,(6.0.2)*%
%TF.CreationDate,2026-01-28T07:44:18-08:00*%
%TF.ProjectId,i386sx-socket,69333836-7378-42d7-936f-636b65742e6b,1.0*%
%TF.SameCoordinates,Original*%
%TF.FileFunction,Soldermask,Top*%
%TF.FilePolarity,Negative*%
%FSLAX46Y46*%
G04 Gerber Fmt 4.6, Leading zero omitted, Abs format (unit mm)*
G04 Created by KiCad (PCBNEW (6.0.2)) date 2026-01-28 07:44:18*
%MOMM*%
%LPD*%
G01*
G04 APERTURE LIST*
%ADD10R,0.380000X2.500000*%
%ADD11R,2.500000X0.380000*%
%ADD12R,1.350000X1.350000*%
%ADD13O,1.350000X1.350000*%
G04 APERTURE END LIST*
D10*
%TO.C,U1*%
X138430000Y-71437500D03*
X139065000Y-71437500D03*
X139700000Y-71437500D03*
X140335000Y-71437500D03*
X140970000Y-71437500D03*
X141605000Y-71437500D03*
X142240000Y-71437500D03*
X142875000Y-71437500D03*
X143510000Y-71437500D03*
X144145000Y-71437500D03*
X144780000Y-71437500D03*
X145415000Y-71437500D03*
X146050000Y-71437500D03*
X146685000Y-71437500D03*
X147320000Y-71437500D03*
X147955000Y-71437500D03*
X148590000Y-71437500D03*
X149225000Y-71437500D03*
X149860000Y-71437500D03*
X150495000Y-71437500D03*
X151130000Y-71437500D03*
X151765000Y-71437500D03*
X152400000Y-71437500D03*
X153035000Y-71437500D03*
X153670000Y-71437500D03*
D11*
X157162500Y-74930000D03*
X157162500Y-75565000D03*
X157162500Y-76200000D03*
X157162500Y-76835000D03*
X157162500Y-77470000D03*
X157162500Y-78105000D03*
X157162500Y-78740000D03*
X157162500Y-79375000D03*
X157162500Y-80010000D03*
X157162500Y-80645000D03*
X157162500Y-81280000D03*
X157162500Y-81915000D03*
X157162500Y-82550000D03*
X157162500Y-83185000D03*
X157162500Y-83820000D03*
X157162500Y-84455000D03*
X157162500Y-85090000D03*
X157162500Y-85725000D03*
X157162500Y-86360000D03*
X157162500Y-86995000D03*
X157162500Y-87630000D03*
X157162500Y-88265000D03*
X157162500Y-88900000D03*
X157162500Y-89535000D03*
X157162500Y-90170000D03*
D10*
X153670000Y-93662500D03*
X153035000Y-93662500D03*
X152400000Y-93662500D03*
X151765000Y-93662500D03*
X151130000Y-93662500D03*
X150495000Y-93662500D03*
X149860000Y-93662500D03*
X149225000Y-93662500D03*
X148590000Y-93662500D03*
X147955000Y-93662500D03*
X147320000Y-93662500D03*
X146685000Y-93662500D03*
X146050000Y-93662500D03*
X145415000Y-93662500D03*
X144780000Y-93662500D03*
X144145000Y-93662500D03*
X143510000Y-93662500D03*
X142875000Y-93662500D03*
X142240000Y-93662500D03*
X141605000Y-93662500D03*
X140970000Y-93662500D03*
X140335000Y-93662500D03*
X139700000Y-93662500D03*
X139065000Y-93662500D03*
X138430000Y-93662500D03*
D11*
X134937500Y-90170000D03*
X134937500Y-89535000D03*
X134937500Y-88900000D03*
X134937500Y-88265000D03*
X134937500Y-87630000D03*
X134937500Y-86995000D03*
X134937500Y-86360000D03*
X134937500Y-85725000D03*
X134937500Y-85090000D03*
X134937500Y-84455000D03*
X134937500Y-83820000D03*
X134937500Y-83185000D03*
X134937500Y-82550000D03*
X134937500Y-81915000D03*
X134937500Y-81280000D03*
X134937500Y-80645000D03*
X134937500Y-80010000D03*
X134937500Y-79375000D03*
X134937500Y-78740000D03*
X134937500Y-78105000D03*
X134937500Y-77470000D03*
X134937500Y-76835000D03*
X134937500Y-76200000D03*
X134937500Y-75565000D03*
X134937500Y-74930000D03*
%TD*%
D12*
%TO.C,J4*%
X158050000Y-67040000D03*
D13*
X158050000Y-65040000D03*
X156050000Y-67040000D03*
X156050000Y-65040000D03*
X154050000Y-67040000D03*
X154050000Y-65040000D03*
X152050000Y-67040000D03*
X152050000Y-65040000D03*
X150050000Y-67040000D03*
X150050000Y-65040000D03*
X148050000Y-67040000D03*
X148050000Y-65040000D03*
X146050000Y-67040000D03*
X146050000Y-65040000D03*
X144050000Y-67040000D03*
X144050000Y-65040000D03*
X142050000Y-67040000D03*
X142050000Y-65040000D03*
X140050000Y-67040000D03*
X140050000Y-65040000D03*
X138050000Y-67040000D03*
X138050000Y-65040000D03*
X136050000Y-67040000D03*
X136050000Y-65040000D03*
X134050000Y-67040000D03*
X134050000Y-65040000D03*
%TD*%
D12*
%TO.C,J3*%
X161560000Y-94550000D03*
D13*
X163560000Y-94550000D03*
X161560000Y-92550000D03*
X163560000Y-92550000D03*
X161560000Y-90550000D03*
X163560000Y-90550000D03*
X161560000Y-88550000D03*
X163560000Y-88550000D03*
X161560000Y-86550000D03*
X163560000Y-86550000D03*
X161560000Y-84550000D03*
X163560000Y-84550000D03*
X161560000Y-82550000D03*
X163560000Y-82550000D03*
X161560000Y-80550000D03*
X163560000Y-80550000D03*
X161560000Y-78550000D03*
X163560000Y-78550000D03*
X161560000Y-76550000D03*
X163560000Y-76550000D03*
X161560000Y-74550000D03*
X163560000Y-74550000D03*
X161560000Y-72550000D03*
X163560000Y-72550000D03*
X161560000Y-70550000D03*
X163560000Y-70550000D03*
%TD*%
%TO.C,J2*%
X158050000Y-100060000D03*
X158050000Y-98060000D03*
X156050000Y-100060000D03*
X156050000Y-98060000D03*
X154050000Y-100060000D03*
X154050000Y-98060000D03*
X152050000Y-100060000D03*
X152050000Y-98060000D03*
X150050000Y-100060000D03*
X150050000Y-98060000D03*
X148050000Y-100060000D03*
X148050000Y-98060000D03*
X146050000Y-100060000D03*
X146050000Y-98060000D03*
X144050000Y-100060000D03*
X144050000Y-98060000D03*
X142050000Y-100060000D03*
X142050000Y-98060000D03*
X140050000Y-100060000D03*
X140050000Y-98060000D03*
X138050000Y-100060000D03*
X138050000Y-98060000D03*
X136050000Y-100060000D03*
X136050000Y-98060000D03*
X134050000Y-100060000D03*
D12*
X134050000Y-98060000D03*
%TD*%
%TO.C,J1*%
X130540000Y-70550000D03*
D13*
X128540000Y-70550000D03*
X130540000Y-72550000D03*
X128540000Y-72550000D03*
X130540000Y-74550000D03*
X128540000Y-74550000D03*
X130540000Y-76550000D03*
X128540000Y-76550000D03*
X130540000Y-78550000D03*
X128540000Y-78550000D03*
X130540000Y-80550000D03*
X128540000Y-80550000D03*
X130540000Y-82550000D03*
X128540000Y-82550000D03*
X130540000Y-84550000D03*
X128540000Y-84550000D03*
X130540000Y-86550000D03*
X128540000Y-86550000D03*
X130540000Y-88550000D03*
X128540000Y-88550000D03*
X130540000Y-90550000D03*
X128540000Y-90550000D03*
X130540000Y-92550000D03*
X128540000Y-92550000D03*
X130540000Y-94550000D03*
X128540000Y-94550000D03*
%TD*%
M02*
